<svg width="746" height="475" viewBox="0 0 746 475" fill="none" xmlns="http://www.w3.org/2000/svg">
<g opacity="0.1">
<path d="M686.161 454.699C686.822 437.423 685.503 418.984 675.387 404.964C666.14 392.153 651.078 385.11 638.866 375.085C618.049 357.995 605.921 332.459 598.199 306.657C590.477 280.856 586.511 254.029 578.422 228.339C565.656 187.8 542.124 150.121 508.692 123.877C475.26 97.6331 431.621 83.5729 389.491 89.184C353.377 93.9932 320.47 112.465 291.007 133.897C261.544 155.328 234.496 180.053 204.039 200.047C162.007 227.641 113.79 246.033 75.737 278.897C19.2971 327.64 -8.42509 407.384 5.32601 480.639H683.937C685.081 472.032 685.83 463.374 686.161 454.699Z" fill="#C634A0"/>
</g>
<path d="M236.118 80.3789C235.144 85.0198 232.48 88.6476 229.075 89.9764C232.48 91.3052 235.144 94.933 236.118 99.5739C237.094 94.933 239.756 91.3052 243.161 89.9764C239.756 88.6476 237.093 85.0187 236.118 80.3789Z" fill="#5893D4"/>
<path d="M262.166 119.877C261.192 124.518 258.528 128.146 255.123 129.474C258.528 130.803 261.192 134.431 262.166 139.072C263.142 134.431 265.804 130.803 269.209 129.474C265.804 128.147 263.142 124.518 262.166 119.877Z" fill="#5893D4"/>
<path d="M41.3532 210.045C40.3786 214.686 37.7155 218.314 34.3099 219.642C37.7155 220.971 40.3786 224.599 41.3532 229.24C42.3278 224.599 44.9909 220.971 48.3965 219.642C44.9909 218.314 42.3278 214.686 41.3532 210.045Z" fill="#5893D4"/>
<g opacity="0.3">
<path d="M318.752 326.266C326.069 326.266 332.001 320.335 332.001 313.018C332.001 305.701 326.069 299.77 318.752 299.77C311.435 299.77 305.504 305.701 305.504 313.018C305.504 320.335 311.435 326.266 318.752 326.266Z" fill="url(#paint0_linear_625_24057)"/>
<path d="M275.153 251.485C279.835 251.485 283.632 247.689 283.632 243.006C283.632 238.323 279.835 234.527 275.153 234.527C270.47 234.527 266.674 238.323 266.674 243.006C266.674 247.689 270.47 251.485 275.153 251.485Z" fill="url(#paint1_linear_625_24057)"/>
<path d="M53.8228 58.4829C53.8228 61.4793 51.3929 63.9092 48.3965 63.9092C45.399 63.9092 42.9702 61.4793 42.9702 58.4829C42.9702 55.4865 45.4001 53.0566 48.3965 53.0566C51.3929 53.0555 53.8228 55.4854 53.8228 58.4829Z" fill="url(#paint2_linear_625_24057)"/>
</g>
<path opacity="0.1" d="M218.449 203.595H412.596C412.596 203.595 386.629 190.741 368.513 185.676C350.396 180.612 344.331 158.303 322.316 155.292C300.302 152.283 286.99 164.252 272.799 176.327C258.607 188.403 230.828 179.444 218.449 203.595Z" fill="#C634A0"/>
<g opacity="0.1">
<path d="M468.052 118.159C475.686 116.747 483.527 117.486 491.29 117.547C503.32 117.643 515.524 116.048 526.571 111.283C538.405 106.179 548.462 97.6592 560.04 91.9975C572.553 85.8782 586.996 83.2514 600.646 86.03C615.382 89.0286 628.366 98.0992 638.376 109.321C645.459 117.261 651.193 126.258 656.317 135.609H441.587C447.848 126.75 457.36 120.135 468.052 118.159Z" fill="#C634A0"/>
</g>
<path d="M517.654 437.344C523.756 397.135 545.593 359.897 574.131 332.838C602.668 305.779 637.508 288.305 673.079 277.811C696.139 339.842 685.738 417.93 646.886 474.436C645.434 476.548 643.93 478.635 642.382 480.685H516.679C515.321 466.359 515.46 451.804 517.654 437.344Z" fill="url(#paint3_linear_625_24057)"/>
<path d="M156.026 437.344C149.924 397.135 128.087 359.897 99.5498 332.838C71.0125 305.779 36.1722 288.305 0.601467 277.811C-22.4589 339.842 -12.0562 417.93 26.7947 474.436C28.2467 476.548 29.7504 478.635 31.2981 480.685H157.003C158.359 466.359 158.22 451.804 156.026 437.344Z" fill="url(#paint4_linear_625_24057)"/>
<path d="M565.972 475.409C585.933 419.86 577.483 352.576 544.697 305.992C517.386 322.522 492.211 344.701 474.384 373.478C456.557 402.255 446.537 438.038 450.267 472.847C450.549 475.477 450.924 478.087 451.354 480.682H563.955C564.659 478.935 565.337 477.178 565.972 475.409Z" fill="url(#paint5_linear_625_24057)"/>
<path d="M590.248 460.916C571.364 453.896 550.447 456.417 530.423 454.199C509.086 451.836 488.393 443.889 470.96 431.361C439.446 408.713 417.611 371.127 380.552 359.606C362.34 353.943 342.64 355.508 323.942 359.269C306.372 362.803 288.965 368.328 273.879 378.002C236.284 402.108 218.806 447.452 189.044 480.683H619.918C611.125 472.358 601.522 465.107 590.248 460.916Z" fill="url(#paint6_linear_625_24057)"/>
<path d="M396.799 454.036C365.332 443.921 330.125 458.162 298.362 449.019C266.864 439.951 246.385 410.556 220.63 390.283C189.334 365.651 148.427 354.196 108.691 356.889C92.6945 357.973 76.6411 361.323 62.4357 368.758C45.235 377.761 31.507 392.347 20.496 408.336C8.31134 426.031 -0.933058 445.745 -6.74436 466.428C-8.05226 471.082 -9.17205 475.867 -9.91235 480.683H435.656C424.57 468.933 412.017 458.928 396.799 454.036Z" fill="url(#paint7_linear_625_24057)"/>
<path d="M412.632 440.999C409.302 428.31 401.801 417.176 394.262 406.44C393.675 405.605 392.99 404.704 391.988 404.507C391.321 404.376 390.639 404.588 389.997 404.813C376.462 409.531 365.292 420.599 360.451 434.09C355.61 447.583 357.194 463.226 364.643 475.473C365.75 477.293 367.014 479.05 368.414 480.682H408.723C414.5 468.416 416.078 454.132 412.632 440.999Z" fill="url(#paint8_linear_625_24057)"/>
<path d="M361.686 434.362C352.124 425.381 339.855 419.932 327.763 414.841C326.823 414.445 325.764 414.046 324.811 414.411C324.176 414.655 323.711 415.198 323.286 415.728C314.326 426.916 310.743 442.226 313.809 456.229C315.842 465.511 320.78 474.081 327.603 480.682H379.759C380.857 463.622 374.175 446.092 361.686 434.362Z" fill="url(#paint9_linear_625_24057)"/>
<path d="M502.8 478.115C502.8 468.782 495.234 461.217 485.902 461.217C482.507 461.217 479.362 462.236 476.716 463.96C471.23 455.867 461.96 450.549 451.446 450.549C440.449 450.549 430.84 456.388 425.472 465.115C422.91 464.029 420.093 463.428 417.135 463.428C406.742 463.428 398.114 470.855 396.187 480.683H502.578C502.71 479.844 502.8 478.992 502.8 478.115Z" fill="url(#paint10_linear_625_24057)"/>
<path d="M1.39128 462.827C2.86308 462.827 4.29529 462.991 5.67799 463.288C7.12449 450.151 18.2565 439.93 31.7788 439.93C44.9106 439.93 55.7907 449.568 57.7344 462.155C59.4504 461.784 61.2302 461.583 63.0562 461.583C74.8416 461.583 84.7218 469.721 87.3981 480.682H-18.7794C-17.5529 470.624 -8.99932 462.827 1.39128 462.827Z" fill="url(#paint11_linear_625_24057)"/>
<path d="M289.261 480.459L283.256 467.054C283.255 467.051 283.253 467.048 283.252 467.043L276.68 452.371C276.678 452.368 276.677 452.366 276.676 452.364L270.101 437.689C270.1 437.687 270.099 437.684 270.098 437.681L263.524 423.006C263.522 423.004 263.521 423.001 263.52 422.998L257.505 409.572C257.417 409.374 257.221 409.246 257.004 409.246H209.221C209.034 409.246 208.861 409.341 208.759 409.497C208.658 409.653 208.643 409.85 208.719 410.021L221.302 438.108C221.303 438.111 221.306 438.116 221.307 438.119L227.879 452.79C227.88 452.794 227.882 452.797 227.885 452.801L234.457 467.472C234.458 467.475 234.459 467.477 234.46 467.48L240.475 480.907C240.6 481.184 240.923 481.308 241.201 481.184C241.478 481.061 241.603 480.735 241.478 480.458L235.813 467.812H282.392L288.258 480.907C288.349 481.111 288.551 481.232 288.76 481.232C288.835 481.232 288.912 481.217 288.984 481.184C289.261 481.062 289.386 480.736 289.261 480.459ZM222.658 438.45H269.237L275.322 452.033H228.744L222.658 438.45ZM268.744 437.35H222.166L216.082 423.767H262.66L268.744 437.35ZM256.647 410.347L262.167 422.667H215.589L210.069 410.347H256.647ZM235.321 466.713L229.236 453.132H275.815L281.899 466.713H235.321Z" fill="#070D59"/>
<path d="M257.004 411.446H55.1043C54.1924 411.446 53.4543 410.707 53.4543 409.796C53.4543 408.886 54.1924 408.146 55.1043 408.146H257.004C257.915 408.146 258.654 408.886 258.654 409.796C258.654 410.707 257.915 411.446 257.004 411.446Z" fill="#070D59"/>
<path d="M55.1043 481.233C54.8007 481.233 54.5543 480.986 54.5543 480.683V411.446C54.5543 411.143 54.8007 410.896 55.1043 410.896C55.4079 410.896 55.6543 411.143 55.6543 411.446V480.683C55.6543 480.987 55.4079 481.233 55.1043 481.233Z" fill="#070D59"/>
<path d="M130.112 356.974L124.908 389.334C124.908 389.334 137.505 392.29 153.312 392.266C169.119 392.243 181.708 389.25 181.708 389.25L176.407 356.904L153.259 356.938L130.112 356.974Z" fill="url(#paint12_linear_625_24057)"/>
<path d="M259.074 268.709C238.373 256.987 222.544 257.839 222.522 257.84C219.166 276.129 214.877 292.858 210.787 306.719C222.299 314.896 215.614 331.802 211.036 349.16C206.459 366.518 187.044 407.268 191.174 407.969C195.305 408.671 204.035 403.701 228.966 375.691C253.897 347.679 292.587 287.687 259.074 268.709Z" fill="url(#paint13_linear_625_24057)"/>
<path opacity="0.2" d="M269.675 308.155C274.439 291.433 272.94 276.56 259.075 268.709C238.374 256.987 222.545 257.839 222.523 257.84C221.118 265.494 219.55 272.87 217.901 279.881C248.248 285.918 263.087 299.562 269.675 308.155Z" fill="url(#paint14_linear_625_24057)"/>
<path d="M152.806 51.4082C13.9226 121.457 109.243 346.211 109.243 346.211L153.244 346.147L197.245 346.082C197.245 346.082 291.897 121.044 152.806 51.4082Z" fill="url(#paint15_linear_625_24057)"/>
<path d="M47.1832 269.025C67.8489 257.241 83.6801 258.046 83.7021 258.047C87.1121 276.326 91.4516 293.041 95.5821 306.89C84.0948 315.102 90.8301 331.988 95.4589 349.332C100.088 366.675 119.624 407.368 115.495 408.082C111.367 408.796 102.621 403.852 77.6081 375.915C52.5941 347.98 13.7278 288.101 47.1832 269.025Z" fill="url(#paint16_linear_625_24057)"/>
<path opacity="0.2" d="M36.7002 308.503C31.8866 291.795 33.3419 276.918 47.1832 269.025C67.8489 257.241 83.6801 258.046 83.7021 258.047C85.1299 265.697 86.7205 273.068 88.3892 280.075C58.0611 286.201 43.2628 299.89 36.7002 308.503Z" fill="url(#paint17_linear_625_24057)"/>
<path d="M153.244 346.145L197.245 346.08C197.245 346.08 202.259 334.156 208.283 314.957L98.1132 315.121C104.193 334.303 109.243 346.212 109.243 346.212L153.244 346.145Z" fill="url(#paint18_linear_625_24057)"/>
<path d="M152.806 51.4062C85.5886 85.3093 73.2312 155.45 78.377 218.81C101.291 226.459 126.543 230.686 153.073 230.647C179.603 230.607 204.842 226.304 227.733 218.588C232.689 155.213 220.124 85.1102 152.806 51.4062Z" fill="url(#paint19_linear_625_24057)"/>
<path d="M196.487 86.3257C185.508 72.5548 171.206 60.6188 152.806 51.4062C134.433 60.6727 120.167 72.6516 109.229 86.4556C120.055 96.2477 135.606 102.379 152.882 102.354C170.158 102.329 185.691 96.1509 196.487 86.3257Z" fill="url(#paint20_linear_625_24057)"/>
<path d="M154.838 185.3C174.379 185.3 190.221 169.459 190.221 149.918C190.221 130.376 174.379 114.535 154.838 114.535C135.297 114.535 119.455 130.376 119.455 149.918C119.455 169.459 135.297 185.3 154.838 185.3Z" fill="url(#paint21_linear_625_24057)"/>
<path d="M122.868 346.189L116.022 378.552C116.022 378.552 132.552 381.501 153.296 381.47C174.04 381.44 190.561 378.441 190.561 378.441L183.62 346.098L153.244 346.143L122.868 346.189Z" fill="url(#paint22_linear_625_24057)"/>
<path d="M153.244 346.145L122.868 346.19L120.883 355.574L185.632 355.478L183.619 346.1L153.244 346.145Z" fill="url(#paint23_linear_625_24057)"/>
<path d="M168.181 294.005C168.243 335.64 161.976 405.212 154.119 405.224C146.261 405.236 139.788 335.682 139.725 294.047C139.663 252.412 146.037 254.463 153.894 254.452C161.753 254.439 168.119 252.37 168.181 294.005Z" fill="url(#paint24_linear_625_24057)"/>
<path d="M128.863 140.884C123.873 155.23 131.459 170.905 145.805 175.895C160.151 180.884 175.826 173.299 180.816 158.953C185.805 144.606 178.22 128.931 163.873 123.942C149.526 118.952 133.851 126.538 128.863 140.884Z" fill="url(#paint25_linear_625_24057)"/>
<path d="M180.736 140.705L148.043 176.549C147.295 176.358 146.547 176.153 145.804 175.895C142.106 174.609 138.867 172.604 136.168 170.102L173.231 129.465C176.654 132.547 179.213 136.429 180.736 140.705Z" fill="white"/>
<path d="M163.872 123.941C165.622 124.549 167.267 125.323 168.806 126.227L132.541 165.987C131.091 163.972 129.904 161.78 129.043 159.457L161.948 123.379C162.592 123.552 163.234 123.72 163.872 123.941Z" fill="white"/>
<path d="M303.331 351.547L271.217 344.254C268.075 343.54 266.106 340.415 266.82 337.273C267.534 334.131 270.659 332.164 273.801 332.876L305.915 340.169L303.331 351.547Z" fill="#AED3F4"/>
<path d="M303.845 349.282L271.812 342.007C269.922 341.578 268.738 339.697 269.167 337.808C269.596 335.918 271.477 334.733 273.366 335.162L305.399 342.436L303.845 349.282Z" fill="#5893D4"/>
<path d="M310.203 343.527L321.41 346.072C320.948 341.479 317.623 337.485 312.872 336.406C306.923 335.055 301.005 338.782 299.654 344.73C298.303 350.679 302.03 356.597 307.979 357.948C312.73 359.027 317.453 356.861 319.854 352.918L308.648 350.372L310.203 343.527Z" fill="#AED3F4"/>
<path d="M307.353 346.477C307.03 347.903 305.612 348.796 304.186 348.473C302.761 348.149 301.867 346.731 302.191 345.306C302.514 343.88 303.932 342.987 305.358 343.31C306.784 343.634 307.676 345.053 307.353 346.477Z" fill="white"/>
<path d="M226.378 283.352C212.645 283.352 203.366 301.928 194.684 304.239C186.003 306.551 170.467 303.033 168.044 302.775C165.621 302.519 167.654 306.37 170.676 306.884C170.676 306.884 167.393 305.724 166.043 306.158C164.691 306.591 165.457 309.625 169.717 310.6C169.717 310.6 167.115 309.299 165.434 310.274C163.754 311.249 166.375 313.481 170.12 314.945C174.078 316.492 187.771 322.287 195.776 320.842C213.492 317.642 220.208 311.542 220.208 311.542" fill="#FFA05F"/>
<path d="M244.793 283.381C269.874 283.381 283.035 300.205 290.116 317.073C293.316 324.694 290.587 339.555 289.925 343.821C289.298 347.86 287.663 350.952 286.324 349.5C284.987 348.048 285.703 345.181 285.703 345.181C285.674 349.621 282.834 351.05 282.107 349.804C281.379 348.559 281.806 345.048 281.806 345.048C281.962 348.158 278.59 351.024 278.31 348.565C278.03 346.105 278.094 329.917 273.887 321.816C269.679 313.714 251.941 307.259 247.325 299.826C242.708 292.394 244.793 283.381 244.793 283.381Z" fill="#FFA05F"/>
<path d="M291.258 334.147C291.83 328.337 291.971 321.493 290.116 317.073C283.034 300.205 269.874 283.381 244.793 283.381C244.793 283.381 242.708 292.394 247.325 299.827C251.942 307.26 269.68 313.716 273.887 321.817C275.464 324.854 276.441 329.03 277.061 333.191C283.46 332.406 288.068 333.094 291.258 334.147Z" fill="#C634A0"/>
<path d="M194.686 304.241C192.115 304.925 188.944 305.096 185.69 304.994C185.697 312.549 183.599 316.957 182.032 319.188C186.789 320.56 191.936 321.538 195.777 320.844C213.493 317.644 220.209 311.545 220.209 311.545L226.379 283.352C212.646 283.352 203.366 301.929 194.686 304.241Z" fill="#C634A0"/>
<path d="M260.841 344.199C261.512 361.112 238.922 360.54 238.922 360.54L233.154 422.666C233.154 422.666 202.414 425.133 202.48 421.859C202.546 418.586 217.947 413.313 217.947 413.313L216.348 344.2H260.841V344.199Z" fill="#070D59"/>
<path d="M260.841 344.199L260.086 378.764L281.74 402.191C281.74 402.191 264.312 427.633 261.81 425.521C259.307 423.409 264.902 408.123 264.902 408.123L247.663 394.812C244.347 392.252 242.223 388.448 241.783 384.284L236.954 350.2C236.954 350.2 237.451 346.79 246.543 344.151C255.634 341.511 260.841 344.199 260.841 344.199Z" fill="#070D59"/>
<path d="M260.841 344.199C260.841 344.199 253.895 347.088 237.296 347.088C220.697 347.088 216.348 344.199 216.348 344.199V293.381C216.348 287.842 220.838 283.352 226.378 283.352H243.79C253.207 283.352 260.841 290.986 260.841 300.403V344.199Z" fill="#C634A0"/>
<path d="M243.504 264.83H230.304L228.104 283.383C228.104 283.383 231.904 288.904 245.704 283.383L243.504 264.83Z" fill="#E88A4B"/>
<path d="M259.028 252.421C259.028 265.932 249.183 275.233 236.535 276.885C229.435 277.812 219.112 277.32 214.812 272.038C211.336 267.772 212.137 258.46 212.137 252.421C212.137 238.91 222.634 227.957 235.582 227.957C248.532 227.957 259.028 238.91 259.028 252.421Z" fill="#FFA05F"/>
<path d="M232.697 254.264C232.697 256.192 231.718 257.756 230.51 257.756C229.303 257.756 228.324 256.193 228.324 254.264C228.324 252.336 229.303 250.771 230.51 250.771C231.717 250.771 232.697 252.336 232.697 254.264Z" fill="#070D59"/>
<path d="M219.989 253.563C219.989 255.491 219.01 257.055 217.801 257.055C216.593 257.055 215.614 255.492 215.614 253.563C215.614 251.634 216.593 250.07 217.801 250.07C219.01 250.07 219.989 251.634 219.989 253.563Z" fill="#070D59"/>
<path d="M222.895 263.738C222.495 264.808 218.055 265.415 217.047 264.203C216.04 262.991 220.382 249.35 221.742 249.241C223.104 249.132 223.295 262.667 222.895 263.738Z" fill="#DD7F40"/>
<path d="M243.504 263.96C243.504 267.386 240.726 270.164 237.3 270.164C233.873 270.164 231.096 267.386 231.096 263.96C231.096 260.533 233.873 257.756 237.3 257.756C240.726 257.756 243.504 260.533 243.504 263.96Z" fill="#F48656"/>
<path d="M219.989 267.722L234.145 263.488C234.145 263.488 230.461 273.74 219.989 267.722Z" fill="#070D59"/>
<path d="M216.318 263.49C216.318 260.746 214.535 258.422 212.066 257.604C212.025 261.469 212.138 265.654 213.188 268.874C215.056 267.805 216.318 265.796 216.318 263.49Z" fill="#F48656"/>
<path d="M234.23 246.321C234.127 247.211 232.378 247.739 230.323 247.5C228.268 247.261 226.686 246.347 226.789 245.457C226.892 244.567 228.641 244.039 230.696 244.278C232.751 244.517 234.334 245.431 234.23 246.321Z" fill="#75421C"/>
<path d="M220.483 244.909C220.713 245.775 219.496 246.849 217.765 247.307C216.034 247.766 214.446 247.436 214.216 246.57C213.987 245.705 215.204 244.631 216.934 244.172C218.665 243.713 220.254 244.043 220.483 244.909Z" fill="#75421C"/>
<path d="M217.948 413.314C217.948 413.314 202.547 418.587 202.481 421.86C202.415 425.134 233.155 422.667 233.155 422.667L233.84 415.287C223.547 416.885 217.948 413.314 217.948 413.314Z" fill="#C634A0"/>
<path d="M264.902 408.123C264.902 408.123 259.307 423.41 261.81 425.521C264.312 427.633 281.74 402.191 281.74 402.191L277.481 397.584C273.893 405.322 264.902 408.123 264.902 408.123Z" fill="#C634A0"/>
<path d="M219.472 234.656C219.472 234.656 226.982 242.249 243.504 243.007C243.504 243.007 243.604 248.973 248.151 253.001C248.151 253.001 252.195 248.927 255.606 250.384C259.016 251.841 259.773 261.363 250.046 263.239C250.046 263.239 250.142 270.7 244.662 274.602C244.662 274.602 263.309 272.71 264.193 253.438C265.078 234.165 254.467 236.439 254.467 236.439C254.467 236.439 255.774 219.765 222.502 224.041C189.408 228.294 209.624 238.966 209.624 238.966C209.624 238.966 203.932 242.513 212.777 246.74C212.777 246.74 214.189 240.064 219.472 234.656Z" fill="#75421C"/>
<path d="M441.321 403.684C441.992 420.596 419.402 420.024 419.402 420.024L413.634 482.15C413.634 482.15 382.894 484.617 382.96 481.344C383.026 478.07 398.427 472.798 398.427 472.798L396.828 403.685L441.321 403.684Z" fill="#1F3C88"/>
<path d="M441.321 403.684L446.169 482.021C446.169 482.021 415.455 484.8 415.488 481.526C415.521 478.251 430.868 472.824 430.868 472.824L415.488 403.731C415.488 403.731 419.202 400.975 427.429 400.961C435.656 400.946 441.321 403.684 441.321 403.684Z" fill="#1F3C88"/>
<path d="M398.427 472.797C398.427 472.797 383.026 478.069 382.96 481.343C382.894 484.616 413.634 482.149 413.634 482.149L414.205 475.999C403.707 476.603 398.427 472.797 398.427 472.797Z" fill="#C634A0"/>
<path d="M430.869 472.824C430.869 472.824 415.523 478.253 415.49 481.526C415.457 484.801 446.17 482.021 446.17 482.021L445.674 474C436.669 475.914 430.869 472.824 430.869 472.824Z" fill="#C634A0"/>
<path d="M406.858 342.836C393.125 342.836 383.846 361.413 375.165 363.725C366.483 366.036 350.947 362.518 348.524 362.261C346.102 362.005 348.134 365.856 351.156 366.369C351.156 366.369 347.874 365.21 346.523 365.643C345.171 366.077 345.938 369.111 350.197 370.085C350.197 370.085 347.595 368.785 345.916 369.76C344.236 370.734 346.856 372.966 350.602 374.43C354.559 375.978 368.252 381.773 376.257 380.326C393.974 377.126 400.689 371.027 400.689 371.027" fill="#CC7646"/>
<path d="M406.858 342.836C398.813 342.836 392.298 349.209 386.535 354.956C389.625 358.351 392.967 364.377 394.202 374.916C398.745 372.79 400.688 371.029 400.688 371.029L406.858 342.836Z" fill="#070D59"/>
<path d="M441.321 403.684C441.321 403.684 434.375 406.572 417.776 406.572C401.177 406.572 396.828 403.684 396.828 403.684V352.866C396.828 347.326 401.318 342.836 406.858 342.836H427.847C435.288 342.836 441.321 348.868 441.321 356.31V403.684Z" fill="#070D59"/>
<path d="M423.984 324.312H410.784L408.584 342.865C408.584 342.865 412.384 348.386 426.184 342.865L423.984 324.312Z" fill="#BC6337"/>
<path d="M439.508 311.905C439.508 325.416 429.663 334.717 417.015 336.369C409.915 337.296 399.592 336.804 395.292 331.524C391.818 327.257 392.617 317.945 392.617 311.906C392.617 298.396 403.115 287.443 416.063 287.443C429.012 287.442 439.508 298.395 439.508 311.905Z" fill="#CC7646"/>
<path d="M413.176 313.748C413.176 315.677 412.197 317.241 410.99 317.241C409.782 317.241 408.803 315.678 408.803 313.748C408.803 311.82 409.782 310.256 410.99 310.256C412.197 310.257 413.176 311.82 413.176 313.748Z" fill="#070D59"/>
<path d="M400.468 313.047C400.468 314.976 399.489 316.54 398.281 316.54C397.073 316.54 396.094 314.977 396.094 313.047C396.094 311.119 397.073 309.555 398.281 309.555C399.489 309.555 400.468 311.118 400.468 313.047Z" fill="#070D59"/>
<path d="M403.375 323.221C402.975 324.292 398.535 324.899 397.528 323.685C396.52 322.472 400.862 308.832 402.222 308.723C403.584 308.615 403.776 322.151 403.375 323.221Z" fill="#AA5429"/>
<path d="M423.984 323.444C423.984 326.871 421.206 329.648 417.78 329.648C414.353 329.648 411.576 326.871 411.576 323.444C411.576 320.018 414.353 317.24 417.78 317.24C421.206 317.24 423.984 320.018 423.984 323.444Z" fill="#C65C40"/>
<path d="M405.403 328.238C404.104 328.238 402.65 328.036 401.033 327.551C400.742 327.464 400.577 327.159 400.665 326.867C400.752 326.576 401.06 326.411 401.349 326.499C409.934 329.073 413.383 323.02 413.417 322.959C413.564 322.693 413.9 322.595 414.164 322.743C414.43 322.89 414.527 323.224 414.38 323.49C414.349 323.548 411.677 328.238 405.403 328.238Z" fill="#070D59"/>
<path d="M396.798 322.974C396.798 320.229 395.015 317.906 392.546 317.088C392.505 320.953 392.618 325.139 393.668 328.358C395.537 327.289 396.798 325.281 396.798 322.974Z" fill="#C65C40"/>
<path d="M414.71 305.807C414.606 306.697 412.857 307.225 410.803 306.986C408.748 306.748 407.166 305.833 407.268 304.944C407.372 304.054 409.121 303.526 411.175 303.764C413.231 304.002 414.813 304.917 414.71 305.807Z" fill="#232228"/>
<path d="M400.963 304.393C401.193 305.259 399.975 306.332 398.245 306.791C396.515 307.25 394.926 306.92 394.696 306.054C394.466 305.188 395.684 304.115 397.414 303.656C399.145 303.197 400.733 303.527 400.963 304.393Z" fill="#232228"/>
<path d="M396.446 381.568L400.01 374.285C400.456 373.376 400.148 372.277 399.295 371.731L396.273 369.793C396.533 368.236 396.64 366.672 396.574 365.123L399.804 363.581C400.718 363.144 401.159 362.093 400.831 361.136L398.201 353.466C397.873 352.507 396.879 351.949 395.889 352.164L392.392 352.929C391.493 351.666 390.449 350.496 389.288 349.426L390.485 346.041C390.823 345.086 390.392 344.03 389.482 343.585L382.199 340.021C381.289 339.576 380.192 339.884 379.645 340.736L377.707 343.759C376.15 343.498 374.586 343.392 373.037 343.458L371.495 340.227C371.058 339.313 370.007 338.872 369.05 339.2L361.379 341.83C360.421 342.159 359.863 343.152 360.078 344.142L360.843 347.639C359.58 348.538 358.409 349.581 357.34 350.743L353.954 349.545C353 349.207 351.944 349.639 351.499 350.548L347.935 357.831C347.49 358.741 347.798 359.84 348.65 360.386L351.673 362.324C351.411 363.88 351.306 365.445 351.372 366.993L348.142 368.536C347.228 368.972 346.787 370.024 347.115 370.981L349.745 378.651C350.074 379.609 351.067 380.168 352.056 379.952L355.553 379.188C356.451 380.451 357.495 381.621 358.657 382.69L357.459 386.076C357.121 387.031 357.553 388.087 358.462 388.531L365.745 392.095C366.655 392.541 367.753 392.233 368.3 391.38L370.238 388.358C371.794 388.619 373.358 388.725 374.907 388.659L376.45 391.89C376.886 392.804 377.938 393.245 378.895 392.917L386.565 390.287C387.523 389.959 388.082 388.965 387.866 387.975L387.102 384.478C388.365 383.579 389.535 382.535 390.604 381.374L393.99 382.572C394.946 382.909 396.002 382.478 396.446 381.568ZM371.223 375.442C364.733 373.488 362.119 365.861 366.045 360.335C368.422 356.989 372.792 355.491 376.722 356.674C383.213 358.629 385.828 366.256 381.902 371.782C379.525 375.128 375.154 376.626 371.223 375.442Z" fill="#AED3F4"/>
<path d="M426.184 342.865C412.954 346.544 410.123 366.899 402.379 371.451C394.634 376.003 378.722 376.775 376.32 377.176C373.917 377.578 376.908 380.745 379.956 380.43C379.956 380.43 376.484 380.193 375.298 380.971C374.112 381.751 375.663 384.468 380.028 384.267C380.028 384.267 377.173 383.712 375.815 385.101C374.457 386.49 377.58 387.938 381.581 388.346C385.808 388.777 400.553 390.692 407.878 387.155C424.089 379.326 428.926 371.65 428.926 371.65C428.926 371.65 439.614 353.666 426.184 342.865Z" fill="#CC7646"/>
<path d="M426.184 342.865C418.253 345.07 414.06 353.266 410.305 360.46C414.429 361.537 421.871 365.185 423.352 377.446C427.744 373.806 428.926 371.652 428.926 371.652C428.926 371.652 441.321 352.818 426.184 342.865Z" fill="#070D59"/>
<path d="M399.919 294.14C399.919 294.14 401.873 298.256 413.176 295.825C413.176 295.825 415.504 302.624 423.951 302.491C423.951 302.491 424.051 308.456 428.598 312.484C428.598 312.484 432.642 308.411 436.053 309.867C439.463 311.325 440.22 320.847 430.494 322.722C430.494 322.722 430.589 330.183 425.109 334.085C425.109 334.085 443.756 332.193 444.641 312.921C445.525 293.649 434.914 295.923 434.914 295.923C434.914 295.923 433.934 275.234 402.873 285.449C387.848 290.39 383.552 290.611 383.552 290.611C383.552 290.611 387.413 303.446 393.225 306.222C393.225 306.222 394.636 299.547 399.919 294.14Z" fill="#232228"/>
<path d="M534.651 283.234C519.115 283.234 506.52 295.829 506.52 311.366V339.497C506.52 355.034 519.115 367.629 534.651 367.629C550.188 367.629 562.783 355.034 562.783 339.497V311.366C562.783 295.828 550.188 283.234 534.651 283.234Z" fill="#B26E36"/>
<path d="M558.237 402.582C558.908 419.495 536.318 418.923 536.318 418.923L530.549 481.048C530.549 481.048 499.81 484.616 499.876 481.342C499.942 478.068 515.343 471.696 515.343 471.696L513.744 402.583L558.237 402.582Z" fill="#5893D4"/>
<path d="M533.267 402.582L547.119 481.782C547.119 481.782 576.732 484.798 576.699 481.525C576.666 478.25 561.32 471.722 561.32 471.722L558.238 402.629C558.238 402.629 554.285 399.874 546.06 399.859C537.832 399.844 533.267 402.582 533.267 402.582Z" fill="#5893D4"/>
<path d="M515.343 471.695C515.343 471.695 499.942 478.068 499.876 481.341C499.81 484.615 530.549 481.047 530.549 481.047L531.12 474.897C520.623 475.501 515.343 471.695 515.343 471.695Z" fill="#070D59"/>
<path d="M525.499 341.764C512.837 336.45 495.366 349.96 486.467 348.731C477.568 347.503 464.602 338.247 462.468 337.072C460.334 335.897 460.718 340.237 463.305 341.879C463.305 341.879 460.728 339.539 459.314 339.416C457.9 339.293 457.433 342.387 460.982 344.934C460.982 344.934 459.087 342.728 457.16 342.977C455.233 343.226 456.787 346.298 459.673 349.097C462.724 352.055 473.108 362.698 481.047 364.462C498.622 368.367 514.292 362.737 514.292 362.737" fill="#FFD19F"/>
<path d="M561.319 471.723C560.224 476.859 545.84 474.475 545.84 474.475L547.118 481.783C547.118 481.783 576.73 484.799 576.698 481.526C576.666 478.251 561.319 471.723 561.319 471.723Z" fill="#070D59"/>
<path d="M525.499 341.764C519.839 339.389 513.219 340.777 506.833 342.927C509.281 346.392 512.892 352.904 514.44 362.464L525.499 341.764Z" fill="#C634A0"/>
<path d="M558.237 351.609C558.237 346.156 553.817 341.736 548.364 341.736H523.774C518.234 341.736 513.744 346.227 513.744 351.766V354.504C510.904 355.641 508.895 358.415 508.895 361.661C508.895 364.907 510.904 367.68 513.744 368.817V402.583C513.744 402.583 518.093 405.471 534.692 405.471C551.291 405.471 558.237 402.583 558.237 402.583C558.237 391.005 552.957 384.031 552.957 380.969C552.957 377.908 558.237 351.609 558.237 351.609Z" fill="#C634A0"/>
<path d="M540.899 323.211H527.699L525.499 341.764C525.499 341.764 529.3 347.284 543.099 341.764L540.899 323.211Z" fill="#EFB378"/>
<path d="M556.424 310.804C556.424 324.315 546.579 333.615 533.931 335.268C526.83 336.195 516.508 335.702 512.208 330.422C508.733 326.155 509.533 316.844 509.533 310.805C509.533 297.294 520.03 286.342 532.978 286.342C545.926 286.341 556.424 297.293 556.424 310.804Z" fill="#FFD19F"/>
<path d="M530.092 312.647C530.092 314.575 529.113 316.139 527.905 316.139C526.697 316.139 525.718 314.576 525.718 312.647C525.718 310.718 526.697 309.154 527.905 309.154C529.113 309.154 530.092 310.718 530.092 312.647Z" fill="#070D59"/>
<path d="M517.384 311.946C517.384 313.874 516.405 315.438 515.197 315.438C513.989 315.438 513.01 313.875 513.01 311.946C513.01 310.017 513.989 308.453 515.197 308.453C516.405 308.453 517.384 310.016 517.384 311.946Z" fill="#070D59"/>
<path d="M520.29 322.12C519.889 323.19 515.451 323.797 514.442 322.584C513.435 321.371 517.776 307.731 519.137 307.622C520.5 307.514 520.691 321.049 520.29 322.12Z" fill="#EFAF70"/>
<path d="M540.899 322.343C540.899 325.769 538.122 328.547 534.695 328.547C531.269 328.547 528.491 325.769 528.491 322.343C528.491 318.916 531.269 316.139 534.695 316.139C538.122 316.139 540.899 318.916 540.899 322.343Z" fill="#F9B693"/>
<path d="M513.714 321.872C513.714 319.129 511.931 316.805 509.461 315.986C509.421 319.852 509.534 324.037 510.583 327.257C512.452 326.188 513.714 324.179 513.714 321.872Z" fill="#F9B693"/>
<path d="M531.625 304.706C531.522 305.595 529.773 306.123 527.718 305.885C525.663 305.646 524.08 304.732 524.184 303.842C524.287 302.952 526.036 302.424 528.091 302.663C530.147 302.9 531.729 303.816 531.625 304.706Z" fill="#B26E36"/>
<path d="M517.879 303.291C518.108 304.157 516.891 305.231 515.161 305.689C513.43 306.148 511.842 305.818 511.612 304.952C511.382 304.087 512.6 303.013 514.33 302.554C516.06 302.096 517.649 302.426 517.879 303.291Z" fill="#B26E36"/>
<path d="M516.166 325.339L530.858 323.764C530.858 323.764 525.362 333.171 516.166 325.339Z" fill="#070D59"/>
<path d="M511.584 300.791C511.584 300.791 525.189 300.682 536.004 292.452C536.004 292.452 533.318 306.483 545.332 311.527C545.332 311.527 549.376 307.454 552.787 308.911C556.198 310.367 556.954 319.89 547.228 321.766C547.228 321.766 547.323 329.227 541.843 333.129C541.843 333.129 564.359 329.407 556.424 299.919C549.93 275.789 511.683 284.468 511.584 300.791Z" fill="#B26E36"/>
<path d="M521.126 354.482L489.355 357.84L493.754 399.469L525.526 396.111L521.126 354.482Z" fill="#FFF6E1"/>
<path d="M535.026 351.579L503.188 348.953L499.747 390.67L531.586 393.296L535.026 351.579Z" fill="white"/>
<path d="M552.956 342.867C554.768 367.883 551.22 381.275 534.908 389.557C527.538 393.299 509.218 391.651 504.915 391.299C500.843 390.966 497.64 389.558 498.992 388.119C500.344 386.679 503.254 387.186 503.254 387.186C498.825 387.479 497.193 384.75 498.382 383.934C499.571 383.118 503.105 383.289 503.105 383.289C500.015 383.67 496.912 380.514 499.345 380.057C501.778 379.601 521.227 378.494 529.004 373.714C536.78 368.932 530.461 350.773 537.541 345.632C544.621 340.489 552.956 342.867 552.956 342.867Z" fill="#FFD19F"/>
<path d="M553.034 361.5C554.182 355.888 554.231 350.017 552.955 342.868C552.955 342.868 544.514 340.403 537.434 345.544C534.059 347.996 533.386 353.498 533.571 359.007C537.111 358.323 545.125 357.484 553.034 361.5Z" fill="#C634A0"/>
<defs>
<linearGradient id="paint0_linear_625_24057" x1="334.288" y1="324.297" x2="305.808" y2="303.619" gradientUnits="userSpaceOnUse">
<stop stop-color="#C634A0"/>
<stop offset="0.577" stop-color="#1F3C88"/>
<stop offset="1" stop-color="#070D59"/>
</linearGradient>
<linearGradient id="paint1_linear_625_24057" x1="287.361" y1="255.429" x2="265.123" y2="232.801" gradientUnits="userSpaceOnUse">
<stop stop-color="#C634A0"/>
<stop offset="0.577" stop-color="#1F3C88"/>
<stop offset="1" stop-color="#070D59"/>
</linearGradient>
<linearGradient id="paint2_linear_625_24057" x1="43.5947" y1="53.9956" x2="61.198" y2="70.4446" gradientUnits="userSpaceOnUse">
<stop stop-color="#C634A0"/>
<stop offset="0.577" stop-color="#1F3C88"/>
<stop offset="1" stop-color="#070D59"/>
</linearGradient>
<linearGradient id="paint3_linear_625_24057" x1="515.802" y1="379.246" x2="685.212" y2="379.246" gradientUnits="userSpaceOnUse">
<stop stop-color="#C634A0"/>
<stop offset="1" stop-color="#1F3C88"/>
</linearGradient>
<linearGradient id="paint4_linear_625_24057" x1="-11.5311" y1="379.246" x2="157.879" y2="379.246" gradientUnits="userSpaceOnUse">
<stop stop-color="#C634A0"/>
<stop offset="1" stop-color="#1F3C88"/>
</linearGradient>
<linearGradient id="paint5_linear_625_24057" x1="449.494" y1="393.337" x2="576.674" y2="393.337" gradientUnits="userSpaceOnUse">
<stop stop-color="#C634A0"/>
<stop offset="1" stop-color="#1F3C88"/>
</linearGradient>
<linearGradient id="paint6_linear_625_24057" x1="523.16" y1="579.649" x2="245.79" y2="347.923" gradientUnits="userSpaceOnUse">
<stop stop-color="white"/>
<stop offset="0.6238" stop-color="#1F3C88"/>
<stop offset="1" stop-color="#070D59"/>
</linearGradient>
<linearGradient id="paint7_linear_625_24057" x1="212.931" y1="474.745" x2="215.812" y2="186.599" gradientUnits="userSpaceOnUse">
<stop stop-color="white"/>
<stop offset="0.6238" stop-color="#1F3C88"/>
<stop offset="1" stop-color="#070D59"/>
</linearGradient>
<linearGradient id="paint8_linear_625_24057" x1="389.915" y1="405.134" x2="382.828" y2="493.015" gradientUnits="userSpaceOnUse">
<stop stop-color="#C634A0"/>
<stop offset="1" stop-color="#1F3C88"/>
</linearGradient>
<linearGradient id="paint9_linear_625_24057" x1="351.294" y1="475.1" x2="328.155" y2="407.922" gradientUnits="userSpaceOnUse">
<stop stop-color="#C634A0"/>
<stop offset="1" stop-color="#1F3C88"/>
</linearGradient>
<linearGradient id="paint10_linear_625_24057" x1="396.188" y1="465.616" x2="502.8" y2="465.616" gradientUnits="userSpaceOnUse">
<stop offset="0.3087" stop-color="#5893D4"/>
<stop offset="0.6631" stop-color="#1F3C88"/>
<stop offset="1" stop-color="#070D59"/>
</linearGradient>
<linearGradient id="paint11_linear_625_24057" x1="-18.7799" y1="460.307" x2="87.3988" y2="460.307" gradientUnits="userSpaceOnUse">
<stop offset="0.3087" stop-color="#5893D4"/>
<stop offset="0.6631" stop-color="#1F3C88"/>
<stop offset="1" stop-color="#070D59"/>
</linearGradient>
<linearGradient id="paint12_linear_625_24057" x1="192.822" y1="413.377" x2="100.766" y2="325.484" gradientUnits="userSpaceOnUse">
<stop stop-color="#C634A0"/>
<stop offset="0.3087" stop-color="#5893D4"/>
<stop offset="0.6631" stop-color="#1F3C88"/>
<stop offset="1" stop-color="#070D59"/>
</linearGradient>
<linearGradient id="paint13_linear_625_24057" x1="223.082" y1="459.824" x2="244.579" y2="175.69" gradientUnits="userSpaceOnUse">
<stop stop-color="#C634A0"/>
<stop offset="0.577" stop-color="#1F3C88"/>
<stop offset="1" stop-color="#070D59"/>
</linearGradient>
<linearGradient id="paint14_linear_625_24057" x1="240.811" y1="293.21" x2="254.708" y2="266.371" gradientUnits="userSpaceOnUse">
<stop stop-color="#C634A0"/>
<stop offset="0.577" stop-color="#1F3C88"/>
<stop offset="1" stop-color="#070D59"/>
</linearGradient>
<linearGradient id="paint15_linear_625_24057" x1="369.315" y1="491.327" x2="-59.0587" y2="-53.055" gradientUnits="userSpaceOnUse">
<stop stop-color="#C634A0"/>
<stop offset="0.3087" stop-color="#5893D4"/>
<stop offset="0.6631" stop-color="#1F3C88"/>
<stop offset="1" stop-color="#070D59"/>
</linearGradient>
<linearGradient id="paint16_linear_625_24057" x1="67.6467" y1="448.066" x2="89.1437" y2="163.936" gradientUnits="userSpaceOnUse">
<stop stop-color="#C634A0"/>
<stop offset="0.577" stop-color="#1F3C88"/>
<stop offset="1" stop-color="#070D59"/>
</linearGradient>
<linearGradient id="paint17_linear_625_24057" x1="45.4793" y1="313.049" x2="76.0186" y2="254.069" gradientUnits="userSpaceOnUse">
<stop stop-color="#C634A0"/>
<stop offset="0.577" stop-color="#1F3C88"/>
<stop offset="1" stop-color="#070D59"/>
</linearGradient>
<linearGradient id="paint18_linear_625_24057" x1="296.536" y1="405.39" x2="99.2229" y2="298.256" gradientUnits="userSpaceOnUse">
<stop stop-color="#C634A0"/>
<stop offset="0.3087" stop-color="#5893D4"/>
<stop offset="0.6631" stop-color="#1F3C88"/>
<stop offset="1" stop-color="#070D59"/>
</linearGradient>
<linearGradient id="paint19_linear_625_24057" x1="344.569" y1="158.745" x2="-54.1623" y2="122.941" gradientUnits="userSpaceOnUse">
<stop stop-color="#C634A0"/>
<stop offset="0.3087" stop-color="#5893D4"/>
<stop offset="0.6631" stop-color="#1F3C88"/>
<stop offset="1" stop-color="#070D59"/>
</linearGradient>
<linearGradient id="paint20_linear_625_24057" x1="149.756" y1="173.968" x2="155.935" y2="-0.475079" gradientUnits="userSpaceOnUse">
<stop stop-color="#C634A0"/>
<stop offset="0.577" stop-color="#1F3C88"/>
<stop offset="1" stop-color="#070D59"/>
</linearGradient>
<linearGradient id="paint21_linear_625_24057" x1="197.884" y1="64.8965" x2="117.705" y2="223.262" gradientUnits="userSpaceOnUse">
<stop stop-color="#C634A0"/>
<stop offset="0.577" stop-color="#1F3C88"/>
<stop offset="1" stop-color="#070D59"/>
</linearGradient>
<linearGradient id="paint22_linear_625_24057" x1="230.285" y1="473.68" x2="135.101" y2="341.954" gradientUnits="userSpaceOnUse">
<stop stop-color="#C634A0"/>
<stop offset="0.3087" stop-color="#5893D4"/>
<stop offset="0.6631" stop-color="#1F3C88"/>
<stop offset="1" stop-color="#070D59"/>
</linearGradient>
<linearGradient id="paint23_linear_625_24057" x1="228.483" y1="425.602" x2="111.558" y2="310.927" gradientUnits="userSpaceOnUse">
<stop stop-color="#C634A0"/>
<stop offset="0.3087" stop-color="#5893D4"/>
<stop offset="0.6631" stop-color="#1F3C88"/>
<stop offset="1" stop-color="#070D59"/>
</linearGradient>
<linearGradient id="paint24_linear_625_24057" x1="142.308" y1="453.714" x2="163.805" y2="169.584" gradientUnits="userSpaceOnUse">
<stop stop-color="#C634A0"/>
<stop offset="0.577" stop-color="#1F3C88"/>
<stop offset="1" stop-color="#070D59"/>
</linearGradient>
<linearGradient id="paint25_linear_625_24057" x1="157.199" y1="179.395" x2="147.048" y2="52.6076" gradientUnits="userSpaceOnUse">
<stop stop-color="#C634A0"/>
<stop offset="0.3087" stop-color="#5893D4"/>
<stop offset="0.6631" stop-color="#1F3C88"/>
<stop offset="1" stop-color="#070D59"/>
</linearGradient>
</defs>
</svg>
