<svg width="101" height="100" viewBox="0 0 101 100" fill="none" xmlns="http://www.w3.org/2000/svg">
<g clip-path="url(#clip0_615_22263)">
<path d="M29.0009 48.0438C29.0009 49.275 29.1259 50.275 29.3634 51.0125C29.6259 51.7437 29.9634 52.5437 30.4259 53.4125C30.5735 53.642 30.6536 53.9084 30.6572 54.1812C30.6572 54.5125 30.4572 54.85 30.0322 55.1813L27.9322 56.5813C27.6801 56.7632 27.3803 56.8675 27.0697 56.8813C26.7322 56.8813 26.4009 56.7188 26.0697 56.4188C25.6205 55.9354 25.2186 55.4101 24.8697 54.85C24.4979 54.2088 24.1538 53.552 23.8384 52.8813C21.2447 55.95 17.9884 57.4875 14.0634 57.4875C11.2697 57.4875 9.03843 56.6812 7.41343 55.0812C5.78218 53.4812 4.95093 51.3438 4.95093 48.675C4.95093 45.8375 5.95093 43.5375 7.97593 41.8C10.0072 40.0625 12.7009 39.2 16.1259 39.2C17.2509 39.2 18.4197 39.3 19.6509 39.4625C20.8822 39.6313 22.1509 39.9 23.4759 40.2V37.7625C23.4759 35.225 22.9447 33.4563 21.9134 32.425C20.8509 31.3875 19.0509 30.8875 16.4884 30.8875C15.3259 30.8875 14.1322 31.025 12.9009 31.325C11.6776 31.6161 10.4767 31.9942 9.30718 32.4563C8.9296 32.6272 8.54128 32.7733 8.14468 32.8938C7.97282 32.9505 7.79417 32.9842 7.61343 32.9938C7.14468 32.9938 6.91343 32.6563 6.91343 31.9563V30.3188C6.91343 29.7875 6.97593 29.3813 7.14468 29.1563C7.39653 28.8496 7.71794 28.6075 8.08218 28.45C9.23843 27.85 10.6384 27.35 12.2697 26.95C13.8947 26.5125 15.6259 26.3188 17.4572 26.3188C21.4134 26.3188 24.3072 27.2188 26.1697 29.0188C28.0009 30.8188 28.9322 33.5562 28.9322 37.2312V48.0438H28.9947H29.0009ZM15.4947 53.1125C16.5884 53.1125 17.7197 52.9125 18.9197 52.5125C20.1134 52.1125 21.1822 51.375 22.0759 50.375C22.6119 49.761 22.999 49.0317 23.2072 48.2437C23.4072 47.4375 23.5447 46.475 23.5447 45.3375V43.9375C22.5352 43.6927 21.5128 43.5049 20.4822 43.375C19.4459 43.2409 18.4021 43.1721 17.3572 43.1688C15.1259 43.1688 13.4947 43.6063 12.4009 44.5063C11.3009 45.4062 10.7759 46.675 10.7759 48.3438C10.7759 49.9063 11.1697 51.075 12.0009 51.8812C12.8009 52.7125 13.9634 53.1125 15.4947 53.1125ZM42.2009 56.7188C41.6009 56.7188 41.2009 56.6188 40.9384 56.3813C40.6697 56.1813 40.4384 55.7188 40.2384 55.0812L32.4259 29.2875C32.2718 28.8552 32.1691 28.4063 32.1197 27.95C32.1197 27.4188 32.3884 27.1188 32.9197 27.1188H36.1822C36.8072 27.1188 37.2447 27.2188 37.4759 27.45C37.7447 27.65 37.9447 28.1188 38.1447 28.75L43.7322 50.8438L48.9197 28.75C49.0822 28.0875 49.2822 27.65 49.5447 27.45C49.9457 27.2044 50.4129 27.0887 50.8822 27.1188H53.5384C54.1759 27.1188 54.6009 27.2188 54.8697 27.45C55.1384 27.65 55.3697 28.1188 55.5009 28.75L60.7572 51.1125L66.5072 28.75C66.6138 28.2661 66.8442 27.8181 67.1759 27.45C67.5632 27.2046 68.0184 27.0886 68.4759 27.1188H71.5697C72.1009 27.1188 72.4009 27.3875 72.4009 27.95C72.4009 28.1188 72.3634 28.2875 72.3384 28.4875C72.2847 28.7712 72.2052 29.0495 72.1009 29.3188L64.0822 55.1125C63.8822 55.7812 63.6509 56.2188 63.3884 56.4188C63.011 56.6602 62.5669 56.7761 62.1197 56.75H59.2634C58.6322 56.75 58.2009 56.65 57.9322 56.4188C57.6634 56.1813 57.4322 55.75 57.3009 55.0812L52.1447 33.5625L47.0197 55.0563C46.8572 55.725 46.6572 56.1563 46.3947 56.3875C46.1259 56.625 45.6572 56.725 45.0634 56.725H42.2009V56.7188ZM84.9384 57.6187C83.2124 57.6211 81.4922 57.4197 79.8134 57.0188C78.1509 56.6188 76.8572 56.1813 75.9884 55.6813C75.4572 55.3813 75.0947 55.05 74.9572 54.7437C74.8301 54.4497 74.7642 54.1328 74.7634 53.8125V52.1125C74.7634 51.4125 75.0259 51.075 75.5259 51.075C75.73 51.0755 75.9327 51.1092 76.1259 51.175C76.3259 51.2437 76.6259 51.375 76.9572 51.5125C78.0822 52.0125 79.3197 52.4125 80.6134 52.6813C81.9447 52.9438 83.2384 53.0813 84.5697 53.0813C86.6697 53.0813 88.2947 52.7125 89.4259 51.9813C89.9694 51.6523 90.4159 51.1851 90.72 50.6274C91.0241 50.0696 91.175 49.4413 91.1572 48.8063C91.1684 48.3775 91.0947 47.9508 90.9402 47.5507C90.7857 47.1506 90.5536 46.785 90.2572 46.475C89.6634 45.8375 88.5322 45.2688 86.9009 44.7375L82.0759 43.2375C79.6509 42.4688 77.8509 41.3313 76.7572 39.8313C75.6865 38.4453 75.1022 36.7451 75.0947 34.9938C75.0947 33.5938 75.3947 32.3563 75.9884 31.2875C76.5884 30.225 77.3884 29.2875 78.3884 28.55C79.3884 27.7875 80.5134 27.2188 81.8447 26.8188C83.1759 26.4188 84.5697 26.25 86.0322 26.25C86.7697 26.25 87.5322 26.2813 88.2634 26.3813C89.0259 26.4813 89.7259 26.6188 90.4259 26.7563C91.0884 26.9188 91.7259 27.0813 92.3197 27.2875C92.9197 27.4875 93.3822 27.6875 93.7197 27.8875C94.1121 28.0846 94.4542 28.3689 94.7197 28.7188C94.9336 29.0442 95.0367 29.43 95.0134 29.8188V31.3875C95.0134 32.0875 94.7509 32.4563 94.2509 32.4563C93.8082 32.4057 93.3795 32.2699 92.9884 32.0563C90.9786 31.1652 88.7991 30.7216 86.6009 30.7563C84.7072 30.7563 83.2072 31.0563 82.1759 31.6938C81.1447 32.3188 80.6134 33.2938 80.6134 34.6625C80.6134 35.5938 80.9447 36.3938 81.6134 37.0313C82.2759 37.6625 83.5072 38.2938 85.2697 38.8625L89.9947 40.3625C92.3884 41.1313 94.1197 42.2 95.1509 43.5688C96.1822 44.9375 96.6759 46.5063 96.6759 48.2437C96.6759 49.6812 96.3822 50.975 95.8134 52.1125C95.2246 53.2539 94.3976 54.2556 93.3884 55.05C92.3572 55.8812 91.1259 56.4875 89.6947 56.9188C88.1947 57.3875 86.6322 57.6187 84.9384 57.6187Z" fill="white"/>
<path fill-rule="evenodd" clip-rule="evenodd" d="M91.2198 73.8326C80.2823 81.9388 64.3823 86.2451 50.7135 86.2451C31.5573 86.2451 14.2948 79.1388 1.25728 67.3263C0.226029 66.3888 1.15728 65.1201 2.38228 65.8576C16.4885 74.0638 33.8823 79.0388 51.8823 79.0388C64.0135 79.0388 77.351 76.5013 89.626 71.2951C91.4573 70.4638 93.0198 72.4951 91.2198 73.8326Z" fill="#FF9900"/>
<path fill-rule="evenodd" clip-rule="evenodd" d="M95.7761 68.6256C94.3823 66.8319 86.5323 67.7631 82.9761 68.1944C81.9136 68.3319 81.7448 67.3944 82.7073 66.6944C88.9573 62.2881 99.2386 63.5569 100.432 65.0256C101.632 66.5256 100.101 76.8381 94.2448 81.7756C93.3511 82.5444 92.4886 82.1506 92.8823 81.1506C94.2136 77.8381 97.1761 70.4006 95.7761 68.6319V68.6256Z" fill="#FF9900"/>
</g>
<defs>
<clipPath id="clip0_615_22263">
<rect width="100" height="100" fill="white" transform="translate(0.813477)"/>
</clipPath>
</defs>
</svg>
