<svg width="743" height="904" viewBox="0 0 743 904" fill="none" xmlns="http://www.w3.org/2000/svg">
<path d="M342.108 769.041C342.162 769.041 342.216 769.015 342.27 768.961L399.514 707.011C399.595 706.905 399.622 706.745 399.595 706.611C399.568 706.478 399.459 706.372 399.351 706.372H338.541C338.459 706.372 338.405 706.425 338.351 706.478C338.297 706.558 338.27 706.638 338.27 706.745L341.838 768.695C341.838 768.828 341.919 768.935 342 768.988C342.027 769.041 342.054 769.041 342.108 769.041ZM398.595 707.065L342.324 767.975L338.811 707.065H398.595Z" fill="#B3C6F4"/>
<path d="M399.324 707.065C399.378 707.065 399.432 707.038 399.459 707.012L521.73 550.617C521.811 550.537 521.865 550.404 521.838 550.271C521.838 550.138 521.757 550.031 521.649 549.978L349.297 530.038C349.189 529.985 349.081 530.038 349.027 530.145C348.946 530.252 348.919 530.385 348.973 530.518L399.054 706.852C399.081 706.958 399.135 707.038 399.216 707.065C399.27 707.065 399.297 707.065 399.324 707.065ZM521 550.431L399.459 706.185L349.676 530.945L521 550.431Z" fill="#B3C6F4"/>
<path d="M349.243 530.731C349.324 530.731 349.432 530.651 349.486 530.545C349.54 530.385 349.513 530.198 349.405 530.092L303.973 321.45C303.892 321.37 303.784 321.37 303.703 321.424C303.622 321.477 303.567 321.61 303.567 321.743L238.108 477.978C238.108 478.138 238.189 478.271 238.27 478.298L349.162 530.731C349.189 530.731 349.216 530.731 349.243 530.731ZM304.081 322.437L347.676 529.265L238.622 477.711L304.081 322.437Z" fill="#B3C6F4"/>
<path d="M34.4597 878.653C34.5948 878.653 34.703 878.52 34.73 878.334L56.1895 597.133C56.1895 597 56.1625 596.866 56.0544 596.786C55.9733 596.706 55.8381 596.733 55.757 596.813L-5.05379 658.763C-5.13487 658.843 -5.16192 659.003 -5.16192 659.136L34.1895 878.387C34.2165 878.547 34.3246 878.653 34.4597 878.653ZM55.5949 597.879L34.3517 876.201L-4.5943 659.216L55.5949 597.879Z" fill="#B3C6F4"/>
<path d="M238.351 478.298C238.432 478.298 238.486 478.271 238.541 478.191C238.595 478.138 238.622 478.031 238.622 477.951L304.081 321.717C304.081 321.61 304.054 321.504 303.973 321.45C303.919 321.397 303.838 321.344 303.757 321.37L5.75677 472.833C5.62164 472.86 5.54059 473.02 5.54059 473.206C5.54059 473.393 5.64871 473.526 5.81088 473.526L238.351 478.298ZM303.568 322.143L238.108 477.605L8.72977 472.887L303.568 322.143Z" fill="#B3C6F4"/>
<path d="M55.9187 597.453C55.9728 597.453 55.9999 597.426 56.0269 597.426L238.459 478.271C238.567 478.191 238.621 478.031 238.594 477.871C238.567 477.711 238.459 477.605 238.351 477.605L5.83768 472.833C5.72957 472.833 5.64853 472.886 5.62151 472.993C5.56744 473.1 5.56744 473.233 5.62151 473.339L55.7026 597.266C55.7296 597.399 55.8377 597.453 55.9187 597.453ZM237.243 478.298L56.0269 596.653L6.27013 473.579L237.243 478.298Z" fill="#B3C6F4"/>
<path d="M218.649 913.947H217.595L312.297 840.694L34.892 878.6L50.0542 913.947H49.4325L34.2163 878.467C34.1622 878.36 34.1622 878.227 34.2163 878.12C34.2433 878.014 34.3245 877.96 34.4326 877.934L313.459 839.815C313.595 839.761 313.703 839.895 313.73 840.055C313.784 840.215 313.73 840.401 313.622 840.481L218.649 913.947Z" fill="#B3C6F4"/>
<path d="M705.027 913.947L710.216 855.116L630.729 913.947H629.648L710.405 854.156C710.486 854.076 710.594 854.103 710.675 854.183C710.756 854.263 710.811 854.369 710.783 854.529L705.54 913.973H705.027V913.947Z" fill="#B3C6F4"/>
<path d="M630.729 913.947H629.648L709.216 855.035L624.892 869.084L616.486 913.947H615.946L624.432 868.684C624.459 868.55 624.54 868.444 624.648 868.417L710.513 854.129C710.648 854.076 710.756 854.209 710.783 854.369C710.81 854.529 710.783 854.716 710.675 854.796L630.729 913.947Z" fill="#B3C6F4"/>
<path d="M399.324 707.065C399.351 707.065 399.378 707.065 399.406 707.038L506.73 654.605C506.811 654.578 506.865 654.471 506.892 654.365L521.838 550.377C521.865 550.244 521.838 550.084 521.73 550.004C521.649 549.924 521.514 549.924 521.432 550.004L399.189 706.372C399.081 706.425 399.027 706.532 399.027 706.692C399.054 706.905 399.162 707.065 399.324 707.065ZM506.433 654.018L401.324 705.359L521.162 551.124L506.433 654.018Z" fill="#B3C6F4"/>
<path d="M624.703 869.11H624.73L710.595 854.822C710.676 854.822 710.757 854.742 710.784 854.663C710.811 854.583 710.838 854.449 710.811 854.369L657.162 649.433C657.135 649.273 657 649.167 656.892 649.193C656.784 649.193 656.676 649.327 656.649 649.487L624.459 868.711C624.432 868.817 624.459 868.924 624.514 869.004C624.568 869.084 624.622 869.11 624.703 869.11ZM710.189 854.183L625.027 868.364L656.973 650.873L710.189 854.183Z" fill="#B3C6F4"/>
<path d="M624.703 869.11C624.73 869.11 624.73 869.11 624.757 869.11C624.865 869.083 624.946 868.977 624.973 868.844L657.162 649.593C657.162 649.486 657.162 649.38 657.108 649.3C657.054 649.22 656.973 649.167 656.892 649.167L506.649 653.938C506.541 653.938 506.459 654.018 506.432 654.125C506.378 654.231 506.405 654.391 506.459 654.498L624.513 868.977C624.541 869.057 624.622 869.11 624.703 869.11ZM656.568 649.886L624.54 867.911L507.162 654.631L656.568 649.886Z" fill="#B3C6F4"/>
<path d="M506.649 654.658L656.919 649.886C657.054 649.886 657.162 649.753 657.162 649.566C657.162 649.407 657.081 649.22 656.973 649.193L521.703 549.977C521.568 549.924 521.405 550.031 521.378 550.217L506.432 654.098C506.405 654.151 506.378 654.231 506.378 654.285C506.378 654.498 506.486 654.658 506.649 654.658ZM654.973 649.247L507 653.938L521.784 550.75L654.973 649.247Z" fill="#B3C6F4"/>
<path d="M331.648 913.947L313.324 840.694L218.621 913.947H217.567L313.324 839.868C313.405 839.815 313.459 839.815 313.54 839.841C313.621 839.895 313.675 839.948 313.702 840.054L332.189 913.947H331.648Z" fill="#B3C6F4"/>
<path d="M401.567 913.947L313.946 840.988L332.189 913.947H331.621L313.189 840.295C313.162 840.161 313.189 840.001 313.27 839.895C313.351 839.815 313.486 839.788 313.567 839.868L402.54 913.947H401.567Z" fill="#B3C6F4"/>
<path d="M435.108 826.22C435.162 826.22 435.243 826.193 435.297 826.113C435.378 826.007 435.405 825.847 435.351 825.713L399.567 706.558C399.54 706.452 399.459 706.372 399.378 706.345C399.297 706.318 399.216 706.345 399.135 706.425L341.892 768.375C341.811 768.455 341.783 768.562 341.783 768.695C341.783 768.801 341.865 768.908 341.946 768.961L434.946 826.166C435.027 826.22 435.081 826.22 435.108 826.22ZM399.216 707.305L434.621 825.207L342.594 768.615L399.216 707.305Z" fill="#B3C6F4"/>
<path d="M313.486 840.534L435.135 826.246C435.243 826.22 435.351 826.113 435.378 825.953C435.405 825.793 435.351 825.633 435.243 825.58L342.243 768.401C342.108 768.322 341.973 768.401 341.892 768.561L313.297 839.975C313.243 840.028 313.216 840.134 313.216 840.214C313.216 840.374 313.351 840.481 313.486 840.534ZM434.108 825.633L313.946 839.761L342.216 769.148L434.108 825.633Z" fill="#B3C6F4"/>
<path d="M615.946 913.946L624.378 869.057L437.324 826.726L593.162 913.946H591.811L435 826.193C434.865 826.113 434.811 825.953 434.838 825.766C434.865 825.607 435 825.5 435.135 825.527L624.73 868.417C624.811 868.444 624.865 868.497 624.892 868.577C624.946 868.657 624.946 868.764 624.919 868.844L616.459 913.946H615.946Z" fill="#B3C6F4"/>
<path d="M624.702 869.11C624.784 869.11 624.892 869.057 624.919 868.95C624.973 868.844 624.973 868.684 624.919 868.551L506.865 654.098C506.811 653.991 506.73 653.938 506.648 653.965C506.567 653.965 506.486 654.045 506.432 654.151L434.892 825.74C434.865 825.847 434.838 825.953 434.892 826.06C434.919 826.167 435 826.247 435.081 826.247L624.675 869.137C624.675 869.11 624.675 869.11 624.702 869.11ZM506.675 654.951L624.081 868.284L435.486 825.607L506.675 654.951Z" fill="#B3C6F4"/>
<path d="M591.811 913.947L435.324 826.38L429.621 913.947H429.081L434.838 825.847C434.838 825.74 434.892 825.633 434.973 825.58C435.054 825.527 435.135 825.5 435.216 825.553L593.189 913.947H591.811Z" fill="#B3C6F4"/>
<path d="M435.108 826.22C435.216 826.22 435.297 826.14 435.351 826.033L506.892 654.471C506.946 654.338 506.946 654.178 506.865 654.071C506.784 653.965 506.676 653.911 506.568 653.965L399.243 706.398C399.189 706.425 399.135 706.505 399.081 706.585C399.054 706.665 399.054 706.771 399.081 706.851L434.865 826.007C434.892 826.14 435 826.22 435.108 826.22C435.081 826.22 435.108 826.22 435.108 826.22ZM506.081 654.951L435.162 825.047L399.703 706.931L506.081 654.951Z" fill="#B3C6F4"/>
<path d="M429.081 913.947L434.811 826.273L314.297 840.428L402.594 913.947H401.594L313.351 840.481C313.243 840.401 313.216 840.241 313.243 840.108C313.27 839.975 313.351 839.841 313.486 839.841L435.108 825.553C435.189 825.553 435.27 825.58 435.324 825.66C435.378 825.74 435.405 825.847 435.405 825.953L429.649 914H429.081V913.947Z" fill="#B3C6F4"/>
<path d="M55.9192 597.453C55.9732 597.453 56.0273 597.426 56.0813 597.373C56.1895 597.266 56.2165 597.08 56.1624 596.92L6.08136 472.993C6.05433 472.913 6.00028 472.833 5.9192 472.833C5.83812 472.807 5.7841 472.833 5.70302 472.86L-22.9186 496.691C-22.9997 496.744 -23.0267 496.851 -23.0538 496.958C-23.0538 497.064 -23.0267 497.171 -22.9727 497.251L55.7301 597.346C55.7841 597.426 55.8651 597.453 55.9192 597.453ZM5.73007 473.686L54.8922 595.32L-22.351 497.091L5.73007 473.686Z" fill="#B3C6F4"/>
<path d="M-4.89164 659.429C-4.83758 659.429 -4.78354 659.403 -4.72948 659.349L56.0813 597.399C56.1354 597.346 56.1895 597.239 56.1895 597.133C56.1895 597.026 56.1624 596.92 56.1084 596.866L-22.5943 496.771C-22.6754 496.664 -22.8106 496.637 -22.8916 496.717C-22.9997 496.797 -23.0538 496.931 -23.0267 497.091L-5.13487 659.136C-5.10784 659.269 -5.05379 659.376 -4.97271 659.403C-4.94569 659.403 -4.91866 659.429 -4.89164 659.429ZM55.5138 597.08L-4.70243 658.416L-22.4051 497.97L55.5138 597.08Z" fill="#B3C6F4"/>
<path d="M-34.973 496.664H-22.8649L3.62159 474.592L-34.973 492.959V492.212L5.75675 472.833C5.86486 472.78 6.02701 472.859 6.08106 473.019C6.13512 473.179 6.10815 473.393 5.97301 473.473L-22.6486 497.304C-22.6756 497.33 -22.7297 497.357 -22.7838 497.357H-34.973V496.664Z" fill="#B3C6F4"/>
<path d="M-34.9731 492.239L5.32418 473.073L-34.9731 423.865V422.905L5.99985 472.94C6.08093 473.02 6.10796 473.153 6.08093 473.286C6.0539 473.393 5.99985 473.5 5.91877 473.553L-34.9731 493.012V492.239Z" fill="#B3C6F4"/>
<path d="M227.621 678.489C227.676 678.489 227.757 678.463 227.811 678.383L349.432 530.652C349.513 530.572 349.54 530.438 349.513 530.332C349.486 530.198 349.432 530.118 349.351 530.065L238.459 477.632C238.378 477.578 238.297 477.605 238.216 477.658C238.135 477.712 238.108 477.818 238.108 477.925L227.378 677.983C227.378 678.036 227.351 678.063 227.351 678.116C227.351 678.329 227.459 678.489 227.621 678.489ZM348.757 530.518L227.946 677.263L238.594 478.431L348.757 530.518Z" fill="#B3C6F4"/>
<path d="M313.486 840.535C313.595 840.535 313.676 840.455 313.73 840.348L342.351 768.855C342.405 768.695 342.378 768.482 342.243 768.402L227.784 677.849C227.676 677.769 227.541 677.796 227.459 677.903C227.378 678.036 227.351 678.196 227.432 678.356L313.297 840.401C313.324 840.455 313.405 840.535 313.486 840.535ZM341.757 768.802L313.459 839.495L228.568 679.262L341.757 768.802Z" fill="#B3C6F4"/>
<path d="M34.4593 878.654H34.4864L313.513 840.534C313.594 840.534 313.703 840.428 313.73 840.321C313.757 840.215 313.757 840.081 313.703 839.975L227.838 677.929C227.811 677.849 227.73 677.796 227.675 677.796C227.594 677.796 227.54 677.796 227.486 677.876L34.3242 878.04C34.2161 878.147 34.1891 878.307 34.2431 878.44C34.2431 878.573 34.3512 878.654 34.4593 878.654ZM313 839.868L35.3513 877.8L227.567 678.596L313 839.868Z" fill="#B3C6F4"/>
<path d="M227.622 678.489C227.676 678.489 227.73 678.462 227.757 678.436C227.811 678.383 227.865 678.276 227.865 678.169L238.595 478.005C238.595 477.872 238.568 477.765 238.487 477.685C238.406 477.605 238.297 477.605 238.216 477.658L55.784 596.813C55.6758 596.867 55.6218 597 55.6218 597.16C55.6218 597.293 55.7029 597.426 55.811 597.48L227.541 678.463C227.568 678.463 227.595 678.489 227.622 678.489ZM238.054 478.538L227.378 677.636L56.5947 597.053L238.054 478.538Z" fill="#B3C6F4"/>
<path d="M34.4592 878.653C34.5132 878.653 34.5673 878.627 34.6213 878.573L227.784 678.409C227.865 678.329 227.892 678.196 227.892 678.062C227.865 677.929 227.811 677.822 227.729 677.796L56.0268 596.786C55.9457 596.76 55.8647 596.76 55.8106 596.813C55.7565 596.866 55.7025 596.973 55.7025 597.08L34.243 878.174C34.243 878.227 34.2159 878.253 34.2159 878.307C34.1889 878.493 34.297 878.653 34.4592 878.653ZM227.081 678.249L34.7836 877.507L56.1349 597.586L227.081 678.249Z" fill="#B3C6F4"/>
<path d="M303.838 322.09C303.892 322.09 303.919 322.09 303.973 322.037C304.081 321.957 304.135 321.77 304.081 321.61L156.351 153.754C156.324 153.647 156.243 153.567 156.162 153.54C156.081 153.514 156 153.54 155.919 153.62L113 206.054C112.892 206.187 112.892 206.374 112.973 206.534L303.649 321.983C303.676 322.037 303.757 322.09 303.838 322.09ZM155.973 154.473L302.838 319.478L113.514 206.32L155.973 154.473Z" fill="#B3C6F4"/>
<path d="M5.83792 473.553C5.83792 473.553 5.86499 473.553 5.89203 473.553L303.892 322.09C303.973 322.063 304.054 321.983 304.081 321.877C304.108 321.77 304.108 321.637 304.054 321.53L113.378 206.107C113.324 206 113.243 205.947 113.162 205.974C113.081 205.974 113 206.054 112.946 206.16L5.62173 473.046C5.56769 473.18 5.56763 473.313 5.64871 473.42C5.67572 473.5 5.75684 473.553 5.83792 473.553ZM303.351 321.504L6.32437 472.727L113.189 206.933L303.351 321.504Z" fill="#B3C6F4"/>
<path d="M399.324 707.065C399.405 707.065 399.486 707.011 399.54 706.932C399.594 706.825 399.621 706.718 399.567 706.585L349.486 530.252C349.432 530.092 349.351 529.985 349.216 530.038C349.108 530.038 349 530.172 348.973 530.331L327.513 697.149C327.513 697.255 327.513 697.335 327.567 697.415C327.621 697.495 327.675 697.548 327.756 697.548L399.297 707.091C399.324 707.065 399.324 707.065 399.324 707.065ZM349.351 531.718L398.946 706.318L328.108 696.882L349.351 531.718Z" fill="#B3C6F4"/>
<path d="M338.513 707.065H399.324C399.459 707.065 399.567 706.931 399.594 706.745C399.594 706.558 399.486 706.398 399.351 706.372L327.811 696.829C327.676 696.829 327.567 696.909 327.54 697.069C327.486 697.228 327.54 697.388 327.649 697.468L338.378 706.985C338.432 707.065 338.459 707.065 338.513 707.065ZM394.027 706.372H338.595L328.811 697.682L394.027 706.372Z" fill="#B3C6F4"/>
<path d="M327.784 697.548C327.919 697.548 328.027 697.442 328.054 697.255L349.513 530.438C349.54 530.305 349.486 530.145 349.378 530.065C349.27 530.011 349.162 530.011 349.081 530.118L227.459 677.849C227.378 677.956 227.351 678.089 227.378 678.222C227.405 678.356 227.486 678.435 227.594 678.462L327.757 697.522C327.757 697.548 327.784 697.548 327.784 697.548ZM348.865 531.344L327.594 696.802L228.243 677.902L348.865 531.344Z" fill="#B3C6F4"/>
<path d="M342.108 769.041C342.135 769.041 342.135 769.041 342.162 769.041C342.297 769.015 342.378 768.855 342.378 768.668L338.811 706.718C338.811 706.612 338.757 706.505 338.702 706.452L327.973 696.935C327.892 696.855 327.757 696.855 327.675 696.935C327.594 697.015 327.54 697.175 327.567 697.308L341.892 768.802C341.865 768.935 341.973 769.041 342.108 769.041ZM338.27 706.931L341.621 764.91L328.243 698.001L338.27 706.931Z" fill="#B3C6F4"/>
<path d="M342.108 769.042C342.162 769.042 342.216 769.015 342.27 768.962C342.351 768.882 342.405 768.722 342.378 768.588L328.081 697.095C328.054 696.962 327.973 696.855 327.865 696.829L227.703 677.769C227.595 677.743 227.46 677.849 227.406 678.009C227.379 678.169 227.406 678.329 227.514 678.436L341.973 768.988C342 769.015 342.054 769.042 342.108 769.042ZM327.568 697.522L341.676 767.949L228.892 678.729L327.568 697.522Z" fill="#B3C6F4"/>
<path d="M-34.9729 116.568L155.757 153.46L120.135 -88.5284L-34.9729 78.3686V77.4623L120.135 -89.4614C120.216 -89.5414 120.297 -89.5681 120.406 -89.5147C120.487 -89.4614 120.568 -89.3815 120.568 -89.2482L156.351 153.807C156.378 153.913 156.351 154.047 156.27 154.127C156.216 154.207 156.162 154.233 156.081 154.233H156.054L-34.9458 117.287V116.568H-34.9729Z" fill="#B3C6F4"/>
<path d="M-34.973 126.99L113.081 205.894L155.487 154.127L-34.973 117.287V116.567L156.108 153.513C156.216 153.54 156.297 153.62 156.324 153.753C156.351 153.887 156.324 154.02 156.243 154.127L113.324 206.56C113.27 206.613 113.216 206.667 113.135 206.667C113.108 206.667 113.081 206.667 113.027 206.64L-35 127.763V126.99H-34.973Z" fill="#B3C6F4"/>
<path d="M-34.9729 77.4622L119.189 -88.4485L-34.9729 -35.6418V-36.3615L120.243 -89.5148C120.351 -89.5681 120.487 -89.4881 120.541 -89.3282C120.595 -89.1683 120.568 -89.0083 120.46 -88.9017L-34.9729 78.3685V77.4622Z" fill="#B3C6F4"/>
<path d="M-34.973 265.231L5.91886 472.247L112.784 206.48L-34.973 127.737V126.99L113.243 205.974C113.297 206.027 113.378 206.08 113.405 206.187C113.432 206.294 113.432 206.374 113.378 206.48L6.05405 473.366C5.99999 473.473 5.91886 473.553 5.83778 473.553H5.81081C5.70271 473.553 5.62157 473.446 5.59455 473.286L-34.946 268.004V265.231H-34.973Z" fill="#B3C6F4"/>
<path d="M-34.9731 422.879L5.3513 472.113L-34.9731 267.977V265.205L6.081 473.073C6.10803 473.233 6.05401 473.366 5.9459 473.473C5.91887 473.5 5.86485 473.526 5.8108 473.526C5.72972 473.526 5.67564 473.5 5.62159 473.446L-35 423.838V422.879H-34.9731Z" fill="#B3C6F4"/>
<path d="M709.892 913.947L710.243 860.953L705.567 913.947H705.027L710.27 854.422C710.27 854.236 710.378 854.103 710.54 854.103C710.676 854.129 710.784 854.262 710.784 854.449L710.405 913.92H709.892V913.947Z" fill="#B3C6F4"/>
<path d="M743 787.781L735.595 913.947H735.081L742.405 789.114" fill="#B3C6F4"/>
<path d="M742.405 789.114L710.811 854.582L710.432 913.947H709.892L710.27 854.476C710.27 854.422 710.297 854.342 710.324 854.289L742.513 787.568" fill="#B3C6F4"/>
<path d="M-34.973 894.461L34.1351 878.014L-4.94593 660.336L-34.973 780.37V778.158L-5.1622 658.976C-5.13517 658.816 -5.00002 658.736 -4.89191 658.736C-4.7838 658.736 -4.6757 658.843 -4.64868 659.003L34.7027 878.227C34.7297 878.333 34.7027 878.413 34.6757 878.493C34.6487 878.573 34.5676 878.627 34.5135 878.653L-34.9459 895.18V894.461H-34.973Z" fill="#B3C6F4"/>
<path d="M49.4325 913.947L34.3784 878.867L6.24329 913.947H5.45956L34.2704 878.04C34.3244 877.96 34.4055 877.934 34.4866 877.934C34.5676 877.96 34.6487 878.014 34.6758 878.12L50.0271 913.947H49.4325Z" fill="#B3C6F4"/>
<path d="M6.24302 913.947H5.4593L33.6214 878.866L-34.9732 895.18V894.461L34.4052 877.96C34.5133 877.934 34.6485 878.014 34.6755 878.147C34.7296 878.28 34.7025 878.44 34.6214 878.547L6.24302 913.947Z" fill="#B3C6F4"/>
</svg>
