<svg width="273" height="282" viewBox="0 0 273 282" fill="none" xmlns="http://www.w3.org/2000/svg">
<path fill-rule="evenodd" clip-rule="evenodd" d="M148.343 55.5978C178.26 51.054 208.287 25.3177 235.323 38.9345C262.099 52.4207 274.196 88.336 272.907 118.336C271.734 145.641 238.376 159.482 229.042 185.162C220.29 209.242 238.077 240.265 221.499 259.78C204.683 279.577 173.749 285.435 148.343 280.163C124.454 275.205 114.577 247.013 94.3226 233.389C72.775 218.895 42.3896 219.271 26.8511 198.443C8.52402 173.877 -7.34409 140.411 3.5848 111.762C14.5131 83.114 50.0761 73.809 78.6197 62.7345C100.952 54.0699 124.665 59.194 148.343 55.5978Z" fill="url(#paint0_linear_608_18697)"/>
<path d="M60.9383 6.94531V112.088H58.0156V8.03371C58.9918 7.64932 59.968 7.28532 60.9383 6.94531Z" fill="black"/>
<path d="M193.112 70.7051H29.481V73.668H193.112V70.7051Z" fill="black"/>
<path d="M193.111 33.6562V36.6201H29.4795V36.354C29.7191 35.4458 29.9972 34.5466 30.3136 33.6562H193.111Z" fill="black"/>
<path d="M94.0885 0V111.5H91.1689V0.292957C92.1363 0.183398 93.1094 0.0886337 94.0885 0Z" fill="black"/>
<path d="M127.242 0.793273V103.818H124.323V0.441406C125.296 0.547767 126.269 0.666121 127.242 0.793273Z" fill="black"/>
<path d="M160.396 8.64135V112.089H157.476V7.65625C158.452 7.97573 159.425 8.30414 160.396 8.64135Z" fill="black"/>
<path d="M74.6733 23.5645H64.8394V33.5586H74.6733V23.5645Z" fill="white"/>
<path d="M74.6732 33.8531H64.8392C64.6758 33.8531 64.5435 33.7208 64.5435 33.5573V23.5633C64.5435 23.3998 64.6759 23.2676 64.8392 23.2676H74.6732C74.8366 23.2676 74.9689 23.3999 74.9689 23.5633V33.5573C74.9689 33.7208 74.8366 33.8531 74.6732 33.8531ZM65.135 33.2615H74.3774V23.8591H65.135V33.2615Z" fill="black"/>
<path d="M87.5498 23.5645H77.7158V33.5586H87.5498V23.5645Z" fill="white"/>
<path d="M87.5496 33.8531H77.7157C77.5523 33.8531 77.4199 33.7208 77.4199 33.5573V23.5633C77.4199 23.3998 77.5524 23.2676 77.7157 23.2676H87.5496C87.713 23.2676 87.8454 23.3999 87.8454 23.5633V33.5573C87.8455 33.7208 87.713 33.8531 87.5496 33.8531ZM78.0114 33.2615H87.2539V23.8591H78.0114V33.2615Z" fill="black"/>
<path d="M88.5203 45.3438H63.5347V70.7364H88.5203V45.3438Z" fill="white"/>
<path d="M88.5203 71.0308H63.5345C63.3711 71.0308 63.2388 70.8985 63.2388 70.735V45.3426C63.2388 45.1791 63.3713 45.0469 63.5345 45.0469H88.5203C88.6837 45.0469 88.8161 45.1792 88.8161 45.3426V70.735C88.8161 70.8985 88.6836 71.0308 88.5203 71.0308ZM63.8304 70.4392H88.2245V45.6384H63.8304V70.4392Z" fill="black"/>
<path d="M83.4542 65.881H68.6C68.4365 65.881 68.3042 65.7486 68.3042 65.5852V50.4891C68.3042 50.3256 68.4367 50.1934 68.6 50.1934H83.4542C83.6176 50.1934 83.7499 50.3257 83.7499 50.4891V65.5851C83.7499 65.7486 83.6174 65.881 83.4542 65.881ZM68.8957 65.2893H83.1583V50.785H68.8957V65.2893Z" fill="black"/>
<path d="M81.3046 63.7778H70.7494C70.586 63.7778 70.4536 63.6454 70.4536 63.482V61.6688C70.4536 61.5053 70.5861 61.373 70.7494 61.373H81.3046C81.4681 61.373 81.6004 61.5054 81.6004 61.6688V63.482C81.6004 63.6454 81.4679 63.7778 81.3046 63.7778ZM71.0451 63.1861H81.0088V61.9644H71.0451V63.1861Z" fill="black"/>
<path d="M74.0782 59.9919H72.2941C72.1306 59.9919 71.9983 59.8596 71.9983 59.6962V54.9731H70.8222C70.7031 54.9731 70.5955 54.9015 70.5494 54.7917C70.5033 54.6816 70.5278 54.5549 70.6113 54.47L72.9753 52.0674C73.0864 51.9541 73.2858 51.9541 73.397 52.0674L75.761 54.47C75.8446 54.5549 75.869 54.6818 75.823 54.7917C75.7769 54.9015 75.6693 54.9731 75.5502 54.9731H74.3741V59.6962C74.3739 59.8597 74.2415 59.9919 74.0782 59.9919ZM72.5898 59.4004H73.7824V54.6774C73.7824 54.5138 73.9149 54.3816 74.0782 54.3816H74.8442L73.1861 52.6966L71.5282 54.3816H72.2942C72.4576 54.3816 72.5899 54.514 72.5899 54.6774V59.4004H72.5898Z" fill="black"/>
<path d="M79.7597 59.9919H77.9757C77.8123 59.9919 77.68 59.8596 77.68 59.6962V54.9731H76.5039C76.3847 54.9731 76.2772 54.9015 76.231 54.7917C76.1849 54.6816 76.2093 54.5549 76.293 54.47L78.6569 52.0674C78.7681 51.9541 78.9675 51.9541 79.0786 52.0674L81.4426 54.47C81.5263 54.5549 81.5507 54.6818 81.5045 54.7917C81.4584 54.9015 81.3509 54.9731 81.2317 54.9731H80.0556V59.6962C80.0555 59.8597 79.923 59.9919 79.7597 59.9919ZM78.2715 59.4004H79.464V54.6774C79.464 54.5138 79.5964 54.3816 79.7597 54.3816H80.5257L78.8678 52.6966L77.2099 54.3816H77.9759C78.1393 54.3816 78.2716 54.514 78.2716 54.6774L78.2715 59.4004Z" fill="black"/>
<path d="M123.488 48.209H100.881V71.1838H123.488V48.209Z" fill="white"/>
<path d="M123.488 71.4783H100.882C100.718 71.4783 100.586 71.3459 100.586 71.1825V48.2079C100.586 48.0443 100.718 47.9121 100.882 47.9121H123.488C123.652 47.9121 123.784 48.0445 123.784 48.2079V71.1825C123.784 71.3459 123.652 71.4783 123.488 71.4783ZM101.177 70.8866H123.192V48.5036H101.177V70.8866Z" fill="black"/>
<path d="M154.589 8.66406H129.604V34.0567H154.589V8.66406Z" fill="white"/>
<path d="M154.589 34.3515H129.603C129.439 34.3515 129.307 34.2192 129.307 34.0558V8.66295C129.307 8.49941 129.44 8.36719 129.603 8.36719H154.589C154.752 8.36719 154.884 8.49954 154.884 8.66295V34.0556C154.884 34.2192 154.752 34.3515 154.589 34.3515ZM129.899 33.7599H154.293V8.9587H129.899V33.7599Z" fill="black"/>
<path d="M149.474 29.1535H134.717C134.554 29.1535 134.421 29.0211 134.421 28.8577V13.8602C134.421 13.6967 134.554 13.5645 134.717 13.5645H149.474C149.638 13.5645 149.77 13.6968 149.77 13.8602V28.8577C149.77 29.0211 149.638 29.1535 149.474 29.1535ZM135.013 28.5618H149.178V14.156H135.013V28.5618Z" fill="black"/>
<path d="M141.187 27.0372C140.522 27.0372 139.981 26.4901 139.981 25.8173V25.0934C139.981 24.9299 140.114 24.7977 140.277 24.7977C140.44 24.7977 140.573 24.93 140.573 25.0934V25.8173C140.573 26.1637 140.848 26.4456 141.186 26.4456C141.525 26.4456 141.8 26.1637 141.8 25.8173V15.9735C141.8 15.81 141.932 15.6777 142.096 15.6777C142.259 15.6777 142.391 15.8101 142.391 15.9735V25.8173C142.392 26.4901 141.851 27.0372 141.187 27.0372Z" fill="black"/>
<path d="M146.83 21.5829C147.07 21.5829 147.255 21.3689 147.226 21.1271C146.972 19.0079 144.772 17.3516 142.096 17.3516C139.42 17.3516 137.22 19.0079 136.966 21.1271C136.937 21.3689 137.122 21.5829 137.362 21.5829H146.83Z" fill="white"/>
<path d="M146.83 21.8777H137.362C137.165 21.8777 136.977 21.7928 136.845 21.6448C136.711 21.4941 136.648 21.2922 136.672 21.0911C136.948 18.7899 139.28 17.0547 142.096 17.0547C144.912 17.0547 147.243 18.7899 147.519 21.0908C147.543 21.2918 147.48 21.4937 147.347 21.6446C147.215 21.7928 147.027 21.8777 146.83 21.8777ZM142.096 17.6463C139.579 17.6463 137.5 19.1574 137.26 21.1613C137.255 21.2066 137.275 21.2375 137.288 21.2521C137.302 21.2677 137.326 21.2862 137.362 21.2862H146.83C146.866 21.2862 146.89 21.2677 146.904 21.2521C146.917 21.2377 146.937 21.207 146.932 21.1613C146.692 19.1574 144.613 17.6463 142.096 17.6463Z" fill="black"/>
<path d="M30.3871 82.8281L236.753 117.685C246.364 119.312 252.046 125.926 253.797 133.446C253.794 133.469 253.797 133.496 253.803 133.522C253.357 138.743 252.567 143.982 251.407 149.206C251.289 149.505 251.185 149.821 251.105 150.161C249.668 152.445 247.763 154.468 245.382 156.065C243.001 157.663 240.149 158.834 236.821 159.408C232.405 160.171 232.408 166.516 236.824 167.276L245.234 168.803C240.557 180.132 234.316 190.319 226.891 199.273L183.387 191.659C170.831 189.521 164.536 179.422 164.536 169.32C164.536 159.284 170.754 149.247 183.216 147.026C185.961 146.535 185.946 142.592 183.198 142.124L29.0737 115.887L30.3871 82.8281Z" fill="white"/>
<path d="M226.892 199.568C226.875 199.568 226.858 199.567 226.841 199.564L183.337 191.95C170.146 189.703 164.241 178.965 164.241 169.32C164.241 159.757 170.092 149.064 183.165 146.734C184.418 146.509 184.976 145.483 184.972 144.565C184.968 143.648 184.403 142.628 183.149 142.415L29.0245 116.177C28.8635 116.15 28.7551 115.997 28.7826 115.836C28.81 115.675 28.9625 115.569 29.1239 115.594L183.248 141.832C184.84 142.103 185.558 143.398 185.563 144.562C185.568 145.728 184.861 147.031 183.269 147.316C170.533 149.586 164.832 160.003 164.832 169.319C164.832 178.716 170.585 189.178 183.438 191.366L226.773 198.951C234.243 189.917 240.313 179.851 244.821 169.027L236.772 167.567C234.317 167.144 233.216 165.14 233.215 163.342C233.215 161.544 234.314 159.54 236.771 159.116C239.926 158.572 242.767 157.462 245.217 155.819C247.475 154.305 249.363 152.362 250.83 150.044C250.905 149.734 251.001 149.43 251.124 149.118C252.254 144.022 253.055 138.78 253.506 133.534C253.503 133.514 253.501 133.494 253.501 133.474C251.564 125.222 245.287 119.429 236.704 117.976L30.3383 83.1187C30.1773 83.0915 30.0686 82.9388 30.0959 82.7775C30.1231 82.6167 30.2757 82.5088 30.4369 82.5352L236.803 117.392C245.642 118.889 252.103 124.865 254.086 133.378C254.094 133.411 254.096 133.446 254.091 133.48C254.098 133.51 254.101 133.517 254.098 133.547C253.646 138.839 252.838 144.128 251.696 149.269C251.693 149.284 251.688 149.299 251.683 149.314C251.56 149.623 251.466 149.922 251.394 150.228C251.387 150.259 251.374 150.29 251.356 150.318C249.841 152.725 247.887 154.741 245.547 156.31C243.027 158 240.109 159.141 236.872 159.699C234.754 160.065 233.806 161.792 233.807 163.342C233.807 164.892 234.756 166.619 236.875 166.984L245.287 168.511C245.375 168.527 245.451 168.582 245.494 168.66C245.537 168.738 245.542 168.832 245.508 168.915C240.942 179.975 234.755 190.253 227.119 199.461C227.063 199.529 226.979 199.568 226.892 199.568Z" fill="black"/>
<path d="M167.987 242.247C186.127 238.407 196.705 228.758 216.267 210.527L96.3042 238.097L167.987 242.247Z" fill="white"/>
<path d="M167.987 242.542C167.85 242.542 167.727 242.447 167.698 242.307C167.664 242.148 167.766 241.991 167.926 241.957C186.017 238.127 196.558 228.488 215.259 211.062L96.3704 238.385C96.2113 238.423 96.0526 238.322 96.0159 238.163C95.9793 238.004 96.0786 237.845 96.2379 237.808L216.201 210.238C216.331 210.207 216.466 210.27 216.528 210.388C216.591 210.506 216.567 210.652 216.469 210.743C197.183 228.717 186.559 238.617 168.048 242.536C168.027 242.54 168.007 242.542 167.987 242.542Z" fill="black"/>
<path d="M151.729 196.344L149.029 195.026C148.593 194.814 148.314 194.373 148.322 193.892C148.331 193.383 148.319 192.878 148.286 192.376C148.254 191.897 148.51 191.444 148.933 191.21L151.557 189.756C152.074 189.469 152.322 188.866 152.154 188.304L151.47 186.014C151.302 185.452 150.763 185.08 150.173 185.119L147.166 185.316C146.679 185.348 146.217 185.101 145.979 184.68C145.734 184.243 145.471 183.817 145.19 183.402C144.919 183.001 144.907 182.481 145.156 182.066L146.7 179.5C147.003 178.996 146.914 178.351 146.484 177.947L144.737 176.304C144.308 175.9 143.653 175.845 143.161 176.171L140.661 177.828C140.256 178.097 139.732 178.112 139.314 177.866C138.882 177.611 138.437 177.373 137.981 177.152C137.543 176.94 137.268 176.494 137.275 176.01L137.318 173.027C137.326 172.44 136.923 171.926 136.348 171.789L134.005 171.232C133.429 171.095 132.834 171.372 132.572 171.898L131.242 174.574C131.027 175.006 130.583 175.283 130.097 175.275C129.584 175.266 129.074 175.278 128.567 175.312C128.084 175.343 127.627 175.09 127.391 174.671L125.925 172.071C125.636 171.559 125.028 171.314 124.46 171.48L122.149 172.159C121.581 172.325 121.206 172.859 121.245 173.445L121.443 176.424C121.475 176.904 121.23 177.363 120.807 177.597C120.362 177.843 119.927 178.107 119.505 178.388C119.102 178.655 118.578 178.662 118.161 178.417L115.573 176.888C115.065 176.588 114.414 176.677 114.007 177.103L112.347 178.835C111.94 179.261 111.884 179.909 112.213 180.397L113.884 182.873C114.155 183.274 114.17 183.794 113.921 184.209C113.664 184.637 113.424 185.077 113.201 185.53C112.986 185.964 112.536 186.236 112.048 186.229L109.038 186.188C108.446 186.18 107.927 186.58 107.788 187.15L107.225 189.472C107.087 190.043 107.366 190.632 107.897 190.891L110.597 192.208C111.032 192.421 111.312 192.862 111.303 193.343C111.294 193.852 111.306 194.357 111.34 194.859C111.371 195.338 111.116 195.791 110.693 196.025L108.069 197.479C107.552 197.765 107.304 198.368 107.472 198.931L108.155 201.221C108.323 201.783 108.862 202.155 109.453 202.116L112.46 201.919C112.943 201.887 113.407 202.129 113.643 202.549C113.891 202.99 114.157 203.42 114.44 203.839C114.71 204.238 114.717 204.757 114.469 205.17L112.926 207.735C112.622 208.239 112.712 208.884 113.141 209.288L114.889 210.931C115.318 211.335 115.972 211.39 116.465 211.064L118.964 209.407C119.369 209.138 119.893 209.123 120.312 209.369C120.743 209.624 121.188 209.862 121.644 210.083C122.083 210.295 122.357 210.741 122.35 211.225L122.308 214.208C122.3 214.795 122.703 215.309 123.278 215.446L125.621 216.003C126.197 216.14 126.791 215.864 127.053 215.337L128.383 212.661C128.598 212.229 129.043 211.952 129.529 211.96C130.042 211.969 130.552 211.957 131.058 211.924C131.542 211.892 131.998 212.145 132.235 212.564L133.701 215.164C133.99 215.676 134.598 215.922 135.166 215.755L137.476 215.077C138.044 214.91 138.42 214.376 138.381 213.79L138.183 210.811C138.151 210.329 138.4 209.87 138.826 209.635C139.266 209.391 139.696 209.13 140.115 208.852C140.52 208.583 141.045 208.571 141.463 208.818L144.052 210.347C144.56 210.647 145.211 210.558 145.619 210.132L147.278 208.4C147.686 207.974 147.742 207.326 147.412 206.838L145.741 204.362C145.47 203.961 145.455 203.441 145.704 203.026C145.961 202.598 146.201 202.158 146.424 201.705C146.639 201.271 147.089 200.999 147.577 201.006L150.588 201.047C151.18 201.055 151.698 200.655 151.837 200.085L152.4 197.763C152.539 197.192 152.26 196.603 151.729 196.344ZM130.033 203.869C124.32 203.992 119.59 199.502 119.468 193.84C119.346 188.178 123.879 183.489 129.593 183.366C135.306 183.243 140.036 187.733 140.158 193.395C140.28 199.057 135.747 203.746 130.033 203.869Z" fill="white"/>
<path d="M125.923 216.334C125.8 216.334 125.677 216.32 125.553 216.291L123.21 215.733C122.495 215.563 122.002 214.934 122.012 214.204L122.055 211.221C122.06 210.852 121.849 210.51 121.516 210.349C121.054 210.126 120.599 209.882 120.162 209.624C119.844 209.436 119.438 209.448 119.128 209.653L116.628 211.311C116.017 211.716 115.219 211.648 114.687 211.147L112.939 209.503C112.405 209 112.295 208.211 112.673 207.583L114.216 205.017C114.406 204.701 114.398 204.304 114.196 204.005C113.909 203.582 113.637 203.141 113.385 202.694C113.208 202.378 112.852 202.187 112.479 202.214L109.473 202.411C108.74 202.459 108.081 202.004 107.872 201.305L107.189 199.015C106.979 198.315 107.282 197.576 107.925 197.22L110.55 195.766C110.874 195.586 111.069 195.238 111.045 194.879C111.011 194.371 110.999 193.852 111.008 193.338C111.014 192.977 110.802 192.637 110.467 192.474L107.767 191.157C107.107 190.834 106.765 190.113 106.938 189.403L107.501 187.081C107.672 186.378 108.294 185.893 109.02 185.893C109.027 185.893 109.035 185.893 109.042 185.893L112.052 185.934C112.43 185.929 112.773 185.729 112.936 185.399C113.162 184.94 113.408 184.489 113.668 184.056C113.856 183.743 113.845 183.343 113.639 183.039L111.968 180.562C111.558 179.954 111.626 179.16 112.134 178.63L113.793 176.898C114.299 176.37 115.093 176.261 115.724 176.633L118.312 178.162C118.633 178.351 119.037 178.343 119.341 178.141C119.768 177.857 120.213 177.587 120.664 177.338C120.982 177.162 121.172 176.811 121.148 176.444L120.95 173.464C120.901 172.735 121.36 172.082 122.066 171.874L124.376 171.196C125.081 170.989 125.823 171.289 126.182 171.925L127.649 174.526C127.83 174.848 128.182 175.043 128.548 175.016C129.059 174.982 129.581 174.971 130.102 174.979C130.107 174.979 130.113 174.979 130.118 174.979C130.479 174.979 130.814 174.77 130.977 174.442L132.308 171.766C132.633 171.112 133.359 170.774 134.073 170.944L136.416 171.501C137.132 171.672 137.624 172.3 137.613 173.031L137.571 176.014C137.566 176.382 137.777 176.724 138.11 176.886C138.572 177.109 139.027 177.353 139.464 177.611C139.782 177.798 140.188 177.787 140.498 177.582L142.997 175.924C143.608 175.519 144.407 175.587 144.939 176.088L146.687 177.731C147.222 178.234 147.331 179.024 146.953 179.652L145.41 182.218C145.22 182.533 145.23 182.933 145.435 183.237C145.718 183.656 145.988 184.092 146.237 184.534C146.417 184.854 146.774 185.047 147.146 185.021L150.153 184.823C150.883 184.774 151.545 185.23 151.754 185.93L152.437 188.219C152.647 188.92 152.344 189.658 151.701 190.015L149.076 191.469C148.752 191.648 148.557 191.997 148.581 192.356C148.615 192.862 148.627 193.381 148.618 193.897C148.612 194.258 148.824 194.597 149.159 194.761L151.859 196.078C152.519 196.4 152.86 197.122 152.688 197.832L152.125 200.154C151.954 200.857 151.332 201.342 150.606 201.342C150.599 201.342 150.592 201.342 150.584 201.342L147.574 201.301C147.569 201.301 147.565 201.301 147.56 201.301C147.192 201.301 146.851 201.51 146.69 201.836C146.464 202.295 146.218 202.746 145.958 203.179C145.77 203.492 145.781 203.892 145.987 204.196L147.658 206.673C148.068 207.28 148 208.075 147.492 208.604L145.833 210.337C145.327 210.865 144.533 210.974 143.902 210.601L141.314 209.073C140.993 208.883 140.587 208.893 140.279 209.098C139.855 209.379 139.414 209.647 138.969 209.893C138.647 210.072 138.454 210.424 138.478 210.791L138.676 213.771C138.725 214.499 138.266 215.153 137.56 215.36L135.25 216.039C134.545 216.245 133.803 215.945 133.444 215.309L131.978 212.709C131.796 212.387 131.446 212.194 131.078 212.219C130.567 212.252 130.045 212.264 129.524 212.256C129.158 212.258 128.814 212.46 128.649 212.792L127.318 215.469C127.049 216.01 126.506 216.334 125.923 216.334ZM119.67 208.9C119.945 208.9 120.219 208.971 120.463 209.115C120.885 209.364 121.326 209.6 121.774 209.817C122.312 210.078 122.655 210.632 122.647 211.229L122.604 214.213C122.598 214.663 122.903 215.052 123.347 215.158L125.69 215.715C126.134 215.819 126.587 215.612 126.788 215.205L128.119 212.529C128.381 212.002 128.924 211.664 129.508 211.664C129.517 211.664 129.526 211.665 129.534 211.665C130.038 211.673 130.545 211.661 131.04 211.628C131.632 211.59 132.2 211.9 132.493 212.419L133.959 215.019C134.182 215.414 134.644 215.6 135.083 215.471L137.394 214.793C137.832 214.664 138.116 214.26 138.086 213.81L137.888 210.83C137.849 210.236 138.161 209.665 138.683 209.376C139.114 209.137 139.541 208.878 139.952 208.606C140.447 208.276 141.1 208.26 141.614 208.563L144.203 210.092C144.596 210.324 145.091 210.257 145.406 209.928L147.065 208.196C147.379 207.868 147.421 207.379 147.168 207.004L145.497 204.528C145.163 204.033 145.145 203.384 145.451 202.874C145.703 202.456 145.941 202.019 146.16 201.575C146.423 201.041 146.98 200.693 147.582 200.71L150.593 200.751C151.045 200.754 151.444 200.455 151.55 200.015L152.113 197.693C152.22 197.255 152.008 196.809 151.6 196.61L148.9 195.293C148.359 195.029 148.016 194.477 148.027 193.887C148.036 193.387 148.024 192.886 147.991 192.396C147.952 191.809 148.266 191.242 148.79 190.952L151.414 189.497C151.812 189.277 152 188.821 151.871 188.389L151.187 186.099C151.058 185.666 150.646 185.384 150.192 185.414L147.185 185.612C146.589 185.655 146.013 185.343 145.722 184.825C145.481 184.397 145.22 183.975 144.945 183.569C144.612 183.075 144.595 182.426 144.903 181.913L146.447 179.348C146.68 178.961 146.612 178.473 146.282 178.163L144.534 176.519C144.203 176.208 143.705 176.165 143.325 176.418L140.825 178.075C140.328 178.405 139.676 178.423 139.164 178.121C138.741 177.871 138.3 177.635 137.853 177.419C137.314 177.158 136.971 176.603 136.98 176.006L137.022 173.023C137.029 172.572 136.723 172.183 136.279 172.077L133.936 171.52C133.491 171.414 133.04 171.623 132.838 172.03L131.508 174.706C131.241 175.242 130.679 175.572 130.092 175.571C129.589 175.563 129.082 175.574 128.587 175.607C127.998 175.644 127.426 175.336 127.134 174.817L125.667 172.216C125.445 171.821 124.983 171.635 124.544 171.764L122.233 172.443C121.795 172.571 121.511 172.975 121.541 173.425L121.739 176.405C121.778 177 121.469 177.569 120.95 177.856C120.514 178.097 120.083 178.359 119.669 178.634C119.177 178.961 118.526 178.975 118.012 178.672L115.424 177.144C115.031 176.911 114.536 176.979 114.221 177.308L112.561 179.04C112.248 179.367 112.206 179.857 112.459 180.231L114.13 182.708C114.464 183.202 114.482 183.852 114.175 184.361C113.924 184.78 113.686 185.217 113.467 185.661C113.203 186.194 112.635 186.524 112.045 186.526L109.034 186.485C108.582 186.478 108.183 186.781 108.076 187.221L107.513 189.542C107.407 189.981 107.618 190.426 108.027 190.626L110.727 191.943C111.268 192.207 111.61 192.759 111.6 193.349C111.591 193.847 111.603 194.349 111.636 194.84C111.675 195.427 111.361 195.994 110.837 196.284L108.213 197.738C107.815 197.959 107.627 198.415 107.756 198.847L108.44 201.136C108.569 201.57 108.98 201.853 109.434 201.822L112.441 201.624C113.038 201.584 113.613 201.891 113.902 202.404C114.145 202.837 114.409 203.264 114.686 203.673C115.017 204.163 115.032 204.81 114.723 205.323L113.18 207.888C112.947 208.275 113.015 208.762 113.345 209.073L115.093 210.716C115.424 211.028 115.922 211.07 116.302 210.818L118.802 209.161C119.062 208.987 119.366 208.9 119.67 208.9ZM129.803 204.167C127.048 204.167 124.446 203.132 122.45 201.238C120.397 199.289 119.233 196.664 119.172 193.846C119.112 191.028 120.162 188.355 122.13 186.32C124.096 184.285 126.744 183.131 129.586 183.07C135.456 182.933 140.328 187.573 140.454 193.389C140.514 196.207 139.464 198.879 137.496 200.915C135.53 202.949 132.881 204.103 130.04 204.165C129.961 204.167 129.882 204.167 129.803 204.167ZM129.82 183.659C129.746 183.659 129.673 183.66 129.599 183.662C126.914 183.719 124.413 184.809 122.555 186.731C120.698 188.653 119.707 191.175 119.764 193.833C119.821 196.492 120.92 198.97 122.858 200.809C124.796 202.649 127.345 203.63 130.027 203.573C132.712 203.516 135.213 202.425 137.071 200.504C138.928 198.583 139.919 196.06 139.862 193.401C139.746 187.985 135.262 183.659 129.82 183.659Z" fill="black"/>
<path d="M128.823 155.208L126.732 154.55C126.395 154.444 126.146 154.156 126.1 153.808C126.051 153.44 125.987 153.077 125.909 152.718C125.834 152.376 125.97 152.022 126.249 151.807L127.985 150.474C128.327 150.211 128.44 149.749 128.258 149.362L127.517 147.784C127.335 147.397 126.906 147.187 126.484 147.279L124.336 147.747C123.988 147.823 123.628 147.695 123.411 147.416C123.187 147.128 122.95 146.849 122.703 146.58C122.464 146.32 122.399 145.946 122.534 145.62L123.369 143.602C123.534 143.205 123.399 142.75 123.046 142.505L121.607 141.508C121.253 141.264 120.775 141.295 120.456 141.584L118.832 143.05C118.569 143.288 118.192 143.356 117.864 143.223C117.525 143.086 117.178 142.963 116.825 142.853C116.486 142.747 116.24 142.455 116.192 142.105L115.9 139.949C115.842 139.525 115.496 139.198 115.066 139.161L113.315 139.013C112.885 138.977 112.486 139.241 112.354 139.649L111.685 141.723C111.577 142.058 111.286 142.306 110.935 142.353C110.563 142.402 110.197 142.466 109.835 142.545C109.49 142.62 109.133 142.487 108.917 142.211L107.578 140.494C107.314 140.156 106.848 140.045 106.457 140.226L104.863 140.966C104.472 141.148 104.259 141.574 104.35 141.992L104.816 144.12C104.891 144.462 104.764 144.82 104.484 145.035C104.19 145.261 103.905 145.498 103.631 145.746C103.369 145.983 102.992 146.045 102.665 145.913L100.632 145.091C100.233 144.929 99.7732 145.064 99.5253 145.415L98.5161 146.845C98.268 147.196 98.2982 147.67 98.5883 147.986L100.062 149.591C100.301 149.851 100.369 150.225 100.234 150.551C100.095 150.887 99.9691 151.231 99.8572 151.582C99.7496 151.919 99.4544 152.163 99.1015 152.212L96.9255 152.508C96.4976 152.567 96.1667 152.911 96.1286 153.338L95.9738 155.074C95.9358 155.5 96.2008 155.895 96.612 156.024L98.7025 156.682C99.0399 156.788 99.2893 157.076 99.3352 157.424C99.3839 157.792 99.4473 158.155 99.5257 158.514C99.6005 158.856 99.4651 159.21 99.1856 159.425L97.4498 160.758C97.1081 161.021 96.9945 161.483 97.1767 161.87L97.918 163.448C98.1001 163.835 98.5291 164.045 98.9511 163.953L101.099 163.485C101.444 163.41 101.805 163.534 102.021 163.811C102.247 164.102 102.486 164.384 102.736 164.656C102.973 164.914 103.035 165.288 102.901 165.613L102.065 167.63C101.901 168.027 102.036 168.482 102.389 168.727L103.828 169.723C104.181 169.968 104.659 169.937 104.979 169.648L106.603 168.182C106.866 167.944 107.242 167.876 107.571 168.009C107.91 168.146 108.256 168.269 108.609 168.379C108.949 168.485 109.195 168.777 109.242 169.126L109.535 171.283C109.593 171.707 109.939 172.034 110.369 172.071L112.12 172.219C112.55 172.255 112.949 171.991 113.08 171.583L113.75 169.508C113.858 169.173 114.149 168.925 114.5 168.879C114.871 168.829 115.238 168.765 115.6 168.687C115.945 168.611 116.302 168.745 116.518 169.021L117.857 170.738C118.121 171.076 118.587 171.187 118.978 171.005L120.571 170.266C120.963 170.084 121.176 169.658 121.084 169.24L120.619 167.112C120.543 166.767 120.673 166.41 120.955 166.194C121.246 165.97 121.528 165.735 121.8 165.489C122.063 165.251 122.441 165.186 122.769 165.319L124.802 166.141C125.202 166.303 125.662 166.168 125.909 165.817L126.919 164.387C127.167 164.036 127.137 163.562 126.846 163.246L125.372 161.641C125.134 161.381 125.066 161.007 125.201 160.681C125.34 160.345 125.466 160.001 125.577 159.65C125.685 159.313 125.98 159.069 126.333 159.021L128.509 158.724C128.937 158.666 129.268 158.321 129.306 157.895L129.461 156.158C129.499 155.732 129.234 155.337 128.823 155.208ZM113.987 162.988C109.879 163.695 105.98 160.969 105.279 156.898C104.577 152.826 107.339 148.952 111.447 148.245C115.556 147.537 119.455 150.263 120.156 154.335C120.857 158.406 118.096 162.28 113.987 162.988Z" fill="white"/>
<path d="M112.201 172.518C112.166 172.518 112.13 172.516 112.095 172.513L110.344 172.365C109.772 172.316 109.319 171.888 109.242 171.322L108.949 169.166C108.917 168.93 108.749 168.732 108.521 168.661C108.16 168.549 107.803 168.421 107.46 168.283C107.238 168.193 106.979 168.239 106.801 168.401L105.177 169.867C104.753 170.251 104.129 170.292 103.659 169.966L102.221 168.97C101.749 168.643 101.573 168.046 101.792 167.517L102.628 165.499C102.718 165.279 102.676 165.027 102.518 164.855C102.263 164.579 102.018 164.288 101.787 163.992C101.644 163.808 101.398 163.722 101.162 163.773L99.0144 164.242C98.4548 164.364 97.893 164.089 97.6507 163.573L96.9092 161.995C96.6662 161.478 96.8145 160.873 97.2699 160.523L99.0054 159.19C99.1955 159.043 99.2864 158.803 99.2368 158.576C99.157 158.211 99.0914 157.836 99.0421 157.462C99.0116 157.232 98.8435 157.036 98.6137 156.964L96.5232 156.306C95.9756 156.134 95.6286 155.616 95.6792 155.047L95.8339 153.311C95.8845 152.743 96.317 152.292 96.8854 152.214L99.0614 151.918C99.3013 151.885 99.503 151.717 99.5754 151.491C99.69 151.132 99.8197 150.778 99.9605 150.437C100.05 150.219 100.005 149.966 99.8445 149.791L98.3702 148.186C97.983 147.764 97.9436 147.142 98.2742 146.674L99.2836 145.244C99.6131 144.778 100.213 144.602 100.743 144.816L102.776 145.638C102.999 145.728 103.257 145.685 103.432 145.526C103.713 145.272 104.007 145.027 104.304 144.8C104.49 144.657 104.578 144.415 104.527 144.183L104.061 142.055C103.939 141.498 104.218 140.939 104.739 140.697L106.332 139.957C106.852 139.717 107.46 139.861 107.81 140.311L109.15 142.028C109.297 142.217 109.541 142.307 109.772 142.256C110.139 142.176 110.517 142.109 110.895 142.059C111.13 142.028 111.329 141.86 111.403 141.632L112.073 139.557C112.248 139.015 112.767 138.666 113.34 138.718L115.091 138.866C115.663 138.914 116.116 139.343 116.193 139.908L116.485 142.065C116.517 142.301 116.685 142.499 116.913 142.57C117.275 142.682 117.632 142.81 117.975 142.948C118.196 143.038 118.455 142.991 118.634 142.83L120.257 141.364C120.682 140.98 121.306 140.939 121.775 141.265L123.214 142.261C123.685 142.588 123.862 143.185 123.643 143.714L122.807 145.733C122.716 145.952 122.761 146.206 122.921 146.38C123.173 146.654 123.416 146.941 123.644 147.234C123.79 147.421 124.037 147.509 124.273 147.457L126.421 146.989C126.98 146.866 127.542 147.142 127.784 147.658L128.526 149.236C128.769 149.752 128.621 150.358 128.165 150.708L126.429 152.041C126.239 152.187 126.149 152.428 126.198 152.654C126.278 153.02 126.344 153.394 126.393 153.768C126.423 153.999 126.591 154.195 126.821 154.267L128.912 154.925C129.459 155.097 129.807 155.615 129.756 156.184L129.601 157.92C129.55 158.488 129.118 158.939 128.55 159.016L126.374 159.313C126.134 159.346 125.932 159.513 125.86 159.74C125.745 160.098 125.615 160.453 125.474 160.793C125.385 161.011 125.43 161.265 125.59 161.44L127.065 163.045C127.452 163.467 127.491 164.088 127.161 164.557L126.151 165.987C125.822 166.453 125.222 166.629 124.692 166.415L122.659 165.592C122.435 165.502 122.176 165.547 121.999 165.708C121.721 165.96 121.43 166.202 121.135 166.428C120.946 166.573 120.857 166.816 120.908 167.048L121.374 169.176C121.496 169.733 121.217 170.291 120.696 170.534L119.103 171.273C118.583 171.514 117.975 171.369 117.625 170.919L116.285 169.202C116.138 169.014 115.893 168.923 115.663 168.975C115.296 169.055 114.918 169.121 114.54 169.171C114.305 169.203 114.106 169.37 114.032 169.599L113.362 171.674C113.198 172.183 112.729 172.518 112.201 172.518ZM107.228 167.646C107.381 167.646 107.535 167.675 107.681 167.734C108.01 167.867 108.351 167.988 108.697 168.096C109.144 168.235 109.473 168.624 109.535 169.086L109.828 171.243C109.867 171.531 110.1 171.751 110.394 171.776L112.145 171.924C112.44 171.949 112.709 171.771 112.799 171.492L113.469 169.417C113.612 168.973 114.002 168.646 114.462 168.585C114.824 168.537 115.185 168.474 115.537 168.397C115.989 168.299 116.465 168.472 116.751 168.839L118.091 170.556C118.271 170.787 118.585 170.862 118.854 170.737L120.447 169.997C120.715 169.873 120.858 169.587 120.796 169.303L120.33 167.175C120.23 166.72 120.405 166.242 120.775 165.959C121.058 165.742 121.336 165.51 121.602 165.269C121.947 164.958 122.449 164.869 122.881 165.045L124.914 165.867C125.188 165.977 125.498 165.886 125.668 165.646L126.677 164.216C126.846 163.977 126.826 163.66 126.629 163.446L125.155 161.84C124.839 161.497 124.75 160.997 124.928 160.568C125.063 160.242 125.186 159.903 125.296 159.56C125.437 159.118 125.829 158.79 126.294 158.727L128.47 158.43C128.763 158.39 128.986 158.159 129.012 157.868L129.166 156.132C129.192 155.842 129.015 155.578 128.734 155.49L126.644 154.832C126.195 154.69 125.867 154.304 125.807 153.846C125.759 153.489 125.697 153.13 125.62 152.781C125.522 152.332 125.698 151.857 126.069 151.572L127.805 150.239C128.038 150.06 128.114 149.751 127.991 149.488L127.249 147.909C127.125 147.645 126.837 147.504 126.547 147.567L124.399 148.036C123.943 148.136 123.463 147.964 123.178 147.598C122.96 147.318 122.727 147.042 122.486 146.781C122.17 146.438 122.082 145.938 122.261 145.506L123.096 143.488C123.208 143.219 123.118 142.914 122.877 142.748L121.439 141.752C121.196 141.584 120.874 141.605 120.654 141.803L119.031 143.269C118.685 143.581 118.183 143.67 117.754 143.497C117.425 143.365 117.084 143.243 116.738 143.135C116.291 142.996 115.962 142.607 115.9 142.145L115.607 139.988C115.568 139.7 115.335 139.481 115.041 139.456L113.29 139.307C112.995 139.283 112.726 139.46 112.636 139.739L111.966 141.814C111.823 142.258 111.433 142.585 110.974 142.646C110.612 142.694 110.25 142.757 109.898 142.834C109.446 142.933 108.97 142.759 108.684 142.393L107.344 140.675C107.164 140.444 106.85 140.37 106.581 140.494L104.988 141.234C104.721 141.358 104.577 141.644 104.639 141.929L105.105 144.056C105.205 144.511 105.032 144.987 104.665 145.269C104.38 145.488 104.099 145.722 103.829 145.965C103.488 146.275 102.987 146.362 102.554 146.187L100.522 145.365C100.247 145.253 99.9371 145.345 99.7672 145.586L98.7578 147.015C98.5891 147.254 98.6091 147.571 98.8063 147.785L100.281 149.391C100.596 149.735 100.685 150.234 100.507 150.663C100.373 150.989 100.249 151.328 100.139 151.671C99.9977 152.114 99.6063 152.441 99.1417 152.504L96.9655 152.801C96.6722 152.841 96.4492 153.072 96.4233 153.363L96.2686 155.1C96.2427 155.39 96.4204 155.654 96.7007 155.742L98.7914 156.399C99.2396 156.541 99.5682 156.928 99.6285 157.385C99.6757 157.743 99.7385 158.101 99.8149 158.45C99.9131 158.899 99.7369 159.374 99.366 159.659L97.6304 160.992C97.3972 161.172 97.321 161.481 97.4448 161.744L98.1863 163.322C98.3105 163.586 98.5995 163.727 98.8886 163.664L101.036 163.196C101.493 163.096 101.972 163.266 102.254 163.629C102.475 163.912 102.71 164.19 102.954 164.455C103.266 164.795 103.353 165.294 103.174 165.725L102.339 167.743C102.227 168.012 102.318 168.317 102.558 168.483L103.997 169.48C104.24 169.648 104.562 169.626 104.781 169.428L106.405 167.962C106.632 167.755 106.929 167.646 107.228 167.646ZM112.69 163.394C108.951 163.394 105.638 160.724 104.987 156.947C104.259 152.722 107.135 148.687 111.397 147.952C115.66 147.217 119.719 150.058 120.447 154.284C120.8 156.331 120.327 158.394 119.116 160.093C117.905 161.792 116.102 162.923 114.037 163.278C113.585 163.356 113.135 163.394 112.69 163.394ZM112.744 148.429C112.333 148.429 111.916 148.463 111.498 148.535C107.557 149.214 104.898 152.943 105.57 156.847C106.243 160.751 109.997 163.375 113.937 162.696C115.847 162.366 117.515 161.321 118.634 159.75C119.753 158.181 120.19 156.275 119.864 154.384C119.263 150.895 116.201 148.429 112.744 148.429Z" fill="black"/>
<path d="M110.088 33.6881L172.271 44.4881L234.401 33.6745L171.566 22.7441L110.088 33.6881Z" fill="white"/>
<path d="M172.271 44.7826C172.254 44.7826 172.237 44.7812 172.22 44.7784L110.037 33.9784C109.896 33.9539 109.792 33.8311 109.792 33.6876C109.792 33.544 109.894 33.421 110.036 33.3958L171.514 22.452C171.548 22.4456 171.582 22.4459 171.616 22.4517L234.451 33.3819C234.593 33.4065 234.696 33.5295 234.696 33.6734C234.696 33.8172 234.593 33.94 234.451 33.9649L172.321 44.7785C172.305 44.7813 172.288 44.7826 172.271 44.7826ZM111.796 33.6834L172.271 44.1867L232.675 33.6733L171.566 23.0435L111.796 33.6834Z" fill="black"/>
<path d="M110.088 33.6881L172.271 44.4881L234.401 33.6745L171.566 22.7441L110.088 33.6881Z" fill="white"/>
<path d="M172.271 44.7826C172.254 44.7826 172.237 44.7812 172.22 44.7784L110.037 33.9784C109.896 33.9539 109.792 33.8311 109.792 33.6876C109.792 33.544 109.894 33.421 110.036 33.3958L171.514 22.452C171.548 22.4456 171.582 22.4459 171.616 22.4517L234.451 33.3819C234.593 33.4065 234.696 33.5295 234.696 33.6734C234.696 33.8172 234.593 33.94 234.451 33.9649L172.321 44.7785C172.305 44.7813 172.288 44.7826 172.271 44.7826ZM111.796 33.6834L172.271 44.1867L232.675 33.6733L171.566 23.0435L111.796 33.6834Z" fill="black"/>
<path d="M196.408 40.3326C196.391 40.3326 196.374 40.3311 196.357 40.3283L135.803 29.8112C135.662 29.7867 135.558 29.6639 135.558 29.52C135.558 29.3764 135.661 29.2534 135.803 29.2285L149.139 26.8797C149.173 26.8733 149.208 26.8736 149.241 26.8795L210.399 37.5182C210.542 37.543 210.645 37.6672 210.645 37.8117C210.644 37.9564 210.538 38.0789 210.395 38.1017L196.454 40.3289C196.439 40.3314 196.423 40.3326 196.408 40.3326ZM137.571 29.5176L196.41 39.7368L208.551 37.797L149.191 27.4711L137.571 29.5176Z" fill="black"/>
<path d="M172.258 136.018V44.3987L109.832 33.6504V125.018L172.258 136.018Z" fill="white"/>
<path d="M172.259 136.313C172.242 136.313 172.224 136.311 172.207 136.308L109.78 125.309C109.639 125.284 109.536 125.161 109.536 125.017V33.6496C109.536 33.5623 109.574 33.4794 109.641 33.4235C109.708 33.3668 109.796 33.3426 109.882 33.3581L172.309 44.1064C172.451 44.1307 172.554 44.2537 172.554 44.3979V136.017C172.554 136.105 172.516 136.187 172.449 136.243C172.395 136.289 172.328 136.313 172.259 136.313ZM110.127 124.769L171.963 135.665V44.6472L110.127 34.0006V124.769Z" fill="black"/>
<path d="M161.019 112.064C161.002 112.064 160.985 112.062 160.968 112.059L120.617 104.879C120.476 104.854 120.374 104.731 120.374 104.588V80.1649C120.374 80.0014 120.506 79.8691 120.669 79.8691C120.833 79.8691 120.965 80.0015 120.965 80.1649V104.34L160.724 111.415V86.9149C160.724 86.7514 160.856 86.6192 161.019 86.6192C161.183 86.6192 161.315 86.7515 161.315 86.9149V111.768C161.315 111.856 161.277 111.939 161.209 111.995C161.156 112.04 161.088 112.064 161.019 112.064Z" fill="black"/>
<path d="M161.019 87.0175C160.856 87.0175 160.724 86.8852 160.724 86.7218V68.2151L120.965 61.3016V79.8539C120.965 80.0175 120.833 80.1497 120.669 80.1497C120.506 80.1497 120.374 80.0173 120.374 79.8539V60.95C120.374 60.8627 120.412 60.7798 120.479 60.7236C120.546 60.6675 120.634 60.6439 120.72 60.6586L161.07 67.6749C161.212 67.6994 161.315 67.8226 161.315 67.9664V86.7218C161.315 86.8852 161.183 87.0175 161.019 87.0175Z" fill="black"/>
<path d="M124.868 100.845C124.705 100.845 124.572 100.713 124.572 100.549V66.9247C124.572 66.7611 124.705 66.6289 124.868 66.6289C125.031 66.6289 125.164 66.7613 125.164 66.9247V100.549C125.164 100.713 125.031 100.845 124.868 100.845Z" fill="black"/>
<path d="M129.812 68.1564C129.812 67.5848 129.349 67.1211 128.777 67.1211C128.205 67.1211 127.742 67.5848 127.742 68.1564L127.742 100.678C127.742 101.249 128.205 101.713 128.777 101.713C129.349 101.713 129.813 101.249 129.813 100.678L129.812 68.1564Z" fill="black"/>
<path d="M132.908 102.14C132.744 102.14 132.612 102.008 132.612 101.844V68.2196C132.612 68.056 132.744 67.9238 132.908 67.9238C133.071 67.9238 133.203 68.0562 133.203 68.2196V101.844C133.203 102.008 133.071 102.14 132.908 102.14Z" fill="black"/>
<path d="M135.587 102.573C135.424 102.573 135.292 102.441 135.292 102.278V68.6532C135.292 68.4896 135.424 68.3574 135.587 68.3574C135.751 68.3574 135.883 68.4898 135.883 68.6532V102.277C135.883 102.441 135.751 102.573 135.587 102.573Z" fill="black"/>
<path d="M141.982 70.2541C141.982 69.6824 141.518 69.2188 140.946 69.2188C140.375 69.2188 139.911 69.6824 139.911 70.2541L139.911 102.776C139.911 103.347 140.375 103.811 140.947 103.811C141.518 103.811 141.982 103.347 141.982 102.776L141.982 70.2541Z" fill="black"/>
<path d="M146.307 104.302C146.144 104.302 146.011 104.17 146.011 104.006V70.3817C146.011 70.2182 146.144 70.0859 146.307 70.0859C146.47 70.0859 146.603 70.2183 146.603 70.3817V104.006C146.603 104.17 146.47 104.302 146.307 104.302Z" fill="black"/>
<path d="M152.702 71.4162C152.702 70.8443 152.238 70.3809 151.667 70.3809C151.095 70.3809 150.631 70.8442 150.631 71.4162V103.937C150.631 104.509 151.095 104.973 151.667 104.973C152.238 104.973 152.702 104.509 152.702 103.937V71.4162Z" fill="black"/>
<path d="M157.026 106.033C156.863 106.033 156.73 105.9 156.73 105.737V72.1122C156.73 71.9486 156.863 71.8164 157.026 71.8164C157.189 71.8164 157.322 71.9488 157.322 72.1122V105.737C157.322 105.9 157.19 106.033 157.026 106.033Z" fill="black"/>
<path d="M172.259 136.018V44.3986L234.144 33.6367V125.071L172.259 136.018Z" fill="white"/>
<path d="M172.259 136.312C172.19 136.312 172.122 136.288 172.069 136.243C172.002 136.187 171.963 136.104 171.963 136.016V44.3974C171.963 44.2535 172.066 44.1304 172.208 44.1059L234.094 33.344C234.18 33.3296 234.268 33.3529 234.335 33.409C234.402 33.4654 234.44 33.5483 234.44 33.6355V125.07C234.44 125.214 234.337 125.337 234.196 125.361L172.31 136.308C172.293 136.311 172.276 136.312 172.259 136.312ZM172.555 44.6461V135.664L233.849 124.822V33.9871L172.555 44.6461Z" fill="black"/>
<path d="M197.56 50.1033C197.491 50.1033 197.423 50.0788 197.369 50.0335C197.303 49.9775 197.264 49.8946 197.264 49.8076V40.4364C197.264 40.2926 197.368 40.1694 197.51 40.1449L210.385 37.9264C210.47 37.9111 210.559 37.9353 210.625 37.9917C210.692 38.0477 210.731 38.1306 210.731 38.2179V47.6284C210.731 47.7728 210.627 47.8959 210.484 47.9201L197.609 50.0993C197.593 50.1019 197.576 50.1033 197.56 50.1033ZM197.856 40.6856V49.4574L210.139 47.3785V38.5691L197.856 40.6856Z" fill="black"/>
<path d="M93.7325 209.904C95.7589 209.904 97.4015 208.262 97.4015 206.235C97.4015 204.209 95.7589 202.566 93.7325 202.566C91.7062 202.566 90.0635 204.209 90.0635 206.235C90.0635 208.262 91.7062 209.904 93.7325 209.904Z" fill="white"/>
<path d="M93.7325 210.199C91.5462 210.199 89.7676 208.421 89.7676 206.234C89.7676 204.048 91.5461 202.27 93.7325 202.27C95.9188 202.27 97.6973 204.048 97.6973 206.234C97.6973 208.421 95.9188 210.199 93.7325 210.199ZM93.7325 202.861C91.8725 202.861 90.3592 204.374 90.3592 206.234C90.3592 208.094 91.8725 209.608 93.7325 209.608C95.5925 209.608 97.1058 208.094 97.1058 206.234C97.1058 204.374 95.5925 202.861 93.7325 202.861Z" fill="black"/>
<path d="M23.151 141.321C33.8325 131.174 39.4784 130.716 44.0562 120.645C46.6292 114.984 43.8273 91.0417 66.9451 90.1262C69.9271 90.0081 81.3905 90.6348 82.891 102.639C83.4956 107.476 83.2076 110.84 82.8862 113.551C82.6093 115.888 82.6498 118.256 83.0551 120.574C83.6526 123.992 85.0974 127.83 88.4031 130.302C88.6596 130.493 88.4385 130.896 88.1391 130.783C86.4225 130.131 84.0064 128.918 82.2794 126.841C82.1263 126.657 81.8282 126.787 81.857 127.025C81.8704 127.135 81.8845 127.246 81.8991 127.359C82.5646 132.433 90.7495 137.506 88.4606 147.348C86.1717 157.191 33.6798 178.248 24.9821 173.9C16.2844 169.551 13.3109 150.669 23.151 141.321Z" fill="black"/>
<path d="M82.5 226.5C80.0556 195.396 90.2925 189.081 94.4 177.149C101.218 182.326 111.303 187.65 124.31 188.145C138.694 188.692 148.736 153.359 149.853 149.259C149.915 149.031 149.814 148.792 149.609 148.675L141.03 143.776C140.787 143.637 140.479 143.715 140.332 143.953C138.474 146.969 127.047 164.947 118.558 165.171C109.292 165.416 97.3881 147.041 91.6849 142.559L91.6638 142.627C91.4487 142.356 91.2308 142.112 91.0101 141.898C80.9507 132.171 55.1449 132.593 55.1449 132.593C40.4111 134.338 30.7178 142.868 30.7178 142.868L30.7174 142.909C29.6694 143.584 20.8452 149.838 22.3887 168.252C24.1921 189.766 26.9375 204.517 37.1154 205.389C38.536 205.511 35.6535 208.695 37.1154 208.5L56.5 218.5L82.5 226.5Z" fill="white"/>
<path d="M84.2546 234.064C84.1016 234.064 83.9722 233.946 83.9599 233.791C81.9307 207.968 87.3448 194.359 91.6949 183.424C92.5799 181.2 93.4158 179.099 94.12 177.053C94.1508 176.963 94.2228 176.894 94.3137 176.866C94.4039 176.839 94.503 176.856 94.5785 176.914C100.779 181.622 110.972 187.342 124.321 187.85C138.469 188.38 148.474 153.197 149.567 149.182C149.593 149.085 149.55 148.982 149.462 148.932L140.883 144.033C140.777 143.973 140.646 144.006 140.584 144.109C138.41 147.636 127.135 165.241 118.565 165.468C118.501 165.469 118.436 165.47 118.372 165.47C111.819 165.471 104.225 156.764 98.1107 149.754C95.5635 146.833 93.3527 144.299 91.6655 142.923C91.6648 142.923 91.6641 142.923 91.6635 142.923C91.5742 142.923 91.4885 142.883 91.4318 142.811C91.221 142.546 91.0097 142.31 90.8041 142.111C81.0428 132.672 55.8998 132.879 55.164 132.889C41.3763 134.527 31.9282 142.233 30.9891 143.025C30.9663 143.079 30.9277 143.125 30.8772 143.158C29.8773 143.802 21.1529 149.974 22.683 168.227C24.5882 190.955 27.5645 204.274 37.1403 205.095C38.7822 205.236 40.1402 205.222 41.4146 205.052C41.5764 205.03 41.7253 205.144 41.747 205.306C41.7686 205.468 41.6549 205.617 41.4929 205.638C40.1745 205.814 38.7757 205.829 37.0899 205.684C27.0982 204.828 24.025 191.32 22.0936 168.277C20.5762 150.173 29.0566 143.67 30.4585 142.725C30.4748 142.696 30.4962 142.669 30.5222 142.646C30.6199 142.56 40.4543 134.035 55.1099 132.299C55.1199 132.298 55.1297 132.297 55.1399 132.297C55.3963 132.291 81.1843 131.986 91.2155 141.686C91.3938 141.859 91.5752 142.055 91.7562 142.272C91.7961 142.282 91.8341 142.301 91.8674 142.327C93.6179 143.703 95.9066 146.327 98.5566 149.365C104.591 156.283 112.089 164.879 118.37 164.879C118.431 164.879 118.49 164.878 118.55 164.876C126.99 164.653 138.765 145.932 140.08 143.798C140.311 143.423 140.792 143.3 141.176 143.519L149.756 148.418C150.078 148.602 150.235 148.98 150.138 149.337C149.04 153.367 139.068 188.446 124.637 188.447C124.524 188.447 124.411 188.445 124.298 188.44C111.027 187.936 100.843 182.341 94.546 177.63C93.8664 179.566 93.0772 181.55 92.2449 183.642C87.9171 194.521 82.5314 208.059 84.55 233.745C84.5627 233.908 84.4411 234.05 84.2782 234.063C84.2702 234.064 84.2625 234.064 84.2546 234.064Z" fill="black"/>
<path d="M42.2061 205.827C42.0563 205.827 41.928 205.714 41.9123 205.562C41.8953 205.4 42.0136 205.254 42.176 205.237C54.3351 203.979 59.6015 188.326 62.3012 145.422C62.3115 145.259 62.4523 145.137 62.6151 145.145C62.778 145.155 62.9019 145.296 62.8916 145.459C61.4676 168.088 59.2751 182.919 55.9914 192.133C52.8513 200.943 48.6092 205.166 42.2369 205.826C42.2265 205.827 42.2163 205.827 42.2061 205.827Z" fill="black"/>
<path d="M93.8635 179.647C93.8284 179.647 93.7927 179.641 93.7579 179.628C93.6054 179.569 93.5288 179.398 93.5872 179.246C94.7185 176.283 95.9307 172.758 96.3421 169.077C97.1312 162.016 93.9806 153.255 90.4606 148.249C90.3666 148.116 90.3988 147.931 90.5324 147.837C90.666 147.743 90.8506 147.775 90.9446 147.909C94.5287 153.005 97.7356 161.936 96.9301 169.143C96.5114 172.889 95.2847 176.459 94.1399 179.457C94.0948 179.574 93.9825 179.647 93.8635 179.647Z" fill="black"/>
<path d="M37.1132 184.418C37.0818 184.418 37.0496 184.413 37.018 184.402C36.8633 184.35 36.7807 184.181 36.8332 184.027L50.5666 143.59C50.6188 143.435 50.786 143.352 50.9418 143.405C51.0965 143.457 51.1793 143.625 51.1267 143.78L37.3932 184.217C37.3515 184.34 37.2364 184.418 37.1132 184.418Z" fill="black"/>
<path d="M40.6207 163.667C40.4598 163.667 40.3281 163.538 40.325 163.377C40.1726 154.987 38.5901 149.089 35.622 145.845C35.5118 145.725 35.52 145.537 35.6405 145.427C35.7611 145.317 35.9483 145.325 36.0585 145.446C39.1268 148.799 40.7614 154.828 40.9167 163.366C40.9196 163.529 40.7895 163.664 40.6262 163.667C40.6244 163.667 40.6225 163.667 40.6207 163.667Z" fill="black"/>
<path d="M142.74 144.196C143.926 141.621 144.982 136.653 146.187 134.946C147.391 133.24 148.806 131.759 151.056 130.347C152.212 129.622 154.571 128.231 156.379 127.747C158.188 127.263 157.397 130.755 155.775 131.38C154.154 132.006 152.905 133.149 153.349 133.457C153.658 133.67 154.517 134.599 156.173 134.201C158.028 133.756 159.256 132.01 159.21 130.103C159.202 129.773 159.169 129.437 159.099 129.111C158.671 127.121 159.607 125.052 161.478 124.248C162.362 123.868 163.426 123.677 164.674 123.883C166.652 124.211 167.125 135.467 159.585 139.094C158.025 139.844 151.599 141.166 150.277 142.99C148.954 144.813 148.003 147.389 148.003 147.389L142.74 144.196Z" fill="white"/>
<path d="M148.003 147.684C147.95 147.684 147.897 147.67 147.85 147.641L142.587 144.448C142.459 144.371 142.409 144.209 142.472 144.072C142.972 142.985 143.461 141.427 143.934 139.92C144.601 137.795 145.231 135.788 145.945 134.775C147.322 132.825 148.85 131.382 150.9 130.096C152.133 129.321 154.475 127.95 156.303 127.461C156.949 127.288 157.445 127.527 157.632 128.1C157.981 129.171 157.164 131.162 155.882 131.656C154.541 132.173 153.663 132.97 153.564 133.246C153.596 133.271 153.632 133.299 153.673 133.332C154.064 133.645 154.793 134.228 156.104 133.913C157.776 133.512 158.958 131.912 158.915 130.109C158.906 129.772 158.871 129.458 158.81 129.173C158.342 126.998 159.415 124.811 161.361 123.975C162.409 123.525 163.541 123.394 164.723 123.591C165.637 123.742 165.984 125.238 166.11 126.117C166.637 129.794 165.366 136.641 159.714 139.36C159.215 139.599 158.261 139.889 157.156 140.224C154.716 140.964 151.376 141.978 150.516 143.163C149.233 144.932 148.29 147.465 148.281 147.491C148.25 147.573 148.184 147.638 148.101 147.667C148.069 147.679 148.036 147.684 148.003 147.684ZM143.117 144.078L147.855 146.952C148.16 146.189 148.974 144.281 150.037 142.815C151.013 141.47 154.324 140.465 156.984 139.658C158.066 139.33 159 139.046 159.457 138.826C164.825 136.244 166.027 129.712 165.525 126.201C165.335 124.879 164.926 124.224 164.626 124.174C163.558 123.998 162.538 124.113 161.595 124.519C159.908 125.244 158.98 127.148 159.388 129.048C159.457 129.369 159.497 129.721 159.506 130.094C159.556 132.174 158.184 134.022 156.242 134.488C154.648 134.871 153.706 134.116 153.303 133.794C153.255 133.755 153.215 133.722 153.181 133.699C153.021 133.589 152.943 133.412 152.967 133.214C153.049 132.523 154.434 131.58 155.669 131.104C156.691 130.71 157.306 129.01 157.07 128.284C157.008 128.094 156.888 127.917 156.456 128.032C154.702 128.501 152.419 129.84 151.214 130.596C149.207 131.856 147.776 133.208 146.429 135.116C145.768 136.053 145.122 138.109 144.499 140.096C144.054 141.515 143.595 142.978 143.117 144.078Z" fill="black"/>
<path d="M150.232 144.099L143.765 140.469C143.479 140.308 143.116 140.417 142.966 140.709L140.789 144.94C140.646 145.218 140.75 145.56 141.024 145.711L147.524 149.308C147.81 149.466 148.171 149.356 148.32 149.064L150.464 144.867C150.606 144.59 150.503 144.251 150.232 144.099Z" fill="white"/>
<path d="M147.803 149.676C147.657 149.676 147.512 149.638 147.381 149.566L140.881 145.97C140.464 145.739 140.309 145.227 140.527 144.803L142.703 140.573C142.813 140.36 143 140.204 143.229 140.135C143.459 140.066 143.701 140.093 143.91 140.21L150.377 143.84C150.789 144.07 150.943 144.58 150.728 145.001L148.584 149.198C148.475 149.411 148.289 149.567 148.06 149.637C147.975 149.663 147.889 149.676 147.803 149.676ZM143.482 140.69C143.454 140.69 143.427 140.694 143.4 140.702C143.325 140.724 143.265 140.775 143.229 140.843L141.052 145.074C140.982 145.211 141.032 145.377 141.167 145.452L147.667 149.048C147.735 149.086 147.813 149.094 147.887 149.071C147.961 149.049 148.021 148.998 148.057 148.929L150.201 144.732C150.27 144.596 150.22 144.431 150.087 144.356L143.62 140.726C143.577 140.702 143.53 140.69 143.482 140.69Z" fill="black"/>
<path d="M69.0819 120.645C69.0819 120.645 68.8393 127.357 69.1193 131.833C69.2513 133.942 70.7203 135.728 72.7582 136.287L75.4385 137.022C76.8195 137.401 76.9552 139.305 75.6417 139.876C70.4607 142.126 60.0483 145.002 47.8086 139.441C46.5026 138.848 46.6566 136.949 48.0453 136.589L53.3228 135.22C55.2841 134.712 56.7393 133.062 56.9985 131.052L59.0108 115.457L69.0819 120.645Z" fill="white"/>
<path d="M62.2463 142.947C57.9096 142.947 52.9652 142.108 47.6862 139.709C46.9726 139.385 46.5549 138.673 46.6223 137.894C46.6891 137.122 47.2185 136.496 47.971 136.301L53.2485 134.933C55.103 134.452 56.4597 132.913 56.705 131.013L58.7174 115.418C58.7297 115.323 58.7879 115.239 58.8732 115.194C58.9587 115.149 59.0606 115.149 59.1462 115.193L69.2174 120.381C69.3192 120.433 69.3816 120.54 69.3776 120.655C69.3752 120.722 69.1388 127.403 69.4145 131.813C69.5383 133.791 70.9134 135.473 72.8363 136.001L75.5168 136.736C76.2688 136.942 76.7903 137.577 76.8456 138.355C76.9009 139.132 76.4747 139.835 75.7596 140.146C72.7927 141.434 68.0672 142.947 62.2463 142.947ZM59.2503 115.912L57.2918 131.089C57.0157 133.23 55.4868 134.964 53.3971 135.505L48.1196 136.873C47.5048 137.033 47.2476 137.531 47.2117 137.945C47.1756 138.363 47.3457 138.905 47.931 139.171C60.0871 144.694 70.4368 141.813 75.524 139.603C76.1087 139.349 76.2853 138.813 76.2557 138.397C76.226 137.98 75.9753 137.475 75.3603 137.306L72.6801 136.571C70.5134 135.977 68.9638 134.08 68.8243 131.85C68.5727 127.828 68.744 121.942 68.7802 120.821L59.2503 115.912Z" fill="black"/>
<path d="M76.1412 98.8201C78.2685 101.071 79.3708 104.099 79.3637 107.196C79.3597 108.955 78.4415 110.655 78.1602 113.052C77.4354 119.232 74.8159 124.17 67.6625 123.683C67.6625 123.683 59.0743 123.217 58.0251 114.007C58.0251 114.007 57.5218 109.365 59.6202 104.469C61.029 101.182 65.0199 94.5379 71.1988 95.9369C73.323 96.4178 74.9373 97.5462 76.1412 98.8201Z" fill="white"/>
<path d="M68.6041 124.012C68.2905 124.012 67.9708 124.001 67.6429 123.978C67.5585 123.974 58.7969 123.391 57.7315 114.041C57.7105 113.846 57.2441 109.264 59.3489 104.352C60.0926 102.617 64.1625 94.0436 71.2646 95.6482C73.1948 96.0853 74.9079 97.0842 76.3565 98.617C78.4941 100.879 79.6674 103.926 79.6598 107.197C79.6576 108.165 79.39 109.116 79.1068 110.122C78.8501 111.034 78.5846 111.977 78.4545 113.086C77.6037 120.341 74.2908 124.011 68.6041 124.012ZM69.5314 96.042C63.8635 96.042 60.5447 103.063 59.8926 104.585C57.8484 109.355 58.3146 113.93 58.3196 113.975C59.3273 122.82 67.3387 123.369 67.6793 123.388C73.6679 123.794 77.0006 120.403 77.867 113.018C78.0025 111.862 78.2865 110.853 78.5372 109.962C78.821 108.954 79.0661 108.083 79.0682 107.196C79.0753 104.076 77.9597 101.174 75.9266 99.0231C74.5599 97.5772 72.9475 96.6359 71.134 96.2253C70.5809 96.0999 70.046 96.042 69.5314 96.042Z" fill="black"/>
<path d="M63.9715 96.9877C63.9715 96.9877 64.8874 100.201 69.9171 104.332C73.1814 107.014 78.8657 107.625 79.8266 109.812C79.8266 109.812 83.3241 96.5214 72.0157 95.0058C60.7072 93.4902 63.9715 96.9877 63.9715 96.9877Z" fill="black"/>
<path d="M62.6498 120.523C59.9306 120.523 57.3796 118.985 56.1464 116.422L54.7286 113.475C54.6577 113.328 54.7196 113.151 54.8668 113.08C55.0138 113.009 55.1909 113.072 55.2616 113.218L56.6799 116.166C58.0919 119.101 61.388 120.572 64.5159 119.665L71.4675 117.648C71.625 117.601 71.7886 117.693 71.8341 117.85C71.8795 118.007 71.7893 118.171 71.6324 118.216L64.6807 120.233C64.0051 120.429 63.322 120.523 62.6498 120.523Z" fill="black"/>
<path d="M55.2287 105.909C55.2266 105.909 55.2243 105.909 55.2222 105.909C55.0588 105.906 54.9292 105.77 54.9327 105.607C54.9407 105.238 55.1803 96.5234 60.0128 92.0213C61.9894 90.1798 64.4653 89.3196 67.3677 89.4626C67.5308 89.4707 67.6565 89.6096 67.6486 89.7728C67.6405 89.936 67.4952 90.0675 67.3385 90.0537C64.5999 89.9171 62.2725 90.7253 60.4173 92.4531C55.7684 96.7826 55.5262 105.532 55.5243 105.62C55.5207 105.781 55.389 105.909 55.2287 105.909Z" fill="white"/>
<path d="M74.185 117.894C74.3164 116.856 73.5664 115.906 72.5097 115.772C71.4531 115.639 70.4899 116.372 70.3585 117.41C70.2271 118.448 70.9772 119.398 72.0339 119.531C73.0905 119.665 74.0536 118.932 74.185 117.894Z" fill="black"/>
<path d="M60.2554 110.382C60.6237 107.47 58.7584 104.837 56.0891 104.499C55.7964 104.462 54.7116 104.434 54.4264 104.453C52.1103 104.609 50.9169 106.567 50.589 109.159C50.2354 111.954 51.3005 114.566 53.7998 115.063C53.9035 115.083 54.6435 115.142 54.7507 115.143C57.6761 115.152 59.887 113.293 60.2554 110.382Z" fill="white"/>
<path d="M54.7736 115.439C54.7656 115.439 54.7578 115.439 54.7498 115.439C54.6352 115.439 53.8696 115.379 53.7418 115.353C51.2714 114.862 49.8863 112.358 50.2958 109.122C50.6814 106.074 52.1413 104.311 54.4068 104.159C54.6939 104.14 55.8053 104.165 56.1264 104.206C57.5006 104.38 58.7176 105.125 59.553 106.305C60.3828 107.477 60.7367 108.938 60.5492 110.419C60.169 113.424 57.8492 115.439 54.7736 115.439ZM54.7188 104.743C54.6019 104.743 54.5059 104.745 54.4464 104.749C51.8128 104.926 51.0832 107.611 50.8827 109.196C50.5765 111.617 51.3776 114.28 53.8576 114.773C53.9537 114.79 54.6587 114.847 54.7517 114.847C54.759 114.847 54.7668 114.847 54.7741 114.847C57.5809 114.847 59.6159 113.082 59.9622 110.345C60.131 109.011 59.8142 107.697 59.0701 106.647C58.3317 105.604 57.26 104.946 56.0522 104.793C55.8456 104.767 55.1446 104.743 54.7188 104.743Z" fill="black"/>
<path d="M59.1111 110.29C59.4225 107.372 57.5059 104.775 54.8303 104.489C52.1548 104.204 49.7335 106.338 49.4221 109.256C49.1108 112.174 51.0274 114.77 53.7029 115.056C56.3785 115.341 58.7998 113.207 59.1111 110.29Z" fill="white"/>
<path d="M54.1713 115.376C54.0026 115.376 53.833 115.367 53.662 115.348C50.8287 115.046 48.7905 112.298 49.1187 109.223C49.277 107.738 49.9573 106.397 51.0345 105.448C52.1189 104.492 53.4752 104.046 54.8519 104.194C56.2292 104.34 57.4605 105.062 58.3188 106.225C59.1714 107.38 59.5537 108.834 59.3954 110.319C59.0871 113.209 56.7971 115.376 54.1713 115.376ZM54.3382 104.758C53.2848 104.758 52.2648 105.152 51.4255 105.892C50.4599 106.743 49.8494 107.948 49.7067 109.286C49.4133 112.037 51.2157 114.492 53.7245 114.76C56.2325 115.027 58.5136 113.008 58.807 110.256C58.9497 108.919 58.6071 107.612 57.8426 106.576C57.084 105.548 55.9994 104.911 54.7889 104.782C54.6385 104.766 54.488 104.758 54.3382 104.758Z" fill="black"/>
<path d="M67.6484 114.952C67.0147 114.116 62.511 115.824 60.6693 116.503C58.8276 117.181 54.0779 123.579 53.6902 127.844C53.3024 132.109 54.5625 139.282 53.5933 141.802C53.5933 141.802 55.9196 143.935 60.2817 143.353C60.2817 143.353 60.7663 139.282 61.6388 137.828C62.5111 136.374 67.8425 132.497 67.4548 129.879C67.1606 127.894 63.4072 126.41 61.6128 125.81C61.3239 125.713 61.3424 125.296 61.6397 125.229C62.5599 125.023 64.0335 124.856 65.6131 125.324C68.2302 126.099 70.5567 124.839 69.4904 123.385C68.5336 122.08 64.6883 120.697 61.9479 120.988C61.8355 121 61.7945 120.848 61.8979 120.802C64.0311 119.862 69.3675 117.218 67.6484 114.952Z" fill="white"/>
<path d="M58.786 143.751C55.326 143.751 53.4804 142.1 53.3932 142.021C53.3037 141.938 53.2734 141.81 53.3171 141.696C53.8465 140.32 53.6785 137.434 53.5007 134.378C53.3659 132.065 53.2268 129.674 53.3955 127.817C53.7971 123.401 58.6803 116.92 60.567 116.225L60.7965 116.141C64.7148 114.694 67.2673 113.96 67.8841 114.773C68.252 115.258 68.3646 115.79 68.2187 116.353C67.781 118.043 65.0254 119.652 62.9313 120.653C65.6791 120.709 68.8378 121.996 69.7286 123.21C70.1266 123.753 70.1557 124.347 69.8087 124.84C69.1334 125.801 67.2933 126.13 65.5287 125.607C64.0251 125.162 62.6191 125.313 61.7043 125.518C63.8294 126.24 67.4372 127.744 67.7471 129.836C68.037 131.793 65.5948 134.184 63.6326 136.105C62.8329 136.887 62.1424 137.563 61.8922 137.98C61.0623 139.363 60.58 143.348 60.5752 143.388C60.5592 143.522 60.4545 143.629 60.3205 143.647C59.7783 143.719 59.2667 143.751 58.786 143.751ZM53.941 141.703C54.4947 142.121 56.5897 143.477 60.0173 143.088C60.1354 142.191 60.6024 138.98 61.3852 137.676C61.6746 137.194 62.356 136.527 63.2189 135.682C64.9868 133.952 67.4078 131.582 67.1621 129.923C66.8886 128.077 63.1246 126.628 61.5189 126.091C61.2611 126.005 61.0972 125.764 61.111 125.492C61.1249 125.221 61.3114 125 61.5751 124.941C62.5582 124.721 64.0714 124.558 65.6972 125.04C67.357 125.532 68.8731 125.143 69.3253 124.5C69.5254 124.216 69.5006 123.899 69.2517 123.56C68.3653 122.351 64.6057 121.007 61.9791 121.282C61.7801 121.302 61.6058 121.18 61.5558 120.992C61.506 120.803 61.6001 120.61 61.7793 120.531C65.1341 119.053 67.3275 117.436 67.6462 116.205C67.7459 115.82 67.6695 115.469 67.413 115.131C67.1958 114.844 65.907 114.884 61.0016 116.695L60.7717 116.78C59.0369 117.42 54.3615 123.727 53.985 127.871C53.82 129.683 53.958 132.052 54.0915 134.343C54.2651 137.327 54.4295 140.153 53.941 141.703ZM62.0178 121.073C62.0178 121.073 62.0175 121.073 62.0172 121.073L62.0178 121.073Z" fill="black"/>
<path d="M61.1344 140.453C60.035 140.606 57.1178 140.764 53.5912 138.954C53.3766 138.844 53.1159 138.972 53.0689 139.209L52.2498 143.323C52.2187 143.479 52.291 143.637 52.431 143.714C53.3818 144.237 57.1026 146.057 60.8702 144.834C61.0054 144.79 61.1018 144.669 61.1183 144.528L61.5469 140.857C61.5746 140.619 61.3717 140.419 61.1344 140.453Z" fill="white"/>
<path d="M58.1641 145.545C55.4179 145.545 53.0879 144.412 52.2886 143.972C52.0352 143.833 51.9031 143.549 51.9598 143.264L52.7788 139.151C52.82 138.945 52.9519 138.774 53.1411 138.683C53.3287 138.593 53.542 138.595 53.7266 138.69C57.1792 140.462 60.0293 140.307 61.0937 140.159C61.2968 140.13 61.4991 140.196 61.6463 140.34C61.7938 140.484 61.8649 140.685 61.8409 140.891L61.4122 144.561C61.382 144.818 61.2053 145.036 60.9619 145.115C60.011 145.423 59.065 145.545 58.1641 145.545ZM53.4271 139.209C53.4155 139.209 53.4056 139.212 53.3979 139.216C53.3859 139.222 53.365 139.236 53.359 139.266L52.5401 143.38C52.5338 143.41 52.547 143.439 52.5735 143.454C53.5824 144.008 57.1557 145.727 60.7791 144.552C60.803 144.544 60.8213 144.52 60.8246 144.492L61.2532 140.822C61.2566 140.793 61.2439 140.774 61.2327 140.763C61.2219 140.753 61.2022 140.741 61.1755 140.745C60.0549 140.902 57.0592 141.065 53.4563 139.216C53.4459 139.211 53.436 139.209 53.4271 139.209Z" fill="black"/>
<path d="M253.514 126.057L215.088 132.775L176.969 126.097C176.915 126.088 176.915 126.01 176.969 126.001L215.524 119.25L253.514 126.057Z" fill="white"/>
<path d="M200.876 121.914L238.242 128.658L229.853 130.124L192.466 123.365L200.876 121.914Z" fill="black"/>
<path d="M215.095 189.709V132.719L253.672 126.033V182.867L215.095 189.709Z" fill="white"/>
<path d="M230.183 136.389V130.055L238.584 128.6V134.899L230.183 136.389Z" fill="black"/>
<path d="M215.095 190.004C215.026 190.004 214.958 189.98 214.905 189.935C214.837 189.879 214.799 189.796 214.799 189.709V132.718C214.799 132.574 214.902 132.451 215.044 132.427L253.622 125.741C253.708 125.726 253.796 125.75 253.863 125.806C253.929 125.862 253.968 125.945 253.968 126.032V182.866C253.968 183.01 253.865 183.133 253.724 183.158L215.146 190C215.129 190.003 215.112 190.004 215.095 190.004ZM215.39 132.967V189.356L253.376 182.619V126.384L215.39 132.967Z" fill="black"/>
<path d="M222.04 168.436C221.971 168.436 221.904 168.412 221.851 168.367C221.783 168.311 221.745 168.227 221.745 168.14V140.895C221.745 140.751 221.848 140.628 221.989 140.603L246.924 136.239C247.01 136.224 247.099 136.247 247.166 136.304C247.233 136.36 247.271 136.443 247.271 136.53V163.674C247.271 163.817 247.169 163.94 247.027 163.965L222.093 168.431C222.075 168.434 222.058 168.436 222.04 168.436ZM222.336 141.143V167.786L246.679 163.426V136.882L222.336 141.143Z" fill="black"/>
<path d="M232.333 163.213C232.323 163.213 232.313 163.213 232.303 163.212C231.448 163.191 230.649 162.829 230.044 162.188C229.426 161.532 229.085 160.661 229.086 159.737L229.087 159.158C229.088 158.692 229.455 158.312 229.904 158.312C230.126 158.312 230.334 158.403 230.489 158.568C230.639 158.727 230.722 158.938 230.722 159.16L230.721 159.764C230.721 160.236 230.894 160.679 231.207 161.011C231.516 161.338 231.925 161.519 232.359 161.519C232.362 161.519 232.365 161.519 232.369 161.519C232.796 161.514 233.198 161.335 233.503 161.012C233.816 160.68 233.989 160.237 233.989 159.765L233.994 142.798C233.994 142.554 234.096 142.322 234.272 142.161C234.442 142.008 234.667 141.932 234.893 141.955C235.305 141.997 235.628 142.377 235.628 142.819V159.739C235.628 160.664 235.288 161.534 234.669 162.189C234.062 162.833 233.258 163.195 232.399 163.212C232.394 163.213 232.388 163.213 232.383 163.213H232.364C232.353 163.213 232.343 163.213 232.333 163.213Z" fill="black"/>
<path d="M242.454 150.83C242.963 150.742 243.292 150.232 243.16 149.729C242 145.291 238.095 143.915 233.931 144.637C229.925 145.331 226.895 148.454 225.885 152.391C225.724 153.019 226.25 153.608 226.885 153.499L242.454 150.83Z" fill="black"/>
<path d="M215.095 189.714V132.723L176.852 126.029V182.905L215.095 189.714Z" fill="white"/>
<path d="M215.094 190.009C215.077 190.009 215.06 190.007 215.043 190.004L176.8 183.195C176.658 183.17 176.556 183.047 176.556 182.904V126.028C176.556 125.941 176.594 125.858 176.661 125.802C176.728 125.746 176.816 125.722 176.902 125.737L215.145 132.431C215.287 132.456 215.39 132.579 215.39 132.722V189.713C215.39 189.8 215.352 189.883 215.284 189.939C215.231 189.985 215.163 190.009 215.094 190.009ZM177.147 182.656L214.799 189.36V132.971L177.147 126.38V182.656Z" fill="black"/>
<path d="M204.916 164.507C204.9 164.507 204.883 164.506 204.867 164.503L185.996 161.288C185.854 161.264 185.75 161.141 185.75 160.997V156.806C185.75 156.718 185.789 156.635 185.856 156.579C185.923 156.523 186.011 156.499 186.097 156.514L204.967 159.821C205.109 159.846 205.212 159.969 205.212 160.112V164.211C205.212 164.299 205.174 164.381 205.107 164.438C205.053 164.483 204.986 164.507 204.916 164.507ZM186.342 160.747L204.621 163.861V160.361L186.342 157.158V160.747Z" fill="black"/>
<path d="M201.995 157.481C201.979 157.481 201.962 157.48 201.945 157.477L198.177 156.835C198.035 156.811 197.931 156.688 197.931 156.543V146.86L196.186 146.555C196.08 146.536 195.992 146.461 195.957 146.359C195.922 146.257 195.946 146.143 196.019 146.064L199.893 141.832C199.953 141.766 200.041 141.732 200.13 141.737C200.22 141.743 200.302 141.789 200.354 141.863L204.249 147.462C204.318 147.56 204.32 147.69 204.256 147.791C204.191 147.891 204.074 147.944 203.954 147.922L202.291 147.626V157.185C202.291 157.272 202.252 157.355 202.186 157.411C202.132 157.457 202.064 157.481 201.995 157.481ZM198.522 156.294L201.699 156.835V147.272C201.699 147.185 201.738 147.102 201.805 147.046C201.872 146.989 201.961 146.967 202.047 146.981L203.356 147.215L200.079 142.505L196.82 146.066L198.278 146.321C198.419 146.346 198.522 146.469 198.522 146.612V156.294Z" fill="black"/>
<path d="M192.712 155.92C192.696 155.92 192.679 155.919 192.663 155.916L188.894 155.274C188.752 155.25 188.648 155.127 188.648 154.983V145.3L186.904 144.994C186.797 144.976 186.709 144.901 186.674 144.798C186.64 144.696 186.663 144.583 186.736 144.503L190.61 140.272C190.671 140.206 190.758 140.172 190.848 140.176C190.938 140.182 191.02 140.229 191.071 140.302L194.967 145.901C195.035 146 195.037 146.129 194.973 146.23C194.909 146.33 194.791 146.384 194.672 146.362L193.008 146.065V155.624C193.008 155.712 192.97 155.794 192.903 155.851C192.849 155.896 192.782 155.92 192.712 155.92ZM189.24 154.733L192.416 155.274V145.712C192.416 145.624 192.455 145.541 192.522 145.485C192.59 145.429 192.679 145.406 192.764 145.421L194.073 145.654L190.796 140.944L187.537 144.505L188.995 144.76C189.136 144.785 189.24 144.908 189.24 145.052V154.733Z" fill="black"/>
<path d="M207.948 168.44C207.931 168.44 207.913 168.438 207.896 168.435L182.961 163.969C182.82 163.943 182.717 163.821 182.717 163.677V136.534C182.717 136.447 182.756 136.364 182.823 136.308C182.89 136.251 182.978 136.228 183.064 136.243L207.999 140.607C208.141 140.632 208.244 140.755 208.244 140.899V168.144C208.244 168.231 208.205 168.315 208.138 168.371C208.084 168.416 208.017 168.44 207.948 168.44ZM183.309 163.43L207.652 167.79V141.147L183.309 136.886V163.43Z" fill="black"/>
<path d="M215.087 133.072C215.07 133.072 215.053 133.07 215.036 133.068L176.917 126.389C176.752 126.361 176.632 126.218 176.632 126.05C176.632 125.881 176.753 125.739 176.918 125.71L215.472 118.959C215.506 118.954 215.541 118.954 215.575 118.96L253.566 125.767C253.707 125.792 253.81 125.915 253.81 126.059C253.809 126.202 253.706 126.325 253.565 126.35L215.138 133.067C215.121 133.07 215.104 133.072 215.087 133.072ZM178.408 126.05L215.087 132.476L251.817 126.055L215.523 119.551L178.408 126.05Z" fill="black"/>
<path d="M236.754 179.962L198.327 186.68L160.209 180.002C160.155 179.992 160.155 179.915 160.209 179.905L198.763 173.154L236.754 179.962Z" fill="white"/>
<path d="M184.116 175.818L221.482 182.562L213.093 184.029L175.707 177.269L184.116 175.818Z" fill="black"/>
<path d="M198.335 243.615V186.625L236.912 179.939V236.773L198.335 243.615Z" fill="white"/>
<path d="M213.423 190.296V183.962L221.824 182.506V188.806L213.423 190.296Z" fill="black"/>
<path d="M198.335 243.91C198.266 243.91 198.198 243.886 198.145 243.841C198.078 243.785 198.039 243.702 198.039 243.614V186.624C198.039 186.48 198.143 186.357 198.284 186.332L236.862 179.647C236.949 179.632 237.036 179.656 237.103 179.712C237.17 179.768 237.208 179.851 237.208 179.938V236.772C237.208 236.916 237.105 237.038 236.964 237.063L198.387 243.906C198.369 243.909 198.352 243.91 198.335 243.91ZM198.631 186.873V243.261L236.617 236.524V180.29L198.631 186.873Z" fill="black"/>
<path d="M205.281 222.34C205.212 222.34 205.144 222.316 205.091 222.271C205.024 222.215 204.985 222.132 204.985 222.044V194.799C204.985 194.655 205.088 194.532 205.23 194.507L230.165 190.143C230.251 190.128 230.339 190.152 230.406 190.208C230.473 190.265 230.511 190.348 230.511 190.435V217.578C230.511 217.721 230.409 217.844 230.268 217.869L205.333 222.335C205.315 222.338 205.298 222.34 205.281 222.34ZM205.576 195.047V221.691L229.92 217.33V190.787L205.576 195.047Z" fill="black"/>
<path d="M215.573 217.116C215.563 217.116 215.553 217.115 215.544 217.114C214.688 217.093 213.889 216.732 213.284 216.09C212.666 215.434 212.326 214.564 212.326 213.639L212.328 213.06C212.328 212.594 212.695 212.215 213.145 212.215C213.367 212.215 213.574 212.306 213.729 212.47C213.88 212.629 213.962 212.84 213.962 213.063L213.962 213.666C213.962 214.138 214.134 214.581 214.447 214.914C214.756 215.241 215.165 215.421 215.599 215.421C215.602 215.421 215.605 215.421 215.609 215.421C216.036 215.417 216.438 215.237 216.743 214.914C217.056 214.582 217.229 214.139 217.229 213.667L217.234 196.7C217.234 196.456 217.336 196.224 217.513 196.064C217.682 195.91 217.907 195.834 218.133 195.858C218.545 195.899 218.868 196.279 218.868 196.721V213.641C218.868 214.566 218.528 215.436 217.909 216.091C217.302 216.735 216.498 217.097 215.639 217.115C215.634 217.115 215.628 217.115 215.623 217.115H215.604C215.593 217.116 215.583 217.116 215.573 217.116Z" fill="black"/>
<path d="M225.694 204.732C226.204 204.645 226.532 204.135 226.401 203.631C225.241 199.193 221.336 197.817 217.172 198.539C213.166 199.233 210.136 202.356 209.125 206.293C208.964 206.921 209.491 207.51 210.125 207.401L225.694 204.732Z" fill="black"/>
<path d="M198.334 243.614V186.624L160.091 179.93V236.805L198.334 243.614Z" fill="white"/>
<path d="M198.335 243.909C198.317 243.909 198.3 243.907 198.283 243.904L160.04 237.095C159.899 237.07 159.796 236.947 159.796 236.804V179.928C159.796 179.841 159.834 179.758 159.901 179.702C159.968 179.646 160.056 179.623 160.143 179.637L198.386 186.331C198.527 186.356 198.631 186.479 198.631 186.623V243.613C198.631 243.701 198.592 243.783 198.525 243.84C198.471 243.885 198.404 243.909 198.335 243.909ZM160.387 236.556L198.039 243.26V186.871L160.387 180.281V236.556Z" fill="black"/>
<path d="M188.157 218.404C188.141 218.404 188.124 218.402 188.107 218.399L169.237 215.185C169.095 215.161 168.991 215.037 168.991 214.893V210.702C168.991 210.614 169.029 210.531 169.096 210.475C169.163 210.419 169.252 210.396 169.338 210.41L188.208 213.717C188.35 213.742 188.453 213.865 188.453 214.009V218.108C188.453 218.195 188.414 218.278 188.348 218.334C188.294 218.38 188.226 218.404 188.157 218.404ZM169.582 214.644L187.861 217.758V214.257L169.582 211.054V214.644Z" fill="black"/>
<path d="M185.234 211.38C185.218 211.38 185.201 211.378 185.185 211.375L181.416 210.733C181.274 210.709 181.17 210.586 181.17 210.442V200.759L179.426 200.454C179.319 200.435 179.231 200.36 179.196 200.258C179.162 200.155 179.185 200.042 179.258 199.963L183.132 195.731C183.193 195.665 183.281 195.631 183.37 195.635C183.459 195.641 183.541 195.688 183.593 195.761L187.489 201.361C187.557 201.459 187.559 201.588 187.495 201.689C187.43 201.79 187.313 201.842 187.194 201.821L185.53 201.524V211.084C185.53 211.171 185.492 211.254 185.425 211.31C185.371 211.355 185.304 211.38 185.234 211.38ZM181.762 210.192L184.938 210.734V201.171C184.938 201.083 184.977 201 185.044 200.944C185.112 200.888 185.2 200.864 185.286 200.88L186.595 201.113L183.318 196.403L180.059 199.964L181.517 200.219C181.658 200.244 181.761 200.367 181.761 200.511L181.762 210.192Z" fill="black"/>
<path d="M175.954 209.817C175.938 209.817 175.921 209.816 175.904 209.813L172.136 209.171C171.994 209.147 171.89 209.023 171.89 208.879V199.196L170.145 198.891C170.039 198.872 169.951 198.797 169.916 198.695C169.881 198.593 169.905 198.479 169.978 198.4L173.852 194.168C173.912 194.102 174 194.068 174.09 194.073C174.179 194.079 174.261 194.125 174.313 194.199L178.208 199.798C178.277 199.896 178.279 200.026 178.215 200.126C178.15 200.227 178.032 200.28 177.913 200.258L176.25 199.961V209.521C176.25 209.608 176.211 209.691 176.145 209.747C176.091 209.793 176.023 209.817 175.954 209.817ZM172.481 208.63L175.658 209.171V199.608C175.658 199.521 175.697 199.438 175.764 199.382C175.831 199.325 175.92 199.301 176.006 199.317L177.315 199.551L174.038 194.841L170.779 198.402L172.237 198.657C172.378 198.681 172.481 198.805 172.481 198.948V208.63H172.481Z" fill="black"/>
<path d="M191.189 222.338C191.171 222.338 191.154 222.337 191.137 222.333L166.202 217.867C166.061 217.842 165.958 217.719 165.958 217.576V190.433C165.958 190.346 165.997 190.263 166.064 190.206C166.13 190.15 166.218 190.126 166.305 190.141L191.24 194.505C191.381 194.53 191.485 194.653 191.485 194.797V222.042C191.485 222.13 191.446 222.213 191.379 222.269C191.325 222.314 191.258 222.338 191.189 222.338ZM166.55 217.328L190.893 221.689V195.045L166.55 190.785V217.328Z" fill="black"/>
<path d="M198.327 186.976C198.31 186.976 198.293 186.975 198.276 186.972L160.158 180.294C159.993 180.265 159.873 180.122 159.873 179.954C159.873 179.786 159.993 179.643 160.158 179.614L198.712 172.864C198.746 172.858 198.781 172.858 198.815 172.864L236.806 179.671C236.947 179.697 237.05 179.819 237.05 179.963C237.05 180.107 236.946 180.229 236.805 180.254L198.378 186.972C198.361 186.975 198.344 186.976 198.327 186.976ZM161.649 179.954L198.327 186.38L235.057 179.959L198.763 173.455L161.649 179.954Z" fill="black"/>
<defs>
<linearGradient id="paint0_linear_608_18697" x1="136.5" y1="35" x2="136.5" y2="282" gradientUnits="userSpaceOnUse">
<stop stop-color="#CF69FF"/>
<stop offset="1" stop-color="#6356EF"/>
</linearGradient>
</defs>
</svg>
