<svg width="277" height="387" viewBox="0 0 277 387" fill="none" xmlns="http://www.w3.org/2000/svg">
<path d="M14.4768 217.796C14.4768 217.796 19.2435 276.309 64.5331 304.602C109.823 332.896 153.769 330.908 187.902 320.547C222.035 310.184 245.016 279.364 252.581 265.133C260.145 250.902 262.552 231.801 262.749 221.118L260.077 221.87C260.077 221.87 231.621 240.601 206.955 245.848C206.955 245.848 193.303 268.615 192.222 268.615H186.523L185.137 271.313C185.137 271.313 178.374 293.065 171.285 300.711L98.0841 299.697C98.0841 299.697 83.2841 286.609 80.5295 266.542L78.1405 263.078L67.5454 257.75L58.0889 240.149C58.0889 240.149 17.3383 216.345 17.0493 216.253C16.7602 216.161 15.7185 216.239 15.3176 216.253C14.9167 216.267 14.4756 217.796 14.4756 217.796H14.4768Z" fill="url(#paint0_linear_561_274)"/>
<path d="M177.936 71.7493C163.362 64.9192 151.712 62.7188 141.545 62.7188C132.212 62.7188 124.13 64.5711 116.175 66.3933C95.5718 71.1147 77.6288 82.871 65.6526 99.4969C55.6921 113.324 50.5774 129.132 50.4518 146.482C50.355 159.872 54.7446 171.133 63.4962 179.949C83.2299 199.826 121.28 203.998 149.726 203.998C168.237 203.998 228.818 200.851 231.177 160.364C233.234 125.034 210.347 86.9376 177.937 71.748L177.936 71.7493Z" fill="#000072"/>
<path d="M149.112 41.0963C129.001 41.0963 105.872 50.1469 83.9801 66.5818C62.7421 82.5267 44.4535 103.91 32.4836 126.793C9.51141 170.713 14.8611 209.933 15.3738 213.267C25.6523 222.688 57.7644 239.972 58.0898 240.145C58.2042 240.205 58.2984 240.298 58.3625 240.409L68.4424 257.915L80.0416 264.084C81.0545 259.297 85.1739 240.844 88.9867 238.303C93.375 235.377 160.268 235.978 169.408 239.025C178.637 242.102 185.254 264.154 186.322 267.918H191.991C193.387 266.407 201.455 253.509 206.366 245.482C206.462 245.325 206.615 245.213 206.793 245.171C234.717 238.439 259.778 221.299 262.623 219.309C265.787 167.846 246.428 114.495 210.798 76.5348C190.281 54.6747 166.644 41.0938 149.112 41.0938V41.0963ZM232.555 160.441C230.126 202.137 168.541 205.378 149.724 205.378C121.016 205.378 82.5801 201.135 62.5121 180.92C53.4904 171.832 48.965 160.241 49.0656 146.468C49.1938 128.827 54.3952 112.749 64.5266 98.6851C76.7001 81.7852 94.9321 69.8367 115.863 65.0411C131.929 61.3603 150.137 57.1881 178.522 70.4926C194.341 77.9071 208.526 90.9578 218.463 107.241C228.583 123.824 233.587 142.718 232.555 160.442V160.441Z" fill="url(#paint1_linear_561_274)"/>
<path d="M98.1337 299.164C98.145 299.174 98.1488 299.187 98.1589 299.197C98.1702 299.208 98.1865 299.216 98.1978 299.228C100.05 301.371 170.05 302.571 170.079 302.526C170.083 302.521 170.088 302.518 170.092 302.513C170.095 302.507 170.095 302.501 170.1 302.494C170.208 302.344 180.854 287.203 185.083 268.624C184.487 266.502 177.776 243.274 168.972 240.339C164.164 238.737 144.512 237.891 127.167 237.763C107.499 237.617 91.4193 238.346 89.7554 239.454C86.6665 241.514 82.5684 258.648 81.2275 265.185C81.5266 284.164 97.9691 299.016 98.135 299.163L98.1337 299.164Z" fill="#08CFFC"/>
<g opacity="0.25">
<path d="M61.7819 264.413C62.1388 264.859 80.8282 273.006 80.8282 273.006C80.8282 273.006 80.8295 273.006 80.8307 273.006C80.274 270.613 79.9221 268.123 79.8555 265.553L67.6167 259.043C67.5023 258.983 67.4068 258.89 67.3427 258.778L57.2616 241.271C55.1629 240.14 28.5338 223.895 15.7998 215.473C16.2748 217.417 15.5724 221.784 16.8579 226.319C16.8579 226.319 47.3162 242.631 52.1381 245.577C56.96 248.523 61.4238 263.969 61.7807 264.416L61.7819 264.413Z" fill="#00116B"/>
</g>
<g opacity="0.25">
<path d="M198.585 273.098C198.942 272.652 208.067 253.49 213.317 251.403C218.725 249.253 259.636 232.594 262.46 231.46C263.858 227.125 262.218 222.339 262.749 220.488C252.268 226.645 225.362 242.072 207.397 246.449C193.412 269.303 192.698 269.303 192.224 269.303H186.343C185.809 271.596 185.178 273.835 184.485 276.001C184.485 276.001 198.227 273.544 198.584 273.098H198.585Z" fill="#00116B"/>
</g>
<g opacity="0.25">
<path d="M100.703 295.815C104.621 300.749 110.697 299.433 116.958 300.131L132.959 299.964L153.323 300.672C159.81 300.464 164.736 302.012 167.987 296.395C169.386 293.979 170.839 291.698 171.864 289.568C176.424 280.093 178.63 274.531 179.808 265.85C179.808 265.85 173.574 280.107 161.427 288.499C149.279 296.891 133.153 294.866 133.153 294.866C133.153 294.866 116.924 295.669 104.777 287.277C92.6284 278.885 86.4971 265.85 86.4971 265.85C87.6758 274.531 91.9134 282.394 96.3357 289.568C97.6037 291.625 99.0551 293.74 100.703 295.814V295.815Z" fill="#00116B"/>
</g>
<g opacity="0.25">
<path d="M203.743 238.748L255.706 214.508C255.884 210.724 255.331 199.848 255.331 199.848C246.641 206.95 220.868 217.901 220.868 217.901L220.373 211.789C220.127 208.75 216.715 207.129 214.174 208.813C184.163 228.7 139.318 227.991 139.318 227.991C139.318 227.991 94.4719 228.7 64.4622 208.813C61.9212 207.129 58.5093 208.75 58.263 211.789L57.7679 217.901C57.7679 217.901 31.9945 206.95 23.3045 199.848C23.3045 199.848 20.2684 205.87 20.4481 209.654L62.7682 234.33L71.7862 253.08L81.4765 257.817V257.814C83.2585 250.506 86.2054 240.163 88.9902 238.307C93.3786 235.382 160.272 235.982 169.412 239.03C176.58 241.42 182.171 255.254 184.811 263.078L190.755 262.32L203.746 238.75L203.743 238.748Z" fill="#000072"/>
</g>
<g opacity="0.4">
<path d="M38.321 254.761C39.6505 255.602 47.7725 257.685 48.1231 258.148C48.4737 258.612 55.6846 270.233 59.1845 273.804C59.1845 273.804 51.2032 255.881 50.7835 255.391C50.3638 254.901 34.4014 249.79 34.4014 250.14C34.4014 250.491 36.9914 253.92 38.3222 254.761H38.321Z" fill="white"/>
</g>
<g opacity="0.4">
<path d="M223.904 258.148C224.254 257.684 232.375 255.601 233.706 254.761C235.037 253.92 237.627 250.491 237.627 250.14C237.627 249.79 221.664 254.901 221.245 255.391C220.825 255.881 212.844 273.804 212.844 273.804C216.345 270.233 223.556 258.612 223.905 258.148H223.904Z" fill="white"/>
</g>
<g opacity="0.4">
<path d="M182.466 260.643C181.061 254.701 173.955 246.156 171.94 242.038C171.397 241.079 170.847 240.25 170.304 239.602C170.242 239.55 170.179 239.493 170.118 239.452C169.036 238.73 161.855 238.171 151.56 237.907C145.821 237.815 139.638 237.77 134.312 237.75C133.78 237.753 133.245 237.756 132.706 237.76C131.789 237.766 130.864 237.776 129.937 237.786C129.009 237.775 128.083 237.766 127.166 237.76C126.626 237.756 126.092 237.753 125.56 237.75C120.234 237.77 114.051 237.815 108.312 237.907C98.0156 238.171 90.8361 238.73 89.7541 239.452C89.6925 239.493 89.6297 239.55 89.5681 239.602C89.0252 240.25 88.4748 241.079 87.9319 242.038C85.9174 246.156 83.7936 254.013 82.3887 259.956C82.3899 260.607 82.4565 261.141 82.6073 261.51C82.6073 261.51 92.2499 243.497 92.9197 243.163C93.2954 242.975 107.85 242.998 120.557 243.054V243.163C120.557 243.163 164.477 243.408 167.523 245.636C171.675 248.673 183.519 265.844 183.519 265.844C183.67 265.475 182.465 261.294 182.466 260.643Z" fill="white"/>
</g>
<g opacity="0.25">
<path d="M108.312 237.91C114.052 237.818 120.235 237.773 125.561 237.753C119.286 237.721 113.417 237.779 108.312 237.91Z" fill="#00116B"/>
</g>
<g opacity="0.4">
<path d="M108.312 237.91C114.052 237.818 120.235 237.773 125.561 237.753C119.286 237.721 113.417 237.779 108.312 237.91Z" fill="white"/>
</g>
<g opacity="0.4">
<path d="M47.5914 139.656C47.5914 139.656 38.6601 163.837 59.1918 184.083C79.7235 204.33 106.594 211.618 154.676 210.463C202.759 209.309 222.747 197.507 232.001 180.078C241.255 162.65 232.001 140.078 232.001 140.078C232.001 140.078 240.783 173.486 211.06 190.935C181.337 208.384 124.87 209.388 86.2043 194.95C47.5386 180.512 49.0277 149.304 47.5901 139.654L47.5914 139.656Z" fill="white"/>
</g>
<path d="M114.282 121.148C115.517 110.306 111.812 100.981 106.007 100.319C100.201 99.6578 94.4934 107.911 93.2581 118.752C92.0229 129.594 95.7279 138.919 101.534 139.581C107.339 140.242 113.047 131.989 114.282 121.148Z" fill="#08CFFC"/>
<path d="M191.91 127.312C193.145 116.47 189.44 107.145 183.635 106.483C177.829 105.822 172.121 114.075 170.886 124.916C169.651 135.758 173.356 145.083 179.161 145.745C184.967 146.406 190.675 138.153 191.91 127.312Z" fill="#08CFFC"/>
<g opacity="0.4">
<path d="M79.2676 274.523C79.2676 274.523 89.82 302.529 95.6585 304.26C101.497 305.992 173.098 306.38 173.098 306.38C173.098 306.38 181.266 295.793 183.531 282.202C183.531 282.202 170.645 300.508 169.778 300.652C168.911 300.797 98.0839 299.692 98.0839 299.692L79.2676 274.525V274.523Z" fill="white"/>
</g>
<g opacity="0.25">
<path d="M23.4043 248.953C23.4043 248.953 62.3402 317.397 139.013 317.397C215.686 317.397 255.114 257.745 255.114 257.745C255.114 257.745 233.875 327.314 145.095 327.314C56.3156 327.314 30.0295 270.794 23.4043 250.121" fill="#000072"/>
</g>
<path d="M192.223 270.809H185.796C184.804 270.809 183.936 270.145 183.676 269.187C181.098 259.684 174.697 243.836 168.494 241.769C159.037 238.617 95.6447 238.671 90.5338 240.748C88.5533 242.313 84.89 254.777 82.6808 265.57C82.5425 266.249 82.0914 266.822 81.4656 267.117C80.8372 267.413 80.1096 267.395 79.4988 267.069L66.9094 260.373C66.5449 260.179 66.2433 259.886 66.0372 259.529L56.1697 242.392C51.667 239.956 22.9706 224.283 13.2313 215.221C12.8807 214.896 12.647 214.463 12.564 213.992C12.2674 212.299 5.57308 172.009 29.9239 125.454C42.0886 102.197 60.6699 80.4681 82.246 64.2707C104.633 47.4625 128.379 38.207 149.112 38.207C167.691 38.207 191.537 51.7968 212.904 74.5592C229.379 92.1125 242.942 113.622 252.125 136.764C262.78 163.617 267.275 191.562 265.484 219.823C265.443 220.48 265.109 221.084 264.575 221.468C263.495 222.244 238.049 240.37 208.356 247.763C207.28 249.515 204.531 253.979 201.749 258.398C193.938 270.808 193.71 270.808 192.222 270.808L192.223 270.809ZM187.454 266.417H191.266C193.308 263.676 200.318 252.489 205.083 244.699C205.387 244.203 205.876 243.847 206.442 243.71C232.704 237.379 256.448 221.725 261.165 218.491C264.078 167.659 244.884 115.05 209.701 77.5664C189.458 55.9992 166.242 42.6017 149.113 42.6017C129.326 42.6017 106.516 51.5455 84.885 67.7856C63.8217 83.5997 45.6865 104.804 33.8183 127.492C11.9332 169.332 16.0124 206.894 16.7865 212.516C27.325 221.879 58.4845 238.65 58.8037 238.822C59.1644 239.015 59.4635 239.306 59.6683 239.66L69.5321 256.791L78.9899 261.822C80.6512 254.264 84.3069 239.617 88.1536 237.054C91.4524 234.854 116.545 234.799 127.189 234.877C144.256 235.003 164.434 235.783 169.887 237.601C179.199 240.705 185.633 260.232 187.457 266.416L187.454 266.417Z" fill="#000072"/>
<path d="M165.55 302.918C136.733 302.918 98.0287 301.888 97.614 301.877C97.0962 301.863 96.6011 301.667 96.214 301.323C95.4952 300.684 78.6129 285.447 78.3352 265.159C78.3188 263.946 79.289 262.95 80.5017 262.934H80.5318C81.7307 262.934 82.7109 263.897 82.7273 265.1C82.951 281.447 95.7051 294.731 98.5678 297.51C104.726 297.668 143.399 298.625 170.171 298.518C172.406 295.385 180.133 283.747 183.653 268.13C183.919 266.947 185.091 266.206 186.278 266.47C187.461 266.736 188.205 267.913 187.938 269.095C183.594 288.371 173.446 301.51 173.016 302.059C172.603 302.588 171.97 302.899 171.298 302.902C169.44 302.912 167.516 302.918 165.55 302.918Z" fill="#021168"/>
<path d="M149.726 206.883C120.731 206.883 81.8797 202.562 61.446 181.981C52.1302 172.599 47.4604 160.647 47.5622 146.459C47.6929 128.498 52.9898 112.13 63.3072 97.806C75.6931 80.6108 94.2417 68.4536 115.529 63.5752C131.829 59.8403 150.304 55.6066 179.161 69.1298C195.245 76.6686 209.659 89.9241 219.748 106.457C230.027 123.299 235.109 142.503 234.058 160.53C233.055 177.743 222.376 190.478 202.314 198.381C183.542 205.778 161.308 206.883 149.724 206.883H149.726ZM116.509 67.8567C96.2625 72.4964 78.6337 84.0441 66.8711 100.373C57.0966 113.943 52.0774 129.458 51.9543 146.49C51.86 159.465 56.1026 170.365 64.5626 178.886C83.9319 198.395 121.565 202.49 149.726 202.49C167.904 202.49 227.391 199.447 229.673 160.275C231.698 125.523 209.181 88.0504 177.297 73.1072C149.811 60.2249 132.881 64.1043 116.509 67.8567Z" fill="#000072"/>
<path d="M138.681 329.677C102.864 329.677 71.9663 317.614 46.438 293.586C29.9477 278.066 21.6096 257.17 17.5179 242.374C13.0981 226.394 12.5552 214.219 12.5351 213.707C12.4849 212.496 13.4274 211.473 14.6388 211.424C15.8327 211.371 16.8732 212.315 16.9235 213.526C16.9436 214.008 19.2798 261.992 49.449 290.388C84.0493 322.954 128.986 332.781 183.012 319.596C231.21 307.834 261.071 258.579 261.099 219.688C261.099 218.475 262.083 217.493 263.295 217.493C264.508 217.493 265.491 218.478 265.491 219.69C265.476 240.693 257.406 263.731 243.349 282.898C228.087 303.707 207.028 318.256 184.054 323.863C168.165 327.74 153.026 329.678 138.682 329.678L138.681 329.677Z" fill="#000072"/>
<path d="M230.105 31.6031C231.431 28.3772 231.454 25.1903 230.137 22.1139C227.757 16.5481 221.734 12.9062 218.267 11.8166C213.806 10.4129 209.445 12.8898 207.627 14.144C215.616 18.4544 223.271 24.1485 230.105 31.6031Z" fill="url(#paint2_linear_561_274)"/>
<path d="M50.4326 92.3648C52.1856 90.7826 58.7091 85.2934 69.6749 80.5218C78.2267 76.8008 90.7558 73.0571 106.531 73.0571C112.331 73.0571 118.565 73.5623 125.207 74.7612C155.214 80.1762 191.125 97.9797 218.292 114.936C190.217 78.1241 154.006 59.4371 128.244 50.2068C99.53 39.9183 77.2402 38.8225 77.019 38.8124C77.0177 38.8124 77.0165 38.8124 77.014 38.8124C77.0115 38.8124 77.0089 38.8124 77.0064 38.8124C76.6935 38.7923 45.8306 37.0807 39.4831 53.7255C33.4548 69.5296 41.1055 83.9551 50.4338 92.3648H50.4326Z" fill="#535580"/>
<path d="M209.787 48.4852C211.537 66.2195 198.168 85.1867 195.735 88.4729C204.769 96.581 213.531 106.021 221.57 117.002C234.264 125.103 244.805 132.884 251.563 138.879C253.731 132.532 264.825 95.1912 242.681 52.1849C238.96 44.9602 234.642 38.761 229.904 33.4439C229.815 33.3799 229.746 33.3019 229.696 33.2077C222.598 25.3031 214.564 19.3741 206.178 14.9569C206.031 14.9342 205.893 14.8664 205.784 14.7508C196.509 9.92383 186.818 6.93166 177.489 5.16602C186.737 10.0633 206.894 23.4772 209.787 48.4852Z" fill="#535580"/>
<path d="M194.767 88.3836C197.252 84.9629 210.148 66.2948 208.488 49.4628C204.968 19.0447 175.13 6.19136 172.622 5.1659C157.545 2.9466 143.831 3.73203 134.963 4.7889C127.172 5.71759 119.871 7.79364 113.259 10.9592C94.757 19.8214 81.8056 34.3964 78.5068 38.3487C83.7535 38.7533 103.85 40.8042 128.74 49.7154C147.587 56.4625 171.983 68.2415 194.765 88.3836H194.767Z" fill="url(#paint3_linear_561_274)"/>
<g opacity="0.25">
<path d="M52.4079 54.6982C40.1465 68.0744 51.434 84.5143 54.8446 88.8662C58.1547 86.4873 63.1136 83.3808 69.676 80.5256C78.2278 76.8046 90.7569 73.0609 106.532 73.0609C112.332 73.0609 118.566 73.5661 125.208 74.765C147.355 78.7612 172.715 89.5084 195.406 101.681C199.774 103.969 202.186 105.399 202.186 105.399C154.559 54.3187 66.6713 39.1367 52.4079 54.697V54.6982Z" fill="#000072"/>
</g>
<g opacity="0.25">
<path d="M179.366 14.6946C179.366 26.6582 157.223 47.1937 131.332 40.5861C105.439 33.9797 107.225 19.5153 107.225 19.5153C93.5647 26.4798 84.2539 38.1205 84.2539 38.1205C93.1362 39.2251 109.469 42.0149 128.66 48.8865C146.319 55.2089 168.853 65.9498 190.363 83.8487C194.979 77.3957 202.181 65.5401 202.181 51.8347C199.82 24.8712 179.364 14.6934 179.364 14.6934L179.366 14.6946Z" fill="#000072"/>
</g>
<g opacity="0.25">
<path d="M249.188 87.5566C249.188 87.5566 244.724 90.7649 231.112 84.6939C217.499 78.6228 209.903 59.9623 209.903 59.9623C209.683 59.7688 209.282 60.2853 208.799 61.1838C205.763 74.3928 197.586 85.9769 195.733 88.4777C204.768 96.5859 213.529 106.026 221.568 117.007C231.882 123.588 240.774 129.96 247.372 135.333C255.021 112.759 249.186 87.5579 249.186 87.5579L249.188 87.5566Z" fill="#000072"/>
</g>
<g opacity="0.25">
<path d="M228.484 25.3253C227.681 22.7478 221.956 18.6623 218.574 17.2561C215.993 16.1829 213.63 16.7471 212.655 17.0751C218.185 20.5473 223.494 24.7497 228.414 29.8141C228.699 29.0086 229.068 27.1965 228.484 25.3253Z" fill="#00116B"/>
</g>
<g opacity="0.4">
<path d="M56.6031 44.8702C75.8831 38.4146 145.857 52.5159 182.221 79.1664C163.146 64.8 143.792 55.7757 128.243 50.2048C99.5289 39.9164 77.2391 38.8205 77.0179 38.8105C77.0167 38.8105 77.0154 38.8105 77.0129 38.8105C77.0104 38.8105 77.0079 38.8105 77.0053 38.8105C76.6924 38.7904 45.8295 37.0788 39.482 53.7236C36.1178 62.5442 37.0164 70.9326 40.0864 78.0882C39.7006 71.3171 39.9218 50.4562 56.6031 44.8715V44.8702Z" fill="white"/>
</g>
<g opacity="0.4">
<path d="M235.082 46.6613C245.693 62.7532 251.819 78.8714 254.443 86.727C252.543 76.0489 248.94 64.3467 242.682 52.1907C238.961 44.9661 234.643 38.7668 229.905 33.4498C229.816 33.3857 229.747 33.3078 229.697 33.2135C222.599 25.309 214.565 19.38 206.179 14.9627C206.032 14.9401 205.894 14.8722 205.785 14.7566C196.51 9.92969 186.819 6.93752 177.49 5.17188C180.622 6.82944 185.004 9.46848 189.542 13.1983C193.7 14.7805 221.399 25.9097 235.083 46.6613H235.082Z" fill="white"/>
</g>
<path d="M251.865 142.278C251.326 142.278 250.8 142.079 250.391 141.71C233.582 126.485 173.536 86.4159 124.694 77.6028C100.799 73.2911 82.3147 78.2059 71.0171 83.0882C58.7443 88.3914 52.0399 94.8105 51.9746 94.8746C51.1527 95.6701 49.8583 95.7053 48.9975 94.9525C38.7291 85.9685 30.1271 70.1493 36.785 52.6965C43.2167 35.8368 70.0218 35.6923 76.0325 35.8808C79.2082 32.0077 92.4059 16.8822 111.936 7.52873C118.833 4.2249 126.441 2.06089 134.546 1.0945C149.909 -0.735234 172.966 -1.17256 195.571 7.13915C217.804 15.3151 234.519 30.0272 245.249 50.8668C258.205 76.0281 259.887 99.1159 259.016 114.052C258.07 130.291 254.078 140.471 253.909 140.896C253.642 141.564 253.066 142.061 252.364 142.223C252.2 142.26 252.033 142.279 251.868 142.279L251.865 142.278ZM106.53 71.5518C112.414 71.5518 118.738 72.0645 125.473 73.2798C170.211 81.3527 227.978 116.78 250.829 136.252C252.055 132.174 254.039 124.179 254.638 113.607C255.449 99.2605 253.802 77.0787 241.339 52.8762C215.028 1.78065 158.254 2.68923 135.062 5.45394C127.436 6.36252 120.292 8.39207 113.83 11.4873C92.7037 21.6061 78.9242 39.2839 78.7872 39.4611C78.3423 40.0379 77.6398 40.3596 76.9122 40.3119C76.6106 40.293 46.8372 38.6556 40.8856 54.2586C35.3373 68.8034 41.9638 82.1645 50.4678 90.3405C53.2048 88.0471 59.492 83.3081 69.0743 79.1397C77.768 75.3571 90.5045 71.5506 106.53 71.5506V71.5518Z" fill="#000072"/>
<path d="M221.178 119.827C220.501 119.827 219.832 119.514 219.402 118.925C191.279 80.39 154.085 61.0734 127.836 51.6546C99.3184 41.4201 77.1718 40.3205 76.9506 40.3105C75.7392 40.2565 74.8017 39.2297 74.8557 38.0183C74.9098 36.8068 75.9378 35.8681 77.1467 35.9221C78.0691 35.9624 100.056 37.0419 129.171 47.4661C156.045 57.0872 194.132 76.8461 222.951 116.335C223.666 117.315 223.451 118.689 222.472 119.404C222.081 119.689 221.629 119.826 221.179 119.826L221.178 119.827Z" fill="#000072"/>
<path d="M194.824 90.7272C194.356 90.7272 193.884 90.5789 193.485 90.2711C192.524 89.5309 192.346 88.1523 193.085 87.1909C193.242 86.9886 208.68 66.6919 206.913 48.7803C203.369 18.1524 172.149 5.79291 171.834 5.67101C170.703 5.2362 170.138 3.96568 170.572 2.83341C171.007 1.70114 172.276 1.13689 173.407 1.56919C173.756 1.70239 182.03 4.917 190.858 12.2485C202.619 22.0167 209.682 34.4881 211.28 48.3116C213.222 68.0064 197.245 88.988 196.564 89.8714C196.132 90.4332 195.481 90.7272 194.824 90.7272Z" fill="#000072"/>
<path d="M230.292 35.0895C229.967 35.0895 229.635 35.0167 229.323 34.8621C228.235 34.3255 227.789 33.0085 228.325 31.9214C229.877 28.7734 230.022 25.6732 228.753 22.7074C226.572 17.6078 221.016 14.26 217.814 13.2534C212.864 11.6976 207.762 15.91 207.712 15.9527C206.791 16.7419 205.405 16.6351 204.615 15.714C203.826 14.7928 203.933 13.4067 204.854 12.6175C205.134 12.3775 211.802 6.75883 219.131 9.06359C223.897 10.5616 230.204 14.9285 232.792 20.9807C234.562 25.1203 234.38 29.5752 232.265 33.8643C231.883 34.6397 231.104 35.0895 230.293 35.0895H230.292Z" fill="#000072"/>
<path d="M132.002 134.126L147.007 135.08C149.278 135.224 150.758 137.556 149.888 139.658C148.199 143.736 144.769 149.201 138.577 148.929C132.318 148.652 129.66 142.611 128.555 138.263C127.999 136.074 129.748 133.983 132.002 134.126Z" fill="#08CFFC"/>
<path d="M149.019 125.106C152.067 98.3477 134.345 74.3546 109.434 71.5164C84.5237 68.6782 61.8581 88.0696 58.8094 114.828C55.7606 141.587 73.4831 165.58 98.3937 168.418C123.304 171.257 145.97 151.865 149.019 125.106Z" fill="url(#paint4_radial_561_274)" fill-opacity="0.1"/>
<path d="M226.502 129.491C229.551 102.732 211.828 78.7394 186.918 75.9012C162.007 73.063 139.342 92.4544 136.293 119.213C133.244 145.972 150.967 169.965 175.877 172.803C200.788 175.641 223.453 156.25 226.502 129.491Z" fill="url(#paint5_radial_561_274)" fill-opacity="0.1"/>
<g opacity="0.2">
<path d="M144.373 386.453C196.901 386.453 239.484 382.664 239.484 377.989C239.484 373.315 196.901 369.525 144.373 369.525C91.8443 369.525 49.2617 373.315 49.2617 377.989C49.2617 382.664 91.8443 386.453 144.373 386.453Z" fill="#00116B"/>
</g>
<path d="M177.353 159.277H89.5059C80.3007 159.277 72.8096 166.767 72.8096 175.974V284.225C72.8096 293.43 80.2994 300.92 89.5059 300.92H177.353C186.558 300.92 194.05 293.43 194.05 284.225V175.974C194.05 166.767 186.56 159.277 177.353 159.277Z" fill="url(#paint6_linear_561_274)"/>
<g opacity="0.25">
<path d="M176.384 265.616C171.85 275.251 160.386 275.251 160.386 275.251H106.472C106.472 275.251 95.0078 275.251 90.4736 265.616C85.9395 255.981 84.2392 219.331 79.5166 206.674V283.753C79.5166 283.753 82.3504 294.143 89.3401 294.143H177.519C184.509 294.143 187.343 283.753 187.343 283.753V206.674C182.62 219.331 180.92 255.982 176.386 265.616H176.384Z" fill="#000072"/>
</g>
<g opacity="0.4">
<path d="M177.354 158.83H89.5069C80.3016 158.83 72.8105 166.32 72.8105 175.526V217.545L74.3223 215.27C74.3223 215.27 78.9507 173.425 78.9507 172.764C78.9507 172.103 84.0516 164.168 92.1748 164.168H174.685C182.808 164.168 187.909 172.102 187.909 172.764C187.909 173.426 192.537 215.27 192.537 215.27L194.049 217.545V175.526C194.049 166.32 186.559 158.83 177.353 158.83H177.354Z" fill="white"/>
</g>
<path d="M131.384 179.145H144.358C144.358 179.145 146.436 175.445 144.749 174.081C143.063 172.718 139.642 172.441 139.01 172.133C138.378 171.826 136.882 167.314 134.123 167.092C131.363 166.869 130.346 167.457 129.997 167.876C129.647 168.294 128.715 171.099 128.715 171.099C128.715 171.099 124.363 172.358 123.793 172.718C123.222 173.077 121.969 176.095 122.106 176.348C122.243 176.601 122.64 177.65 123.036 178.017C123.432 178.384 125.611 179.145 125.611 179.145H131.382H131.384Z" fill="#535580"/>
<path d="M177.355 303.396H89.5072C78.6872 303.396 69.8828 294.593 69.8828 283.772V175.521C69.8828 164.7 78.6859 155.896 89.5072 155.896H177.355C188.175 155.896 196.978 164.7 196.978 175.521V283.772C196.978 294.592 188.175 303.396 177.355 303.396ZM89.5072 160.29C81.1088 160.29 74.2749 167.122 74.2749 175.522V283.773C74.2749 292.171 81.1088 299.005 89.5072 299.005H177.355C185.753 299.005 192.586 292.171 192.586 283.773V175.522C192.586 167.124 185.753 160.29 177.355 160.29H89.5072Z" fill="#000072"/>
<path d="M141.245 181.332H125.615C122.47 181.332 119.913 178.774 119.913 175.63C119.913 172.486 122.47 169.928 125.615 169.928H126.619C127.173 166.67 130.017 164.182 133.43 164.182C136.843 164.182 139.687 166.67 140.241 169.928H141.245C144.39 169.928 146.947 172.486 146.947 175.63C146.947 178.774 144.39 181.332 141.245 181.332ZM125.615 174.321C124.892 174.321 124.305 174.909 124.305 175.63C124.305 176.351 124.892 176.94 125.615 176.94H141.245C141.968 176.94 142.555 176.353 142.555 175.63C142.555 174.907 141.968 174.321 141.245 174.321H138.024C137.357 174.321 136.726 174.018 136.31 173.496C135.893 172.976 135.736 172.294 135.882 171.643C135.926 171.449 135.946 171.268 135.946 171.09C135.946 169.702 134.817 168.574 133.43 168.574C132.043 168.574 130.914 169.702 130.914 171.09C130.914 171.269 130.935 171.45 130.978 171.643C131.124 172.294 130.967 172.976 130.55 173.496C130.132 174.016 129.502 174.321 128.836 174.321H125.615Z" fill="#000072"/>
<path d="M16.1672 200.155C13.7041 195.862 12.8773 191.433 12.6071 189.01C6.77856 196.301 4.17974 203.968 3.3252 211.013C5.71038 208.061 10.472 202.84 16.1672 200.155Z" fill="url(#paint7_linear_561_274)"/>
<path d="M65.4808 231.523C63.8886 239.16 62.6897 252.753 69.8315 265.526C75.8171 267.866 80.5648 267.315 83.934 263.874C89.5841 258.105 90.0955 245.089 86.7791 237.307C82.5893 227.477 68.155 230.81 65.4808 231.523Z" fill="#535580"/>
<path d="M64.1102 230.929C64.1115 230.822 64.1316 230.72 64.1768 230.626C64.7047 228.214 65.2538 226.435 65.5579 225.529C55.6138 221.407 47.5509 214.75 42.1773 210.314C39.0758 207.754 36.6265 205.731 35.3284 205.423C31.7933 204.586 25.5413 208.112 25.1354 208.345C24.4204 208.897 8.41144 221.466 7.51291 238.189C7.51291 238.206 7.50412 238.223 7.5016 238.24C7.50035 238.254 7.50537 238.265 7.5016 238.279C6.22481 245.342 10.397 259.145 10.4397 259.283C10.4699 259.347 15.7467 271.619 36.4682 271.619C36.7673 271.619 37.0689 271.616 37.3743 271.611C56.0788 271.295 65.8608 267.046 68.3113 265.816C61.1256 252.62 62.459 238.669 64.109 230.929H64.1102Z" fill="url(#paint8_linear_561_274)"/>
<path d="M23.4423 208.276C20.5972 206.495 18.5035 204.232 16.9427 201.863C9.92792 205.103 4.16477 212.698 3.07648 214.194C2.49337 223.673 4.87354 231.713 6.34889 235.662C8.49279 221.483 20.1448 210.993 23.4423 208.276Z" fill="url(#paint9_linear_561_274)"/>
<g opacity="0.25">
<path d="M88.7323 251.131C89.054 247.023 88.6066 242.76 87.4844 239.225L86.7417 238.145C85.6321 243.283 69.7137 254.734 65.04 251.993C65.7601 256.006 67.0482 260.178 69.1708 264.29C82.5042 265.167 87.3839 256.222 88.7323 251.131Z" fill="#00116B"/>
</g>
<g opacity="0.25">
<path d="M3.07843 213.742C2.49533 223.221 4.87549 231.262 6.35084 235.21C7.30718 228.886 10.1548 223.3 13.3091 218.807C11.2255 214.667 10.1196 210.397 9.57674 206.514C6.17867 209.609 3.74573 212.823 3.07843 213.741V213.742Z" fill="#000072"/>
</g>
<g opacity="0.25">
<path d="M9.53728 193.352C5.82754 199.297 4.01163 205.359 3.32422 211.019C4.66762 209.357 6.76502 206.974 9.35757 204.731C8.84232 199.612 9.25327 195.377 9.53602 193.352H9.53728Z" fill="#000072"/>
</g>
<g opacity="0.25">
<path d="M37.3627 268.21C52.8149 267.717 63.5532 262.467 66.1043 261.098C64.1803 256.261 63.2579 251.434 62.9412 246.953C62.0993 241.302 63.454 234.554 63.4565 234.547C63.4565 234.547 54.72 247.737 37.7862 250.571C22.6683 253.101 9.76713 243.833 7.57924 237.387C7.55662 237.655 7.52771 237.92 7.51389 238.189C7.51389 238.206 7.50509 238.223 7.50258 238.24C7.50132 238.254 7.50635 238.265 7.50258 238.279C6.22579 245.342 10.398 259.145 10.4407 259.283C10.4545 259.312 11.5441 261.828 14.6318 264.58C18.3151 266.235 25.6843 268.583 37.3627 268.211V268.21Z" fill="#000072"/>
</g>
<g opacity="0.4">
<path d="M32.4754 210.401C34.6004 210.897 50.2273 224.02 64.7659 228.192C65.0826 227.002 65.3678 226.094 65.5588 225.529C55.6147 221.407 47.5518 214.75 42.1782 210.314C39.0767 207.754 36.6275 205.731 35.3293 205.423C31.7942 204.586 25.5422 208.112 25.1363 208.345C24.8875 208.537 22.7813 210.19 20.1071 212.966L15.8984 218.309C15.8984 218.309 30.3503 209.906 32.4754 210.402V210.401Z" fill="white"/>
</g>
<g opacity="0.4">
<path d="M16.1689 200.159C13.7058 195.866 12.8789 191.437 12.6087 189.014C11.9615 189.824 11.3596 190.64 10.7891 191.458C10.97 193.582 11.5481 197.636 13.3766 201.716C14.2776 201.142 15.2088 200.613 16.1689 200.16V200.159Z" fill="white"/>
</g>
<g opacity="0.4">
<path d="M85.1254 234.619C79.6614 228.161 67.8724 230.885 65.4809 231.524C65.2346 232.704 64.9984 234.028 64.7998 235.467C67.3886 234.778 78.9237 232.201 85.1254 234.619Z" fill="white"/>
</g>
<g opacity="0.4">
<path d="M65.8679 229.916C65.8605 229.905 65.8531 229.894 65.8458 229.883C65.8421 229.898 65.8396 229.91 65.8359 229.923C65.8458 229.921 65.858 229.918 65.8691 229.916H65.8679Z" fill="white"/>
</g>
<g opacity="0.4">
<path d="M16.9433 201.414C15.9392 201.878 14.964 202.438 14.0215 203.049C15.4604 205.815 17.5201 208.494 20.4796 210.476V210.479C21.7187 209.287 22.7605 208.389 23.4428 207.827C20.5977 206.046 18.5041 203.783 16.9433 201.414Z" fill="white"/>
</g>
<path d="M6.78272 240.343C5.96461 240.343 5.19678 239.884 4.81977 239.129C4.67148 238.832 1.17664 231.748 0.227841 221.632C-0.651838 212.243 0.596055 198.39 11.543 185.703C12.1425 185.008 13.1089 184.76 13.9709 185.079C14.8305 185.398 15.3998 186.217 15.4023 187.132C15.4023 187.262 15.5782 200.114 25.8001 205.81C26.4486 206.172 26.8708 206.836 26.9224 207.576C26.9739 208.316 26.6471 209.032 26.0552 209.481C25.8944 209.603 9.85405 221.947 8.97688 238.263C8.9241 239.258 8.20653 240.093 7.23135 240.295C7.0818 240.326 6.93101 240.342 6.78397 240.342L6.78272 240.343ZM11.7077 192.669C6.02241 200.965 3.62844 210.494 4.58603 221.065C4.88261 224.344 5.48078 227.297 6.13175 229.754C9.44939 219.331 17.1315 211.453 21.0448 207.953C15.1372 203.523 12.7067 197.189 11.7064 192.669H11.7077Z" fill="#000072"/>
<path d="M2.28821 215.773C1.85717 215.773 1.42235 215.646 1.04158 215.383C0.0437709 214.693 -0.20631 213.326 0.48361 212.328C0.768878 211.916 7.55246 202.206 16.3317 198.469C17.4501 197.993 18.7382 198.515 19.212 199.629C19.687 200.745 19.1667 202.036 18.0521 202.51C10.4303 205.753 4.15941 214.735 4.09658 214.824C3.67056 215.441 2.98441 215.771 2.28821 215.771V215.773Z" fill="#000072"/>
<path d="M36.4447 274.542C13.7264 274.542 7.9431 260.905 7.70433 260.315C7.67919 260.255 7.65783 260.195 7.63898 260.132C7.45801 259.539 3.21922 245.505 4.62042 237.753C4.83657 236.56 5.97387 235.766 7.17275 235.982C8.3666 236.198 9.15957 237.341 8.94342 238.534C7.78978 244.916 11.4178 257.425 11.8074 258.739C12.2862 259.799 17.455 270.15 36.446 270.15C36.7438 270.15 37.0442 270.148 37.3495 270.143C53.2881 269.872 62.5963 266.717 66.3036 265.126C58.1012 248.776 61.9906 232.056 63.7462 226.34C54.1803 222.115 46.4605 215.743 41.244 211.437C38.7658 209.391 35.9559 207.071 34.9895 206.841C32.7337 206.3 28.177 208.263 25.8345 209.624C24.7864 210.234 23.4418 209.879 22.8323 208.831C22.2228 207.785 22.5759 206.441 23.6228 205.829C24.3969 205.378 31.3187 201.455 36.0061 202.567C37.9653 203.034 40.3819 205.029 44.0401 208.048C49.7115 212.73 57.4766 219.14 67.2963 223.068C68.416 223.516 68.9652 224.781 68.5266 225.905C68.4487 226.107 60.7478 246.552 71.2235 265.019C71.8091 266.052 71.4685 267.363 70.4544 267.979C70.0397 268.231 60.0515 274.149 37.4237 274.532C37.0944 274.537 36.7664 274.54 36.4435 274.54L36.4447 274.542Z" fill="#000072"/>
<path d="M76.4752 269.869C74.1968 269.869 71.5527 269.375 68.4952 268.146C67.3705 267.693 66.8238 266.415 67.2762 265.289C67.7274 264.165 69.0054 263.618 70.1327 264.07C75.6332 266.281 79.9248 265.869 82.8855 262.844C88.0593 257.561 88.5016 245.083 85.4291 237.875C81.3536 228.316 65.6325 232.99 65.4742 233.038C64.3142 233.391 63.0865 232.74 62.7321 231.581C62.3764 230.423 63.0261 229.196 64.1848 228.839C64.9853 228.593 83.8469 222.959 89.4693 236.153C93.1564 244.802 92.6475 259.153 86.0235 265.918C84.0492 267.933 80.9791 269.869 76.4727 269.869H76.4752Z" fill="#000072"/>
<path d="M260.721 200.155C263.184 195.862 264.011 191.433 264.281 189.01C270.109 196.301 272.708 203.968 273.563 211.013C271.178 208.061 266.416 202.84 260.721 200.155Z" fill="url(#paint10_linear_561_274)"/>
<path d="M211.408 231.523C213 239.16 214.199 252.753 207.057 265.526C201.072 267.866 196.324 267.315 192.955 263.874C187.305 258.105 186.793 245.089 190.11 237.307C194.299 227.477 208.734 230.81 211.408 231.523Z" fill="#535580"/>
<path d="M212.779 230.929C212.778 230.822 212.758 230.72 212.713 230.626C212.185 228.214 211.636 226.435 211.332 225.529C221.276 221.407 229.339 214.75 234.712 210.314C237.814 207.754 240.263 205.731 241.561 205.423C245.096 204.586 251.348 208.112 251.754 208.345C252.469 208.897 268.478 221.466 269.377 238.189C269.377 238.206 269.385 238.223 269.388 238.24C269.389 238.254 269.384 238.265 269.388 238.279C270.665 245.342 266.492 259.145 266.45 259.283C266.42 259.347 261.143 271.619 240.421 271.619C240.122 271.619 239.821 271.616 239.515 271.611C220.811 271.295 211.029 267.046 208.578 265.816C215.764 252.62 214.431 238.669 212.78 230.929H212.779Z" fill="url(#paint11_linear_561_274)"/>
<path d="M253.447 207.825C256.292 206.044 258.386 203.781 259.947 201.412C266.962 204.652 272.725 212.247 273.813 213.743C274.396 223.222 272.016 231.262 270.541 235.211C268.397 221.031 256.745 210.542 253.447 207.825Z" fill="url(#paint12_linear_561_274)"/>
<g opacity="0.25">
<path d="M188.155 251.131C187.833 247.023 188.28 242.76 189.402 239.225L190.144 238.145C191.254 243.283 207.172 254.734 211.846 251.993C211.125 256.006 209.837 260.178 207.715 264.29C194.381 265.167 189.502 256.222 188.153 251.131H188.155Z" fill="#00116B"/>
</g>
<g opacity="0.25">
<path d="M273.813 213.742C274.396 223.221 272.016 231.262 270.54 235.21C269.584 228.886 266.736 223.3 263.582 218.807C265.666 214.667 266.771 210.397 267.314 206.514C270.712 209.609 273.145 212.823 273.813 213.741V213.742Z" fill="#000072"/>
</g>
<g opacity="0.25">
<path d="M267.353 193.352C271.062 199.297 272.878 205.359 273.566 211.019C272.222 209.357 270.125 206.974 267.532 204.731C268.047 199.612 267.637 195.377 267.354 193.352H267.353Z" fill="#000072"/>
</g>
<g opacity="0.25">
<path d="M239.526 268.21C224.074 267.717 213.335 262.467 210.784 261.098C212.708 256.261 213.631 251.434 213.947 246.953C214.789 241.302 213.435 234.554 213.432 234.547C213.432 234.547 222.168 247.737 239.102 250.571C254.22 253.101 267.121 243.833 269.309 237.387C269.332 237.655 269.361 237.92 269.375 238.189C269.375 238.206 269.383 238.223 269.386 238.24C269.387 238.254 269.382 238.265 269.386 238.279C270.663 245.342 266.491 259.145 266.448 259.283C266.434 259.312 265.344 261.828 262.257 264.58C258.573 266.235 251.204 268.583 239.526 268.211V268.21Z" fill="#000072"/>
</g>
<g opacity="0.4">
<path d="M244.413 210.401C242.288 210.897 226.661 224.02 212.122 228.192C211.805 227.002 211.52 226.094 211.329 225.529C221.273 221.407 229.336 214.75 234.71 210.314C237.811 207.754 240.261 205.731 241.559 205.423C245.094 204.586 251.346 208.112 251.752 208.345C252 208.537 254.107 210.19 256.781 212.966L260.99 218.309C260.99 218.309 246.538 209.906 244.411 210.402L244.413 210.401Z" fill="white"/>
</g>
<g opacity="0.4">
<path d="M260.722 200.159C263.185 195.866 264.012 191.437 264.282 189.014C264.929 189.824 265.531 190.64 266.102 191.458C265.921 193.582 265.343 197.636 263.514 201.716C262.613 201.142 261.682 200.613 260.722 200.16V200.159Z" fill="white"/>
</g>
<g opacity="0.4">
<path d="M191.764 234.619C197.228 228.161 209.017 230.885 211.408 231.524C211.654 232.704 211.891 234.028 212.089 235.467C209.501 234.778 197.965 232.201 191.764 234.619Z" fill="white"/>
</g>
<g opacity="0.4">
<path d="M211.02 229.916C211.027 229.905 211.035 229.894 211.042 229.883C211.046 229.898 211.048 229.91 211.052 229.923C211.042 229.921 211.03 229.918 211.019 229.916H211.02Z" fill="white"/>
</g>
<g opacity="0.4">
<path d="M259.946 201.414C260.95 201.878 261.925 202.438 262.868 203.049C261.429 205.815 259.369 208.494 256.41 210.476V210.479C255.17 209.287 254.129 208.389 253.446 207.827C256.291 206.046 258.385 203.783 259.946 201.414Z" fill="white"/>
</g>
<path d="M270.105 240.346C269.956 240.346 269.807 240.331 269.657 240.299C268.681 240.097 267.965 239.263 267.91 238.267C267.033 221.952 250.993 209.607 250.831 209.484C250.24 209.037 249.915 208.319 249.966 207.579C250.019 206.84 250.439 206.175 251.087 205.815C261.309 200.117 261.484 187.266 261.484 187.136C261.488 186.22 262.061 185.401 262.919 185.084C263.778 184.766 264.744 185.013 265.343 185.708C276.29 198.394 277.539 212.248 276.658 221.636C275.709 231.753 272.216 238.837 272.068 239.133C271.691 239.887 270.923 240.347 270.105 240.347V240.346ZM255.841 207.956C259.755 211.455 267.437 219.334 270.754 229.756C271.407 227.3 272.004 224.347 272.3 221.068C273.258 210.497 270.862 200.968 265.178 192.672C264.179 197.191 261.748 203.525 255.841 207.956Z" fill="#000072"/>
<path d="M274.599 215.777C273.903 215.777 273.217 215.447 272.791 214.831C272.691 214.689 266.408 205.739 258.835 202.516C257.719 202.041 257.2 200.751 257.675 199.635C258.15 198.521 259.437 197.999 260.555 198.475C269.333 202.211 276.118 211.922 276.404 212.334C277.093 213.331 276.843 214.699 275.846 215.389C275.465 215.652 275.03 215.779 274.599 215.779V215.777Z" fill="#000072"/>
<path d="M240.442 274.545C240.119 274.545 239.792 274.542 239.462 274.537C216.835 274.153 206.844 268.235 206.431 267.983C205.417 267.368 205.075 266.056 205.662 265.024C216.139 246.556 208.437 226.111 208.359 225.907C207.925 224.785 208.473 223.521 209.59 223.073C219.41 219.146 227.176 212.735 232.846 208.053C236.505 205.035 238.92 203.039 240.88 202.573C245.567 201.46 252.491 205.384 253.264 205.835C254.312 206.446 254.666 207.792 254.054 208.839C253.443 209.887 252.098 210.239 251.051 209.629C248.708 208.268 244.155 206.305 241.897 206.846C240.931 207.076 238.121 209.394 235.643 211.441C230.426 215.748 222.706 222.12 213.139 226.344C214.895 232.06 218.785 248.781 210.582 265.131C214.283 266.718 223.593 269.876 239.536 270.146C259.227 270.504 264.561 259.882 265.079 258.741C265.475 257.407 269.094 244.916 267.942 238.538C267.726 237.344 268.519 236.202 269.713 235.987C270.906 235.77 272.047 236.564 272.264 237.758C273.665 245.509 269.426 259.542 269.245 260.137C269.226 260.198 269.205 260.26 269.18 260.32C268.942 260.91 263.154 274.547 240.439 274.547L240.442 274.545Z" fill="#000072"/>
<path d="M200.411 269.868C195.906 269.868 192.836 267.934 190.861 265.917C184.237 259.153 183.728 244.802 187.416 236.152C193.039 222.959 211.9 228.593 212.7 228.838C213.859 229.195 214.51 230.424 214.153 231.584C213.796 232.743 212.568 233.391 211.41 233.038C211.21 232.978 195.525 228.329 191.456 237.875C188.383 245.083 188.826 257.561 193.999 262.844C196.96 265.868 201.252 266.281 206.752 264.071C207.878 263.618 209.158 264.165 209.609 265.29C210.061 266.416 209.516 267.695 208.39 268.146C205.333 269.374 202.688 269.869 200.41 269.869L200.411 269.868Z" fill="#000072"/>
<defs>
<linearGradient id="paint0_linear_561_274" x1="138.612" y1="216.209" x2="138.612" y2="327.56" gradientUnits="userSpaceOnUse">
<stop stop-color="white"/>
<stop offset="1" stop-color="#B5B8DC"/>
</linearGradient>
<linearGradient id="paint1_linear_561_274" x1="138.718" y1="41.0963" x2="138.718" y2="267.92" gradientUnits="userSpaceOnUse">
<stop stop-color="white"/>
<stop offset="1" stop-color="#B5B8DC"/>
</linearGradient>
<linearGradient id="paint2_linear_561_274" x1="219.37" y1="11.3984" x2="219.37" y2="31.6031" gradientUnits="userSpaceOnUse">
<stop stop-color="#CF69FF"/>
<stop offset="1" stop-color="#6356EF"/>
</linearGradient>
<linearGradient id="paint3_linear_561_274" x1="143.571" y1="3.74414" x2="143.571" y2="88.3836" gradientUnits="userSpaceOnUse">
<stop stop-color="#CF69FF"/>
<stop offset="1" stop-color="#6356EF"/>
</linearGradient>
<radialGradient id="paint4_radial_561_274" cx="0" cy="0" r="1" gradientUnits="userSpaceOnUse" gradientTransform="translate(98.0853 120.074) rotate(0.649998) scale(57.5307 51.8295)">
<stop stop-color="#08CFFC"/>
<stop offset="0.71" stop-color="#08CFFC"/>
</radialGradient>
<radialGradient id="paint5_radial_561_274" cx="0" cy="0" r="1" gradientUnits="userSpaceOnUse" gradientTransform="translate(175.431 124.46) rotate(0.649999) scale(57.5307 51.8295)">
<stop stop-color="#08CFFC"/>
<stop offset="0.71" stop-color="#08CFFC"/>
</radialGradient>
<linearGradient id="paint6_linear_561_274" x1="133.43" y1="159.277" x2="133.43" y2="300.92" gradientUnits="userSpaceOnUse">
<stop stop-color="#CF69FF"/>
<stop offset="1" stop-color="#6356EF"/>
</linearGradient>
<linearGradient id="paint7_linear_561_274" x1="3.32394" y1="200.011" x2="16.1673" y2="200.011" gradientUnits="userSpaceOnUse">
<stop stop-color="white"/>
<stop offset="1" stop-color="#B5B8DC"/>
</linearGradient>
<linearGradient id="paint8_linear_561_274" x1="7.26032" y1="238.458" x2="68.3139" y2="238.458" gradientUnits="userSpaceOnUse">
<stop stop-color="white"/>
<stop offset="1" stop-color="#B5B8DC"/>
</linearGradient>
<linearGradient id="paint9_linear_561_274" x1="13.2143" y1="201.863" x2="13.2143" y2="235.662" gradientUnits="userSpaceOnUse">
<stop stop-color="#CF69FF"/>
<stop offset="1" stop-color="#6356EF"/>
</linearGradient>
<linearGradient id="paint10_linear_561_274" x1="273.564" y1="200.011" x2="260.722" y2="200.011" gradientUnits="userSpaceOnUse">
<stop stop-color="white"/>
<stop offset="1" stop-color="#B5B8DC"/>
</linearGradient>
<linearGradient id="paint11_linear_561_274" x1="269.629" y1="238.458" x2="208.577" y2="238.458" gradientUnits="userSpaceOnUse">
<stop stop-color="white"/>
<stop offset="1" stop-color="#B5B8DC"/>
</linearGradient>
<linearGradient id="paint12_linear_561_274" x1="263.675" y1="201.412" x2="263.675" y2="235.211" gradientUnits="userSpaceOnUse">
<stop stop-color="#CF69FF"/>
<stop offset="1" stop-color="#6356EF"/>
</linearGradient>
</defs>
</svg>
