<svg width="155" height="155" viewBox="0 0 155 155" fill="none" xmlns="http://www.w3.org/2000/svg">
<path d="M45.2083 135.625H109.792M40.0417 109.792H114.958C122.192 109.792 125.81 109.792 128.573 108.384C131.003 107.146 132.979 105.169 134.217 102.739C135.625 99.9763 135.625 96.359 135.625 89.125V40.0417C135.625 32.8077 135.625 29.1906 134.217 26.4276C132.979 23.9972 131.003 22.0212 128.573 20.7829C125.81 19.375 122.192 19.375 114.958 19.375H40.0417C32.8077 19.375 29.1906 19.375 26.4276 20.7829C23.9972 22.0212 22.0212 23.9972 20.7829 26.4276C19.375 29.1906 19.375 32.8076 19.375 40.0417V89.125C19.375 96.359 19.375 99.9763 20.7829 102.739C22.0212 105.169 23.9972 107.146 26.4276 108.384C29.1906 109.792 32.8076 109.792 40.0417 109.792Z" stroke="white" stroke-width="5" stroke-linecap="round" stroke-linejoin="round"/>
</svg>
