<svg width="202" height="100" viewBox="0 0 202 100" xmlns="http://www.w3.org/2000/svg">
<mask id="mask0_588_2143" style="mask-type:luminance" maskUnits="userSpaceOnUse" x="166" y="38" width="32" height="35">
<path d="M166.201 38.1016H197.22V72.7669H166.201V38.1016Z" fill="white"/>
</mask>
<g mask="url(#mask0_588_2143)">
<path d="M181.729 38.1055C181.257 38.1055 180.799 38.2016 180.393 38.429L167.557 45.7691C166.727 46.2431 166.222 47.1382 166.222 48.0903V62.7447C166.222 63.6962 166.727 64.5903 167.557 65.0653L170.91 66.9781C172.539 67.7735 173.139 67.7606 173.88 67.7606C176.291 67.7606 177.668 66.3119 177.668 63.7933V49.3348C177.668 49.1307 177.489 48.9844 177.287 48.9844H175.679C175.473 48.9844 175.297 49.1343 175.297 49.3348V63.8001C175.297 64.9159 174.123 66.039 172.218 65.0953L168.733 63.0713C168.61 63.0052 168.515 62.8837 168.515 62.7478V48.0934C168.515 47.9543 168.609 47.8127 168.733 47.7424L181.542 40.4287C181.662 40.3604 181.805 40.3604 181.924 40.4287L194.732 47.7424C194.854 47.8148 194.95 47.9502 194.95 48.0934V62.7478C194.95 62.8878 194.88 63.031 194.76 63.0987L181.924 70.4125C181.81 70.4776 181.659 70.4776 181.542 70.4125L178.245 68.4697C178.146 68.4128 178.012 68.417 177.918 68.4697C177.008 68.9803 176.837 69.0398 175.983 69.3333C175.773 69.4057 175.453 69.5184 176.092 69.8734L180.398 72.3863C180.808 72.6209 181.265 72.7367 181.733 72.7367C182.209 72.7367 182.659 72.6245 183.069 72.3863L195.905 65.072C196.736 64.5934 197.24 63.7029 197.24 62.7514V48.097C197.24 47.145 196.736 46.2519 195.905 45.7759L183.069 38.4357C182.667 38.2083 182.206 38.1122 181.733 38.1122L181.729 38.1055ZM185.163 48.5766C181.507 48.5766 179.331 50.1173 179.331 52.6787C179.331 55.4542 181.491 56.2212 184.999 56.5643C189.196 56.9716 189.523 57.582 189.523 58.3996C189.523 59.8189 188.381 60.4236 185.681 60.4236C182.289 60.4236 181.543 59.5852 181.293 57.9107C181.264 57.7314 181.124 57.5872 180.939 57.5872H179.272C179.222 57.5882 179.174 57.5985 179.128 57.6182C179.082 57.6373 179.041 57.6647 179.005 57.6998C178.97 57.7355 178.942 57.7758 178.923 57.8213C178.903 57.8673 178.892 57.9148 178.891 57.965C178.891 60.1036 180.066 62.6336 185.677 62.6336C189.738 62.6336 192.081 61.0582 192.081 58.2885C192.081 55.5503 190.189 54.8102 186.249 54.2939C182.272 53.7688 181.889 53.5176 181.889 52.5935C181.889 51.8311 182.211 50.8119 185.159 50.8119C187.793 50.8119 188.766 51.3748 189.166 53.133C189.201 53.2979 189.347 53.4328 189.52 53.4328H191.186C191.288 53.4328 191.387 53.3708 191.459 53.2979C191.528 53.2204 191.578 53.133 191.568 53.0281C191.311 49.9995 189.271 48.5751 185.164 48.5751L185.163 48.5766Z" fill="#83CD29"/>
</g>
<mask id="mask1_588_2143" style="mask-type:luminance" maskUnits="userSpaceOnUse" x="3" y="18" width="154" height="56">
<path d="M3.62134 18.7871H156.173V73.0344H3.62134V18.7871Z" fill="white"/>
</mask>
<g mask="url(#mask1_588_2143)">
<path fill='red'  d="M106.266 18.8967C106.12 18.8972 105.984 18.9328 105.857 19.0047C105.795 19.0409 105.739 19.0838 105.688 19.1339C105.638 19.1845 105.595 19.2404 105.559 19.3019C105.523 19.3634 105.496 19.4285 105.477 19.4972C105.459 19.5654 105.449 19.6357 105.449 19.7065V40.3516C105.449 40.5542 105.353 40.7356 105.176 40.8375C105.087 40.8886 104.992 40.9139 104.889 40.9139C104.787 40.9139 104.692 40.8886 104.603 40.8375L101.197 38.8947C101.073 38.8233 100.941 38.7696 100.802 38.7324C100.664 38.6957 100.523 38.6771 100.379 38.6771C100.236 38.6771 100.095 38.6957 99.9559 38.7324C99.8175 38.7696 99.6859 38.8233 99.5617 38.8947L85.9643 46.6669C85.4557 46.9568 85.146 47.516 85.146 48.097V63.6414C85.1455 63.7835 85.1643 63.9236 85.2014 64.061C85.2384 64.198 85.2927 64.3288 85.3643 64.4518C85.4363 64.5748 85.523 64.6869 85.6243 64.7872C85.7261 64.888 85.8389 64.9738 85.9637 65.0446L99.5627 72.8168C99.6865 72.8886 99.8181 72.9424 99.957 72.9796C100.095 73.0163 100.236 73.0349 100.38 73.0349C100.524 73.0349 100.665 73.0163 100.803 72.9796C100.942 72.9424 101.073 72.8886 101.198 72.8168L114.797 65.0446C114.921 64.9738 115.034 64.888 115.136 64.7872C115.237 64.6869 115.324 64.5748 115.396 64.4518C115.468 64.3288 115.522 64.198 115.559 64.061C115.596 63.9236 115.614 63.7835 115.614 63.6414V24.8878C115.614 24.2981 115.289 23.7451 114.769 23.4577L106.675 18.9757C106.548 18.906 106.407 18.8936 106.266 18.8946L106.266 18.8967ZM18.7861 38.3003C18.5265 38.3112 18.2832 38.3556 18.0503 38.4895L4.45186 46.2617C4.32706 46.3325 4.21427 46.4183 4.11244 46.5185C4.01062 46.6193 3.92394 46.731 3.8524 46.854C3.78034 46.9775 3.72603 47.1077 3.68948 47.2452C3.65241 47.3827 3.63413 47.5228 3.63465 47.6649L3.66233 68.5265C3.66233 68.817 3.81376 69.0863 4.07119 69.2279C4.32392 69.3778 4.63723 69.3778 4.88839 69.2279L12.9549 64.6399C13.4667 64.3396 13.7998 63.8161 13.7998 63.2372V53.4938C13.7998 52.9123 14.1084 52.3795 14.6181 52.0906L18.0519 50.1209C18.3046 49.9751 18.5767 49.9033 18.8691 49.9049C19.1615 49.9028 19.4341 49.9751 19.6868 50.1209L23.1191 52.0895C23.6282 52.3784 23.9368 52.9118 23.9368 53.4922V63.2346C23.9368 63.8145 24.2778 64.3412 24.7811 64.6378L32.8477 69.2258C33.1015 69.3757 33.4142 69.3757 33.6654 69.2258C33.915 69.0832 34.0743 68.8139 34.0743 68.5245L34.1014 47.6633C34.1025 47.5207 34.0842 47.3811 34.0476 47.2431C34.0106 47.1057 33.9568 46.9754 33.8847 46.8519C33.8127 46.7289 33.726 46.6167 33.6242 46.5165C33.5223 46.4162 33.409 46.3304 33.2842 46.2601L19.6858 38.4905C19.456 38.3571 19.2111 38.3122 18.95 38.3013H18.7871L18.7861 38.3003ZM140.984 38.4895C140.691 38.4889 140.419 38.5608 140.166 38.7055L126.567 46.4782C126.059 46.7687 125.749 47.3 125.749 47.8809V63.4253C125.749 64.0099 126.081 64.5391 126.594 64.828L140.083 72.4421C140.581 72.7238 141.189 72.745 141.691 72.4684L149.867 67.9616C150.126 67.819 150.301 67.5528 150.302 67.2603C150.303 66.9677 150.149 66.7042 149.893 66.5589L136.212 58.7862C135.956 58.6415 135.777 58.3484 135.777 58.0575V53.1966C135.777 52.9061 135.958 52.64 136.212 52.4952L140.464 50.0661C140.716 49.9214 141.027 49.9214 141.282 50.0661L145.543 52.4952C145.605 52.5304 145.661 52.5733 145.712 52.6234C145.763 52.6736 145.806 52.7299 145.842 52.7914C145.879 52.8529 145.906 52.918 145.924 52.9868C145.942 53.0555 145.952 53.1253 145.952 53.1966V57.0284C145.951 57.0998 145.96 57.1695 145.979 57.2383C145.998 57.307 146.025 57.3721 146.06 57.4336C146.096 57.4957 146.14 57.5515 146.19 57.6016C146.241 57.6517 146.298 57.6946 146.36 57.7303C146.615 57.8755 146.924 57.8766 147.178 57.7303L155.326 53.0343C155.831 52.7428 156.143 52.21 156.143 51.6311V47.8804C156.143 47.7383 156.125 47.5987 156.088 47.4612C156.051 47.3238 155.996 47.1935 155.925 47.0705C155.853 46.947 155.766 46.8354 155.665 46.7346C155.563 46.6343 155.45 46.5485 155.326 46.4772L141.809 38.705C141.556 38.5597 141.283 38.4879 140.991 38.4889L140.984 38.4895ZM100.323 50.0945C100.4 50.094 100.473 50.1121 100.541 50.1483L105.201 52.8198C105.328 52.8922 105.419 53.026 105.419 53.1708V58.5138C105.419 58.6591 105.329 58.7929 105.201 58.8648L100.541 61.5363C100.414 61.6076 100.259 61.6076 100.132 61.5363L95.472 58.8648C95.3451 58.7924 95.2537 58.6585 95.2537 58.5138V53.1723C95.2537 53.0271 95.3456 52.8948 95.472 52.8214L100.132 50.1498C100.196 50.1137 100.252 50.0966 100.323 50.0966V50.0945Z"/>
</g>
<path d="M59.6384 38.4063C59.3459 38.4057 59.0734 38.4776 58.8201 38.6223L45.2211 46.3676C44.7131 46.6581 44.4039 47.2173 44.4039 47.7977V63.3421C44.4034 63.4843 44.4217 63.6243 44.4588 63.7618C44.4958 63.8993 44.5502 64.0295 44.6217 64.1525C44.6937 64.2761 44.7804 64.3877 44.8817 64.488C44.9836 64.5887 45.0969 64.674 45.2211 64.7448L58.8201 72.5175C58.9444 72.5889 59.0755 72.6431 59.2144 72.6798C59.3527 72.717 59.4942 72.7357 59.6378 72.7357C59.7809 72.7357 59.9224 72.717 60.0608 72.6798C60.1997 72.6431 60.3308 72.5889 60.455 72.5175L74.054 64.7448C74.1783 64.674 74.2916 64.5882 74.3929 64.488C74.4947 64.3872 74.5814 64.2755 74.653 64.152C74.725 64.029 74.7793 63.8988 74.8164 63.7613C74.8535 63.6238 74.8717 63.4843 74.8717 63.3421V47.7982C74.8717 47.2173 74.5626 46.6581 74.0535 46.3681L60.4545 38.6228C60.2018 38.4776 59.9292 38.4057 59.6368 38.4068L59.6384 38.4063ZM140.959 52.2777C140.905 52.2777 140.845 52.2777 140.796 52.304L138.179 53.8158C138.13 53.8426 138.09 53.8804 138.061 53.929C138.032 53.977 138.017 54.0292 138.016 54.085V57.0538C138.016 57.1659 138.081 57.2677 138.179 57.3241L140.796 58.8084C140.841 58.8363 140.891 58.8503 140.945 58.8503C140.999 58.8503 141.049 58.8363 141.095 58.8084L143.711 57.3241C143.808 57.2688 143.874 57.1659 143.874 57.0538V54.085C143.874 53.9734 143.808 53.8716 143.711 53.8153L141.095 52.3035C141.046 52.2751 141.013 52.2771 140.959 52.2771L140.959 52.2777Z" fill="#83CD29"/>
</svg>
