<svg width="992" height="992" viewBox="0 0 992 992" fill="none" xmlns="http://www.w3.org/2000/svg">
<path d="M219.963 543.849C227.994 578.263 243.578 595.943 265.684 601.737C300.073 610.75 303.337 561.032 273.368 561.318C243.399 561.603 202.531 623.565 252.001 675.881C301.471 728.197 349.628 713.626 388.965 666.228" stroke="#6187AC" stroke-width="2.3353" stroke-miterlimit="10" stroke-linecap="round" stroke-dasharray="11.68 11.68"/>
<path d="M476.138 187.049C443.309 195.869 411.811 210.718 392.733 256.811C373.655 302.904 406.615 316.183 420.027 305.323C433.438 294.463 409.313 253.154 360.237 267.137C311.161 281.119 214.807 385.348 213.748 470.144" stroke="#6187AC" stroke-width="2.3353" stroke-miterlimit="10" stroke-linecap="round" stroke-dasharray="11.68 11.68"/>
<path d="M535.432 194.256C551.485 200.917 567.488 210.86 579.29 221.542C588.639 230.004 595.352 238.932 597.365 247.061C604.601 276.287 628.325 281.382 646.04 274.262C697.159 253.717 726.122 316.803 728.278 324.864" stroke="#6187AC" stroke-width="2.3353" stroke-miterlimit="10" stroke-linecap="round" stroke-dasharray="11.68 11.68"/>
<path d="M234.478 465.828C249.77 479.058 249.145 491.948 242.775 498.958C236.406 505.971 227.18 505.308 224.024 499.34C220.868 493.373 240.338 491.05 236.037 508.713C231.735 526.376 213.485 538.149 195.089 517.878C176.693 497.607 181.662 475.968 188.823 465.98" stroke="#F89777" stroke-width="2.095" stroke-miterlimit="10" stroke-linecap="round"/>
<path d="M183.248 462.045L193.251 459.28L196.016 469.282" stroke="#F89777" stroke-width="2.095" stroke-miterlimit="10" stroke-linecap="round"/>
<path d="M527.542 188.064C527.59 178.418 519.809 170.56 510.163 170.512C500.517 170.464 492.659 178.245 492.611 187.891C492.563 197.537 500.344 205.395 509.99 205.443C519.636 205.491 527.494 197.71 527.542 188.064Z" stroke="#F89777" stroke-width="2.095" stroke-miterlimit="10" stroke-linecap="round"/>
<path d="M513.628 191.559C511.65 193.517 508.451 193.502 506.492 191.523C504.534 189.546 504.548 186.346 506.527 184.387C508.505 182.429 511.704 182.444 513.663 184.422C515.623 186.401 515.607 189.599 513.628 191.559Z" stroke="#F89777" stroke-width="2.095" stroke-miterlimit="10" stroke-linecap="round"/>
<path d="M519.042 179.096L529.04 169.196" stroke="#F89777" stroke-width="2.095" stroke-miterlimit="10" stroke-linecap="round"/>
<path d="M491.116 206.746L501.113 196.848" stroke="#F89777" stroke-width="2.095" stroke-miterlimit="10" stroke-linecap="round"/>
<path d="M518.953 196.936L528.852 206.934" stroke="#F89777" stroke-width="2.095" stroke-miterlimit="10" stroke-linecap="round"/>
<path d="M491.303 169.011L501.202 179.008" stroke="#F89777" stroke-width="2.095" stroke-miterlimit="10" stroke-linecap="round"/>
<path d="M704.681 417.259L712.692 434.648" stroke="#6187AC" stroke-width="2.2146" stroke-miterlimit="10" stroke-linecap="round"/>
<path d="M738.777 383.5L756.087 391.682" stroke="#6187AC" stroke-width="2.2146" stroke-miterlimit="10" stroke-linecap="round"/>
<path d="M726.908 405.609L732.471 411.228" stroke="#6187AC" stroke-width="2.2146" stroke-miterlimit="10" stroke-linecap="round"/>
<path d="M735.912 392.284C744.716 371.323 734.86 347.192 713.899 338.388C692.937 329.583 668.806 339.439 660.002 360.401C651.197 381.363 661.053 405.493 682.015 414.297C702.977 423.102 727.107 413.246 735.912 392.284Z" stroke="#F89777" stroke-width="2.2146" stroke-miterlimit="10" stroke-linecap="round"/>
<path d="M717.701 396.311C728.721 385.4 728.809 367.621 717.898 356.601C706.987 345.58 689.208 345.492 678.187 356.404C667.167 367.315 667.079 385.094 677.991 396.114C688.902 407.134 706.681 407.223 717.701 396.311Z" stroke="#F89777" stroke-width="2.2146" stroke-miterlimit="10" stroke-linecap="round"/>
<path d="M708.494 387.012C714.379 381.185 714.426 371.692 708.6 365.807C702.773 359.923 693.279 359.876 687.395 365.702C681.51 371.529 681.463 381.022 687.29 386.907C693.116 392.791 702.61 392.838 708.494 387.012Z" stroke="#F89777" stroke-width="2.2146" stroke-miterlimit="10" stroke-linecap="round"/>
<path d="M699.288 377.712C698.553 378.44 697.317 378.434 696.589 377.699C695.861 376.963 695.867 375.728 696.603 375C697.338 374.272 698.573 374.278 699.301 375.014C700.029 375.749 700.023 376.984 699.288 377.712Z" stroke="#F89777" stroke-width="2.2146" stroke-miterlimit="10" stroke-linecap="round"/>
<path d="M653.158 421.09L694.228 380.425" stroke="#6187AC" stroke-width="2.2146" stroke-miterlimit="10" stroke-linecap="round"/>
<path d="M652.125 422.113C650.218 420.187 647.11 420.171 645.185 422.078L644.022 423.229L639.373 427.833L645.925 428.251L646.279 434.807L650.927 430.204L652.09 429.053C654.016 427.146 654.031 424.039 652.125 422.113Z" stroke="#F89777" stroke-width="2.2146" stroke-miterlimit="10" stroke-linecap="round"/>
<path d="M697.586 377.1L691.153 378.574L696.048 383.518L697.586 377.1Z" stroke="#6187AC" stroke-width="2.2146" stroke-miterlimit="10" stroke-linecap="round" stroke-linejoin="round"/>
<path d="M375.984 532.5C375.707 532.99 375.522 533.54 375.489 534.141L373.341 573.706C380.418 573.993 386.675 565.162 387.35 553.856C388.022 542.643 382.952 533.205 375.984 532.5Z" fill="#F9F0E5"/>
<path d="M546.943 275.527C546.555 275.158 546.267 274.877 546.077 274.685C544.965 273.562 544.166 272.436 543.675 271.304C543.3 270.46 543.061 269.467 542.962 268.328C542.892 267.494 542.92 266.152 543.044 264.297C543.171 262.441 543.124 261.109 542.907 260.295C542.689 259.482 542.277 258.768 541.668 258.154C540.567 257.042 539.165 256.495 537.461 256.512C535.759 256.53 534.277 257.163 533.016 258.411C531.798 259.618 531.159 261.006 531.098 262.576C531.039 264.146 531.682 265.868 533.034 267.74L529.748 270.301C529.748 270.301 526.739 266.586 527.168 262.977C527.333 260.527 528.49 258.236 530.64 256.107C532.918 253.852 535.348 252.673 537.931 252.57C540.514 252.467 542.677 253.296 544.417 255.053C545.424 256.07 546.115 257.243 546.487 258.573C546.859 259.904 546.962 261.87 546.79 264.473C546.676 266.221 546.67 267.435 546.771 268.108C546.875 268.783 547.109 269.444 547.473 270.089C547.84 270.734 548.578 271.639 549.69 272.804L546.941 275.525L546.943 275.527ZM550.835 279.809C549.944 278.909 549.951 277.458 550.851 276.567C551.75 275.676 553.202 275.683 554.093 276.583C554.984 277.483 554.976 278.934 554.077 279.825C553.178 280.715 551.725 280.709 550.835 279.809Z" fill="#F7BFC3"/>
<path d="M604.101 377.434C603.718 377.059 603.432 376.774 603.245 376.582C602.147 375.445 601.361 374.31 600.884 373.173C600.519 372.324 600.293 371.328 600.206 370.189C600.146 369.355 600.19 368.013 600.337 366.158C600.485 364.305 600.455 362.971 600.248 362.156C600.041 361.341 599.637 360.623 599.035 360.001C597.947 358.876 596.552 358.312 594.85 358.309C593.148 358.307 591.658 358.921 590.383 360.154C589.15 361.346 588.495 362.727 588.414 364.296C588.336 365.865 588.96 367.595 590.288 369.482L586.971 372.003C586.971 372.003 584.006 368.253 584.479 364.647C584.673 362.199 585.858 359.923 588.034 357.82C590.337 355.592 592.784 354.443 595.368 354.37C597.952 354.298 600.104 355.152 601.824 356.93C602.819 357.959 603.495 359.141 603.851 360.475C604.208 361.809 604.286 363.778 604.084 366.377C603.949 368.124 603.928 369.337 604.021 370.012C604.116 370.688 604.343 371.352 604.7 372.001C605.058 372.65 605.785 373.564 606.883 374.742L604.101 377.434ZM607.941 381.761C607.061 380.85 607.085 379.4 607.995 378.52C608.906 377.64 610.356 377.664 611.236 378.575C612.116 379.485 612.091 380.937 611.182 381.815C610.271 382.695 608.821 382.671 607.941 381.761Z" fill="#F7BFC3"/>
<path d="M310.033 669.228C309.65 668.854 309.364 668.569 309.177 668.376C308.078 667.241 307.293 666.105 306.816 664.967C306.452 664.117 306.225 663.123 306.139 661.982C306.079 661.148 306.124 659.805 306.27 657.952C306.418 656.098 306.388 654.765 306.181 653.95C305.973 653.134 305.57 652.416 304.968 651.794C303.88 650.67 302.485 650.105 300.783 650.102C299.081 650.101 297.591 650.715 296.315 651.949C295.083 653.139 294.428 654.52 294.347 656.09C294.268 657.659 294.892 659.389 296.221 661.278L292.904 663.798C292.904 663.798 289.939 660.048 290.412 656.442C290.606 653.995 291.791 651.718 293.967 649.615C296.271 647.387 298.717 646.238 301.301 646.166C303.885 646.093 306.037 646.947 307.757 648.726C308.752 649.755 309.428 650.936 309.785 652.27C310.141 653.605 310.219 655.573 310.017 658.173C309.882 659.92 309.862 661.132 309.954 661.808C310.049 662.484 310.276 663.147 310.633 663.796C310.991 664.445 311.718 665.359 312.816 666.537L310.033 669.228ZM313.874 673.556C312.994 672.646 313.018 671.195 313.929 670.315C314.839 669.436 316.29 669.461 317.169 670.37C318.049 671.281 318.024 672.732 317.115 673.611C316.204 674.491 314.754 674.467 313.874 673.556Z" fill="#F7BFC3"/>
<path d="M318.146 495.996C317.759 495.626 317.47 495.345 317.281 495.154C316.169 494.031 315.369 492.904 314.879 491.773C314.504 490.929 314.265 489.936 314.167 488.798C314.096 487.964 314.125 486.622 314.249 484.766C314.375 482.911 314.328 481.578 314.111 480.765C313.894 479.952 313.481 479.238 312.873 478.623C311.772 477.512 310.37 476.964 308.666 476.982C306.964 477 305.481 477.633 304.221 478.881C303.002 480.088 302.364 481.475 302.303 483.046C302.243 484.616 302.887 486.338 304.239 488.21L300.953 490.771C300.953 490.771 297.943 487.056 298.372 483.445C298.536 480.995 299.694 478.705 301.844 476.576C304.122 474.321 306.552 473.142 309.135 473.039C311.718 472.936 313.88 473.764 315.62 475.522C316.628 476.539 317.319 477.712 317.691 479.042C318.063 480.372 318.165 482.339 317.994 484.942C317.88 486.69 317.874 487.903 317.975 488.577C318.079 489.252 318.312 489.912 318.678 490.557C319.045 491.202 319.783 492.107 320.894 493.271L318.144 495.994L318.146 495.996ZM322.038 500.278C321.148 499.378 321.155 497.926 322.054 497.036C322.954 496.145 324.406 496.152 325.296 497.052C326.187 497.951 326.18 499.403 325.28 500.294C324.381 501.184 322.929 501.177 322.038 500.278Z" fill="#F7BFC3"/>
<path d="M341.913 352.3C341.525 351.93 341.237 351.649 341.048 351.458C339.936 350.335 339.135 349.208 338.645 348.077C338.271 347.232 338.032 346.24 337.933 345.102C337.864 344.269 337.891 342.925 338.016 341.07C338.142 339.215 338.095 337.882 337.878 337.069C337.661 336.256 337.248 335.542 336.639 334.927C335.538 333.815 334.136 333.268 332.433 333.285C330.73 333.304 329.248 333.937 327.987 335.185C326.769 336.391 326.131 337.779 326.069 339.349C326.01 340.919 326.654 342.642 328.006 344.513L324.719 347.075C324.719 347.075 321.71 343.36 322.138 339.749C322.303 337.299 323.46 335.009 325.611 332.88C327.888 330.625 330.318 329.446 332.901 329.343C335.485 329.239 337.646 330.067 339.387 331.826C340.394 332.843 341.085 334.015 341.458 335.346C341.83 336.676 341.932 338.643 341.76 341.245C341.647 342.994 341.641 344.207 341.742 344.882C341.846 345.557 342.08 346.217 342.445 346.861C342.812 347.507 343.55 348.411 344.662 349.576L341.913 352.3ZM345.806 356.58C344.915 355.681 344.922 354.229 345.822 353.338C346.722 352.448 348.173 352.455 349.064 353.354C349.955 354.254 349.948 355.706 349.048 356.596C348.148 357.487 346.697 357.48 345.806 356.58Z" fill="#F7BFC3"/>
<path d="M265.1 434.832C265.73 434.209 265.735 433.194 265.111 432.564L262.491 429.918C261.868 429.288 260.853 429.283 260.223 429.907C259.593 430.53 259.588 431.545 260.212 432.175L262.831 434.82C263.454 435.45 264.471 435.456 265.1 434.832Z" fill="#F7BFC3"/>
<path d="M270.71 434.53L273.355 431.912C273.984 431.288 273.989 430.273 273.366 429.643C272.742 429.014 271.727 429.009 271.097 429.632L268.453 432.25C267.823 432.874 267.818 433.889 268.442 434.519C269.064 435.147 270.081 435.153 270.71 434.53Z" fill="#F7BFC3"/>
<path d="M273.151 442.964C273.781 442.34 273.786 441.325 273.163 440.695L270.545 438.052C269.922 437.422 268.907 437.417 268.277 438.041C267.647 438.664 267.642 439.68 268.266 440.309L270.883 442.953C271.506 443.582 272.522 443.587 273.151 442.964Z" fill="#F7BFC3"/>
<path d="M262.278 443.239L264.922 440.621C265.552 439.998 265.557 438.983 264.934 438.353C264.31 437.723 263.295 437.718 262.665 438.342L260.021 440.96C259.391 441.583 259.386 442.599 260.01 443.228C260.632 443.859 261.648 443.863 262.278 443.239Z" fill="#F7BFC3"/>
<path d="M441.051 344.886C441.681 344.262 441.686 343.247 441.062 342.617L438.443 339.972C437.82 339.342 436.804 339.337 436.175 339.961C435.545 340.584 435.54 341.599 436.163 342.229L438.783 344.874C439.406 345.504 440.421 345.509 441.051 344.886Z" fill="#F7BFC3"/>
<path d="M446.661 344.583L449.306 341.964C449.935 341.341 449.94 340.326 449.317 339.696C448.694 339.066 447.678 339.061 447.049 339.685L444.404 342.303C443.775 342.927 443.77 343.942 444.393 344.571C445.017 345.201 446.032 345.206 446.661 344.583Z" fill="#F7BFC3"/>
<path d="M449.103 353.018C449.733 352.395 449.738 351.38 449.114 350.75L446.497 348.107C445.874 347.477 444.859 347.472 444.229 348.096C443.599 348.719 443.594 349.734 444.218 350.364L446.835 353.007C447.458 353.637 448.473 353.642 449.103 353.018Z" fill="#F7BFC3"/>
<path d="M438.228 353.294L440.873 350.676C441.502 350.052 441.507 349.037 440.884 348.408C440.26 347.778 439.245 347.773 438.615 348.396L435.971 351.014C435.341 351.638 435.336 352.653 435.96 353.283C436.583 353.913 437.599 353.918 438.228 353.294Z" fill="#F7BFC3"/>
<path d="M634.439 310.642C635.069 310.019 635.074 309.003 634.45 308.374L631.831 305.728C631.207 305.099 630.192 305.094 629.563 305.717C628.933 306.341 628.928 307.356 629.551 307.986L632.17 310.631C632.793 311.259 633.81 311.265 634.439 310.642Z" fill="#F7BFC3"/>
<path d="M640.049 310.339L642.693 307.721C643.323 307.097 643.328 306.082 642.704 305.452C642.081 304.823 641.066 304.818 640.436 305.441L637.792 308.059C637.162 308.683 637.157 309.698 637.78 310.328C638.403 310.956 639.419 310.963 640.049 310.339Z" fill="#F7BFC3"/>
<path d="M642.49 318.773C643.12 318.15 643.125 317.135 642.501 316.505L639.884 313.862C639.261 313.232 638.245 313.227 637.616 313.85C636.986 314.474 636.981 315.489 637.605 316.119L640.222 318.762C640.845 319.392 641.861 319.396 642.49 318.773Z" fill="#F7BFC3"/>
<path d="M631.617 319.049L634.261 316.431C634.891 315.807 634.896 314.792 634.272 314.162C633.649 313.533 632.634 313.528 632.004 314.151L629.36 316.769C628.73 317.393 628.725 318.408 629.348 319.038C629.972 319.667 630.987 319.672 631.617 319.049Z" fill="#F7BFC3"/>
<path d="M449.144 262.516C449.774 261.893 449.779 260.878 449.156 260.248L446.536 257.603C445.913 256.973 444.898 256.968 444.268 257.591C443.638 258.215 443.633 259.23 444.257 259.86L446.876 262.505C447.499 263.135 448.515 263.14 449.144 262.516Z" fill="#F7BFC3"/>
<path d="M454.754 262.213L457.398 259.595C458.028 258.971 458.033 257.956 457.41 257.326C456.786 256.697 455.771 256.692 455.141 257.315L452.497 259.933C451.867 260.557 451.862 261.572 452.486 262.202C453.109 262.832 454.124 262.837 454.754 262.213Z" fill="#F7BFC3"/>
<path d="M457.196 270.649C457.826 270.025 457.831 269.01 457.208 268.38L454.59 265.737C453.967 265.107 452.952 265.102 452.322 265.726C451.692 266.349 451.687 267.364 452.311 267.994L454.928 270.637C455.552 271.267 456.567 271.272 457.196 270.649Z" fill="#F7BFC3"/>
<path d="M446.321 270.924L448.966 268.306C449.595 267.682 449.6 266.667 448.977 266.037C448.353 265.408 447.338 265.403 446.709 266.026L444.064 268.644C443.435 269.268 443.43 270.283 444.053 270.913C444.676 271.542 445.692 271.548 446.321 270.924Z" fill="#F7BFC3"/>
<path d="M335.275 572.628C335.905 572.004 335.91 570.989 335.287 570.359L332.667 567.714C332.044 567.085 331.029 567.08 330.399 567.703C329.769 568.326 329.764 569.342 330.388 569.971L333.007 572.617C333.631 573.246 334.646 573.251 335.275 572.628Z" fill="#F7BFC3"/>
<path d="M340.885 572.324L343.53 569.706C344.159 569.083 344.164 568.067 343.541 567.438C342.918 566.808 341.902 566.803 341.273 567.427L338.628 570.045C337.999 570.668 337.994 571.683 338.617 572.313C339.241 572.943 340.256 572.948 340.885 572.324Z" fill="#F7BFC3"/>
<path d="M343.327 580.76C343.957 580.136 343.962 579.121 343.339 578.491L340.721 575.848C340.098 575.218 339.083 575.213 338.453 575.837C337.823 576.46 337.818 577.475 338.442 578.105L341.059 580.748C341.682 581.378 342.698 581.383 343.327 580.76Z" fill="#F7BFC3"/>
<path d="M332.453 581.034L335.098 578.416C335.727 577.793 335.732 576.777 335.109 576.148C334.485 575.518 333.47 575.513 332.84 576.137L330.196 578.755C329.566 579.378 329.561 580.393 330.185 581.023C330.808 581.653 331.824 581.658 332.453 581.034Z" fill="#F7BFC3"/>
<path d="M319.289 390.444C321.057 392.231 321.043 395.122 319.258 396.89C317.471 398.659 314.579 398.645 312.81 396.859C311.041 395.072 311.057 392.18 312.843 390.411C314.628 388.643 317.52 388.658 319.289 390.444ZM317.683 392.034C316.792 391.133 315.333 391.125 314.433 392.017C313.531 392.909 313.524 394.369 314.415 395.269C315.307 396.17 316.767 396.177 317.668 395.285C318.569 394.393 318.575 392.934 317.683 392.034Z" fill="#6187AC"/>
<path d="M299.563 530.87C301.331 532.657 301.317 535.548 299.532 537.315C297.745 539.084 294.853 539.071 293.084 537.285C291.316 535.498 291.331 532.606 293.117 530.837C294.904 529.068 297.794 529.084 299.563 530.87ZM297.958 532.458C297.067 531.558 295.608 531.55 294.708 532.441C293.806 533.334 293.799 534.794 294.69 535.694C295.582 536.595 297.042 536.602 297.943 535.709C298.843 534.819 298.85 533.359 297.958 532.458Z" fill="#6187AC"/>
<path d="M410.076 383.576C411.845 385.363 411.83 388.254 410.045 390.022C408.258 391.79 405.366 391.777 403.598 389.991C401.829 388.204 401.844 385.312 403.631 383.543C405.416 381.776 408.307 381.79 410.076 383.576ZM408.471 385.166C407.579 384.265 406.121 384.257 405.22 385.148C404.318 386.041 404.311 387.501 405.203 388.401C406.095 389.302 407.554 389.309 408.456 388.416C409.356 387.525 409.363 386.066 408.471 385.166Z" fill="#6187AC"/>
<path d="M494.948 241.28C496.717 243.066 496.703 245.957 494.917 247.725C493.131 249.494 490.239 249.481 488.47 247.694C486.701 245.908 486.716 243.016 488.503 241.247C490.289 239.478 493.179 239.493 494.948 241.28ZM493.344 242.868C492.452 241.967 490.994 241.959 490.093 242.851C489.191 243.744 489.184 245.203 490.076 246.104C490.968 247.005 492.427 247.012 493.329 246.119C494.229 245.228 494.236 243.769 493.344 242.868Z" fill="#6187AC"/>
<path d="M578.759 313.013C580.528 314.799 580.514 317.69 578.728 319.458C576.942 321.227 574.049 321.213 572.281 319.427C570.512 317.641 570.527 314.749 572.314 312.98C574.098 311.211 576.99 311.226 578.759 313.013ZM577.154 314.602C576.262 313.701 574.804 313.693 573.903 314.585C573.001 315.478 572.994 316.937 573.886 317.838C574.778 318.739 576.237 318.746 577.139 317.853C578.039 316.962 578.046 315.503 577.154 314.602Z" fill="#6187AC"/>
<path d="M354.026 617.095C355.795 618.881 355.781 621.772 353.995 623.54C352.209 625.309 349.317 625.296 347.548 623.509C345.779 621.723 345.794 618.831 347.581 617.062C349.366 615.294 352.258 615.309 354.026 617.095ZM352.421 618.684C351.529 617.783 350.071 617.775 349.17 618.667C348.268 619.56 348.261 621.019 349.153 621.92C350.045 622.821 351.504 622.828 352.406 621.935C353.307 621.043 353.314 619.586 352.421 618.684Z" fill="#6187AC"/>
<path d="M481.781 295.099C481.781 295.099 487.94 299.792 481.452 305.969C481.452 305.969 486.977 300.609 491.893 305.87C491.893 305.87 488.401 301.358 492.528 295.491C492.528 295.491 489.252 300.663 481.781 295.099Z" fill="#F7BFC3"/>
<path d="M259.089 630.663C259.089 630.663 265.247 635.356 258.759 641.533C258.759 641.533 264.285 636.173 269.201 641.433C269.201 641.433 265.708 636.922 269.837 631.054C269.837 631.054 266.559 636.226 259.089 630.663Z" fill="#F7BFC3"/>
<path d="M582.205 279.752C582.205 279.752 588.364 284.445 581.876 290.623C581.876 290.623 587.401 285.263 592.317 290.523C592.317 290.523 588.825 286.011 592.954 280.144C592.954 280.144 589.676 285.315 582.205 279.752Z" fill="#F7BFC3"/>
<path d="M681.527 307.069C681.527 307.069 687.685 311.762 681.197 317.94C681.197 317.94 686.723 312.58 691.639 317.84C691.639 317.84 688.147 313.328 692.274 307.461C692.274 307.461 688.997 312.632 681.527 307.069Z" fill="#F7BFC3"/>
<path d="M632.073 390.989C632.073 390.989 638.232 395.683 631.744 401.86C631.744 401.86 637.269 396.5 642.185 401.76C642.185 401.76 638.693 397.249 642.821 391.382C642.821 391.382 639.544 396.554 632.073 390.989Z" fill="#F7BFC3"/>
<path d="M267.655 378.936C267.655 378.936 273.814 383.629 267.326 389.806C267.326 389.806 272.851 384.446 277.767 389.706C277.767 389.706 274.275 385.195 278.404 379.327C278.404 379.327 275.125 384.499 267.655 378.936Z" fill="#F7BFC3"/>
<path d="M352.554 526.467C352.554 526.467 358.712 531.16 352.224 537.337C352.224 537.337 357.749 531.977 362.666 537.237C362.666 537.237 359.173 532.726 363.302 526.858C363.302 526.858 360.026 532.03 352.554 526.467Z" fill="#F7BFC3"/>
<path d="M353.334 424.843C353.334 424.843 359.492 429.537 353.003 435.715C353.003 435.715 358.529 430.355 363.445 435.615C363.445 435.615 359.953 431.104 364.081 425.236C364.081 425.236 360.805 430.408 353.334 424.843Z" fill="#F7BFC3"/>
<path d="M381.265 345.101C381.265 345.101 387.423 349.795 380.935 355.972C380.935 355.972 386.46 350.612 391.377 355.872C391.377 355.872 387.884 351.36 392.012 345.494C392.012 345.494 388.736 350.664 381.265 345.101Z" fill="#F7BFC3"/>
<path d="M195.266 587.162C195.242 591.976 199.126 595.899 203.94 595.923C208.755 595.947 222.758 587.298 222.758 587.298C222.758 587.298 208.84 578.512 204.027 578.488C199.211 578.465 195.289 582.349 195.266 587.162ZM208.159 587.227C208.148 589.584 206.228 591.485 203.87 591.474C201.513 591.462 199.613 589.541 199.623 587.185C199.635 584.827 201.555 582.926 203.912 582.938C206.27 582.949 208.171 584.869 208.159 587.227Z" fill="#6187AC"/>
<path d="M360.523 230.618C357.101 234.005 357.074 239.524 360.462 242.945C363.848 246.365 379.866 250.154 379.866 250.154C379.866 250.154 376.238 234.1 372.85 230.679C369.462 227.257 363.943 227.231 360.523 230.618ZM369.595 239.78C367.92 241.438 365.217 241.425 363.559 239.75C361.9 238.075 361.914 235.373 363.589 233.714C365.264 232.056 367.966 232.069 369.624 233.744C371.282 235.42 371.269 238.122 369.595 239.78Z" fill="#6187AC"/>
<mask id="mask0_330_643" style="mask-type:luminance" maskUnits="userSpaceOnUse" x="1" y="1" width="990" height="990">
<path d="M989.699 499.879L494.983 989.716C494.029 990.66 492.492 990.654 491.547 989.7L1.70864 494.982C0.764547 494.028 0.77316 492.49 1.72666 491.546L496.444 1.70844C497.397 0.765336 498.934 0.771971 499.878 1.72547L989.716 496.443C990.661 497.397 990.653 498.935 989.699 499.879Z" fill="white"/>
</mask>
<g mask="url(#mask0_330_643)">
<path d="M486.67 533.385C471.785 531.187 461.499 517.337 463.698 502.45L487.584 340.728C489.783 325.842 503.633 315.556 518.52 317.756C533.405 319.954 543.691 333.804 541.492 348.691L517.605 510.413C515.405 525.298 501.556 535.583 486.67 533.385Z" fill="#F7BFC3"/>
<path d="M660.06 513.55L630.631 712.798C627.009 737.321 604.193 754.265 579.67 750.642L479.883 735.903C455.36 732.281 438.417 709.466 442.04 684.942L471.469 485.695L660.06 513.55Z" fill="#F7BFC3"/>
<path d="M531.963 753.232C512.38 772.622 480.787 772.465 461.398 752.882L411.436 702.423C392.046 682.84 392.202 651.247 411.785 631.857C431.368 612.467 462.961 612.624 482.351 632.207L532.313 682.666C551.703 702.249 551.546 733.842 531.963 753.232Z" fill="#F7BFC3"/>
<path d="M613.812 778.558L568.246 1087.06L412.224 1064.01L457.789 755.513C464.152 712.429 504.237 682.66 547.322 689.025C590.408 695.388 620.175 735.474 613.812 778.558Z" fill="#F7BFC3"/>
<path d="M649.122 561.587L605.499 517.53L474.332 498.156L456.482 619.009L569.946 733.603C575.833 739.549 585.427 739.596 591.374 733.708L629.235 696.221L649.122 561.587Z" fill="#F89777"/>
<path d="M439.778 674.377C424.201 681.789 405.565 675.171 398.152 659.593L379.052 619.457C371.64 603.88 378.258 585.244 393.836 577.831C409.413 570.419 428.049 577.037 435.462 592.615L454.562 632.751C461.974 648.328 455.355 666.965 439.778 674.377Z" fill="#F7BFC3"/>
<path d="M395.012 444.905L366.861 472.778C362.835 468.712 362.867 462.151 366.933 458.125L380.36 444.831C384.425 440.806 390.985 440.838 395.012 444.905Z" fill="#104478"/>
<path d="M703.658 607.537L594.36 715.756C588.138 721.917 578.099 721.867 571.938 715.645L356.593 498.155C350.432 491.933 350.481 481.893 356.703 475.732L466 367.514C472.223 361.352 482.261 361.403 488.423 367.626L703.767 585.115C709.929 591.337 709.88 601.376 703.658 607.537Z" fill="#6187AC"/>
<path d="M402.625 445.943C403.572 446.899 403.565 448.443 402.608 449.391C401.65 450.339 400.107 450.33 399.16 449.374C398.213 448.417 398.22 446.873 399.177 445.926C400.133 444.979 401.677 444.985 402.625 445.943Z" fill="#104478"/>
<path d="M439.223 409.707C440.17 410.664 440.162 412.208 439.206 413.155C438.249 414.103 436.705 414.095 435.758 413.138C434.811 412.182 434.817 410.638 435.775 409.69C436.732 408.742 438.275 408.75 439.223 409.707Z" fill="#104478"/>
<path d="M428.599 422.799L412.358 438.88C411.64 439.59 410.482 439.584 409.772 438.867C409.062 438.15 409.068 436.992 409.785 436.281L426.026 420.2C426.744 419.49 427.902 419.496 428.612 420.213C429.322 420.931 429.316 422.088 428.599 422.799Z" fill="#104478"/>
<path d="M694.673 599.329L586.242 706.69C583.125 709.776 578.097 709.751 575.011 706.634L374.638 504.265C371.552 501.148 371.577 496.12 374.693 493.034L483.124 385.673C486.241 382.587 491.269 382.612 494.355 385.729L694.728 588.098C697.814 591.215 697.789 596.243 694.673 599.329Z" fill="#A7C8FF"/>
<path d="M543.515 558.727C530.71 571.406 530.609 592.062 543.286 604.866L624.013 686.397L670.38 640.487L589.654 558.956C576.976 546.152 556.32 546.049 543.515 558.727Z" fill="#F89777"/>
<path d="M567.622 471.018C550.642 467.645 539.611 451.145 542.983 434.164L544.888 420.664C548.261 403.684 564.761 392.653 581.74 396.026C598.72 399.399 609.751 415.898 606.379 432.878L604.473 446.378C601.102 463.359 584.603 474.389 567.622 471.018Z" fill="#F7BFC3"/>
<path d="M575.487 430.976C562.309 428.359 552.614 421.266 553.832 415.135L554.209 410.2C555.427 404.069 567.096 401.221 580.274 403.839C593.451 406.456 603.147 413.549 601.929 419.68L601.552 424.615C600.335 430.745 588.665 433.594 575.487 430.976Z" fill="#F9F0E5"/>
<path d="M613.463 517.37C599.663 514.629 590.699 501.221 593.44 487.421L594.989 476.451C597.73 462.651 611.137 453.688 624.936 456.429C638.736 459.17 647.7 472.579 644.958 486.377L643.41 497.348C640.67 511.147 627.262 520.112 613.463 517.37Z" fill="#F7BFC3"/>
<path d="M619.854 484.832C609.145 482.705 601.267 476.943 602.256 471.96L602.563 467.949C603.553 462.967 613.035 460.652 623.744 462.779C634.453 464.906 642.331 470.669 641.342 475.652L641.035 479.663C640.047 484.645 630.563 486.96 619.854 484.832Z" fill="#F9F0E5"/>
<path d="M646.98 562.112C634.509 555.6 629.678 540.212 636.189 527.741L640.761 517.649C647.272 505.178 662.66 500.348 675.131 506.859C687.602 513.37 692.432 528.758 685.921 541.229L681.35 551.321C674.839 563.792 659.451 568.623 646.98 562.112Z" fill="#F7BFC3"/>
<path d="M662.264 532.686C652.586 527.632 646.647 519.886 648.998 515.384L650.421 511.621C652.772 507.119 662.523 507.565 672.201 512.619C681.879 517.672 687.818 525.418 685.468 529.922L684.046 533.684C681.694 538.185 671.943 537.738 662.264 532.686Z" fill="#F9F0E5"/>
<path d="M381.909 532.638C409.138 534.116 430.014 557.389 428.535 584.619L427.709 599.823C426.91 614.526 414.345 625.797 399.642 624.998C384.939 624.2 373.667 611.634 374.467 596.931L377.756 536.365C377.874 534.188 379.733 532.519 381.909 532.638Z" fill="#F7BFC3"/>
<path d="M772.182 778.085C767.619 794.785 750.382 804.623 733.682 800.06L681.845 785.895C665.145 781.332 655.307 764.094 659.87 747.394C664.433 730.694 681.671 720.856 698.371 725.419L750.207 739.584C766.908 744.148 776.746 761.385 772.182 778.085Z" fill="#F89777"/>
<path d="M712.539 673.016C729.24 677.579 739.078 694.817 734.515 711.517L720.35 763.353C715.786 780.053 698.549 789.891 681.849 785.328C665.148 780.765 655.311 763.527 659.874 746.827L674.039 694.991C678.603 678.292 695.84 668.452 712.539 673.016Z" fill="#F89777"/>
<path d="M818.027 535.709L651.569 700.525L834.312 885.088L1000.77 720.272L818.027 535.709Z" fill="#F7BFC3"/>
<path d="M771.364 641.329L726.814 685.44L671.45 629.526C659.27 617.224 659.367 597.376 671.67 585.195C683.972 573.015 703.819 573.112 716.001 585.415L771.364 641.329Z" fill="#F7BFC3"/>
<path d="M833.909 617.211L789.359 661.322L733.996 605.407C721.815 593.106 721.912 573.258 734.215 561.077C746.517 548.896 766.364 548.994 778.546 561.297L833.909 617.211Z" fill="#F7BFC3"/>
<path d="M861.687 579.804L828.068 613.092L786.288 570.896C777.096 561.612 777.171 546.635 786.454 537.443C795.738 528.251 810.714 528.325 819.906 537.609L861.686 579.805L861.687 579.804Z" fill="#F7BFC3"/>
<path d="M725.719 728.885C712.915 741.563 692.258 741.46 679.58 728.656L541.848 589.552C529.17 576.749 529.273 556.091 542.077 543.414C554.881 530.736 575.538 530.838 588.216 543.642L725.948 682.747C738.625 695.55 738.523 716.207 725.719 728.885Z" fill="#F7BFC3"/>
<path d="M591.112 572.382L570.557 592.735C567.162 596.096 561.685 596.069 558.323 592.674L545.867 580.094C536.885 571.022 536.958 556.388 546.029 547.407C555.1 538.425 569.735 538.498 578.716 547.569L591.172 560.149C594.535 563.543 594.508 569.02 591.112 572.382Z" fill="#F9F0E5"/>
</g>
</svg>
