<svg width="815" height="788" viewBox="0 0 815 788" fill="none" xmlns="http://www.w3.org/2000/svg">
<path d="M730.824 396.746C730.824 569.75 590.577 709.997 417.573 709.997C244.569 709.997 104.322 569.75 104.322 396.746C104.322 223.743 244.569 83.4954 417.573 83.4954C590.577 83.4954 730.824 223.743 730.824 396.746Z" stroke="#CF69FF" stroke-width="0.818956"/>
<path d="M811.17 344.085C811.17 393.838 770.838 434.17 721.085 434.17C671.333 434.17 631 393.838 631 344.085C631 294.333 671.333 254 721.085 254C770.838 254 811.17 294.333 811.17 344.085Z" fill="#0D0D0D" stroke="#6C3A84" stroke-width="7.06551"/>
<g opacity="0.72">
<path fill-rule="evenodd" clip-rule="evenodd" d="M697.157 320.568L730.317 320.135C733.98 320.088 736.986 322.874 737.032 326.358L737.278 345.287C737.324 348.771 734.391 351.635 730.728 351.682L697.568 352.115C693.905 352.162 690.899 349.376 690.853 345.892L690.607 326.963C690.561 323.479 693.494 320.615 697.157 320.568Z" fill="white" stroke="url(#paint0_linear_670_3278)" stroke-width="3.31635" stroke-linecap="round" stroke-linejoin="round"/>
<path fill-rule="evenodd" clip-rule="evenodd" d="M707.122 357.535L722.797 357.33C724.528 357.308 725.935 357.523 725.938 357.81L725.959 359.371C725.962 359.659 724.562 359.91 722.831 359.933L707.156 360.137C705.424 360.159 704.018 359.945 704.014 359.657L703.994 358.096C703.99 357.809 705.39 357.557 707.122 357.535Z" stroke="url(#paint1_linear_670_3278)" stroke-width="1.10545" stroke-linecap="round" stroke-linejoin="round"/>
<path fill-rule="evenodd" clip-rule="evenodd" d="M750.969 300.091L750.814 333.254C750.797 336.917 747.958 339.873 744.473 339.857L725.543 339.768C722.059 339.752 719.247 336.769 719.265 333.106L719.419 299.943C719.437 296.28 722.275 293.324 725.76 293.34L744.69 293.428C748.175 293.445 750.986 296.427 750.969 300.091Z" fill="white" stroke="url(#paint2_linear_670_3278)" stroke-width="2.2109" stroke-linecap="round" stroke-linejoin="round"/>
<path fill-rule="evenodd" clip-rule="evenodd" d="M731.772 336.521L738.125 336.438C738.827 336.429 739.396 336.449 739.397 336.483L739.399 336.665C739.399 336.699 738.831 336.733 738.129 336.742L731.776 336.825C731.074 336.834 730.505 336.815 730.504 336.781L730.502 336.599C730.501 336.565 731.07 336.53 731.772 336.521Z" stroke="url(#paint3_linear_670_3278)" stroke-width="0.552724" stroke-linecap="round" stroke-linejoin="round"/>
<path d="M731.854 310.224V317.054C731.854 317.802 732.049 318.377 732.439 318.777C732.829 319.167 733.378 319.362 734.084 319.362C734.801 319.362 735.354 319.167 735.744 318.777C736.134 318.377 736.329 317.802 736.329 317.054V310.224H738.558V317.038C738.558 317.976 738.353 318.772 737.942 319.426C737.541 320.069 736.998 320.554 736.313 320.88C735.639 321.207 734.885 321.37 734.052 321.37C733.23 321.37 732.482 321.207 731.807 320.88C731.143 320.554 730.616 320.069 730.226 319.426C729.836 318.772 729.641 317.976 729.641 317.038V310.224H731.854ZM742.911 310.224V321.26H740.697V310.224H742.911Z" fill="url(#paint4_linear_670_3278)"/>
<path d="M698.472 331.228V338.058C698.472 338.806 698.667 339.381 699.057 339.781C699.447 340.171 699.995 340.366 700.701 340.366C701.418 340.366 701.971 340.171 702.361 339.781C702.751 339.381 702.946 338.806 702.946 338.058V331.228H705.176V338.042C705.176 338.98 704.97 339.776 704.559 340.43C704.158 341.073 703.615 341.557 702.93 341.884C702.256 342.211 701.502 342.374 700.669 342.374C699.847 342.374 699.099 342.211 698.424 341.884C697.76 341.557 697.233 341.073 696.843 340.43C696.453 339.776 696.258 338.98 696.258 338.042V331.228H698.472ZM713.923 342.264L711.536 338.548L709.37 342.264H706.872L710.35 336.698L706.824 331.228H709.37L711.757 334.927L713.907 331.228H716.406L712.943 336.777L716.469 342.264H713.923Z" fill="url(#paint5_linear_670_3278)"/>
<path d="M676.673 385.849V392.027C676.673 392.704 676.849 393.224 677.202 393.586C677.555 393.939 678.051 394.116 678.69 394.116C679.338 394.116 679.839 393.939 680.191 393.586C680.544 393.224 680.721 392.704 680.721 392.027V385.849H682.737V392.013C682.737 392.862 682.551 393.582 682.179 394.173C681.817 394.755 681.326 395.193 680.706 395.489C680.096 395.784 679.414 395.932 678.661 395.932C677.917 395.932 677.24 395.784 676.63 395.489C676.029 395.193 675.552 394.755 675.2 394.173C674.847 393.582 674.67 392.862 674.67 392.013V385.849H676.673ZM686.674 385.849V395.832H684.672V385.849H686.674ZM694.016 382.287L690.155 398.421H688.195L692.057 382.287H694.016ZM697.582 385.849V392.027C697.582 392.704 697.759 393.224 698.112 393.586C698.464 393.939 698.96 394.116 699.599 394.116C700.248 394.116 700.748 393.939 701.101 393.586C701.454 393.224 701.63 392.704 701.63 392.027V385.849H703.647V392.013C703.647 392.862 703.461 393.582 703.089 394.173C702.727 394.755 702.236 395.193 701.616 395.489C701.006 395.784 700.324 395.932 699.571 395.932C698.827 395.932 698.15 395.784 697.54 395.489C696.939 395.193 696.462 394.755 696.109 394.173C695.756 393.582 695.58 392.862 695.58 392.013V385.849H697.582ZM711.56 395.832L709.4 392.471L707.441 395.832H705.181L708.328 390.797L705.138 385.849H707.441L709.601 389.195L711.546 385.849H713.806L710.673 390.869L713.863 395.832H711.56ZM722.285 385.849C723.334 385.849 724.254 386.054 725.045 386.464C725.846 386.874 726.461 387.46 726.89 388.223C727.329 388.976 727.548 389.853 727.548 390.855C727.548 391.856 727.329 392.733 726.89 393.486C726.461 394.23 725.846 394.807 725.045 395.217C724.254 395.627 723.334 395.832 722.285 395.832H718.795V385.849H722.285ZM722.213 394.13C723.262 394.13 724.073 393.844 724.645 393.272C725.217 392.7 725.503 391.894 725.503 390.855C725.503 389.815 725.217 389.005 724.645 388.423C724.073 387.832 723.262 387.536 722.213 387.536H720.797V394.13H722.213ZM736.413 391.698C736.413 391.985 736.394 392.242 736.356 392.471H730.563C730.611 393.043 730.811 393.491 731.164 393.815C731.517 394.14 731.951 394.302 732.466 394.302C733.209 394.302 733.739 393.982 734.053 393.343H736.213C735.984 394.106 735.546 394.735 734.897 395.231C734.249 395.718 733.453 395.961 732.509 395.961C731.746 395.961 731.059 395.794 730.449 395.46C729.848 395.117 729.376 394.635 729.033 394.016C728.699 393.396 728.532 392.681 728.532 391.87C728.532 391.05 728.699 390.33 729.033 389.71C729.367 389.091 729.834 388.614 730.435 388.28C731.035 387.946 731.727 387.779 732.509 387.779C733.262 387.779 733.934 387.942 734.525 388.266C735.126 388.59 735.588 389.052 735.913 389.653C736.246 390.244 736.413 390.926 736.413 391.698ZM734.339 391.126C734.33 390.611 734.144 390.201 733.782 389.896C733.419 389.582 732.976 389.424 732.451 389.424C731.956 389.424 731.536 389.577 731.193 389.882C730.859 390.178 730.654 390.592 730.578 391.126H734.339ZM740.907 395.961C740.259 395.961 739.677 395.846 739.162 395.617C738.647 395.379 738.237 395.06 737.932 394.659C737.636 394.259 737.474 393.815 737.446 393.329H739.462C739.501 393.634 739.648 393.887 739.906 394.087C740.173 394.287 740.502 394.387 740.893 394.387C741.274 394.387 741.57 394.311 741.78 394.159C741.999 394.006 742.108 393.811 742.108 393.572C742.108 393.315 741.975 393.124 741.708 393C741.451 392.867 741.036 392.724 740.464 392.571C739.872 392.428 739.386 392.28 739.005 392.128C738.633 391.975 738.309 391.741 738.032 391.427C737.765 391.112 737.632 390.688 737.632 390.154C737.632 389.715 737.756 389.315 738.004 388.952C738.261 388.59 738.623 388.304 739.091 388.094C739.567 387.884 740.125 387.779 740.764 387.779C741.708 387.779 742.461 388.018 743.024 388.495C743.586 388.962 743.896 389.596 743.954 390.397H742.037C742.008 390.082 741.875 389.834 741.636 389.653C741.408 389.462 741.098 389.367 740.707 389.367C740.344 389.367 740.063 389.434 739.863 389.567C739.672 389.701 739.577 389.887 739.577 390.125C739.577 390.392 739.71 390.597 739.977 390.74C740.244 390.874 740.659 391.012 741.222 391.155C741.794 391.298 742.266 391.446 742.638 391.598C743.01 391.751 743.329 391.989 743.596 392.314C743.873 392.628 744.016 393.048 744.025 393.572C744.025 394.03 743.896 394.44 743.639 394.802C743.391 395.165 743.029 395.451 742.552 395.66C742.085 395.861 741.536 395.961 740.907 395.961ZM746.684 386.964C746.331 386.964 746.036 386.855 745.798 386.635C745.569 386.406 745.454 386.125 745.454 385.791C745.454 385.458 745.569 385.181 745.798 384.962C746.036 384.733 746.331 384.619 746.684 384.619C747.037 384.619 747.328 384.733 747.557 384.962C747.795 385.181 747.914 385.458 747.914 385.791C747.914 386.125 747.795 386.406 747.557 386.635C747.328 386.855 747.037 386.964 746.684 386.964ZM747.671 387.908V395.832H745.669V387.908H747.671ZM752.753 387.779C753.344 387.779 753.864 387.899 754.312 388.137C754.76 388.366 755.113 388.666 755.371 389.038V387.908H757.387V395.889C757.387 396.623 757.24 397.277 756.944 397.849C756.648 398.43 756.205 398.888 755.614 399.222C755.023 399.565 754.308 399.737 753.468 399.737C752.343 399.737 751.418 399.475 750.694 398.95C749.979 398.426 749.573 397.71 749.478 396.805H751.466C751.571 397.167 751.795 397.453 752.138 397.663C752.491 397.882 752.915 397.992 753.411 397.992C753.993 397.992 754.465 397.815 754.827 397.463C755.19 397.119 755.371 396.595 755.371 395.889V394.659C755.113 395.031 754.756 395.341 754.298 395.589C753.85 395.837 753.335 395.961 752.753 395.961C752.086 395.961 751.476 395.789 750.923 395.446C750.369 395.103 749.931 394.621 749.607 394.001C749.292 393.372 749.135 392.652 749.135 391.842C749.135 391.041 749.292 390.33 749.607 389.71C749.931 389.091 750.365 388.614 750.908 388.28C751.461 387.946 752.076 387.779 752.753 387.779ZM755.371 391.87C755.371 391.384 755.275 390.969 755.085 390.626C754.894 390.273 754.637 390.006 754.312 389.825C753.988 389.634 753.64 389.539 753.268 389.539C752.896 389.539 752.553 389.629 752.238 389.811C751.924 389.992 751.666 390.259 751.466 390.611C751.275 390.955 751.18 391.365 751.18 391.842C751.18 392.318 751.275 392.738 751.466 393.1C751.666 393.453 751.924 393.725 752.238 393.915C752.563 394.106 752.906 394.202 753.268 394.202C753.64 394.202 753.988 394.111 754.312 393.93C754.637 393.739 754.894 393.472 755.085 393.129C755.275 392.776 755.371 392.356 755.371 391.87ZM763.734 387.794C764.678 387.794 765.441 388.094 766.023 388.695C766.604 389.286 766.895 390.116 766.895 391.184V395.832H764.893V391.455C764.893 390.826 764.735 390.344 764.421 390.011C764.106 389.667 763.677 389.496 763.133 389.496C762.58 389.496 762.142 389.667 761.818 390.011C761.503 390.344 761.346 390.826 761.346 391.455V395.832H759.343V387.908H761.346V388.895C761.613 388.552 761.951 388.285 762.361 388.094C762.781 387.894 763.238 387.794 763.734 387.794Z" fill="white"/>
</g>
<path d="M709.17 672.085C709.17 721.838 668.838 762.17 619.085 762.17C569.333 762.17 529 721.838 529 672.085C529 622.333 569.333 582 619.085 582C668.838 582 709.17 622.333 709.17 672.085Z" fill="#0D0D0D" stroke="#6C3A84" stroke-width="7.06551"/>
<g opacity="0.72">
<path d="M600.176 640.932L585.287 654.778L600.176 670.932M637.398 640.932L652.287 654.778L637.398 670.932M625 634L613.5 677" stroke="url(#paint6_linear_670_3278)" stroke-width="6" stroke-linecap="round" stroke-linejoin="round"/>
<path d="M574.199 716.981C575.247 716.981 576.168 717.186 576.959 717.596C577.76 718.006 578.375 718.593 578.804 719.356C579.243 720.109 579.462 720.986 579.462 721.987C579.462 722.989 579.243 723.866 578.804 724.619C578.375 725.363 577.76 725.94 576.959 726.35C576.168 726.76 575.247 726.965 574.199 726.965H570.709V716.981H574.199ZM574.127 725.263C575.176 725.263 575.986 724.977 576.559 724.405C577.131 723.833 577.417 723.027 577.417 721.987C577.417 720.948 577.131 720.138 576.559 719.556C575.986 718.965 575.176 718.669 574.127 718.669H572.711V725.263H574.127ZM588.327 722.831C588.327 723.117 588.308 723.375 588.27 723.604H582.477C582.525 724.176 582.725 724.624 583.078 724.948C583.431 725.272 583.864 725.434 584.379 725.434C585.123 725.434 585.652 725.115 585.967 724.476H588.127C587.898 725.239 587.459 725.868 586.811 726.364C586.162 726.85 585.366 727.094 584.422 727.094C583.659 727.094 582.973 726.927 582.363 726.593C581.762 726.25 581.29 725.768 580.947 725.148C580.613 724.529 580.446 723.813 580.446 723.003C580.446 722.183 580.613 721.463 580.947 720.843C581.28 720.223 581.748 719.747 582.348 719.413C582.949 719.079 583.64 718.912 584.422 718.912C585.176 718.912 585.848 719.074 586.439 719.399C587.04 719.723 587.502 720.185 587.826 720.786C588.16 721.377 588.327 722.059 588.327 722.831ZM586.253 722.259C586.243 721.744 586.058 721.334 585.695 721.029C585.333 720.714 584.889 720.557 584.365 720.557C583.869 720.557 583.45 720.71 583.106 721.015C582.773 721.31 582.568 721.725 582.491 722.259H586.253ZM593.092 725.12L595.095 719.041H597.226L594.294 726.965H591.862L588.945 719.041H591.09L593.092 725.12ZM605.717 722.831C605.717 723.117 605.698 723.375 605.659 723.604H599.867C599.914 724.176 600.115 724.624 600.468 724.948C600.82 725.272 601.254 725.434 601.769 725.434C602.513 725.434 603.042 725.115 603.357 724.476H605.516C605.288 725.239 604.849 725.868 604.201 726.364C603.552 726.85 602.756 727.094 601.812 727.094C601.049 727.094 600.363 726.927 599.752 726.593C599.152 726.25 598.68 725.768 598.336 725.148C598.003 724.529 597.836 723.813 597.836 723.003C597.836 722.183 598.003 721.463 598.336 720.843C598.67 720.223 599.137 719.747 599.738 719.413C600.339 719.079 601.03 718.912 601.812 718.912C602.565 718.912 603.238 719.074 603.829 719.399C604.429 719.723 604.892 720.185 605.216 720.786C605.55 721.377 605.717 722.059 605.717 722.831ZM603.643 722.259C603.633 721.744 603.447 721.334 603.085 721.029C602.723 720.714 602.279 720.557 601.755 720.557C601.259 720.557 600.839 720.71 600.496 721.015C600.162 721.31 599.957 721.725 599.881 722.259H603.643ZM609.181 716.381V726.965H607.178V716.381H609.181ZM614.678 727.094C613.915 727.094 613.228 726.927 612.618 726.593C612.008 726.25 611.526 725.768 611.173 725.148C610.83 724.529 610.658 723.813 610.658 723.003C610.658 722.192 610.835 721.477 611.188 720.858C611.55 720.238 612.041 719.761 612.661 719.427C613.281 719.084 613.972 718.912 614.735 718.912C615.498 718.912 616.189 719.084 616.809 719.427C617.428 719.761 617.915 720.238 618.268 720.858C618.63 721.477 618.811 722.192 618.811 723.003C618.811 723.813 618.625 724.529 618.253 725.148C617.891 725.768 617.395 726.25 616.766 726.593C616.146 726.927 615.45 727.094 614.678 727.094ZM614.678 725.349C615.04 725.349 615.378 725.263 615.693 725.091C616.017 724.91 616.275 724.643 616.465 724.29C616.656 723.937 616.751 723.508 616.751 723.003C616.751 722.25 616.551 721.673 616.151 721.272C615.76 720.862 615.278 720.657 614.706 720.657C614.134 720.657 613.653 720.862 613.262 721.272C612.88 721.673 612.689 722.25 612.689 723.003C612.689 723.756 612.875 724.338 613.247 724.748C613.629 725.148 614.105 725.349 614.678 725.349ZM622.282 720.185C622.54 719.823 622.893 719.523 623.341 719.284C623.798 719.036 624.318 718.912 624.9 718.912C625.577 718.912 626.187 719.079 626.731 719.413C627.284 719.747 627.717 720.223 628.032 720.843C628.356 721.453 628.518 722.164 628.518 722.974C628.518 723.785 628.356 724.505 628.032 725.134C627.717 725.754 627.284 726.235 626.731 726.579C626.187 726.922 625.577 727.094 624.9 727.094C624.318 727.094 623.803 726.974 623.355 726.736C622.916 726.498 622.559 726.197 622.282 725.835V730.741H620.28V719.041H622.282V720.185ZM626.473 722.974C626.473 722.498 626.373 722.088 626.173 721.744C625.982 721.391 625.725 721.124 625.4 720.943C625.086 720.762 624.742 720.672 624.371 720.672C624.008 720.672 623.665 720.767 623.341 720.958C623.026 721.139 622.769 721.406 622.568 721.759C622.378 722.111 622.282 722.526 622.282 723.003C622.282 723.48 622.378 723.894 622.568 724.247C622.769 724.6 623.026 724.872 623.341 725.063C623.665 725.244 624.008 725.334 624.371 725.334C624.742 725.334 625.086 725.239 625.4 725.048C625.725 724.858 625.982 724.586 626.173 724.233C626.373 723.88 626.473 723.461 626.473 722.974ZM639.814 718.927C640.786 718.927 641.568 719.227 642.16 719.828C642.76 720.419 643.061 721.248 643.061 722.316V726.965H641.058V722.588C641.058 721.968 640.901 721.496 640.586 721.172C640.272 720.838 639.842 720.672 639.299 720.672C638.755 720.672 638.322 720.838 637.997 721.172C637.683 721.496 637.525 721.968 637.525 722.588V726.965H635.523V722.588C635.523 721.968 635.366 721.496 635.051 721.172C634.736 720.838 634.307 720.672 633.764 720.672C633.211 720.672 632.772 720.838 632.448 721.172C632.133 721.496 631.976 721.968 631.976 722.588V726.965H629.973V719.041H631.976V719.999C632.233 719.666 632.562 719.403 632.963 719.213C633.373 719.022 633.821 718.927 634.307 718.927C634.927 718.927 635.48 719.06 635.966 719.327C636.453 719.585 636.829 719.956 637.096 720.443C637.354 719.985 637.726 719.618 638.212 719.341C638.708 719.065 639.242 718.927 639.814 718.927ZM652.327 722.831C652.327 723.117 652.308 723.375 652.27 723.604H646.477C646.525 724.176 646.725 724.624 647.078 724.948C647.43 725.272 647.864 725.434 648.379 725.434C649.123 725.434 649.652 725.115 649.967 724.476H652.127C651.898 725.239 651.459 725.868 650.811 726.364C650.162 726.85 649.366 727.094 648.422 727.094C647.659 727.094 646.973 726.927 646.362 726.593C645.762 726.25 645.29 725.768 644.947 725.148C644.613 724.529 644.446 723.813 644.446 723.003C644.446 722.183 644.613 721.463 644.947 720.843C645.28 720.223 645.747 719.747 646.348 719.413C646.949 719.079 647.64 718.912 648.422 718.912C649.175 718.912 649.848 719.074 650.439 719.399C651.04 719.723 651.502 720.185 651.826 720.786C652.16 721.377 652.327 722.059 652.327 722.831ZM650.253 722.259C650.243 721.744 650.057 721.334 649.695 721.029C649.333 720.714 648.889 720.557 648.365 720.557C647.869 720.557 647.45 720.71 647.106 721.015C646.773 721.31 646.567 721.725 646.491 722.259H650.253ZM658.179 718.927C659.123 718.927 659.886 719.227 660.468 719.828C661.049 720.419 661.34 721.248 661.34 722.316V726.965H659.338V722.588C659.338 721.959 659.181 721.477 658.866 721.144C658.551 720.8 658.122 720.629 657.579 720.629C657.026 720.629 656.587 720.8 656.263 721.144C655.948 721.477 655.791 721.959 655.791 722.588V726.965H653.788V719.041H655.791V720.028C656.058 719.685 656.396 719.418 656.806 719.227C657.226 719.027 657.684 718.927 658.179 718.927ZM665.576 720.686V724.519C665.576 724.786 665.638 724.982 665.762 725.105C665.895 725.22 666.115 725.277 666.42 725.277H667.349V726.965H666.091C664.403 726.965 663.559 726.145 663.559 724.505V720.686H662.615V719.041H663.559V717.082H665.576V719.041H667.349V720.686H665.576Z" fill="white"/>
</g>
<path d="M293.17 664.085C293.17 713.838 252.838 754.17 203.085 754.17C153.333 754.17 113 713.838 113 664.085C113 614.333 153.333 574 203.085 574C252.838 574 293.17 614.333 293.17 664.085Z" fill="#0D0D0D" stroke="#6C3A84" stroke-width="7.06551"/>
<g opacity="0.72">
<g clip-path="url(#clip0_670_3278)">
<path d="M187.778 635.141H176.033C172.734 635.141 170.049 637.861 170.049 641.204V668.694C170.049 669.364 170.585 669.906 171.246 669.906C171.907 669.906 172.443 669.364 172.443 668.694V641.204C172.443 639.198 174.054 637.566 176.033 637.566H187.778C188.439 637.566 188.974 637.023 188.974 636.353C188.974 635.683 188.439 635.141 187.778 635.141Z" fill="url(#paint7_linear_670_3278)"/>
<path d="M240.023 679.285L235.475 673.141V641.204C235.475 637.861 232.791 635.141 229.491 635.141H217.747C217.086 635.141 216.55 635.683 216.55 636.353C216.55 637.023 217.086 637.566 217.747 637.566H229.491C231.471 637.566 233.081 639.198 233.081 641.204V672.332H171.246C170.869 672.332 170.515 672.512 170.289 672.817L165.502 679.285C165.346 679.495 165.262 679.751 165.262 680.013V683.247C165.262 686.591 167.947 689.311 171.246 689.311H234.278C237.578 689.311 240.262 686.591 240.262 683.247V680.013C240.262 679.751 240.178 679.495 240.023 679.285ZM171.845 674.758H233.68L236.672 678.8H168.853L171.845 674.758ZM237.869 683.247C237.869 685.253 236.258 686.885 234.278 686.885H171.246C169.266 686.885 167.656 685.253 167.656 683.247V681.226H201.565V683.247C201.565 683.917 202.101 684.46 202.762 684.46C203.423 684.46 203.959 683.917 203.959 683.247V681.226H237.869V683.247Z" fill="url(#paint8_linear_670_3278)"/>
<path d="M211.14 635.734V615.736H211.539C212.2 615.736 212.736 615.193 212.736 614.523C212.736 613.853 212.2 613.311 211.539 613.311H193.986C193.325 613.311 192.789 613.853 192.789 614.523C192.789 615.193 193.325 615.736 193.986 615.736H194.385V635.734C188.952 638.813 185.608 644.558 185.608 650.906C185.608 660.491 193.303 668.289 202.762 668.289C212.221 668.289 219.916 660.491 219.916 650.906C219.916 644.558 216.573 638.813 211.14 635.734ZM202.762 665.864C194.623 665.864 188.002 659.154 188.002 650.906C188.002 645.227 191.113 640.107 196.121 637.545C196.524 637.339 196.778 636.921 196.778 636.463V615.736H208.746V636.463C208.746 636.92 209.001 637.339 209.404 637.545C214.412 640.107 217.523 645.227 217.523 650.906C217.523 659.154 210.901 665.864 202.762 665.864Z" fill="url(#paint9_linear_670_3278)"/>
<path d="M213.932 649.693C212.218 649.693 211.291 650.23 210.546 650.662C209.896 651.038 209.426 651.31 208.347 651.31C207.268 651.31 206.799 651.038 206.148 650.662C205.403 650.23 204.476 649.693 202.762 649.693C201.048 649.693 200.121 650.23 199.376 650.662C198.725 651.038 198.255 651.31 197.177 651.31C196.099 651.31 195.629 651.038 194.979 650.662C194.234 650.23 193.306 649.693 191.592 649.693C190.931 649.693 190.396 650.236 190.396 650.906C190.396 657.816 195.943 663.438 202.763 663.438C209.582 663.438 215.13 657.816 215.13 650.906C215.129 650.236 214.594 649.693 213.932 649.693ZM202.762 661.013C197.734 661.013 193.563 657.223 192.885 652.314C193.204 652.428 193.476 652.586 193.791 652.768C194.536 653.199 195.463 653.736 197.177 653.736C198.891 653.736 199.818 653.199 200.563 652.768C201.213 652.391 201.683 652.119 202.761 652.119C203.84 652.119 204.31 652.391 204.96 652.768C205.705 653.199 206.633 653.736 208.347 653.736C210.061 653.736 210.988 653.199 211.733 652.768C212.048 652.586 212.32 652.428 212.639 652.314C211.961 657.223 207.79 661.013 202.762 661.013Z" fill="url(#paint10_linear_670_3278)"/>
</g>
<path d="M183.767 714.981V716.598H181.107V724.965H179.104V716.598H176.444V714.981H183.767ZM192.594 720.831C192.594 721.117 192.575 721.375 192.537 721.604H186.744C186.792 722.176 186.992 722.624 187.345 722.948C187.698 723.272 188.132 723.434 188.646 723.434C189.39 723.434 189.919 723.115 190.234 722.476H192.394C192.165 723.239 191.726 723.868 191.078 724.364C190.43 724.85 189.633 725.094 188.689 725.094C187.926 725.094 187.24 724.927 186.63 724.593C186.029 724.25 185.557 723.768 185.214 723.148C184.88 722.529 184.713 721.813 184.713 721.003C184.713 720.183 184.88 719.463 185.214 718.843C185.547 718.223 186.015 717.747 186.615 717.413C187.216 717.079 187.907 716.912 188.689 716.912C189.443 716.912 190.115 717.074 190.706 717.399C191.307 717.723 191.769 718.185 192.093 718.786C192.427 719.377 192.594 720.059 192.594 720.831ZM190.52 720.259C190.511 719.744 190.325 719.334 189.962 719.029C189.6 718.714 189.157 718.557 188.632 718.557C188.136 718.557 187.717 718.71 187.373 719.015C187.04 719.31 186.835 719.725 186.758 720.259H190.52ZM197.088 725.094C196.439 725.094 195.858 724.979 195.343 724.75C194.828 724.512 194.418 724.192 194.113 723.792C193.817 723.392 193.655 722.948 193.627 722.462H195.643C195.681 722.767 195.829 723.02 196.087 723.22C196.354 723.42 196.683 723.52 197.073 723.52C197.455 723.52 197.751 723.444 197.96 723.291C198.18 723.139 198.289 722.943 198.289 722.705C198.289 722.448 198.156 722.257 197.889 722.133C197.631 721.999 197.217 721.856 196.644 721.704C196.053 721.561 195.567 721.413 195.186 721.26C194.814 721.108 194.489 720.874 194.213 720.56C193.946 720.245 193.812 719.821 193.812 719.287C193.812 718.848 193.936 718.447 194.184 718.085C194.442 717.723 194.804 717.437 195.271 717.227C195.748 717.017 196.306 716.912 196.945 716.912C197.889 716.912 198.642 717.151 199.205 717.627C199.767 718.095 200.077 718.729 200.134 719.53H198.218C198.189 719.215 198.056 718.967 197.817 718.786C197.588 718.595 197.279 718.5 196.888 718.5C196.525 718.5 196.244 718.567 196.044 718.7C195.853 718.834 195.758 719.02 195.758 719.258C195.758 719.525 195.891 719.73 196.158 719.873C196.425 720.007 196.84 720.145 197.402 720.288C197.975 720.431 198.447 720.579 198.818 720.731C199.19 720.884 199.51 721.122 199.777 721.446C200.053 721.761 200.196 722.181 200.206 722.705C200.206 723.163 200.077 723.573 199.82 723.935C199.572 724.297 199.209 724.583 198.733 724.793C198.265 724.993 197.717 725.094 197.088 725.094ZM204.181 718.686V722.519C204.181 722.786 204.243 722.982 204.367 723.105C204.5 723.22 204.72 723.277 205.025 723.277H205.954V724.965H204.696C203.008 724.965 202.164 724.145 202.164 722.505V718.686H201.22V717.041H202.164V715.082H204.181V717.041H205.954V718.686H204.181ZM208.41 716.097C208.057 716.097 207.762 715.987 207.523 715.768C207.295 715.539 207.18 715.258 207.18 714.924C207.18 714.59 207.295 714.314 207.523 714.095C207.762 713.866 208.057 713.751 208.41 713.751C208.763 713.751 209.054 713.866 209.283 714.095C209.521 714.314 209.64 714.59 209.64 714.924C209.64 715.258 209.521 715.539 209.283 715.768C209.054 715.987 208.763 716.097 208.41 716.097ZM209.397 717.041V724.965H207.395V717.041H209.397ZM215.766 716.927C216.71 716.927 217.473 717.227 218.055 717.828C218.637 718.419 218.927 719.248 218.927 720.316V724.965H216.925V720.588C216.925 719.959 216.768 719.477 216.453 719.144C216.138 718.8 215.709 718.629 215.166 718.629C214.613 718.629 214.174 718.8 213.85 719.144C213.535 719.477 213.378 719.959 213.378 720.588V724.965H211.376V717.041H213.378V718.028C213.645 717.685 213.983 717.418 214.393 717.227C214.813 717.027 215.271 716.927 215.766 716.927ZM223.935 716.912C224.527 716.912 225.046 717.032 225.494 717.27C225.943 717.499 226.295 717.799 226.553 718.171V717.041H228.569V725.022C228.569 725.756 228.422 726.409 228.126 726.982C227.831 727.563 227.387 728.021 226.796 728.355C226.205 728.698 225.49 728.87 224.65 728.87C223.525 728.87 222.6 728.607 221.876 728.083C221.161 727.558 220.755 726.843 220.66 725.937H222.648C222.753 726.3 222.977 726.586 223.32 726.796C223.673 727.015 224.097 727.125 224.593 727.125C225.175 727.125 225.647 726.948 226.009 726.595C226.372 726.252 226.553 725.728 226.553 725.022V723.792C226.295 724.164 225.938 724.474 225.48 724.722C225.032 724.97 224.517 725.094 223.935 725.094C223.268 725.094 222.658 724.922 222.105 724.579C221.552 724.235 221.113 723.754 220.789 723.134C220.474 722.505 220.317 721.785 220.317 720.974C220.317 720.173 220.474 719.463 220.789 718.843C221.113 718.223 221.547 717.747 222.09 717.413C222.643 717.079 223.258 716.912 223.935 716.912ZM226.553 721.003C226.553 720.517 226.457 720.102 226.267 719.759C226.076 719.406 225.819 719.139 225.494 718.958C225.17 718.767 224.822 718.672 224.45 718.672C224.078 718.672 223.735 718.762 223.42 718.943C223.106 719.124 222.848 719.391 222.648 719.744C222.457 720.088 222.362 720.498 222.362 720.974C222.362 721.451 222.457 721.871 222.648 722.233C222.848 722.586 223.106 722.858 223.42 723.048C223.745 723.239 224.088 723.334 224.45 723.334C224.822 723.334 225.17 723.244 225.494 723.063C225.819 722.872 226.076 722.605 226.267 722.262C226.457 721.909 226.553 721.489 226.553 721.003Z" fill="white"/>
</g>
<g filter="url(#filter0_dddddd_670_3278)">
<circle cx="307" cy="103" r="9" fill="white"/>
</g>
<path d="M311.453 102.666C312.044 102.125 311.791 101.144 311.012 100.956L304.783 99.4552C304.049 99.2785 303.392 99.9466 303.58 100.677L305.083 106.505C305.272 107.236 306.17 107.503 306.727 106.993L311.453 102.666Z" fill="#4D4D4D"/>
<g filter="url(#filter1_dddddd_670_3278)">
<circle cx="693" cy="245" r="9" fill="white"/>
</g>
<path d="M695.415 242.316C695.429 241.546 694.606 241.049 693.932 241.421L689.382 243.931C688.708 244.303 688.689 245.265 689.348 245.663L693.797 248.348C694.456 248.746 695.299 248.281 695.313 247.511L695.415 242.316Z" fill="#4D4D4D"/>
<g filter="url(#filter2_dddddd_670_3278)">
<circle cx="669.678" cy="582.678" r="9" transform="rotate(-50.0951 669.678 582.678)" fill="white"/>
</g>
<path d="M669.167 579.105C668.586 578.6 667.676 578.913 667.529 579.668L666.536 584.769C666.389 585.524 667.115 586.156 667.843 585.905L672.757 584.215C673.485 583.965 673.668 583.02 673.088 582.515L669.167 579.105Z" fill="#4D4D4D"/>
<g filter="url(#filter3_dddddd_670_3278)">
<circle cx="303.449" cy="687.449" r="9" transform="rotate(10.1796 303.449 687.449)" fill="white"/>
</g>
<path d="M306.3 685.233C306.451 684.478 305.728 683.843 304.998 684.09L300.077 685.756C299.348 686.003 299.159 686.947 299.738 687.455L303.642 690.884C304.22 691.392 305.131 691.083 305.282 690.328L306.3 685.233Z" fill="#4D4D4D"/>
<g filter="url(#filter4_dddddd_670_3278)">
<circle cx="107.16" cy="435.16" r="9" transform="rotate(82.0362 107.16 435.16)" fill="white"/>
</g>
<path d="M110.153 437.18C110.918 437.088 111.296 436.203 110.834 435.587L107.718 431.429C107.256 430.813 106.301 430.928 105.998 431.635L103.955 436.413C103.653 437.121 104.23 437.891 104.994 437.799L110.153 437.18Z" fill="#4D4D4D"/>
<path d="M184.17 333.085C184.17 382.838 143.838 423.17 94.0852 423.17C44.3325 423.17 4 382.838 4 333.085C4 283.333 44.3325 243 94.0852 243C143.838 243 184.17 283.333 184.17 333.085Z" fill="#0D0D0D" stroke="#6C3A84" stroke-width="7.06551"/>
<g opacity="0.72">
<g clip-path="url(#clip1_670_3278)">
<path d="M121.305 285.67C121.286 285.172 120.901 284.787 120.403 284.768C116.978 284.634 104.219 284.513 98.8422 289.732C98.7884 289.785 98.7434 289.833 98.6911 289.886C97.8763 290.725 90.331 298.247 88.9716 299.602C88.8321 299.741 88.6592 299.832 88.4662 299.87L76.4562 302.272C76.3281 302.298 76.2063 302.348 76.0976 302.421L70.196 306.355C69.5571 306.781 69.6167 307.738 70.3035 308.082L88.4641 317.162C88.6576 317.259 88.8145 317.416 88.9113 317.609L97.9916 335.77C98.335 336.457 99.2921 336.516 99.7181 335.877L103.652 329.976C103.725 329.867 103.775 329.745 103.801 329.617L106.203 317.607C106.242 317.414 106.332 317.241 106.471 317.102C107.826 315.742 115.348 308.197 116.187 307.382C116.241 307.33 116.289 307.285 116.341 307.231C121.561 301.854 121.439 289.095 121.305 285.67ZM106.262 302.311C104.881 302.311 103.762 301.192 103.762 299.811C103.762 298.43 104.881 297.311 106.262 297.311C107.643 297.311 108.762 298.43 108.762 299.811C108.762 301.192 107.643 302.311 106.262 302.311ZM81.2622 324.811C78.7622 322.311 73.7622 322.311 71.2622 324.811C69.246 326.827 68.8558 333.721 68.7803 336.314C68.7643 336.866 69.207 337.309 69.759 337.293C72.352 337.217 79.246 336.827 81.2622 334.811C83.7622 332.311 83.7622 327.311 81.2622 324.811Z" stroke="url(#paint11_linear_670_3278)" stroke-width="5"/>
</g>
<path d="M53.5635 367.981C54.6123 367.981 55.5325 368.186 56.3239 368.596C57.1249 369.006 57.7399 369.593 58.169 370.356C58.6076 371.109 58.8269 371.986 58.8269 372.987C58.8269 373.989 58.6076 374.866 58.169 375.619C57.7399 376.363 57.1249 376.94 56.3239 377.35C55.5325 377.76 54.6123 377.965 53.5635 377.965H50.0735V367.981H53.5635ZM53.4919 376.263C54.5408 376.263 55.3513 375.977 55.9234 375.405C56.4955 374.833 56.7816 374.027 56.7816 372.987C56.7816 371.948 56.4955 371.138 55.9234 370.556C55.3513 369.965 54.5408 369.669 53.4919 369.669H52.076V376.263H53.4919ZM67.6918 373.831C67.6918 374.117 67.6727 374.375 67.6346 374.604H61.8419C61.8896 375.176 62.0898 375.624 62.4426 375.948C62.7955 376.272 63.2293 376.434 63.7442 376.434C64.488 376.434 65.0172 376.115 65.3318 375.476H67.4916C67.2627 376.239 66.8241 376.868 66.1757 377.364C65.5273 377.85 64.7311 378.094 63.7871 378.094C63.0243 378.094 62.3378 377.927 61.7275 377.593C61.1268 377.25 60.6548 376.768 60.3115 376.148C59.9778 375.529 59.8109 374.813 59.8109 374.003C59.8109 373.183 59.9778 372.463 60.3115 371.843C60.6453 371.223 61.1125 370.747 61.7132 370.413C62.3139 370.079 63.0052 369.912 63.7871 369.912C64.5404 369.912 65.2126 370.074 65.8038 370.399C66.4046 370.723 66.867 371.185 67.1912 371.786C67.5249 372.377 67.6918 373.059 67.6918 373.831ZM65.6179 373.259C65.6084 372.744 65.4224 372.334 65.0601 372.029C64.6977 371.714 64.2544 371.557 63.7299 371.557C63.2341 371.557 62.8145 371.71 62.4713 372.015C62.1375 372.31 61.9325 372.725 61.8562 373.259H65.6179ZM71.1558 371.185C71.4132 370.823 71.7661 370.523 72.2142 370.284C72.6719 370.036 73.1916 369.912 73.7732 369.912C74.4502 369.912 75.0605 370.079 75.604 370.413C76.157 370.747 76.5909 371.223 76.9056 371.843C77.2298 372.453 77.3919 373.164 77.3919 373.974C77.3919 374.785 77.2298 375.505 76.9056 376.134C76.5909 376.754 76.157 377.235 75.604 377.579C75.0605 377.922 74.4502 378.094 73.7732 378.094C73.1916 378.094 72.6767 377.974 72.2285 377.736C71.7899 377.498 71.4323 377.197 71.1558 376.835V381.741H69.1534V370.041H71.1558V371.185ZM75.3465 373.974C75.3465 373.498 75.2464 373.088 75.0462 372.744C74.8555 372.391 74.598 372.124 74.2738 371.943C73.9592 371.762 73.6159 371.672 73.244 371.672C72.8817 371.672 72.5384 371.767 72.2142 371.958C71.8995 372.139 71.6421 372.406 71.4419 372.759C71.2511 373.111 71.1558 373.526 71.1558 374.003C71.1558 374.48 71.2511 374.894 71.4419 375.247C71.6421 375.6 71.8995 375.872 72.2142 376.063C72.5384 376.244 72.8817 376.334 73.244 376.334C73.6159 376.334 73.9592 376.239 74.2738 376.048C74.598 375.858 74.8555 375.586 75.0462 375.233C75.2464 374.88 75.3465 374.461 75.3465 373.974ZM80.8494 367.381V377.965H78.847V367.381H80.8494ZM86.3463 378.094C85.5834 378.094 84.8969 377.927 84.2866 377.593C83.6764 377.25 83.1949 376.768 82.842 376.148C82.4988 375.529 82.3271 374.813 82.3271 374.003C82.3271 373.192 82.5035 372.477 82.8563 371.858C83.2187 371.238 83.7098 370.761 84.3295 370.427C84.9493 370.084 85.6406 369.912 86.4035 369.912C87.1663 369.912 87.8576 370.084 88.4774 370.427C89.0972 370.761 89.5835 371.238 89.9363 371.858C90.2986 372.477 90.4798 373.192 90.4798 374.003C90.4798 374.813 90.2939 375.529 89.922 376.148C89.5596 376.768 89.0638 377.25 88.4345 377.593C87.8147 377.927 87.1186 378.094 86.3463 378.094ZM86.3463 376.349C86.7086 376.349 87.0471 376.263 87.3618 376.091C87.686 375.91 87.9434 375.643 88.1341 375.29C88.3248 374.937 88.4202 374.508 88.4202 374.003C88.4202 373.25 88.2199 372.673 87.8195 372.272C87.4285 371.862 86.947 371.657 86.3749 371.657C85.8027 371.657 85.3212 371.862 84.9303 372.272C84.5489 372.673 84.3582 373.25 84.3582 374.003C84.3582 374.756 84.5441 375.338 84.916 375.748C85.2974 376.148 85.7741 376.349 86.3463 376.349ZM99.5292 370.041L94.6233 381.712H92.4921L94.2085 377.765L91.0332 370.041H93.2788L95.3241 375.576L97.398 370.041H99.5292ZM110.449 369.927C111.422 369.927 112.203 370.227 112.795 370.828C113.395 371.419 113.696 372.248 113.696 373.316V377.965H111.693V373.588C111.693 372.968 111.536 372.496 111.221 372.172C110.907 371.838 110.478 371.672 109.934 371.672C109.391 371.672 108.957 371.838 108.633 372.172C108.318 372.496 108.161 372.968 108.161 373.588V377.965H106.158V373.588C106.158 372.968 106.001 372.496 105.686 372.172C105.371 371.838 104.942 371.672 104.399 371.672C103.846 371.672 103.407 371.838 103.083 372.172C102.768 372.496 102.611 372.968 102.611 373.588V377.965H100.609V370.041H102.611V370.999C102.868 370.666 103.197 370.403 103.598 370.213C104.008 370.022 104.456 369.927 104.942 369.927C105.562 369.927 106.115 370.06 106.602 370.327C107.088 370.585 107.464 370.956 107.731 371.443C107.989 370.985 108.361 370.618 108.847 370.341C109.343 370.065 109.877 369.927 110.449 369.927ZM122.962 373.831C122.962 374.117 122.943 374.375 122.905 374.604H117.112C117.16 375.176 117.36 375.624 117.713 375.948C118.066 376.272 118.499 376.434 119.014 376.434C119.758 376.434 120.287 376.115 120.602 375.476H122.762C122.533 376.239 122.094 376.868 121.446 377.364C120.797 377.85 120.001 378.094 119.057 378.094C118.294 378.094 117.608 377.927 116.998 377.593C116.397 377.25 115.925 376.768 115.582 376.148C115.248 375.529 115.081 374.813 115.081 374.003C115.081 373.183 115.248 372.463 115.582 371.843C115.915 371.223 116.383 370.747 116.983 370.413C117.584 370.079 118.275 369.912 119.057 369.912C119.81 369.912 120.483 370.074 121.074 370.399C121.675 370.723 122.137 371.185 122.461 371.786C122.795 372.377 122.962 373.059 122.962 373.831ZM120.888 373.259C120.878 372.744 120.693 372.334 120.33 372.029C119.968 371.714 119.524 371.557 119 371.557C118.504 371.557 118.085 371.71 117.741 372.015C117.408 372.31 117.203 372.725 117.126 373.259H120.888ZM128.814 369.927C129.758 369.927 130.521 370.227 131.103 370.828C131.685 371.419 131.975 372.248 131.975 373.316V377.965H129.973V373.588C129.973 372.959 129.816 372.477 129.501 372.144C129.186 371.8 128.757 371.629 128.214 371.629C127.661 371.629 127.222 371.8 126.898 372.144C126.583 372.477 126.426 372.959 126.426 373.588V377.965H124.423V370.041H126.426V371.028C126.693 370.685 127.031 370.418 127.441 370.227C127.861 370.027 128.319 369.927 128.814 369.927ZM136.211 371.686V375.519C136.211 375.786 136.273 375.982 136.397 376.105C136.53 376.22 136.75 376.277 137.055 376.277H137.985V377.965H136.726C135.038 377.965 134.194 377.145 134.194 375.505V371.686H133.25V370.041H134.194V368.082H136.211V370.041H137.985V371.686H136.211Z" fill="white"/>
</g>
<path d="M500.17 94.0852C500.17 143.838 459.838 184.17 410.085 184.17C360.333 184.17 320 143.838 320 94.0852C320 44.3325 360.333 4 410.085 4C459.838 4 500.17 44.3325 500.17 94.0852Z" fill="#0D0D0D" stroke="#6C3A84" stroke-width="7.06551"/>
<g opacity="0.72">
<g clip-path="url(#clip2_670_3278)">
<path d="M426.225 98.0053V79.0514L423.105 82.9998V98.0054C423.105 99.2098 422.125 100.19 420.92 100.19H387.884C386.68 100.19 385.7 99.2098 385.7 98.0054V57.1623C385.7 55.9578 386.68 54.9779 387.884 54.9779H388.278V94.4742C388.278 95.5081 389.117 96.3465 390.151 96.3465H418.654C419.688 96.3465 420.526 95.5081 420.526 94.4742V85.9547C419.1 87.2065 417.376 88.1039 415.516 88.541L413.599 88.9919L411.304 89.5319L411.298 87.1735L411.294 85.2041C411.288 82.5931 412.177 80.027 413.796 77.9784L420.526 69.4628V54.9779H420.92C422.125 54.9779 423.105 55.9578 423.105 57.1622V66.2L426.225 62.2516V57.1622C426.225 54.2371 423.845 51.8574 420.92 51.8574H416.789C416.841 52.1739 416.868 52.4985 416.868 52.8294V53.4176V54.9779V55.2948V57.2124H414.951H394.28H392.363V55.2948V54.9779V53.4176V52.8294C392.363 52.4985 392.39 52.1739 392.442 51.8574H387.884C384.959 51.8574 382.579 54.2371 382.579 57.1622V98.0053C382.579 100.93 384.959 103.31 387.884 103.31H420.92C423.846 103.31 426.225 100.93 426.225 98.0053ZM403.899 85.5676L396.653 92.8135C396.287 93.179 395.695 93.179 395.329 92.8135L393.186 90.6703L391.676 89.1607C391.311 88.7953 391.311 88.2025 391.676 87.8369L393.158 86.3557C393.523 85.9902 394.116 85.9902 394.481 86.3557L395.991 87.8653L401.094 82.7625C401.459 82.397 402.052 82.397 402.418 82.7625L403.899 84.2436C404.264 84.6092 404.264 85.202 403.899 85.5676ZM403.899 74.5264L396.653 81.7724C396.287 82.138 395.695 82.138 395.329 81.7724L393.186 79.6292L391.676 78.1196C391.311 77.7541 391.311 77.1614 391.676 76.7957L393.158 75.3146C393.523 74.949 394.116 74.949 394.481 75.3146L395.991 76.8242L401.094 71.7214C401.459 71.3558 402.052 71.3558 402.418 71.7214L403.899 73.2026C404.264 73.568 404.264 74.1608 403.899 74.5264ZM393.158 64.2732C393.523 63.9076 394.116 63.9076 394.481 64.2732L395.991 65.7828L401.094 60.68C401.459 60.3144 402.052 60.3144 402.418 60.68L403.899 62.1613C404.264 62.5268 404.264 63.1195 403.899 63.4851L396.653 70.7311C396.287 71.0967 395.695 71.0967 395.329 70.7311L393.186 68.5879L391.676 67.0784C391.311 66.7129 391.311 66.1201 391.676 65.7545L393.158 64.2732Z" fill="url(#paint12_linear_670_3278)"/>
<path d="M410.871 48.7502H410.055C410.055 48.4231 410.026 48.1026 409.971 47.7914C409.912 47.4604 409.823 47.14 409.707 46.8326C408.932 44.7746 406.945 43.3105 404.616 43.3105C402.286 43.3105 400.299 44.7746 399.524 46.8326C399.408 47.14 399.319 47.4604 399.26 47.7914C399.205 48.1026 399.176 48.4231 399.176 48.7502H398.36C396.442 48.7502 394.834 50.0742 394.398 51.8579C394.321 52.1695 394.28 52.4948 394.28 52.8299V53.4181V54.9784V55.2953H414.951V54.9784V53.4181V52.8299C414.951 52.4948 414.909 52.1695 414.833 51.8579C414.397 50.0742 412.789 48.7502 410.871 48.7502Z" fill="url(#paint13_linear_670_3278)"/>
<path d="M436.61 60.6786C436.648 60.6296 436.683 60.5787 436.715 60.5267C437.123 59.8631 436.979 58.9847 436.353 58.4898L435.718 57.988C435.092 57.4931 434.204 57.5562 433.653 58.1065C433.61 58.1496 433.568 58.1953 433.529 58.2443L433.055 58.8442L432.461 59.5963C432.228 59.498 431.981 59.4489 431.735 59.4489C431.182 59.449 430.634 59.6928 430.265 60.1603L426.225 65.2719L423.105 69.2203L420.526 72.483L415.265 79.14C413.901 80.8654 413.162 83.0015 413.167 85.2007L413.171 87.17L415.088 86.7191C417.229 86.2157 419.136 85.0025 420.5 83.2771L420.526 83.2439L423.105 79.9812L426.225 76.0327L435.5 64.2975C436.034 63.6219 436.027 62.6926 435.541 62.0304L436.136 61.2778L436.61 60.6786Z" fill="url(#paint14_linear_670_3278)"/>
</g>
<path d="M368.625 138.965L366.422 135.074H365.478V138.965H363.476V128.981H367.223C367.995 128.981 368.653 129.12 369.197 129.396C369.74 129.663 370.145 130.03 370.412 130.498C370.689 130.955 370.827 131.47 370.827 132.042C370.827 132.7 370.637 133.296 370.255 133.83C369.874 134.355 369.306 134.717 368.553 134.917L370.942 138.965H368.625ZM365.478 133.573H367.151C367.695 133.573 368.1 133.444 368.367 133.186C368.634 132.919 368.768 132.552 368.768 132.085C368.768 131.627 368.634 131.275 368.367 131.027C368.1 130.769 367.695 130.641 367.151 130.641H365.478V133.573ZM380.004 134.831C380.004 135.117 379.985 135.375 379.947 135.604H374.154C374.202 136.176 374.402 136.624 374.755 136.948C375.108 137.272 375.542 137.434 376.057 137.434C376.8 137.434 377.33 137.115 377.644 136.476H379.804C379.575 137.239 379.137 137.868 378.488 138.364C377.84 138.85 377.044 139.094 376.1 139.094C375.337 139.094 374.65 138.927 374.04 138.593C373.439 138.25 372.967 137.768 372.624 137.148C372.29 136.529 372.123 135.813 372.123 135.003C372.123 134.183 372.29 133.463 372.624 132.843C372.958 132.223 373.425 131.747 374.026 131.413C374.626 131.079 375.318 130.912 376.1 130.912C376.853 130.912 377.525 131.074 378.116 131.399C378.717 131.723 379.18 132.185 379.504 132.786C379.837 133.377 380.004 134.059 380.004 134.831ZM377.93 134.259C377.921 133.744 377.735 133.334 377.373 133.029C377.01 132.714 376.567 132.557 376.042 132.557C375.547 132.557 375.127 132.71 374.784 133.015C374.45 133.31 374.245 133.725 374.169 134.259H377.93ZM380.951 134.989C380.951 134.197 381.113 133.496 381.437 132.886C381.771 132.266 382.219 131.785 382.782 131.442C383.344 131.098 383.964 130.927 384.641 130.927C385.204 130.927 385.7 131.036 386.129 131.256C386.567 131.465 386.92 131.737 387.187 132.071V131.041H389.204V142.741H387.187V137.878C386.92 138.221 386.563 138.507 386.114 138.736C385.666 138.965 385.161 139.079 384.598 139.079C383.931 139.079 383.316 138.908 382.753 138.564C382.2 138.212 381.762 137.725 381.437 137.105C381.113 136.486 380.951 135.78 380.951 134.989ZM387.187 135.003C387.187 134.517 387.087 134.097 386.887 133.744C386.686 133.391 386.424 133.124 386.1 132.943C385.785 132.762 385.447 132.672 385.085 132.672C384.732 132.672 384.393 132.762 384.069 132.943C383.754 133.124 383.497 133.391 383.297 133.744C383.096 134.088 382.996 134.502 382.996 134.989C382.996 135.475 383.096 135.899 383.297 136.262C383.497 136.614 383.754 136.881 384.069 137.063C384.393 137.244 384.732 137.334 385.085 137.334C385.447 137.334 385.785 137.244 386.1 137.063C386.424 136.881 386.686 136.614 386.887 136.262C387.087 135.909 387.187 135.489 387.187 135.003ZM398.64 131.041V138.965H396.623V137.964C396.366 138.307 396.027 138.579 395.608 138.779C395.198 138.97 394.75 139.065 394.263 139.065C393.643 139.065 393.095 138.936 392.618 138.679C392.142 138.412 391.765 138.026 391.488 137.52C391.221 137.005 391.088 136.395 391.088 135.689V131.041H393.09V135.403C393.09 136.033 393.248 136.519 393.562 136.862C393.877 137.196 394.306 137.363 394.85 137.363C395.403 137.363 395.837 137.196 396.151 136.862C396.466 136.519 396.623 136.033 396.623 135.403V131.041H398.64ZM401.631 130.097C401.278 130.097 400.983 129.987 400.744 129.768C400.515 129.539 400.401 129.258 400.401 128.924C400.401 128.59 400.515 128.314 400.744 128.095C400.983 127.866 401.278 127.751 401.631 127.751C401.984 127.751 402.275 127.866 402.504 128.095C402.742 128.314 402.861 128.59 402.861 128.924C402.861 129.258 402.742 129.539 402.504 129.768C402.275 129.987 401.984 130.097 401.631 130.097ZM402.618 131.041V138.965H400.616V131.041H402.618ZM406.599 132.271C406.856 131.852 407.19 131.523 407.6 131.284C408.02 131.046 408.496 130.927 409.03 130.927V133.029H408.501C407.872 133.029 407.395 133.177 407.071 133.473C406.756 133.768 406.599 134.283 406.599 135.017V138.965H404.596V131.041H406.599V132.271ZM417.745 134.831C417.745 135.117 417.726 135.375 417.688 135.604H411.895C411.943 136.176 412.143 136.624 412.496 136.948C412.849 137.272 413.282 137.434 413.797 137.434C414.541 137.434 415.07 137.115 415.385 136.476H417.545C417.316 137.239 416.877 137.868 416.229 138.364C415.58 138.85 414.784 139.094 413.84 139.094C413.077 139.094 412.391 138.927 411.781 138.593C411.18 138.25 410.708 137.768 410.365 137.148C410.031 136.529 409.864 135.813 409.864 135.003C409.864 134.183 410.031 133.463 410.365 132.843C410.698 132.223 411.166 131.747 411.766 131.413C412.367 131.079 413.058 130.912 413.84 130.912C414.594 130.912 415.266 131.074 415.857 131.399C416.458 131.723 416.92 132.185 417.244 132.786C417.578 133.377 417.745 134.059 417.745 134.831ZM415.671 134.259C415.662 133.744 415.476 133.334 415.113 133.029C414.751 132.714 414.308 132.557 413.783 132.557C413.287 132.557 412.868 132.71 412.524 133.015C412.191 133.31 411.986 133.725 411.909 134.259H415.671ZM429.047 130.927C430.02 130.927 430.801 131.227 431.393 131.828C431.993 132.419 432.294 133.248 432.294 134.316V138.965H430.291V134.588C430.291 133.968 430.134 133.496 429.819 133.172C429.505 132.838 429.076 132.672 428.532 132.672C427.989 132.672 427.555 132.838 427.231 133.172C426.916 133.496 426.759 133.968 426.759 134.588V138.965H424.756V134.588C424.756 133.968 424.599 133.496 424.284 133.172C423.969 132.838 423.54 132.672 422.997 132.672C422.444 132.672 422.005 132.838 421.681 133.172C421.366 133.496 421.209 133.968 421.209 134.588V138.965H419.207V131.041H421.209V131.999C421.466 131.666 421.795 131.403 422.196 131.213C422.606 131.022 423.054 130.927 423.54 130.927C424.16 130.927 424.713 131.06 425.199 131.327C425.686 131.585 426.062 131.956 426.329 132.443C426.587 131.985 426.959 131.618 427.445 131.341C427.941 131.065 428.475 130.927 429.047 130.927ZM441.56 134.831C441.56 135.117 441.541 135.375 441.503 135.604H435.71C435.758 136.176 435.958 136.624 436.311 136.948C436.664 137.272 437.097 137.434 437.612 137.434C438.356 137.434 438.885 137.115 439.2 136.476H441.36C441.131 137.239 440.692 137.868 440.044 138.364C439.395 138.85 438.599 139.094 437.655 139.094C436.892 139.094 436.206 138.927 435.596 138.593C434.995 138.25 434.523 137.768 434.18 137.148C433.846 136.529 433.679 135.813 433.679 135.003C433.679 134.183 433.846 133.463 434.18 132.843C434.513 132.223 434.981 131.747 435.581 131.413C436.182 131.079 436.873 130.912 437.655 130.912C438.408 130.912 439.081 131.074 439.672 131.399C440.273 131.723 440.735 132.185 441.059 132.786C441.393 133.377 441.56 134.059 441.56 134.831ZM439.486 134.259C439.476 133.744 439.291 133.334 438.928 133.029C438.566 132.714 438.122 132.557 437.598 132.557C437.102 132.557 436.683 132.71 436.339 133.015C436.006 133.31 435.801 133.725 435.724 134.259H439.486ZM447.412 130.927C448.356 130.927 449.119 131.227 449.701 131.828C450.283 132.419 450.573 133.248 450.573 134.316V138.965H448.571V134.588C448.571 133.959 448.414 133.477 448.099 133.144C447.784 132.8 447.355 132.629 446.812 132.629C446.259 132.629 445.82 132.8 445.496 133.144C445.181 133.477 445.024 133.959 445.024 134.588V138.965H443.021V131.041H445.024V132.028C445.291 131.685 445.629 131.418 446.039 131.227C446.459 131.027 446.917 130.927 447.412 130.927ZM454.809 132.686V136.519C454.809 136.786 454.871 136.982 454.995 137.105C455.128 137.22 455.348 137.277 455.653 137.277H456.583V138.965H455.324C453.636 138.965 452.792 138.145 452.792 136.505V132.686H451.848V131.041H452.792V129.082H454.809V131.041H456.583V132.686H454.809ZM379.708 155.974C379.708 155.173 379.865 154.463 380.18 153.843C380.504 153.223 380.938 152.747 381.481 152.413C382.035 152.079 382.65 151.912 383.327 151.912C383.918 151.912 384.433 152.032 384.871 152.27C385.319 152.508 385.677 152.809 385.944 153.171V152.041H387.961V159.965H385.944V158.806C385.687 159.178 385.329 159.488 384.871 159.736C384.423 159.974 383.903 160.094 383.312 160.094C382.645 160.094 382.035 159.922 381.481 159.579C380.938 159.235 380.504 158.754 380.18 158.134C379.865 157.505 379.708 156.785 379.708 155.974ZM385.944 156.003C385.944 155.517 385.849 155.102 385.658 154.759C385.467 154.406 385.21 154.139 384.886 153.958C384.561 153.767 384.213 153.672 383.841 153.672C383.47 153.672 383.126 153.762 382.812 153.943C382.497 154.124 382.24 154.391 382.039 154.744C381.849 155.088 381.753 155.498 381.753 155.974C381.753 156.451 381.849 156.871 382.039 157.233C382.24 157.586 382.497 157.858 382.812 158.048C383.136 158.239 383.479 158.334 383.841 158.334C384.213 158.334 384.561 158.244 384.886 158.063C385.21 157.872 385.467 157.605 385.658 157.262C385.849 156.909 385.944 156.489 385.944 156.003ZM394.307 151.927C395.251 151.927 396.014 152.227 396.596 152.828C397.177 153.419 397.468 154.248 397.468 155.316V159.965H395.466V155.588C395.466 154.959 395.309 154.477 394.994 154.144C394.679 153.8 394.25 153.629 393.707 153.629C393.154 153.629 392.715 153.8 392.391 154.144C392.076 154.477 391.919 154.959 391.919 155.588V159.965H389.916V152.041H391.919V153.028C392.186 152.685 392.524 152.418 392.934 152.227C393.354 152.027 393.812 151.927 394.307 151.927ZM398.858 155.974C398.858 155.173 399.015 154.463 399.33 153.843C399.654 153.223 400.088 152.747 400.631 152.413C401.184 152.079 401.799 151.912 402.476 151.912C403.067 151.912 403.582 152.032 404.021 152.27C404.469 152.508 404.827 152.809 405.094 153.171V152.041H407.11V159.965H405.094V158.806C404.836 159.178 404.479 159.488 404.021 159.736C403.573 159.974 403.053 160.094 402.462 160.094C401.794 160.094 401.184 159.922 400.631 159.579C400.088 159.235 399.654 158.754 399.33 158.134C399.015 157.505 398.858 156.785 398.858 155.974ZM405.094 156.003C405.094 155.517 404.998 155.102 404.808 154.759C404.617 154.406 404.359 154.139 404.035 153.958C403.711 153.767 403.363 153.672 402.991 153.672C402.619 153.672 402.276 153.762 401.961 153.943C401.647 154.124 401.389 154.391 401.189 154.744C400.998 155.088 400.903 155.498 400.903 155.974C400.903 156.451 400.998 156.871 401.189 157.233C401.389 157.586 401.647 157.858 401.961 158.048C402.286 158.239 402.629 158.334 402.991 158.334C403.363 158.334 403.711 158.244 404.035 158.063C404.359 157.872 404.617 157.605 404.808 157.262C404.998 156.909 405.094 156.489 405.094 156.003ZM411.068 149.381V159.965H409.066V149.381H411.068ZM420.627 152.041L415.721 163.712H413.59L415.307 159.765L412.131 152.041H414.377L416.422 157.576L418.496 152.041H420.627ZM424.739 160.094C424.091 160.094 423.509 159.979 422.994 159.75C422.479 159.512 422.069 159.192 421.764 158.792C421.468 158.392 421.306 157.948 421.278 157.462H423.294C423.333 157.767 423.48 158.02 423.738 158.22C424.005 158.42 424.334 158.52 424.725 158.52C425.106 158.52 425.402 158.444 425.611 158.291C425.831 158.139 425.94 157.943 425.94 157.705C425.94 157.448 425.807 157.257 425.54 157.133C425.283 156.999 424.868 156.856 424.296 156.704C423.704 156.561 423.218 156.413 422.837 156.26C422.465 156.108 422.141 155.874 421.864 155.56C421.597 155.245 421.464 154.821 421.464 154.287C421.464 153.848 421.588 153.447 421.836 153.085C422.093 152.723 422.455 152.437 422.923 152.227C423.399 152.017 423.957 151.912 424.596 151.912C425.54 151.912 426.293 152.151 426.856 152.627C427.418 153.095 427.728 153.729 427.786 154.53H425.869C425.84 154.215 425.707 153.967 425.468 153.786C425.24 153.595 424.93 153.5 424.539 153.5C424.176 153.5 423.895 153.567 423.695 153.7C423.504 153.834 423.409 154.02 423.409 154.258C423.409 154.525 423.542 154.73 423.809 154.873C424.076 155.007 424.491 155.145 425.054 155.288C425.626 155.431 426.098 155.579 426.47 155.731C426.842 155.884 427.161 156.122 427.428 156.446C427.704 156.761 427.848 157.181 427.857 157.705C427.857 158.163 427.728 158.573 427.471 158.935C427.223 159.297 426.861 159.583 426.384 159.793C425.917 159.993 425.368 160.094 424.739 160.094ZM430.516 151.097C430.163 151.097 429.868 150.987 429.629 150.768C429.401 150.539 429.286 150.258 429.286 149.924C429.286 149.59 429.401 149.314 429.629 149.095C429.868 148.866 430.163 148.751 430.516 148.751C430.869 148.751 431.16 148.866 431.389 149.095C431.627 149.314 431.746 149.59 431.746 149.924C431.746 150.258 431.627 150.539 431.389 150.768C431.16 150.987 430.869 151.097 430.516 151.097ZM431.503 152.041V159.965H429.501V152.041H431.503ZM436.514 160.094C435.865 160.094 435.284 159.979 434.769 159.75C434.254 159.512 433.844 159.192 433.539 158.792C433.243 158.392 433.081 157.948 433.052 157.462H435.069C435.107 157.767 435.255 158.02 435.513 158.22C435.78 158.42 436.109 158.52 436.499 158.52C436.881 158.52 437.176 158.444 437.386 158.291C437.606 158.139 437.715 157.943 437.715 157.705C437.715 157.448 437.582 157.257 437.315 157.133C437.057 156.999 436.642 156.856 436.07 156.704C435.479 156.561 434.993 156.413 434.611 156.26C434.24 156.108 433.915 155.874 433.639 155.56C433.372 155.245 433.238 154.821 433.238 154.287C433.238 153.848 433.362 153.447 433.61 153.085C433.868 152.723 434.23 152.437 434.697 152.227C435.174 152.017 435.732 151.912 436.371 151.912C437.315 151.912 438.068 152.151 438.631 152.627C439.193 153.095 439.503 153.729 439.56 154.53H437.644C437.615 154.215 437.482 153.967 437.243 153.786C437.014 153.595 436.704 153.5 436.314 153.5C435.951 153.5 435.67 153.567 435.47 153.7C435.279 153.834 435.184 154.02 435.184 154.258C435.184 154.525 435.317 154.73 435.584 154.873C435.851 155.007 436.266 155.145 436.828 155.288C437.401 155.431 437.873 155.579 438.244 155.731C438.616 155.884 438.936 156.122 439.203 156.446C439.479 156.761 439.622 157.181 439.632 157.705C439.632 158.163 439.503 158.573 439.246 158.935C438.998 159.297 438.635 159.583 438.159 159.793C437.691 159.993 437.143 160.094 436.514 160.094Z" fill="white"/>
</g>
<defs>
<filter id="filter0_dddddd_670_3278" x="207.28" y="3.28" width="199.44" height="199.44" filterUnits="userSpaceOnUse" color-interpolation-filters="sRGB">
<feFlood flood-opacity="0" result="BackgroundImageFix"/>
<feColorMatrix in="SourceAlpha" type="matrix" values="0 0 0 0 0 0 0 0 0 0 0 0 0 0 0 0 0 0 127 0" result="hardAlpha"/>
<feOffset/>
<feGaussianBlur stdDeviation="1.08"/>
<feColorMatrix type="matrix" values="0 0 0 0 0.760784 0 0 0 0 0.431373 0 0 0 0 0.968627 0 0 0 1 0"/>
<feBlend mode="normal" in2="BackgroundImageFix" result="effect1_dropShadow_670_3278"/>
<feColorMatrix in="SourceAlpha" type="matrix" values="0 0 0 0 0 0 0 0 0 0 0 0 0 0 0 0 0 0 127 0" result="hardAlpha"/>
<feOffset/>
<feGaussianBlur stdDeviation="2.16"/>
<feColorMatrix type="matrix" values="0 0 0 0 0.760784 0 0 0 0 0.431373 0 0 0 0 0.968627 0 0 0 1 0"/>
<feBlend mode="normal" in2="effect1_dropShadow_670_3278" result="effect2_dropShadow_670_3278"/>
<feColorMatrix in="SourceAlpha" type="matrix" values="0 0 0 0 0 0 0 0 0 0 0 0 0 0 0 0 0 0 127 0" result="hardAlpha"/>
<feOffset/>
<feGaussianBlur stdDeviation="7.56"/>
<feColorMatrix type="matrix" values="0 0 0 0 0.760784 0 0 0 0 0.431373 0 0 0 0 0.968627 0 0 0 1 0"/>
<feBlend mode="normal" in2="effect2_dropShadow_670_3278" result="effect3_dropShadow_670_3278"/>
<feColorMatrix in="SourceAlpha" type="matrix" values="0 0 0 0 0 0 0 0 0 0 0 0 0 0 0 0 0 0 127 0" result="hardAlpha"/>
<feOffset/>
<feGaussianBlur stdDeviation="15.12"/>
<feColorMatrix type="matrix" values="0 0 0 0 0.760784 0 0 0 0 0.431373 0 0 0 0 0.968627 0 0 0 1 0"/>
<feBlend mode="normal" in2="effect3_dropShadow_670_3278" result="effect4_dropShadow_670_3278"/>
<feColorMatrix in="SourceAlpha" type="matrix" values="0 0 0 0 0 0 0 0 0 0 0 0 0 0 0 0 0 0 127 0" result="hardAlpha"/>
<feOffset/>
<feGaussianBlur stdDeviation="25.92"/>
<feColorMatrix type="matrix" values="0 0 0 0 0.760784 0 0 0 0 0.431373 0 0 0 0 0.968627 0 0 0 1 0"/>
<feBlend mode="normal" in2="effect4_dropShadow_670_3278" result="effect5_dropShadow_670_3278"/>
<feColorMatrix in="SourceAlpha" type="matrix" values="0 0 0 0 0 0 0 0 0 0 0 0 0 0 0 0 0 0 127 0" result="hardAlpha"/>
<feOffset/>
<feGaussianBlur stdDeviation="45.36"/>
<feColorMatrix type="matrix" values="0 0 0 0 0.760784 0 0 0 0 0.431373 0 0 0 0 0.968627 0 0 0 1 0"/>
<feBlend mode="normal" in2="effect5_dropShadow_670_3278" result="effect6_dropShadow_670_3278"/>
<feBlend mode="normal" in="SourceGraphic" in2="effect6_dropShadow_670_3278" result="shape"/>
</filter>
<filter id="filter1_dddddd_670_3278" x="593.28" y="145.28" width="199.44" height="199.44" filterUnits="userSpaceOnUse" color-interpolation-filters="sRGB">
<feFlood flood-opacity="0" result="BackgroundImageFix"/>
<feColorMatrix in="SourceAlpha" type="matrix" values="0 0 0 0 0 0 0 0 0 0 0 0 0 0 0 0 0 0 127 0" result="hardAlpha"/>
<feOffset/>
<feGaussianBlur stdDeviation="1.08"/>
<feColorMatrix type="matrix" values="0 0 0 0 0.760784 0 0 0 0 0.431373 0 0 0 0 0.968627 0 0 0 1 0"/>
<feBlend mode="normal" in2="BackgroundImageFix" result="effect1_dropShadow_670_3278"/>
<feColorMatrix in="SourceAlpha" type="matrix" values="0 0 0 0 0 0 0 0 0 0 0 0 0 0 0 0 0 0 127 0" result="hardAlpha"/>
<feOffset/>
<feGaussianBlur stdDeviation="2.16"/>
<feColorMatrix type="matrix" values="0 0 0 0 0.760784 0 0 0 0 0.431373 0 0 0 0 0.968627 0 0 0 1 0"/>
<feBlend mode="normal" in2="effect1_dropShadow_670_3278" result="effect2_dropShadow_670_3278"/>
<feColorMatrix in="SourceAlpha" type="matrix" values="0 0 0 0 0 0 0 0 0 0 0 0 0 0 0 0 0 0 127 0" result="hardAlpha"/>
<feOffset/>
<feGaussianBlur stdDeviation="7.56"/>
<feColorMatrix type="matrix" values="0 0 0 0 0.760784 0 0 0 0 0.431373 0 0 0 0 0.968627 0 0 0 1 0"/>
<feBlend mode="normal" in2="effect2_dropShadow_670_3278" result="effect3_dropShadow_670_3278"/>
<feColorMatrix in="SourceAlpha" type="matrix" values="0 0 0 0 0 0 0 0 0 0 0 0 0 0 0 0 0 0 127 0" result="hardAlpha"/>
<feOffset/>
<feGaussianBlur stdDeviation="15.12"/>
<feColorMatrix type="matrix" values="0 0 0 0 0.760784 0 0 0 0 0.431373 0 0 0 0 0.968627 0 0 0 1 0"/>
<feBlend mode="normal" in2="effect3_dropShadow_670_3278" result="effect4_dropShadow_670_3278"/>
<feColorMatrix in="SourceAlpha" type="matrix" values="0 0 0 0 0 0 0 0 0 0 0 0 0 0 0 0 0 0 127 0" result="hardAlpha"/>
<feOffset/>
<feGaussianBlur stdDeviation="25.92"/>
<feColorMatrix type="matrix" values="0 0 0 0 0.760784 0 0 0 0 0.431373 0 0 0 0 0.968627 0 0 0 1 0"/>
<feBlend mode="normal" in2="effect4_dropShadow_670_3278" result="effect5_dropShadow_670_3278"/>
<feColorMatrix in="SourceAlpha" type="matrix" values="0 0 0 0 0 0 0 0 0 0 0 0 0 0 0 0 0 0 127 0" result="hardAlpha"/>
<feOffset/>
<feGaussianBlur stdDeviation="45.36"/>
<feColorMatrix type="matrix" values="0 0 0 0 0.760784 0 0 0 0 0.431373 0 0 0 0 0.968627 0 0 0 1 0"/>
<feBlend mode="normal" in2="effect5_dropShadow_670_3278" result="effect6_dropShadow_670_3278"/>
<feBlend mode="normal" in="SourceGraphic" in2="effect6_dropShadow_670_3278" result="shape"/>
</filter>
<filter id="filter2_dddddd_670_3278" x="569.957" y="482.958" width="199.44" height="199.44" filterUnits="userSpaceOnUse" color-interpolation-filters="sRGB">
<feFlood flood-opacity="0" result="BackgroundImageFix"/>
<feColorMatrix in="SourceAlpha" type="matrix" values="0 0 0 0 0 0 0 0 0 0 0 0 0 0 0 0 0 0 127 0" result="hardAlpha"/>
<feOffset/>
<feGaussianBlur stdDeviation="1.08"/>
<feColorMatrix type="matrix" values="0 0 0 0 0.760784 0 0 0 0 0.431373 0 0 0 0 0.968627 0 0 0 1 0"/>
<feBlend mode="normal" in2="BackgroundImageFix" result="effect1_dropShadow_670_3278"/>
<feColorMatrix in="SourceAlpha" type="matrix" values="0 0 0 0 0 0 0 0 0 0 0 0 0 0 0 0 0 0 127 0" result="hardAlpha"/>
<feOffset/>
<feGaussianBlur stdDeviation="2.16"/>
<feColorMatrix type="matrix" values="0 0 0 0 0.760784 0 0 0 0 0.431373 0 0 0 0 0.968627 0 0 0 1 0"/>
<feBlend mode="normal" in2="effect1_dropShadow_670_3278" result="effect2_dropShadow_670_3278"/>
<feColorMatrix in="SourceAlpha" type="matrix" values="0 0 0 0 0 0 0 0 0 0 0 0 0 0 0 0 0 0 127 0" result="hardAlpha"/>
<feOffset/>
<feGaussianBlur stdDeviation="7.56"/>
<feColorMatrix type="matrix" values="0 0 0 0 0.760784 0 0 0 0 0.431373 0 0 0 0 0.968627 0 0 0 1 0"/>
<feBlend mode="normal" in2="effect2_dropShadow_670_3278" result="effect3_dropShadow_670_3278"/>
<feColorMatrix in="SourceAlpha" type="matrix" values="0 0 0 0 0 0 0 0 0 0 0 0 0 0 0 0 0 0 127 0" result="hardAlpha"/>
<feOffset/>
<feGaussianBlur stdDeviation="15.12"/>
<feColorMatrix type="matrix" values="0 0 0 0 0.760784 0 0 0 0 0.431373 0 0 0 0 0.968627 0 0 0 1 0"/>
<feBlend mode="normal" in2="effect3_dropShadow_670_3278" result="effect4_dropShadow_670_3278"/>
<feColorMatrix in="SourceAlpha" type="matrix" values="0 0 0 0 0 0 0 0 0 0 0 0 0 0 0 0 0 0 127 0" result="hardAlpha"/>
<feOffset/>
<feGaussianBlur stdDeviation="25.92"/>
<feColorMatrix type="matrix" values="0 0 0 0 0.760784 0 0 0 0 0.431373 0 0 0 0 0.968627 0 0 0 1 0"/>
<feBlend mode="normal" in2="effect4_dropShadow_670_3278" result="effect5_dropShadow_670_3278"/>
<feColorMatrix in="SourceAlpha" type="matrix" values="0 0 0 0 0 0 0 0 0 0 0 0 0 0 0 0 0 0 127 0" result="hardAlpha"/>
<feOffset/>
<feGaussianBlur stdDeviation="45.36"/>
<feColorMatrix type="matrix" values="0 0 0 0 0.760784 0 0 0 0 0.431373 0 0 0 0 0.968627 0 0 0 1 0"/>
<feBlend mode="normal" in2="effect5_dropShadow_670_3278" result="effect6_dropShadow_670_3278"/>
<feBlend mode="normal" in="SourceGraphic" in2="effect6_dropShadow_670_3278" result="shape"/>
</filter>
<filter id="filter3_dddddd_670_3278" x="203.727" y="587.727" width="199.443" height="199.444" filterUnits="userSpaceOnUse" color-interpolation-filters="sRGB">
<feFlood flood-opacity="0" result="BackgroundImageFix"/>
<feColorMatrix in="SourceAlpha" type="matrix" values="0 0 0 0 0 0 0 0 0 0 0 0 0 0 0 0 0 0 127 0" result="hardAlpha"/>
<feOffset/>
<feGaussianBlur stdDeviation="1.08"/>
<feColorMatrix type="matrix" values="0 0 0 0 0.760784 0 0 0 0 0.431373 0 0 0 0 0.968627 0 0 0 1 0"/>
<feBlend mode="normal" in2="BackgroundImageFix" result="effect1_dropShadow_670_3278"/>
<feColorMatrix in="SourceAlpha" type="matrix" values="0 0 0 0 0 0 0 0 0 0 0 0 0 0 0 0 0 0 127 0" result="hardAlpha"/>
<feOffset/>
<feGaussianBlur stdDeviation="2.16"/>
<feColorMatrix type="matrix" values="0 0 0 0 0.760784 0 0 0 0 0.431373 0 0 0 0 0.968627 0 0 0 1 0"/>
<feBlend mode="normal" in2="effect1_dropShadow_670_3278" result="effect2_dropShadow_670_3278"/>
<feColorMatrix in="SourceAlpha" type="matrix" values="0 0 0 0 0 0 0 0 0 0 0 0 0 0 0 0 0 0 127 0" result="hardAlpha"/>
<feOffset/>
<feGaussianBlur stdDeviation="7.56"/>
<feColorMatrix type="matrix" values="0 0 0 0 0.760784 0 0 0 0 0.431373 0 0 0 0 0.968627 0 0 0 1 0"/>
<feBlend mode="normal" in2="effect2_dropShadow_670_3278" result="effect3_dropShadow_670_3278"/>
<feColorMatrix in="SourceAlpha" type="matrix" values="0 0 0 0 0 0 0 0 0 0 0 0 0 0 0 0 0 0 127 0" result="hardAlpha"/>
<feOffset/>
<feGaussianBlur stdDeviation="15.12"/>
<feColorMatrix type="matrix" values="0 0 0 0 0.760784 0 0 0 0 0.431373 0 0 0 0 0.968627 0 0 0 1 0"/>
<feBlend mode="normal" in2="effect3_dropShadow_670_3278" result="effect4_dropShadow_670_3278"/>
<feColorMatrix in="SourceAlpha" type="matrix" values="0 0 0 0 0 0 0 0 0 0 0 0 0 0 0 0 0 0 127 0" result="hardAlpha"/>
<feOffset/>
<feGaussianBlur stdDeviation="25.92"/>
<feColorMatrix type="matrix" values="0 0 0 0 0.760784 0 0 0 0 0.431373 0 0 0 0 0.968627 0 0 0 1 0"/>
<feBlend mode="normal" in2="effect4_dropShadow_670_3278" result="effect5_dropShadow_670_3278"/>
<feColorMatrix in="SourceAlpha" type="matrix" values="0 0 0 0 0 0 0 0 0 0 0 0 0 0 0 0 0 0 127 0" result="hardAlpha"/>
<feOffset/>
<feGaussianBlur stdDeviation="45.36"/>
<feColorMatrix type="matrix" values="0 0 0 0 0.760784 0 0 0 0 0.431373 0 0 0 0 0.968627 0 0 0 1 0"/>
<feBlend mode="normal" in2="effect5_dropShadow_670_3278" result="effect6_dropShadow_670_3278"/>
<feBlend mode="normal" in="SourceGraphic" in2="effect6_dropShadow_670_3278" result="shape"/>
</filter>
<filter id="filter4_dddddd_670_3278" x="7.43906" y="335.438" width="199.442" height="199.444" filterUnits="userSpaceOnUse" color-interpolation-filters="sRGB">
<feFlood flood-opacity="0" result="BackgroundImageFix"/>
<feColorMatrix in="SourceAlpha" type="matrix" values="0 0 0 0 0 0 0 0 0 0 0 0 0 0 0 0 0 0 127 0" result="hardAlpha"/>
<feOffset/>
<feGaussianBlur stdDeviation="1.08"/>
<feColorMatrix type="matrix" values="0 0 0 0 0.760784 0 0 0 0 0.431373 0 0 0 0 0.968627 0 0 0 1 0"/>
<feBlend mode="normal" in2="BackgroundImageFix" result="effect1_dropShadow_670_3278"/>
<feColorMatrix in="SourceAlpha" type="matrix" values="0 0 0 0 0 0 0 0 0 0 0 0 0 0 0 0 0 0 127 0" result="hardAlpha"/>
<feOffset/>
<feGaussianBlur stdDeviation="2.16"/>
<feColorMatrix type="matrix" values="0 0 0 0 0.760784 0 0 0 0 0.431373 0 0 0 0 0.968627 0 0 0 1 0"/>
<feBlend mode="normal" in2="effect1_dropShadow_670_3278" result="effect2_dropShadow_670_3278"/>
<feColorMatrix in="SourceAlpha" type="matrix" values="0 0 0 0 0 0 0 0 0 0 0 0 0 0 0 0 0 0 127 0" result="hardAlpha"/>
<feOffset/>
<feGaussianBlur stdDeviation="7.56"/>
<feColorMatrix type="matrix" values="0 0 0 0 0.760784 0 0 0 0 0.431373 0 0 0 0 0.968627 0 0 0 1 0"/>
<feBlend mode="normal" in2="effect2_dropShadow_670_3278" result="effect3_dropShadow_670_3278"/>
<feColorMatrix in="SourceAlpha" type="matrix" values="0 0 0 0 0 0 0 0 0 0 0 0 0 0 0 0 0 0 127 0" result="hardAlpha"/>
<feOffset/>
<feGaussianBlur stdDeviation="15.12"/>
<feColorMatrix type="matrix" values="0 0 0 0 0.760784 0 0 0 0 0.431373 0 0 0 0 0.968627 0 0 0 1 0"/>
<feBlend mode="normal" in2="effect3_dropShadow_670_3278" result="effect4_dropShadow_670_3278"/>
<feColorMatrix in="SourceAlpha" type="matrix" values="0 0 0 0 0 0 0 0 0 0 0 0 0 0 0 0 0 0 127 0" result="hardAlpha"/>
<feOffset/>
<feGaussianBlur stdDeviation="25.92"/>
<feColorMatrix type="matrix" values="0 0 0 0 0.760784 0 0 0 0 0.431373 0 0 0 0 0.968627 0 0 0 1 0"/>
<feBlend mode="normal" in2="effect4_dropShadow_670_3278" result="effect5_dropShadow_670_3278"/>
<feColorMatrix in="SourceAlpha" type="matrix" values="0 0 0 0 0 0 0 0 0 0 0 0 0 0 0 0 0 0 127 0" result="hardAlpha"/>
<feOffset/>
<feGaussianBlur stdDeviation="45.36"/>
<feColorMatrix type="matrix" values="0 0 0 0 0.760784 0 0 0 0 0.431373 0 0 0 0 0.968627 0 0 0 1 0"/>
<feBlend mode="normal" in2="effect5_dropShadow_670_3278" result="effect6_dropShadow_670_3278"/>
<feBlend mode="normal" in="SourceGraphic" in2="effect6_dropShadow_670_3278" result="shape"/>
</filter>
<linearGradient id="paint0_linear_670_3278" x1="690.73" y1="336.428" x2="737.155" y2="335.822" gradientUnits="userSpaceOnUse">
<stop stop-color="#CF69FF"/>
<stop offset="1" stop-color="#6356EF"/>
</linearGradient>
<linearGradient id="paint1_linear_670_3278" x1="704.004" y1="358.877" x2="725.949" y2="358.591" gradientUnits="userSpaceOnUse">
<stop stop-color="#CF69FF"/>
<stop offset="1" stop-color="#6356EF"/>
</linearGradient>
<linearGradient id="paint2_linear_670_3278" x1="735.225" y1="293.384" x2="735.008" y2="339.813" gradientUnits="userSpaceOnUse">
<stop stop-color="#CF69FF"/>
<stop offset="1" stop-color="#6356EF"/>
</linearGradient>
<linearGradient id="paint3_linear_670_3278" x1="730.503" y1="336.69" x2="739.398" y2="336.574" gradientUnits="userSpaceOnUse">
<stop stop-color="#CF69FF"/>
<stop offset="1" stop-color="#6356EF"/>
</linearGradient>
<linearGradient id="paint4_linear_670_3278" x1="736.294" y1="303.26" x2="736.294" y2="327.26" gradientUnits="userSpaceOnUse">
<stop stop-color="#CF69FF"/>
<stop offset="1" stop-color="#6356EF"/>
</linearGradient>
<linearGradient id="paint5_linear_670_3278" x1="706.131" y1="324.264" x2="706.131" y2="348.264" gradientUnits="userSpaceOnUse">
<stop stop-color="#CF69FF"/>
<stop offset="1" stop-color="#6356EF"/>
</linearGradient>
<linearGradient id="paint6_linear_670_3278" x1="618.787" y1="634" x2="618.787" y2="677" gradientUnits="userSpaceOnUse">
<stop stop-color="#CF69FF"/>
<stop offset="1" stop-color="#6356EF"/>
</linearGradient>
<linearGradient id="paint7_linear_670_3278" x1="179.512" y1="635.141" x2="179.512" y2="669.906" gradientUnits="userSpaceOnUse">
<stop stop-color="#CF69FF"/>
<stop offset="1" stop-color="#6356EF"/>
</linearGradient>
<linearGradient id="paint8_linear_670_3278" x1="202.762" y1="635.141" x2="202.762" y2="689.311" gradientUnits="userSpaceOnUse">
<stop stop-color="#CF69FF"/>
<stop offset="1" stop-color="#6356EF"/>
</linearGradient>
<linearGradient id="paint9_linear_670_3278" x1="202.762" y1="613.311" x2="202.762" y2="668.289" gradientUnits="userSpaceOnUse">
<stop stop-color="#CF69FF"/>
<stop offset="1" stop-color="#6356EF"/>
</linearGradient>
<linearGradient id="paint10_linear_670_3278" x1="202.763" y1="649.693" x2="202.763" y2="663.438" gradientUnits="userSpaceOnUse">
<stop stop-color="#CF69FF"/>
<stop offset="1" stop-color="#6356EF"/>
</linearGradient>
<linearGradient id="paint11_linear_670_3278" x1="95.0545" y1="284.727" x2="95.0545" y2="337.311" gradientUnits="userSpaceOnUse">
<stop stop-color="#CF69FF"/>
<stop offset="1" stop-color="#6356EF"/>
</linearGradient>
<linearGradient id="paint12_linear_670_3278" x1="404.402" y1="51.8574" x2="404.402" y2="103.31" gradientUnits="userSpaceOnUse">
<stop stop-color="#CF69FF"/>
<stop offset="1" stop-color="#6356EF"/>
</linearGradient>
<linearGradient id="paint13_linear_670_3278" x1="404.615" y1="43.3105" x2="404.615" y2="55.2953" gradientUnits="userSpaceOnUse">
<stop stop-color="#CF69FF"/>
<stop offset="1" stop-color="#6356EF"/>
</linearGradient>
<linearGradient id="paint14_linear_670_3278" x1="425.056" y1="57.6523" x2="425.056" y2="87.17" gradientUnits="userSpaceOnUse">
<stop stop-color="#CF69FF"/>
<stop offset="1" stop-color="#6356EF"/>
</linearGradient>
<clipPath id="clip0_670_3278">
<rect width="75" height="76" fill="white" transform="translate(165.262 613.311)"/>
</clipPath>
<clipPath id="clip1_670_3278">
<rect width="60" height="60" fill="white" transform="translate(63.7622 282.311)"/>
</clipPath>
<clipPath id="clip2_670_3278">
<rect width="60" height="60" fill="white" transform="translate(379.762 43.3105)"/>
</clipPath>
</defs>
</svg>
