<svg width="356" height="318" viewBox="0 0 356 318" fill="none" xmlns="http://www.w3.org/2000/svg">
<path d="M-19 3.44336H90.1271C98.4114 3.44336 105.127 10.1591 105.127 18.4434V113.351C105.127 121.635 98.4114 128.351 90.1271 128.351H-19" stroke="url(#paint0_linear_598_5733)" stroke-width="5"/>
<rect x="105.127" y="3.44336" width="124.127" height="124.908" rx="15" stroke="white" stroke-width="5"/>
<rect x="229.254" y="3.44336" width="124.127" height="124.908" rx="15" stroke="url(#paint1_linear_598_5733)" stroke-width="5"/>
<path d="M-19 126.443H90.1271C98.4114 126.443 105.127 133.159 105.127 141.443V236.351C105.127 244.635 98.4114 251.351 90.1271 251.351H-19" stroke="url(#paint2_linear_598_5733)" stroke-width="5"/>
<rect x="105.127" y="126.785" width="124.127" height="124.908" rx="15" stroke="white" stroke-width="5"/>
<rect x="229.254" y="126.785" width="124.127" height="124.908" rx="15" stroke="url(#paint3_linear_598_5733)" stroke-width="5"/>
<rect x="105.127" y="250.133" width="124.127" height="124.908" rx="15" stroke="white" stroke-width="5"/>
<rect x="229.254" y="250.133" width="124.127" height="124.908" rx="15" stroke="url(#paint4_linear_598_5733)" stroke-width="5"/>
<rect x="-19" y="250.133" width="124.127" height="124.908" rx="15" stroke="url(#paint5_linear_598_5733)" stroke-width="5"/>
<defs>
<linearGradient id="paint0_linear_598_5733" x1="81.2458" y1="9" x2="-27.2541" y2="20.5" gradientUnits="userSpaceOnUse">
<stop stop-color="white"/>
<stop offset="1" stop-color="#0F021F"/>
</linearGradient>
<linearGradient id="paint1_linear_598_5733" x1="221" y1="20.5" x2="329.5" y2="8.99999" gradientUnits="userSpaceOnUse">
<stop stop-color="white"/>
<stop offset="1" stop-color="#0F021F"/>
</linearGradient>
<linearGradient id="paint2_linear_598_5733" x1="81.2458" y1="132" x2="-27.2541" y2="143.5" gradientUnits="userSpaceOnUse">
<stop stop-color="white"/>
<stop offset="1" stop-color="#0F021F"/>
</linearGradient>
<linearGradient id="paint3_linear_598_5733" x1="221" y1="143.842" x2="329.5" y2="132.342" gradientUnits="userSpaceOnUse">
<stop stop-color="white"/>
<stop offset="1" stop-color="#0F021F"/>
</linearGradient>
<linearGradient id="paint4_linear_598_5733" x1="220" y1="250" x2="264.5" y2="291" gradientUnits="userSpaceOnUse">
<stop stop-color="white"/>
<stop offset="1" stop-color="#0F021F"/>
</linearGradient>
<linearGradient id="paint5_linear_598_5733" x1="97" y1="246" x2="68" y2="277" gradientUnits="userSpaceOnUse">
<stop stop-color="white"/>
<stop offset="1" stop-color="#0F021F"/>
</linearGradient>
</defs>
</svg>
