<svg width="319" height="308" viewBox="0 0 319 308" fill="none" xmlns="http://www.w3.org/2000/svg">
<path d="M3 304.598H112.127C120.411 304.598 127.127 297.882 127.127 289.598V194.69C127.127 186.406 120.411 179.69 112.127 179.69H3" stroke="url(#paint0_linear_598_5722)" stroke-width="5"/>
<rect width="124.127" height="124.908" rx="15" transform="matrix(1 0 0 -1 127.127 304.598)" stroke="white" stroke-width="5"/>
<rect width="124.127" height="124.908" rx="15" transform="matrix(1 0 0 -1 251.254 304.598)" stroke="url(#paint1_linear_598_5722)" stroke-width="5"/>
<path d="M3 181.598H112.127C120.411 181.598 127.127 174.882 127.127 166.598V71.6899C127.127 63.4056 120.411 56.6899 112.127 56.6899H3" stroke="url(#paint2_linear_598_5722)" stroke-width="5"/>
<rect width="124.127" height="124.908" rx="15" transform="matrix(1 0 0 -1 127.127 181.256)" stroke="white" stroke-width="5"/>
<rect width="124.127" height="124.908" rx="15" transform="matrix(1 0 0 -1 251.254 181.256)" stroke="url(#paint3_linear_598_5722)" stroke-width="5"/>
<rect width="124.127" height="124.908" rx="15" transform="matrix(1 0 0 -1 127.127 57.9082)" stroke="white" stroke-width="5"/>
<rect width="124.127" height="124.908" rx="15" transform="matrix(1 0 0 -1 251.254 57.9082)" stroke="url(#paint4_linear_598_5722)" stroke-width="5"/>
<rect width="124.127" height="124.908" rx="15" transform="matrix(1 0 0 -1 3 57.9082)" stroke="url(#paint5_linear_598_5722)" stroke-width="5"/>
<defs>
<linearGradient id="paint0_linear_598_5722" x1="103.246" y1="299.041" x2="-5.25415" y2="287.541" gradientUnits="userSpaceOnUse">
<stop stop-color="white"/>
<stop offset="1" stop-color="#0F021F"/>
</linearGradient>
<linearGradient id="paint1_linear_598_5722" x1="-8.25415" y1="17.0566" x2="100.246" y2="5.55663" gradientUnits="userSpaceOnUse">
<stop stop-color="white"/>
<stop offset="1" stop-color="#0F021F"/>
</linearGradient>
<linearGradient id="paint2_linear_598_5722" x1="103.246" y1="176.041" x2="-5.25415" y2="164.541" gradientUnits="userSpaceOnUse">
<stop stop-color="white"/>
<stop offset="1" stop-color="#0F021F"/>
</linearGradient>
<linearGradient id="paint3_linear_598_5722" x1="-8.25415" y1="17.0566" x2="100.246" y2="5.55663" gradientUnits="userSpaceOnUse">
<stop stop-color="white"/>
<stop offset="1" stop-color="#0F021F"/>
</linearGradient>
<linearGradient id="paint4_linear_598_5722" x1="-9.25415" y1="-0.132812" x2="35.2458" y2="40.8672" gradientUnits="userSpaceOnUse">
<stop stop-color="white"/>
<stop offset="1" stop-color="#0F021F"/>
</linearGradient>
<linearGradient id="paint5_linear_598_5722" x1="116" y1="-4.13281" x2="87" y2="26.8672" gradientUnits="userSpaceOnUse">
<stop stop-color="white"/>
<stop offset="1" stop-color="#0F021F"/>
</linearGradient>
</defs>
</svg>
