<svg width="46" height="46" viewBox="0 0 46 46" fill="none" xmlns="http://www.w3.org/2000/svg">
<path d="M39.625 11.1074C39.625 27.1582 26.6133 40.1699 10.5625 40.1699C9.83834 40.1699 9.12036 40.1435 8.40947 40.0914C7.59366 40.0315 7.18574 40.0017 6.81443 39.788C6.50689 39.611 6.21524 39.2971 6.06109 38.9774C5.875 38.5915 5.875 38.1414 5.875 37.2412V31.9587C5.875 31.2016 5.875 30.823 5.99959 30.4987C6.10966 30.212 6.28842 29.9568 6.52019 29.7554C6.78256 29.5274 7.1383 29.398 7.84977 29.1393L13.8626 26.9529C14.6904 26.6519 15.1043 26.5014 15.4969 26.5269C15.8432 26.5494 16.1764 26.6677 16.4595 26.8683C16.7805 27.0957 17.0071 27.4734 17.4603 28.2288L19 30.7949C23.9686 28.5447 27.9964 24.5116 30.25 19.5449L27.6839 18.0052C26.9284 17.552 26.5508 17.3254 26.3234 17.0044C26.1227 16.7213 26.0044 16.3881 25.9819 16.0419C25.9564 15.6492 26.107 15.2353 26.4079 14.4075L28.5944 8.39469C28.8531 7.68322 28.9825 7.32748 29.2105 7.06511C29.4119 6.83334 29.6671 6.65458 29.9538 6.54452C30.2781 6.41992 30.6567 6.41992 31.4138 6.41992H36.6962C37.5964 6.41992 38.0466 6.41992 38.4325 6.60602C38.7522 6.76016 39.0661 7.05182 39.2431 7.35935C39.4568 7.73068 39.4866 8.13858 39.5464 8.95442C39.5986 9.66528 39.625 10.3833 39.625 11.1074Z" stroke="#065796" stroke-width="2" stroke-linecap="round" stroke-linejoin="round"/>
</svg>
