<svg width="312" height="236" viewBox="0 0 312 236" fill="none" xmlns="http://www.w3.org/2000/svg">
<path fill-rule="evenodd" clip-rule="evenodd" d="M169.534 55.4282C203.726 51.8042 238.043 31.2777 268.941 42.1381C299.542 52.8942 313.367 81.5392 311.894 105.466C310.553 127.244 272.429 138.283 261.763 158.765C251.76 177.97 272.088 202.713 253.142 218.278C233.923 234.067 198.571 238.74 169.534 234.535C142.233 230.581 130.946 208.095 107.797 197.229C83.1714 185.669 48.4452 185.969 30.687 169.357C9.74174 149.764 -8.39324 123.073 4.09691 100.223C16.5865 77.3743 57.2298 69.9529 89.8511 61.1202C115.374 54.2096 142.474 58.2964 169.534 55.4282Z" fill="url(#paint0_linear_608_18700)"/>
<path d="M240.387 203.764C240.387 203.764 238.451 190.457 238.613 182.715C238.774 174.973 238.603 166.264 238.603 166.264H239.495C239.495 166.264 238.891 181.631 239.548 190.899C240.205 200.16 241.935 203.764 241.935 203.764H240.387Z" fill="#E0E0E0"/>
<path d="M246.152 151.292C245.973 150.838 245.752 150.364 245.34 150.102C244.774 149.744 244.032 149.893 243.401 150.116C240.706 151.069 238.317 156.093 237.228 158.736L240.806 170.79C247.263 164.8 248.381 156.941 246.152 151.292Z" fill="#EBEBEB"/>
<path d="M245.131 150.59C245.135 150.592 245.117 150.646 245.079 150.747C245.033 150.863 244.975 151.008 244.904 151.186C244.747 151.566 244.527 152.117 244.264 152.802C243.736 154.17 243.066 156.084 242.465 158.241C241.868 160.398 241.456 162.384 241.202 163.829C241.075 164.551 240.979 165.137 240.918 165.543C240.886 165.732 240.861 165.887 240.841 166.009C240.822 166.116 240.81 166.172 240.805 166.171C240.8 166.17 240.802 166.113 240.812 166.005C240.825 165.882 240.841 165.726 240.861 165.535C240.904 165.126 240.985 164.537 241.099 163.811C241.327 162.359 241.723 160.364 242.323 158.201C242.924 156.039 243.613 154.125 244.166 152.763C244.442 152.082 244.677 151.536 244.85 151.163C244.932 150.989 244.998 150.848 245.05 150.735C245.099 150.638 245.126 150.588 245.131 150.59Z" fill="#E0E0E0"/>
<path d="M239.215 173.682C235.862 171.828 233.885 168.343 233.701 164.516C233.573 161.841 234.394 159.216 235.326 156.705C235.406 156.487 235.502 156.252 235.705 156.138C235.986 155.979 236.338 156.121 236.619 156.281C239.055 157.668 240.532 160.314 241.318 163.005C241.841 164.797 242.111 166.685 241.869 168.535C241.627 170.385 240.569 172.398 239.215 173.682Z" fill="#E0E0E0"/>
<path d="M239.216 173.681C239.21 173.681 239.206 173.625 239.202 173.52C239.2 173.397 239.197 173.244 239.193 173.057C239.192 172.655 239.176 172.074 239.143 171.358C239.078 169.924 238.89 167.948 238.52 165.789C238.148 163.63 237.697 161.696 237.364 160.299C237.2 159.615 237.066 159.055 236.967 158.644C236.925 158.462 236.891 158.312 236.864 158.193C236.842 158.089 236.833 158.035 236.838 158.033C236.842 158.032 236.861 158.084 236.893 158.186C236.927 158.303 236.97 158.45 237.023 158.63C237.134 159.016 237.286 159.578 237.466 160.274C237.825 161.666 238.293 163.599 238.666 165.764C239.037 167.929 239.209 169.915 239.248 171.354C239.267 172.073 239.267 172.655 239.251 173.057C239.243 173.245 239.237 173.398 239.232 173.521C239.226 173.626 239.22 173.681 239.216 173.681Z" fill="#EBEBEB"/>
<path d="M242.999 194.041C246.299 194.766 249.017 197.094 252.2 198.226C254.307 198.975 256.689 199.239 258.371 200.713C257.968 199.694 257.011 199.015 256.081 198.434C253.463 196.799 250.659 195.46 247.741 194.452C246.243 193.935 244.618 193.503 243.091 193.929" fill="#EBEBEB"/>
<path d="M238.227 196.98C234.094 196.914 229.742 193.395 225.628 193.185C229.933 191.795 236.097 192.93 238.227 196.98Z" fill="#EBEBEB"/>
<path d="M239.842 187.066C241.941 186.309 244.245 186.273 246.45 186.616C248.655 186.958 250.783 187.666 252.901 188.369C252.689 186.935 251.527 185.857 250.436 184.902C249.615 184.184 248.788 183.461 247.846 182.912C246.904 182.362 245.829 181.989 244.739 182.035C243.425 182.091 242.173 182.769 241.311 183.763C240.448 184.757 239.984 185.757 239.842 187.066Z" fill="#EBEBEB"/>
<path d="M231.359 182.502C228.757 180.281 224.816 180.498 221.396 180.575C226.654 183.089 232.319 186.535 236.847 190.204C236.986 187.786 234.646 185.308 231.359 182.502Z" fill="#EBEBEB"/>
<path d="M241.012 179.435C242.32 178.563 243.644 177.732 245.013 177.11C246.382 176.488 247.66 175.496 248.983 174.78C250.698 173.851 252.184 172.561 253.758 171.409C255.332 170.258 257.062 169.218 258.988 168.913C257.417 168.589 255.776 168.766 254.229 169.189C252.682 169.611 251.212 170.273 249.749 170.931C247.72 171.845 245.655 172.782 243.996 174.267C242.336 175.751 240.837 177.216 241.012 179.435Z" fill="#EBEBEB"/>
<path d="M252.125 196.98C252.122 196.984 252.077 196.965 251.994 196.923C251.896 196.873 251.777 196.811 251.633 196.737C251.322 196.571 250.875 196.325 250.313 196.043C250.034 195.896 249.725 195.742 249.39 195.585C249.059 195.42 248.698 195.258 248.317 195.093C247.554 194.766 246.701 194.427 245.772 194.206C244.845 193.978 243.922 193.928 243.121 194.139C242.717 194.237 242.336 194.333 241.997 194.475C241.657 194.613 241.354 194.774 241.091 194.94C240.561 195.273 240.191 195.627 239.951 195.881C239.712 196.138 239.595 196.295 239.584 196.287C239.58 196.284 239.606 196.242 239.659 196.165C239.71 196.088 239.794 195.978 239.908 195.843C240.138 195.574 240.502 195.203 241.034 194.852C241.299 194.676 241.606 194.506 241.951 194.361C242.296 194.211 242.685 194.108 243.09 194.007C243.908 193.783 244.868 193.83 245.806 194.062C246.75 194.286 247.607 194.633 248.372 194.968C248.754 195.137 249.114 195.305 249.444 195.475C249.778 195.637 250.085 195.797 250.361 195.95C250.919 196.246 251.358 196.505 251.662 196.687C251.8 196.771 251.915 196.84 252.009 196.898C252.087 196.948 252.127 196.976 252.125 196.98Z" fill="#E0E0E0"/>
<path d="M235.144 194.933C235.148 194.924 235.239 194.951 235.403 195.009C235.567 195.065 235.798 195.164 236.076 195.302C236.632 195.577 237.364 196.045 238.051 196.703C238.737 197.363 239.233 198.075 239.53 198.62C239.679 198.892 239.787 199.119 239.85 199.281C239.914 199.442 239.945 199.533 239.935 199.537C239.912 199.547 239.758 199.198 239.44 198.673C239.124 198.148 238.623 197.458 237.949 196.809C237.274 196.163 236.565 195.69 236.028 195.395C235.49 195.098 235.134 194.958 235.144 194.933Z" fill="#E0E0E0"/>
<path d="M225.999 182.294C226.001 182.289 226.061 182.307 226.175 182.346C226.303 182.391 226.467 182.449 226.671 182.522C226.892 182.603 227.153 182.7 227.453 182.811C227.758 182.924 228.089 183.091 228.464 183.256C229.952 183.932 231.932 185.069 233.845 186.685C234.788 187.506 235.641 188.34 236.354 189.156C237.064 189.973 237.666 190.742 238.135 191.412C238.607 192.081 238.964 192.638 239.209 193.023C239.325 193.204 239.419 193.352 239.492 193.466C239.556 193.568 239.588 193.623 239.584 193.625C239.579 193.628 239.54 193.579 239.468 193.483C239.395 193.387 239.291 193.243 239.161 193.054C238.901 192.679 238.531 192.132 238.049 191.473C237.571 190.812 236.964 190.054 236.251 189.246C235.536 188.44 234.686 187.613 233.748 186.797C231.848 185.191 229.889 184.048 228.419 183.351C228.048 183.18 227.721 183.007 227.421 182.887C227.125 182.767 226.867 182.663 226.65 182.575C226.451 182.492 226.29 182.425 226.164 182.373C226.055 182.326 225.998 182.299 225.999 182.294Z" fill="#E0E0E0"/>
<path d="M246.043 184.743C246.04 184.753 245.923 184.737 245.714 184.701C245.6 184.68 245.474 184.656 245.334 184.631C245.186 184.602 245.014 184.602 244.826 184.582C244.082 184.528 243 184.59 241.985 185.142C241.473 185.402 241.044 185.751 240.693 186.102C240.337 186.449 240.066 186.812 239.862 187.129C239.447 187.764 239.319 188.222 239.294 188.214C239.286 188.212 239.309 188.095 239.378 187.891C239.454 187.691 239.571 187.401 239.774 187.074C239.969 186.745 240.237 186.368 240.596 186.007C240.95 185.643 241.389 185.28 241.916 185.013C242.963 184.442 244.083 184.397 244.835 184.479C245.025 184.505 245.199 184.513 245.347 184.55C245.487 184.586 245.613 184.617 245.726 184.645C245.934 184.699 246.046 184.734 246.043 184.743Z" fill="#E0E0E0"/>
<path d="M250.197 171.856C250.2 171.861 250.146 171.894 250.041 171.952C249.922 172.017 249.769 172.1 249.58 172.203C249.179 172.419 248.602 172.738 247.901 173.151C247.203 173.569 246.381 174.083 245.507 174.709C244.635 175.335 243.698 176.064 242.833 176.948C242.407 177.394 242.014 177.858 241.74 178.364C241.469 178.884 241.21 179.386 240.972 179.869C240.494 180.833 240.105 181.72 239.824 182.483C239.543 183.246 239.369 183.881 239.265 184.324C239.159 184.766 239.121 185.016 239.106 185.014C239.101 185.013 239.107 184.95 239.123 184.831C239.138 184.711 239.163 184.536 239.209 184.312C239.296 183.864 239.456 183.22 239.726 182.448C239.996 181.676 240.377 180.78 240.85 179.81C241.085 179.324 241.342 178.819 241.611 178.298C241.896 177.769 242.295 177.298 242.727 176.846C243.602 175.951 244.547 175.222 245.428 174.598C246.311 173.976 247.142 173.469 247.848 173.061C248.558 172.658 249.144 172.353 249.554 172.152C249.748 172.059 249.905 171.984 250.028 171.925C250.137 171.875 250.195 171.851 250.197 171.856Z" fill="#E0E0E0"/>
<path d="M238.608 184.371C238.598 184.373 238.569 184.248 238.526 184.023C238.478 183.768 238.417 183.448 238.345 183.068C238.187 182.264 237.947 181.155 237.563 179.966C237.183 178.776 236.721 177.74 236.383 176.993C236.223 176.641 236.088 176.344 235.98 176.108C235.886 175.898 235.838 175.78 235.847 175.776C235.856 175.771 235.921 175.88 236.031 176.082C236.141 176.284 236.295 176.579 236.477 176.948C236.839 177.685 237.32 178.721 237.704 179.921C238.09 181.119 238.316 182.238 238.448 183.05C238.512 183.456 238.559 183.785 238.583 184.014C238.608 184.243 238.618 184.369 238.608 184.371Z" fill="#E0E0E0"/>
<path d="M238.309 174.966C238.205 173.405 237.697 171.887 236.965 170.504C234.959 166.711 231.188 163.899 226.98 163.059C230.062 167.651 233.143 172.243 236.224 176.835L237.417 179.294C238.232 177.958 238.413 176.528 238.309 174.966Z" fill="#EBEBEB"/>
<path d="M251.568 202.117H230.074V205.927H251.568V202.117Z" fill="#EBEBEB"/>
<path d="M231.679 205.17L233.51 216.991H247.779L249.962 205.17H231.679Z" fill="#EBEBEB"/>
<path d="M251.556 205.931C251.556 205.973 246.708 206.007 240.729 206.007C234.747 206.007 229.9 205.973 229.9 205.931C229.9 205.889 234.747 205.855 240.729 205.855C246.708 205.855 251.556 205.889 251.556 205.931Z" fill="#E0E0E0"/>
<path d="M236.484 43.8328H209.437C209.052 43.8328 208.74 43.5208 208.74 43.1357C208.74 42.7505 209.052 42.4385 209.437 42.4385H235.9L238.883 25.5876H206.888C206.502 25.5876 206.19 25.2761 206.19 24.8905C206.19 24.5049 206.502 24.1934 206.888 24.1934H239.714C239.92 24.1934 240.116 24.2845 240.248 24.4426C240.381 24.6002 240.437 24.8088 240.4 25.0123L237.17 43.2574C237.112 43.5902 236.822 43.8328 236.484 43.8328Z" fill="#E0E0E0"/>
<path d="M235.588 50.2147C235.587 50.2147 235.587 50.2147 235.586 50.2147L209.826 50.1259C209.476 50.1245 209.182 49.8644 209.137 49.5175L205.443 20.7298H197.782C197.397 20.7298 197.085 20.4182 197.085 20.0326C197.085 19.6475 197.396 19.3359 197.782 19.3359H206.055C206.406 19.3359 206.702 19.5965 206.747 19.9443L210.443 48.734L235.591 48.8204C235.976 48.8218 236.286 49.1347 236.285 49.5199C236.284 49.9045 235.972 50.2147 235.588 50.2147Z" fill="#E0E0E0"/>
<path d="M214.031 59.3796C211.88 59.3796 210.127 57.6285 210.127 55.4757C210.127 53.3234 211.88 51.5723 214.031 51.5723C216.184 51.5723 217.935 53.3234 217.935 55.4757C217.935 57.6285 216.183 59.3796 214.031 59.3796ZM214.031 52.9666C212.647 52.9666 211.521 54.0923 211.521 55.4762C211.521 56.8606 212.647 57.9863 214.031 57.9863C215.416 57.9863 216.541 56.8606 216.541 55.4762C216.541 54.0923 215.416 52.9666 214.031 52.9666Z" fill="#E0E0E0"/>
<path d="M231.811 59.3796C229.659 59.3796 227.907 57.6285 227.907 55.4757C227.907 53.3234 229.659 51.5723 231.811 51.5723C233.963 51.5723 235.715 53.3234 235.715 55.4757C235.715 57.6285 233.963 59.3796 231.811 59.3796ZM231.811 52.9666C230.427 52.9666 229.301 54.0923 229.301 55.4762C229.301 56.8606 230.427 57.9863 231.811 57.9863C233.196 57.9863 234.321 56.8606 234.321 55.4762C234.321 54.0923 233.196 52.9666 231.811 52.9666Z" fill="#E0E0E0"/>
<path d="M217.788 43.8322C217.421 43.8322 217.115 43.5476 217.092 43.1789L215.992 25.5228C215.968 25.1382 216.26 24.8078 216.644 24.7837C217.059 24.77 217.359 25.0532 217.383 25.4355L218.483 43.0916C218.507 43.4763 218.215 43.8072 217.831 43.8308C217.816 43.8312 217.801 43.8322 217.788 43.8322Z" fill="#E0E0E0"/>
<path d="M227.677 43.8322C227.665 43.8322 227.651 43.8312 227.638 43.8308C227.254 43.8095 226.96 43.481 226.982 43.0963L227.969 25.4402C227.99 25.057 228.286 24.77 228.703 24.7837C229.087 24.8049 229.381 25.1334 229.36 25.5181L228.373 43.1742C228.352 43.5447 228.045 43.8322 227.677 43.8322Z" fill="#E0E0E0"/>
<path d="M207.888 35.0045C207.506 35.0045 207.195 34.6967 207.191 34.3144C207.187 33.9292 207.496 33.6149 207.881 33.6107L238.091 33.3166C238.535 33.3076 238.791 33.6215 238.795 34.0067C238.799 34.3918 238.49 34.7066 238.105 34.7104L207.895 35.0045C207.892 35.0045 207.89 35.0045 207.888 35.0045Z" fill="#E0E0E0"/>
<path d="M83.5285 107.54C87.5792 109.406 89.8982 113.607 89.3469 118.033C89.2973 118.43 89.7197 118.763 90.0808 118.767C90.5179 118.772 90.7662 118.425 90.8148 118.033C91.4227 113.152 88.7333 108.328 84.2691 106.272C83.4171 105.88 82.6704 107.145 83.5285 107.54Z" fill="#E0E0E0"/>
<path d="M86.7636 100.901C93.3631 103.929 97.1995 110.862 96.2895 118.067C96.1715 119.002 97.6408 118.994 97.7574 118.067C98.725 110.407 94.5167 102.851 87.5042 99.6328C86.6522 99.2415 85.905 100.506 86.7636 100.901Z" fill="#E0E0E0"/>
<path d="M91.8318 94.3845C95.8575 96.2239 99.2918 99.2277 101.568 103.033C104.084 107.24 105.045 112.22 104.424 117.07C104.304 118.004 105.774 117.996 105.893 117.07C107.167 107.122 101.689 97.2816 92.5733 93.1167C91.7195 92.7268 90.9728 93.9918 91.8318 94.3845Z" fill="#E0E0E0"/>
<path d="M257.662 216.849C257.662 216.917 211.72 216.972 155.061 216.972C98.3819 216.972 52.4502 216.917 52.4502 216.849C52.4502 216.781 98.3819 216.727 155.061 216.727C211.72 216.727 257.662 216.781 257.662 216.849Z" fill="#263238"/>
<path d="M98.4269 148.989L97.5999 149.281C97.2728 149.397 96.9136 149.225 96.798 148.898L94.0849 141.226C93.9693 140.899 94.1406 140.54 94.4682 140.424L95.2947 140.132C95.6218 140.016 95.981 140.188 96.0966 140.515L98.8096 148.187C98.9258 148.514 98.7539 148.873 98.4269 148.989Z" fill="#E0E0E0"/>
<path d="M98.427 148.988C98.4214 148.975 98.4988 148.953 98.6017 148.856C98.7008 148.765 98.8297 148.571 98.7853 148.314C98.6125 147.809 98.3095 147.045 97.972 146.115C97.627 145.165 97.2239 144.056 96.7793 142.832C96.557 142.212 96.3248 141.563 96.084 140.89C96.0189 140.728 95.9736 140.529 95.8962 140.43C95.8112 140.317 95.6739 140.243 95.5304 140.235C95.4558 140.233 95.3935 140.244 95.3123 140.273L95.0485 140.367C94.8719 140.429 94.6945 140.492 94.5156 140.555C94.3759 140.605 94.2635 140.718 94.2168 140.857C94.1691 141.009 94.1871 141.118 94.2626 141.306C94.3848 141.655 94.5057 141.998 94.6241 142.336C94.8597 143.01 95.0867 143.661 95.3043 144.283C95.7277 145.515 96.1119 146.631 96.4404 147.586C96.5966 148.051 96.7396 148.476 96.868 148.858C96.9771 149.209 97.3603 149.317 97.5944 149.223C98.1245 149.055 98.4204 148.97 98.427 148.988C98.4336 149.007 98.15 149.126 97.6312 149.328C97.3674 149.457 96.8756 149.351 96.7198 148.912C96.5792 148.534 96.4234 148.114 96.2525 147.654C95.9075 146.704 95.5044 145.595 95.0598 144.371C94.8375 143.75 94.6053 143.101 94.3641 142.429C94.2442 142.091 94.1219 141.749 93.9983 141.401C93.9714 141.32 93.927 141.224 93.9142 141.104C93.901 140.991 93.9138 140.874 93.9511 140.766C94.0238 140.549 94.2026 140.368 94.4221 140.291C94.601 140.227 94.7785 140.165 94.9555 140.102L95.2193 140.009C95.3128 139.974 95.4355 139.949 95.546 139.956C95.7725 139.969 95.9868 140.085 96.1199 140.264C96.2558 140.463 96.2747 140.633 96.3446 140.799C96.5801 141.473 96.8071 142.124 97.0243 142.746C97.4476 143.977 97.8314 145.094 98.1604 146.049C98.4757 146.997 98.7428 147.741 98.8943 148.299C98.9269 148.608 98.7579 148.815 98.6385 148.9C98.5129 148.99 98.4275 148.993 98.427 148.988Z" fill="#455A64"/>
<path d="M103.11 163.416L103.028 163.445C102.495 163.633 101.91 163.354 101.722 162.821L99.2722 155.894C99.0839 155.361 99.3628 154.776 99.8957 154.588L99.9778 154.559C100.511 154.37 101.096 154.649 101.284 155.182L103.734 162.11C103.922 162.643 103.643 163.228 103.11 163.416Z" fill="#E0E0E0"/>
<path d="M103.11 163.417C103.083 163.389 103.442 163.323 103.655 162.84C103.759 162.597 103.755 162.288 103.589 161.937C103.453 161.57 103.301 161.163 103.136 160.718C102.801 159.796 102.41 158.722 101.979 157.537C101.764 156.935 101.539 156.306 101.305 155.655C101.247 155.496 101.188 155.316 101.13 155.171C101.071 155.03 100.969 154.908 100.847 154.815C100.593 154.629 100.259 154.585 99.9446 154.72C99.6434 154.825 99.4169 155.098 99.3673 155.405C99.3423 155.558 99.3564 155.713 99.4093 155.86C99.4678 156.027 99.5254 156.192 99.583 156.355C99.811 157.008 100.031 157.639 100.242 158.243C100.652 159.435 101.024 160.517 101.342 161.444C101.688 162.331 101.77 163.202 102.318 163.373C102.804 163.575 103.111 163.373 103.11 163.417C103.113 163.424 103.05 163.464 102.91 163.508C102.772 163.547 102.542 163.577 102.274 163.476C102.009 163.387 101.715 163.115 101.606 162.731C101.47 162.364 101.318 161.957 101.153 161.512C100.818 160.59 100.427 159.516 99.996 158.33C99.7803 157.729 99.5552 157.1 99.322 156.448C99.2639 156.285 99.2049 156.12 99.1459 155.954C99.0784 155.77 99.0567 155.559 99.0902 155.359C99.154 154.956 99.4527 154.593 99.8497 154.455C100.212 154.294 100.693 154.341 101.014 154.59C101.175 154.714 101.308 154.875 101.384 155.06C101.456 155.242 101.505 155.396 101.565 155.563C101.793 156.216 102.013 156.847 102.223 157.45C102.633 158.643 103.005 159.724 103.324 160.652C103.475 161.102 103.613 161.514 103.738 161.885C103.797 162.06 103.864 162.247 103.859 162.424C103.858 162.599 103.816 162.756 103.755 162.884C103.632 163.142 103.446 163.28 103.32 163.348C103.19 163.414 103.112 163.423 103.11 163.417Z" fill="#455A64"/>
<path d="M57.6196 142.075L57.4587 140.057C57.3798 139.071 57.9741 138.155 58.9067 137.825L82.3109 129.549C83.1524 129.251 84.0908 129.496 84.6798 130.167L86.2455 131.952L57.6196 142.075Z" fill="#E0E0E0"/>
<path d="M57.6194 142.076C57.6217 142.073 57.6737 142.051 57.7723 142.013C57.8846 141.971 58.0281 141.917 58.2075 141.85C58.6044 141.705 59.16 141.502 59.8675 141.244C61.3208 140.72 63.3952 139.971 65.9615 139.046C71.1139 137.206 78.2359 134.664 86.1985 131.821L86.14 132.046C85.6878 131.531 85.2045 130.98 84.7169 130.424C84.3771 129.987 83.9287 129.696 83.4104 129.6C83.155 129.555 82.8921 129.555 82.6396 129.606C82.3937 129.656 82.1351 129.766 81.8764 129.852C80.8451 130.216 79.8293 130.575 78.8306 130.927C76.834 131.63 74.9073 132.308 73.0717 132.955C69.4033 134.24 66.0979 135.398 63.315 136.373C61.9278 136.856 60.6709 137.293 59.564 137.677C59.2917 137.775 59.0132 137.86 58.7729 137.959C58.5322 138.064 58.3222 138.212 58.1485 138.381C57.7992 138.72 57.6057 139.144 57.5358 139.537C57.4664 139.935 57.5354 140.295 57.5434 140.605C57.5613 140.914 57.5764 141.178 57.5892 141.399C57.6 141.605 57.6085 141.769 57.6156 141.896C57.6203 142.012 57.6222 142.073 57.6194 142.076C57.6165 142.08 57.6095 142.028 57.5972 141.921C57.584 141.796 57.5665 141.636 57.5453 141.436C57.5226 141.213 57.4952 140.945 57.4636 140.632C57.4433 140.313 57.3631 139.94 57.4273 139.52C57.4919 139.106 57.6883 138.653 58.0536 138.286C58.2353 138.103 58.4572 137.942 58.713 137.826C58.974 137.715 59.2355 137.633 59.5116 137.53C60.6147 137.133 61.8664 136.683 63.2484 136.186C66.0257 135.195 69.324 134.018 72.9849 132.711C74.8191 132.06 76.7434 131.377 78.7381 130.668C79.7359 130.315 80.7516 129.954 81.7825 129.59C82.0416 129.504 82.2899 129.394 82.5844 129.331C82.8718 129.274 83.1711 129.273 83.4614 129.325C84.0419 129.424 84.5814 129.788 84.9284 130.24C85.4159 130.796 85.8993 131.347 86.351 131.863L86.4883 132.019L86.2924 132.088C78.2689 134.898 71.0926 137.412 65.9011 139.23C63.3386 140.118 61.2675 140.835 59.8165 141.338C59.1189 141.577 58.5709 141.764 58.1792 141.898C58.0055 141.956 57.8667 142.002 57.7581 142.038C57.6637 142.067 57.617 142.081 57.6194 142.076Z" fill="#455A64"/>
<path d="M81.0636 133.787L62.6438 140.3L55.8909 121.204C55.5256 120.171 56.067 119.037 57.0997 118.672L71.7794 113.481C72.8121 113.116 73.9459 113.657 74.3107 114.69L81.0636 133.787Z" fill="#455A64"/>
<path d="M81.0635 133.786C81.0593 133.784 81.031 133.714 80.98 133.581C80.9257 133.435 80.853 133.239 80.7605 132.991C80.5675 132.46 80.2918 131.703 79.9397 130.736C79.2326 128.774 78.2188 125.959 76.968 122.488C76.3464 120.749 75.6657 118.847 74.9356 116.805C74.7538 116.295 74.5683 115.775 74.3805 115.248C74.2823 114.987 74.2025 114.706 74.0808 114.475C73.9547 114.238 73.7759 114.029 73.5587 113.865C73.1235 113.539 72.5335 113.411 71.9912 113.55C71.4461 113.725 70.8646 113.945 70.2915 114.145C67.9839 114.964 65.5626 115.823 63.0525 116.714C61.797 117.158 60.5193 117.611 59.2227 118.07C58.5741 118.3 57.9214 118.531 57.2639 118.764C56.6201 118.948 56.1207 119.476 55.9692 120.12C55.9163 120.342 55.9055 120.574 55.9366 120.799C55.9645 121.022 56.0556 121.238 56.1363 121.474C56.2986 121.933 56.4605 122.391 56.6215 122.847C56.9434 123.758 57.262 124.66 57.5768 125.552C58.2065 127.336 58.8215 129.08 59.419 130.774C60.6113 134.162 61.7328 137.349 62.757 140.26L62.6041 140.187C68.1274 138.261 72.7228 136.658 75.9537 135.532C77.5622 134.977 78.83 134.54 79.7117 134.236C80.1379 134.092 80.4702 133.979 80.71 133.898C80.9375 133.821 81.0635 133.786 81.0635 133.786C81.0635 133.786 80.9602 133.832 80.743 133.913C80.5103 133.999 80.1884 134.118 79.7754 134.27C78.9046 134.586 77.6524 135.04 76.0636 135.616C72.8257 136.776 68.2195 138.428 62.6834 140.413L62.5706 140.453L62.53 140.34C61.4968 137.432 60.3654 134.248 59.1627 130.864C58.5628 129.171 57.945 127.428 57.3125 125.644C56.9967 124.752 56.6772 123.851 56.3553 122.94C56.1939 122.484 56.032 122.027 55.8696 121.567C55.7936 121.343 55.6916 121.103 55.6567 120.838C55.6208 120.578 55.6331 120.311 55.6945 120.055C55.8601 119.316 56.4638 118.697 57.1695 118.498C57.827 118.266 58.4802 118.035 59.1287 117.806C60.4258 117.348 61.704 116.897 62.96 116.453C65.472 115.568 67.8952 114.714 70.2047 113.9C70.7886 113.699 71.338 113.491 71.9289 113.304C72.5463 113.148 73.2161 113.295 73.7069 113.667C73.9524 113.854 74.1544 114.092 74.296 114.36C74.4381 114.636 74.5093 114.907 74.6089 115.172C74.7958 115.705 74.9799 116.229 75.1612 116.745C75.8819 118.806 76.5536 120.728 77.1672 122.483C78.3779 125.972 79.3591 128.8 80.0435 130.772C80.3735 131.734 80.6317 132.487 80.8129 133.014C80.8946 133.258 80.9587 133.45 81.0069 133.594C81.0484 133.722 81.0678 133.788 81.0635 133.786Z" fill="#263238"/>
<path d="M101.42 174.615L101.581 176.634C101.66 177.62 101.065 178.536 100.133 178.866L76.7295 187.142C75.8875 187.439 74.9496 187.195 74.3605 186.523L72.7949 184.738L101.42 174.615Z" fill="#E0E0E0"/>
<path d="M101.42 174.616C101.418 174.62 101.366 174.641 101.267 174.679C101.155 174.721 101.011 174.775 100.833 174.842C100.435 174.987 99.8801 175.19 99.1725 175.448C97.7197 175.972 95.6448 176.721 93.079 177.647C87.9267 179.486 80.8046 182.028 72.842 184.871L72.901 184.646C73.3532 185.161 73.8365 185.712 74.3241 186.268C74.6639 186.705 75.1123 186.996 75.6306 187.092C75.8859 187.137 76.1488 187.137 76.4014 187.087C76.6473 187.036 76.9055 186.927 77.1646 186.84C78.1954 186.476 79.2116 186.118 80.2099 185.765C82.207 185.062 84.1332 184.383 85.9688 183.737C89.6372 182.452 92.9426 181.294 95.7255 180.319C97.1127 179.837 98.3692 179.4 99.4765 179.015C99.7488 178.917 100.027 178.832 100.268 178.734C100.509 178.628 100.719 178.481 100.892 178.312C101.242 177.972 101.435 177.548 101.505 177.155C101.575 176.757 101.506 176.397 101.498 176.087C101.48 175.778 101.465 175.514 101.452 175.294C101.441 175.087 101.433 174.924 101.426 174.796C101.419 174.681 101.417 174.62 101.42 174.616C101.423 174.612 101.43 174.664 101.442 174.772C101.455 174.896 101.473 175.056 101.494 175.256C101.516 175.48 101.544 175.747 101.575 176.06C101.596 176.379 101.676 176.752 101.612 177.172C101.547 177.587 101.351 178.04 100.985 178.407C100.804 178.59 100.582 178.751 100.326 178.867C100.065 178.977 99.8036 179.06 99.5275 179.163C98.4244 179.56 97.1727 180.01 95.7906 180.506C93.0134 181.498 89.7151 182.675 86.0542 183.981C84.22 184.633 82.2957 185.316 80.301 186.025C79.3032 186.378 78.2875 186.738 77.2566 187.103C76.9975 187.189 76.7492 187.299 76.4547 187.361C76.1672 187.419 75.868 187.419 75.5777 187.368C74.9972 187.269 74.4577 186.905 74.1107 186.453C73.6232 185.897 73.1398 185.345 72.6881 184.83L72.5508 184.674L72.7467 184.605C80.7702 181.795 87.9465 179.281 93.138 177.463C95.7005 176.575 97.7716 175.858 99.2226 175.355C99.9202 175.116 100.468 174.929 100.86 174.795C101.034 174.737 101.172 174.691 101.281 174.655C101.376 174.625 101.423 174.612 101.42 174.616Z" fill="#455A64"/>
<path d="M78.623 182.617L97.0428 176.104L103.905 195.508C104.27 196.541 103.729 197.675 102.696 198.04L88.0163 203.231C86.9836 203.596 85.8498 203.055 85.485 202.022L78.623 182.617Z" fill="#455A64"/>
<path d="M78.6231 182.618C78.6274 182.62 78.6557 182.69 78.7071 182.825C78.7619 182.972 78.835 183.169 78.9285 183.42C79.123 183.954 79.4005 184.717 79.7559 185.692C80.4682 187.67 81.4905 190.508 82.7508 194.008C83.3776 195.76 84.0634 197.678 84.7997 199.736C84.9833 200.251 85.1698 200.774 85.359 201.306C85.4553 201.567 85.5455 201.849 85.6488 202.1C85.7565 202.347 85.9165 202.575 86.1241 202.755C86.5357 203.115 87.1196 203.295 87.6747 203.188C87.9442 203.139 88.2297 203.014 88.5177 202.917C88.8046 202.816 89.0935 202.713 89.3842 202.61C91.7103 201.785 94.151 200.919 96.6814 200.021C97.9468 199.572 99.2349 199.116 100.542 198.653C101.196 198.422 101.854 198.189 102.517 197.955C103.168 197.771 103.675 197.244 103.827 196.593C103.881 196.368 103.892 196.132 103.858 195.904C103.83 195.678 103.734 195.457 103.653 195.217C103.488 194.75 103.323 194.285 103.16 193.823C102.833 192.897 102.51 191.981 102.19 191.075C101.55 189.262 100.926 187.491 100.319 185.771C99.1084 182.331 97.9699 179.097 96.9311 176.145L97.0835 176.217C91.5578 178.145 86.9619 179.747 83.732 180.874C82.1239 181.428 80.8566 181.865 79.9749 182.169C79.5492 182.314 79.2169 182.426 78.9771 182.508C78.7491 182.582 78.6231 182.618 78.6231 182.618C78.6231 182.618 78.7265 182.572 78.9431 182.49C79.1758 182.404 79.4973 182.286 79.9103 182.134C80.7806 181.818 82.0328 181.365 83.6211 180.789C86.8586 179.628 91.4644 177.977 97.0033 175.991L97.1156 175.951L97.1557 176.064C98.2036 179.013 99.3519 182.244 100.573 185.681C101.182 187.4 101.809 189.17 102.451 190.981C102.772 191.887 103.096 192.803 103.424 193.729C103.588 194.191 103.752 194.656 103.918 195.123C103.994 195.352 104.1 195.592 104.136 195.862C104.175 196.126 104.163 196.397 104.101 196.658C103.935 197.404 103.32 198.023 102.61 198.22C101.947 198.454 101.289 198.687 100.635 198.918C99.3279 199.379 98.0393 199.834 96.7734 200.281C94.2411 201.173 91.7985 202.034 89.4711 202.854C89.1803 202.957 88.891 203.059 88.6036 203.16C88.3142 203.254 88.0419 203.378 87.719 203.438C87.0866 203.557 86.4248 203.351 85.9604 202.941C85.7262 202.736 85.545 202.477 85.4246 202.197C85.3104 201.914 85.2283 201.651 85.1301 201.38C84.9418 200.843 84.7563 200.314 84.5736 199.794C83.8472 197.717 83.1704 195.78 82.5516 194.011C81.331 190.494 80.3417 187.644 79.6521 185.656C79.3193 184.686 79.0588 183.928 78.8766 183.397C78.794 183.15 78.7293 182.957 78.6812 182.813C78.6387 182.681 78.6189 182.615 78.6231 182.618Z" fill="#263238"/>
<path d="M101.119 175.408L73.3478 185.228C70.5234 186.227 67.4237 184.747 66.425 181.922L54.7307 148.852C53.732 146.027 55.2122 142.928 58.0366 141.929L85.8081 132.109C88.6326 131.11 91.7317 132.59 92.731 135.415L104.425 168.485C105.424 171.31 103.943 174.409 101.119 175.408Z" fill="#E0E0E0"/>
<path d="M101.119 175.407C101.104 175.378 101.681 175.243 102.557 174.604C102.983 174.273 103.469 173.798 103.884 173.127C104.299 172.459 104.617 171.576 104.673 170.555C104.696 170.044 104.637 169.504 104.501 168.955C104.352 168.411 104.122 167.848 103.919 167.256C103.497 166.073 103.038 164.788 102.546 163.408C101.562 160.645 100.443 157.5 99.2057 154.024C97.97 150.546 96.6172 146.737 95.1649 142.648C94.4394 140.603 93.6889 138.488 92.9163 136.31C92.718 135.764 92.5519 135.207 92.2748 134.71C92.0015 134.209 91.657 133.735 91.2241 133.347C90.3703 132.566 89.2479 132.036 88.0565 131.95C87.4632 131.903 86.8595 131.956 86.2766 132.106C85.7013 132.263 85.1113 132.506 84.5236 132.704C83.346 133.121 82.1551 133.543 80.9515 133.969C78.5439 134.822 76.0857 135.693 73.5836 136.579C68.578 138.35 63.3955 140.183 58.0878 142.061C56.7898 142.516 55.7009 143.492 55.1076 144.712C54.503 145.927 54.4001 147.366 54.8136 148.637C55.7241 151.222 56.6209 153.77 57.5021 156.273C59.2697 161.281 60.9751 166.111 62.5997 170.713C63.4111 173.014 64.2026 175.258 64.9715 177.438C65.3557 178.528 65.7342 179.602 66.1071 180.66C66.3002 181.182 66.464 181.727 66.6764 182.219C66.8935 182.711 67.1668 183.18 67.5217 183.576C68.2113 184.384 69.1388 184.953 70.1243 185.231C71.1122 185.503 72.1582 185.487 73.0998 185.189C74.9987 184.545 76.8229 183.885 78.5632 183.279C85.5228 180.838 91.1562 178.862 95.0587 177.493C97.0024 176.818 98.5137 176.293 99.5483 175.934C100.057 175.76 100.447 175.627 100.718 175.535C100.981 175.445 101.119 175.407 101.119 175.407C101.119 175.407 100.988 175.464 100.727 175.561C100.457 175.66 100.071 175.801 99.5663 175.986C98.5359 176.357 97.0307 176.899 95.0945 177.596C91.1991 178.985 85.5762 180.989 78.6288 183.466C76.8867 184.08 75.0765 184.741 73.1626 185.397C72.1837 185.709 71.0933 185.73 70.0625 185.448C69.034 185.162 68.0655 184.571 67.3433 183.728C66.9718 183.315 66.6849 182.827 66.4569 182.313C66.2317 181.792 66.075 181.269 65.8787 180.74C65.5039 179.683 65.123 178.61 64.7364 177.52C63.9638 175.342 63.1689 173.099 62.3533 170.8C60.724 166.199 59.0134 161.371 57.2401 156.365C56.3565 153.859 55.4574 151.309 54.5445 148.721C54.1089 147.383 54.217 145.866 54.8532 144.587C55.4772 143.303 56.6261 142.273 57.992 141.796C63.3006 139.919 68.4836 138.088 73.4897 136.319C75.9927 135.435 78.4518 134.567 80.86 133.716C82.064 133.291 83.2558 132.87 84.4335 132.455C85.0301 132.255 85.5908 132.021 86.2077 131.853C86.8199 131.696 87.4538 131.642 88.0759 131.692C89.3257 131.785 90.5015 132.342 91.395 133.161C91.8476 133.57 92.2083 134.066 92.4938 134.591C92.786 135.122 92.9526 135.689 93.148 136.228C93.9164 138.408 94.6622 140.524 95.3834 142.571C96.8239 146.663 98.1663 150.476 99.3916 153.958C100.614 157.439 101.72 160.588 102.693 163.355C103.178 164.738 103.629 166.026 104.044 167.211C104.244 167.808 104.467 168.361 104.618 168.924C104.753 169.487 104.809 170.04 104.78 170.561C104.714 171.602 104.383 172.497 103.953 173.171C103.524 173.849 103.025 174.323 102.589 174.65C102.143 174.965 101.771 175.156 101.512 175.26C101.254 175.362 101.119 175.407 101.119 175.407Z" fill="#455A64"/>
<path d="M100.133 173.559L72.9524 183.17C70.836 183.919 68.5137 182.809 67.7652 180.693L56.262 148.163C55.5134 146.047 56.6226 143.725 58.7391 142.976L85.9197 133.365C88.0361 132.616 90.3584 133.725 91.107 135.842L102.61 168.371C103.358 170.488 102.249 172.81 100.133 173.559Z" fill="#263238"/>
<path d="M100.133 173.559C100.113 173.528 100.673 173.425 101.439 172.759C101.814 172.427 102.224 171.935 102.496 171.251C102.779 170.577 102.894 169.697 102.672 168.771C101.413 165.144 99.5115 159.897 97.2128 153.409C96.0597 150.164 94.7971 146.611 93.442 142.796C92.7652 140.889 92.0647 138.916 91.3435 136.884C91.1561 136.38 91.0027 135.848 90.7653 135.381C90.5218 134.911 90.1786 134.489 89.7618 134.15C88.9321 133.471 87.7988 133.135 86.7066 133.305C86.1643 133.379 85.6394 133.614 85.0909 133.798C84.5481 133.99 84.002 134.184 83.4526 134.378C82.3543 134.768 81.2427 135.161 80.1198 135.559C77.8736 136.355 75.5806 137.167 73.2461 137.994C68.5761 139.646 63.7414 141.357 58.7897 143.109C57.5865 143.529 56.6383 144.557 56.3121 145.771C56.1418 146.375 56.1333 147.016 56.2593 147.624C56.3971 148.22 56.661 148.832 56.8597 149.434C57.7121 151.846 58.5518 154.223 59.3768 156.559C61.026 161.231 62.6166 165.737 64.1318 170.031C64.8889 172.177 65.6271 174.271 66.344 176.305C66.7023 177.322 67.0558 178.324 67.4032 179.311C67.5793 179.801 67.7445 180.299 67.9252 180.773C68.1046 181.239 68.3717 181.667 68.7059 182.027C69.3719 182.754 70.3069 183.193 71.2519 183.273C71.7248 183.315 72.1997 183.269 72.649 183.146C73.095 183.019 73.5472 182.838 73.989 182.69C75.7614 182.066 77.4629 181.468 79.0871 180.897C85.5799 178.621 90.8347 176.778 94.4771 175.502C96.2901 174.873 97.6999 174.384 98.6661 174.049C99.14 173.888 99.5035 173.764 99.7579 173.678C100.004 173.595 100.133 173.559 100.133 173.559C100.133 173.559 100.011 173.613 99.7673 173.704C99.5153 173.796 99.1546 173.929 98.685 174.101C97.7226 174.448 96.3193 174.954 94.5135 175.604C90.8786 176.901 85.6333 178.772 79.1532 181.083C77.5309 181.66 75.8317 182.264 74.0612 182.893C73.6133 183.046 73.1833 183.221 72.708 183.359C72.2341 183.49 71.7319 183.54 71.2321 183.497C70.2328 183.415 69.2431 182.953 68.5351 182.185C68.1801 181.804 67.8955 181.351 67.7043 180.858C67.5174 180.37 67.3546 179.883 67.1762 179.39C66.8264 178.404 66.471 177.403 66.1104 176.387C65.3896 174.354 64.6477 172.262 63.8868 170.117C62.3665 165.825 60.7707 161.32 59.1163 156.651C58.2898 154.315 57.4487 151.939 56.5949 149.527C56.3933 148.914 56.1394 148.342 55.9841 147.683C55.8482 147.031 55.8581 146.343 56.0403 145.696C56.2239 145.052 56.5505 144.442 57.0131 143.949C57.4747 143.456 58.0557 143.072 58.6953 142.843C63.648 141.092 68.4831 139.383 73.1536 137.733C75.489 136.908 77.783 136.098 80.0297 135.305C81.153 134.908 82.2646 134.516 83.3639 134.128C83.9133 133.934 84.4599 133.742 85.0031 133.55C85.544 133.37 86.0774 133.13 86.6684 133.047C87.8337 132.869 89.0397 133.228 89.9219 133.953C90.3646 134.314 90.729 134.764 90.9876 135.265C91.2444 135.775 91.3888 136.294 91.5767 136.8C92.2932 138.834 92.9889 140.808 93.662 142.718C95.0058 146.536 96.2575 150.093 97.4007 153.341C99.6762 159.842 101.545 165.085 102.778 168.744C102.998 169.697 102.87 170.597 102.573 171.282C102.287 171.976 101.863 172.47 101.476 172.801C101.092 173.14 100.734 173.307 100.502 173.422C100.26 173.518 100.133 173.559 100.133 173.559Z" fill="#455A64"/>
<path d="M89.1111 157.32C89.1069 157.32 89.0974 157.265 89.0833 157.159C89.0691 157.039 89.0502 156.883 89.0266 156.686C89.0082 156.477 88.9766 156.221 88.9039 155.924C88.8416 155.625 88.7798 155.277 88.6467 154.903C88.4343 154.14 88.0312 153.246 87.418 152.308C86.8007 151.373 85.9284 150.407 84.7645 149.606C83.6048 148.813 82.1571 148.16 80.5103 147.942C78.8753 147.734 77.0454 147.865 75.3301 148.604C74.8926 148.766 74.4848 149.004 74.0647 149.228C73.6691 149.492 73.251 149.737 72.8861 150.061C72.4962 150.354 72.1597 150.715 71.8057 151.063C71.489 151.446 71.1553 151.821 70.8867 152.252C70.3335 153.095 69.8592 154.025 69.5915 155.037C69.3121 156.043 69.1842 157.105 69.2163 158.178C69.2767 159.251 69.4953 160.298 69.8606 161.277C70.2141 162.262 70.7673 163.148 71.3913 163.94C71.6962 164.346 72.061 164.691 72.4094 165.045C72.7917 165.362 73.1584 165.693 73.5724 165.951C73.9637 166.242 74.4017 166.451 74.8185 166.679C75.2565 166.866 75.6832 167.068 76.133 167.192C77.9058 167.78 79.74 167.752 81.3514 167.404C82.9732 167.045 84.359 166.269 85.446 165.379C86.5363 164.48 87.3217 163.443 87.8561 162.458C88.3856 161.47 88.7104 160.545 88.8557 159.767C88.9563 159.382 88.9879 159.031 89.0243 158.728C89.071 158.425 89.0804 158.167 89.0809 157.958C89.0875 157.759 89.0927 157.602 89.0965 157.482C89.1021 157.375 89.1069 157.32 89.1111 157.32C89.1154 157.32 89.1191 157.374 89.1224 157.482C89.1248 157.602 89.1276 157.76 89.1314 157.959C89.1389 158.17 89.1375 158.43 89.0984 158.735C89.0696 159.042 89.045 159.397 88.9511 159.786C88.8185 160.575 88.5041 161.515 87.9788 162.524C87.4487 163.528 86.6609 164.589 85.5588 165.512C84.46 166.427 83.0525 167.227 81.3991 167.603C79.7565 167.967 77.8827 168.003 76.0664 167.408C75.6058 167.283 75.1682 167.078 74.7198 166.888C74.2922 166.656 73.8438 166.443 73.4421 166.146C73.0178 165.882 72.6416 165.545 72.2498 165.221C71.8921 164.859 71.5178 164.506 71.2048 164.092C70.5648 163.281 69.9975 162.373 69.6335 161.364C69.2583 160.361 69.0341 159.288 68.9723 158.189C68.9392 157.09 69.0705 156.001 69.3579 154.97C69.6335 153.933 70.1202 152.98 70.688 152.118C70.9641 151.678 71.3063 151.293 71.6315 150.902C71.994 150.546 72.34 150.178 72.7398 149.878C73.1141 149.548 73.5427 149.298 73.9486 149.03C74.379 148.801 74.7972 148.559 75.2452 148.395C77.0029 147.646 78.8725 147.52 80.5401 147.741C82.2194 147.971 83.6911 148.648 84.8645 149.464C86.0422 150.288 86.9187 151.278 87.5337 152.232C88.144 153.191 88.5386 154.102 88.7392 154.876C88.8661 155.256 88.9214 155.607 88.9766 155.91C89.0422 156.211 89.0663 156.47 89.0766 156.68C89.0903 156.879 89.1007 157.037 89.1092 157.157C89.1144 157.265 89.1154 157.319 89.1111 157.32Z" fill="#C567FE"/>
<path d="M74.1787 160.673L75.0363 158.432L78.9039 159.657L81.8346 152.492L83.9647 153.399L80.3218 162.84L74.1787 160.673Z" fill="#C567FE"/>
<g opacity="0.3">
<path d="M68.0675 181.441L86.7001 133.24L58.0611 143.325C56.7078 143.804 55.8497 145.74 56.2665 148.07L68.0675 181.441Z" fill="white"/>
</g>
<path d="M154.996 69.7711L77.1297 84.6815C75.7274 84.9501 74.3727 84.0311 74.1042 82.6288L65.0002 35.0861C64.7317 33.6838 65.6511 32.3292 67.053 32.0606L144.92 17.1501C146.322 16.8816 147.677 17.8006 147.945 19.2029L157.049 66.7455C157.318 68.1483 156.399 69.503 154.996 69.7711Z" fill="#C567FE"/>
<path d="M80.4748 41.9521C80.6036 42.6257 80.1439 43.117 79.1206 43.3129L77.1066 43.6985L76.3608 39.805L78.2635 39.4406C79.2367 39.2542 79.8149 39.5643 79.931 40.1708C80.0056 40.5602 79.8631 40.8986 79.578 41.1261C80.0391 41.1823 80.3813 41.4627 80.4748 41.9521ZM77.387 40.3115L77.5626 41.229L78.4579 41.0577C78.8969 40.9737 79.1069 40.7721 79.0484 40.4663C78.9899 40.16 78.7213 40.0556 78.2824 40.1397L77.387 40.3115ZM79.5497 42.031C79.4869 41.7029 79.207 41.5948 78.7392 41.6845L77.6886 41.8856L77.8727 42.8475L78.9233 42.6465C79.3916 42.5572 79.6139 42.3651 79.5497 42.031Z" fill="white"/>
<path d="M83.7637 41.5591L81.9554 41.905L81.7699 42.8056L80.8472 42.9821L81.837 38.7563L82.7271 38.5859L85.2136 42.1462L84.2678 42.3275L83.7637 41.5591ZM83.3492 40.9289L82.4463 39.5564L82.1145 41.1654L83.3492 40.9289Z" fill="white"/>
<path d="M88.4427 37.4902L89.1885 41.3838L88.4484 41.5254L86.0544 39.5331L86.507 41.8973L85.6169 42.0677L84.8711 38.1742L85.6169 38.0311L88.0047 40.0244L87.5521 37.6606L88.4427 37.4902Z" fill="white"/>
<path d="M91.2338 39.4068L90.8156 40.0521L91.0039 41.0367L90.1081 41.2085L89.3623 37.3145L90.2582 37.1431L90.6065 38.9617L91.9824 36.8127L92.9835 36.6211L91.703 38.6653L93.8236 40.4967L92.772 40.6978L91.2338 39.4068Z" fill="white"/>
<path d="M82.8459 58.2811L82.1309 58.418L82.3107 59.3577L81.9435 59.428L81.7636 58.4883L79.7468 58.8744L79.6958 58.6091L81.1363 55.8772L81.5451 55.7988L80.1593 58.4567L81.7112 58.1598L81.5527 57.3328L81.91 57.2644L82.0681 58.0913L82.7832 57.9545L82.8459 58.2811Z" fill="white"/>
<path d="M85.4538 57.6909C85.5685 58.2884 85.2221 58.8308 84.3593 58.996C83.8434 59.0946 83.3138 59.0106 82.9843 58.7831L83.1075 58.4579C83.3832 58.6542 83.8297 58.7482 84.2951 58.6594C84.8874 58.5461 85.1612 58.2077 85.0762 57.7636C84.9941 57.3345 84.6387 57.1117 83.975 57.2387L83.7197 57.2873L83.6678 57.0169L84.4206 55.5862L82.5926 55.9365L82.5298 55.6098L84.8275 55.1699L84.8775 55.4305L84.1105 56.8951C84.8841 56.7894 85.3443 57.1193 85.4538 57.6909Z" fill="white"/>
<path d="M88.3386 57.1134C88.4547 57.7209 88.1215 58.2769 87.2487 58.444C86.7333 58.5427 86.2089 58.4577 85.8795 58.2297L86.0026 57.904C86.2778 58.1004 86.7196 58.1957 87.1793 58.1075C87.7868 57.9909 88.0521 57.6336 87.969 57.1994C87.8807 56.7401 87.5404 56.5083 86.6314 56.6825L85.8705 56.8284L85.7114 55.0012L87.6669 54.627L87.7297 54.9536L86.0956 55.2665L86.191 56.4286L86.6507 56.3403C87.7273 56.1345 88.2173 56.4805 88.3386 57.1134Z" fill="white"/>
<path d="M91.4853 56.4949C91.6132 57.1642 91.169 57.6934 90.4752 57.8265C89.526 58.0082 88.8836 57.4484 88.6679 56.3198C88.4352 55.1049 88.9775 54.3445 89.948 54.1585C90.2694 54.0972 90.5819 54.0953 90.833 54.1902L90.7414 54.5149C90.5347 54.4276 90.2802 54.4285 90.015 54.4795C89.2437 54.6272 88.8435 55.2172 89.029 56.1872C89.0445 56.2689 89.0696 56.3699 89.1002 56.4751C89.2036 56.0475 89.5803 55.7482 90.0754 55.6534C90.7848 55.5174 91.3602 55.8412 91.4853 56.4949ZM91.1242 56.5747C91.034 56.1051 90.6295 55.87 90.0782 55.9757C89.5321 56.0805 89.2239 56.4888 89.3089 56.933C89.3844 57.3261 89.7823 57.6362 90.3997 57.5182C90.9156 57.4186 91.2153 57.0491 91.1242 56.5747Z" fill="white"/>
<path d="M99.4134 56.0828L98.3457 55.1227L97.7033 56.4104L97.2946 56.4887L98.0927 54.907L96.8311 53.7936L97.2398 53.7152L98.2475 54.6125L98.8526 53.4065L99.251 53.3301L98.4901 54.8306L99.8268 56.0035L99.4134 56.0828Z" fill="white"/>
<path d="M102.14 55.5593L101.072 54.5993L100.43 55.8869L100.021 55.9653L100.819 54.3836L99.5576 53.2701L99.9664 53.1918L100.975 54.0891L101.58 52.8831L101.978 52.8066L101.217 54.3071L102.554 55.48L102.14 55.5593Z" fill="white"/>
<path d="M104.866 55.0383L103.798 54.0783L103.155 55.3659L102.747 55.4443L103.545 53.8621L102.284 52.7487L102.692 52.6703L103.701 53.5676L104.306 52.3616L104.704 52.2852L103.943 53.7861L105.28 54.959L104.866 55.0383Z" fill="white"/>
<path d="M107.592 54.5164L106.524 53.5563L105.882 54.8439L105.473 54.9223L106.271 53.3406L105.01 52.2272L105.419 52.1488L106.427 53.0461L107.032 51.8401L107.43 51.7637L106.669 53.2642L108.006 54.4371L107.592 54.5164Z" fill="white"/>
<path d="M117.006 52.7141L115.938 51.7541L115.296 53.0417L114.887 53.12L115.685 51.5379L114.424 50.4244L114.833 50.3461L115.841 51.2434L116.446 50.0374L116.844 49.9609L116.083 51.4619L117.42 52.6348L117.006 52.7141Z" fill="white"/>
<path d="M119.732 52.1922L118.665 51.2321L118.022 52.5197L117.613 52.5981L118.412 51.0164L117.15 49.903L117.559 49.8246L118.567 50.7219L119.172 49.5159L119.57 49.4395L118.809 50.9404L120.146 52.1133L119.732 52.1922Z" fill="white"/>
<path d="M122.458 51.6687L121.391 50.7087L120.748 51.9963L120.339 52.0746L121.138 50.493L119.876 49.3795L120.285 49.3012L121.293 50.1984L121.898 48.9925L122.296 48.916L121.536 50.417L122.872 51.5899L122.458 51.6687Z" fill="white"/>
<path d="M125.185 51.1468L124.117 50.1867L123.475 51.4743L123.066 51.5527L123.864 49.971L122.603 48.8576L123.011 48.7792L124.019 49.6765L124.625 48.4705L125.023 48.3945L124.262 49.895L125.599 51.0679L125.185 51.1468Z" fill="white"/>
<path d="M132.955 45.9551L133.639 49.5291L133.272 49.5994L132.65 46.352L131.807 46.5135L131.745 46.1868L132.955 45.9551Z" fill="white"/>
<path d="M136.658 47.8862C136.773 48.4837 136.427 49.0261 135.564 49.1913C135.048 49.2899 134.519 49.2059 134.189 48.9784L134.313 48.6527C134.589 48.8491 135.035 48.943 135.5 48.8543C136.093 48.741 136.366 48.4026 136.281 47.9584C136.199 47.5294 135.844 47.3066 135.18 47.4335L134.925 47.4826L134.873 47.2122L135.626 45.7815L133.798 46.1318L133.735 45.8051L136.033 45.3652L136.083 45.6258L135.315 47.0909C136.089 46.9842 136.549 47.3141 136.658 47.8862Z" fill="white"/>
<path d="M140.229 47.2928L139.514 47.4297L139.694 48.3694L139.327 48.4398L139.147 47.5L137.13 47.8861L137.079 47.6204L138.52 44.8889L138.928 44.8105L137.543 47.4684L139.095 47.171L138.936 46.3441L139.293 46.2756L139.451 47.1026L140.166 46.9657L140.229 47.2928Z" fill="white"/>
<path d="M143.103 47.3776L143.165 47.7042L140.658 48.1842L140.608 47.9237L141.816 46.1839C142.143 45.7086 142.174 45.4537 142.126 45.2088C142.047 44.7953 141.708 44.5956 141.161 44.7004C140.742 44.7807 140.445 44.9699 140.262 45.2852L139.958 45.1106C140.172 44.7311 140.581 44.4621 141.127 44.3573C141.852 44.2185 142.382 44.4979 142.496 45.0955C142.562 45.4377 142.513 45.7643 142.124 46.326L141.137 47.7533L143.103 47.3776Z" fill="white"/>
<path d="M79.5088 67.5858C79.4102 67.0718 79.7344 66.6281 80.2659 66.5266C80.5604 66.47 80.8271 66.5304 81.0254 66.6942L80.8167 66.9764C80.677 66.8669 80.5199 66.8263 80.3499 66.8589C80.0304 66.9203 79.8468 67.1874 79.9086 67.5093C79.97 67.8307 80.2395 68.0115 80.559 67.9506C80.7294 67.9181 80.8602 67.8223 80.9489 67.666L81.2472 67.8515C81.124 68.08 80.8984 68.2343 80.6015 68.291C80.0724 68.3924 79.6075 68.1003 79.5088 67.5858Z" fill="white"/>
<path d="M82.5873 67.5015L81.7957 67.653L81.7141 68.0476L81.3101 68.125L81.7438 66.2738L82.1337 66.1992L83.2226 67.7587L82.8087 67.838L82.5873 67.5015ZM82.4056 67.2258L82.0105 66.6245L81.8651 67.3292L82.4056 67.2258Z" fill="white"/>
<path d="M84.4893 67.5158L84.0693 67.1037L84.0499 67.1075L83.7068 67.1731L83.7974 67.6479L83.4028 67.7235L83.0762 66.0181L83.8139 65.877C84.2699 65.7897 84.5998 65.9719 84.6729 66.3537C84.722 66.6095 84.6291 66.8219 84.4251 66.9593L84.9132 67.4341L84.4893 67.5158ZM83.854 66.2031L83.5326 66.2645L83.6463 66.8592L83.9678 66.7979C84.209 66.7516 84.3095 66.6161 84.2741 66.4311C84.2387 66.2433 84.0957 66.1569 83.854 66.2031Z" fill="white"/>
<path d="M85.0307 67.2369L85.1081 66.9146C85.2714 66.9915 85.4999 67.0236 85.7052 66.9844C85.9388 66.9396 86.0186 66.8437 85.9988 66.7385C85.9379 66.4194 84.9882 66.8286 84.8674 66.1952C84.8117 65.9049 84.9995 65.6194 85.4843 65.5264C85.6986 65.4853 85.928 65.4948 86.1054 65.5642L86.0412 65.887C85.8652 65.8271 85.6934 65.8148 85.5423 65.8436C85.3087 65.8884 85.2351 65.9932 85.2558 66.1003C85.3163 66.4147 86.2664 66.0078 86.3863 66.6342C86.441 66.9193 86.2508 67.2081 85.7632 67.3016C85.4928 67.3535 85.2044 67.3252 85.0307 67.2369Z" fill="white"/>
<path d="M88.6819 64.9453L89.0085 66.6507L88.6139 66.7262L88.4799 66.0271L87.7049 66.1753L87.8389 66.8744L87.4448 66.9499L87.1182 65.2446L87.5123 65.169L87.6411 65.8416L88.4162 65.6934L88.2873 65.0208L88.6819 64.9453Z" fill="white"/>
<path d="M89.1451 65.7409C89.0479 65.234 89.3708 64.7832 89.9098 64.6803C90.445 64.5779 90.9137 64.8743 91.0114 65.3836C91.1087 65.8929 90.783 66.3417 90.2477 66.4442C89.7087 66.5471 89.2424 66.2478 89.1451 65.7409ZM90.6116 65.46C90.5498 65.1363 90.2784 64.9578 89.974 65.0164C89.6691 65.0749 89.4826 65.3402 89.5445 65.6644C89.6063 65.9882 89.8777 66.1666 90.1826 66.1081C90.4875 66.0496 90.6735 65.7838 90.6116 65.46Z" fill="white"/>
<path d="M91.1494 64.472L91.5435 64.3965L91.8083 65.7804L92.6636 65.6166L92.7249 65.938L91.4751 66.1773L91.1494 64.472Z" fill="white"/>
<path d="M92.623 64.1894L93.3976 64.0412C93.956 63.9341 94.403 64.197 94.5016 64.7138C94.6007 65.2302 94.2826 65.6399 93.7242 65.7465L92.9497 65.8948L92.623 64.1894ZM93.6426 65.4261C93.9815 65.3614 94.1646 65.1164 94.1018 64.7903C94.0395 64.4637 93.779 64.3041 93.4401 64.3693L93.0795 64.4382L93.282 65.4954L93.6426 65.4261Z" fill="white"/>
<path d="M96.2246 64.9411L96.2855 65.2578L94.9653 65.5108L94.6387 63.8054L95.9272 63.5586L95.9881 63.8753L95.0918 64.0471L95.1626 64.4176L95.9541 64.2661L96.0127 64.5729L95.2211 64.7244L95.2966 65.119L96.2246 64.9411Z" fill="white"/>
<path d="M97.6886 64.9884L97.2685 64.5764L97.2491 64.5801L96.9055 64.6458L96.9966 65.1206L96.6025 65.1961L96.2759 63.4908L97.0136 63.3496C97.4696 63.2623 97.7995 63.4445 97.8727 63.8268C97.9217 64.0827 97.8288 64.2951 97.6249 64.4324L98.1129 64.9072L97.6886 64.9884ZM97.0533 63.6753L96.7318 63.7367L96.8456 64.3309L97.167 64.2696C97.4082 64.2233 97.5087 64.0879 97.4733 63.9028C97.4379 63.7154 97.2949 63.6291 97.0533 63.6753Z" fill="white"/>
<path d="M105.117 70.2279L81.206 74.8067C80.8223 74.8804 80.4518 74.6288 80.3781 74.2451L80.2252 73.4469C80.1516 73.0632 80.4031 72.6926 80.7869 72.619L104.697 68.0401C105.081 67.9665 105.452 68.2181 105.525 68.6018L105.678 69.4C105.752 69.7837 105.5 70.1542 105.117 70.2279Z" fill="white"/>
<path d="M146.931 62.2201L134.267 64.6452C133.883 64.7188 133.512 64.4672 133.439 64.0835L133.286 63.2853C133.212 62.9016 133.464 62.5311 133.847 62.4575L146.512 60.0323C146.896 59.9587 147.266 60.2103 147.34 60.594L147.493 61.3922C147.566 61.7759 147.315 62.1464 146.931 62.2201Z" fill="white"/>
<g opacity="0.2">
<path d="M144.711 17.1911L67.2619 32.0213C65.7444 32.3121 64.7495 33.7781 65.0402 35.2956L67.7009 49.1903C73.2492 51.665 80.0833 50.9783 85.8077 48.59C92.5555 45.7745 98.2317 40.9624 104.216 36.7621C110.201 32.5623 116.941 28.8202 124.251 28.6777C131.149 28.5436 137.639 31.614 144.265 33.5365C146.406 34.1576 148.673 34.632 150.941 34.8467L147.985 19.4123C147.694 17.8953 146.228 16.9003 144.711 17.1911Z" fill="white"/>
</g>
<path d="M117.56 39.3594C111.924 39.3594 107.423 44.044 107.66 49.6749C108.918 79.5587 113.164 166.565 114.648 196.837C114.937 202.739 119.806 207.367 125.715 207.367H176.919C182.878 207.367 187.77 202.655 187.992 196.7L193.477 50.0591C193.696 44.2158 189.018 39.3598 183.17 39.3598L117.56 39.3594Z" fill="#263238"/>
<path opacity="0.3" d="M186.161 63.5254H115.707V126.205H186.161V63.5254Z" fill="black"/>
<path d="M124.861 59.2877H177.773C182.299 59.2877 185.869 55.4371 185.527 50.9239C185.22 46.8685 181.84 43.7344 177.773 43.7344H124.861C120.821 43.7344 117.454 46.8279 117.112 50.8531C116.727 55.3914 120.306 59.2877 124.861 59.2877Z" fill="#455A64"/>
<path d="M138.692 142.419H123.266C122.681 142.419 122.207 141.945 122.207 141.36V135.201C122.207 134.616 122.681 134.143 123.266 134.143H138.692C139.276 134.143 139.75 134.616 139.75 135.201V141.36C139.751 141.945 139.276 142.419 138.692 142.419Z" fill="#E0E0E0"/>
<path d="M159.701 142.419H144.275C143.691 142.419 143.217 141.945 143.217 141.36V135.201C143.217 134.616 143.691 134.143 144.275 134.143H159.701C160.286 134.143 160.76 134.616 160.76 135.201V141.36C160.761 141.945 160.286 142.419 159.701 142.419Z" fill="#E0E0E0"/>
<path d="M180.712 142.419H165.286C164.701 142.419 164.227 141.945 164.227 141.36V135.201C164.227 134.616 164.701 134.143 165.286 134.143H180.712C181.296 134.143 181.77 134.616 181.77 135.201V141.36C181.771 141.945 181.296 142.419 180.712 142.419Z" fill="#E0E0E0"/>
<path d="M138.692 155.861H123.266C122.681 155.861 122.207 155.387 122.207 154.802V148.643C122.207 148.058 122.681 147.584 123.266 147.584H138.692C139.276 147.584 139.75 148.058 139.75 148.643V154.802C139.751 155.387 139.276 155.861 138.692 155.861Z" fill="#E0E0E0"/>
<path d="M159.701 155.861H144.275C143.691 155.861 143.217 155.387 143.217 154.802V148.643C143.217 148.058 143.691 147.584 144.275 147.584H159.701C160.286 147.584 160.76 148.058 160.76 148.643V154.802C160.761 155.387 160.286 155.861 159.701 155.861Z" fill="#E0E0E0"/>
<path d="M180.712 155.861H165.286C164.701 155.861 164.227 155.387 164.227 154.802V148.643C164.227 148.058 164.701 147.584 165.286 147.584H180.712C181.296 147.584 181.77 148.058 181.77 148.643V154.802C181.771 155.387 181.296 155.861 180.712 155.861Z" fill="#E0E0E0"/>
<path d="M138.692 169.302H123.266C122.681 169.302 122.207 168.828 122.207 168.243V162.084C122.207 161.499 122.681 161.025 123.266 161.025H138.692C139.276 161.025 139.75 161.499 139.75 162.084V168.243C139.751 168.828 139.276 169.302 138.692 169.302Z" fill="#E0E0E0"/>
<path d="M159.701 169.302H144.275C143.691 169.302 143.217 168.828 143.217 168.243V162.084C143.217 161.499 143.691 161.025 144.275 161.025H159.701C160.286 161.025 160.76 161.499 160.76 162.084V168.243C160.761 168.828 160.286 169.302 159.701 169.302Z" fill="#E0E0E0"/>
<path d="M180.712 169.302H165.286C164.701 169.302 164.227 168.828 164.227 168.243V162.084C164.227 161.499 164.701 161.025 165.286 161.025H180.712C181.296 161.025 181.77 161.499 181.77 162.084V168.243C181.771 168.828 181.296 169.302 180.712 169.302Z" fill="#E0E0E0"/>
<path d="M138.692 182.745H123.266C122.681 182.745 122.207 182.271 122.207 181.687V175.527C122.207 174.943 122.681 174.469 123.266 174.469H138.692C139.276 174.469 139.75 174.943 139.75 175.527V181.687C139.751 182.271 139.276 182.745 138.692 182.745Z" fill="#E0E0E0"/>
<path d="M159.701 182.745H144.275C143.691 182.745 143.217 182.271 143.217 181.687V175.527C143.217 174.943 143.691 174.469 144.275 174.469H159.701C160.286 174.469 160.76 174.943 160.76 175.527V181.687C160.761 182.271 160.286 182.745 159.701 182.745Z" fill="#E0E0E0"/>
<path d="M180.712 182.745H165.286C164.701 182.745 164.227 182.271 164.227 181.687V175.527C164.227 174.943 164.701 174.469 165.286 174.469H180.712C181.296 174.469 181.77 174.943 181.77 175.527V181.687C181.771 182.271 181.296 182.745 180.712 182.745Z" fill="#E0E0E0"/>
<path d="M138.692 197.491H123.266C122.681 197.491 122.207 197.017 122.207 196.433V188.43C122.207 187.845 122.681 187.371 123.266 187.371H138.692C139.276 187.371 139.75 187.845 139.75 188.43V196.433C139.751 197.017 139.276 197.491 138.692 197.491Z" fill="#C567FE"/>
<path d="M159.701 197.491H144.275C143.691 197.491 143.217 197.017 143.217 196.433V188.43C143.217 187.845 143.691 187.371 144.275 187.371H159.701C160.286 187.371 160.76 187.845 160.76 188.43V196.433C160.761 197.017 160.286 197.491 159.701 197.491Z" fill="#E0E0E0"/>
<path d="M180.712 197.491H165.286C164.701 197.491 164.227 197.017 164.227 196.433V188.43C164.227 187.845 164.701 187.371 165.286 187.371H180.712C181.296 187.371 181.77 187.845 181.77 188.43V196.433C181.771 197.017 181.296 197.491 180.712 197.491Z" fill="#455A64"/>
<path d="M134.187 122.272H125.474C124.955 122.272 124.534 121.851 124.534 121.331V118.46C124.534 117.941 124.955 117.52 125.474 117.52H134.187C134.707 117.52 135.128 117.941 135.128 118.46V121.331C135.128 121.851 134.707 122.272 134.187 122.272Z" fill="#455A64"/>
<path d="M149.355 122.272H140.642C140.122 122.272 139.701 121.851 139.701 121.331V118.46C139.701 117.941 140.122 117.52 140.642 117.52H149.355C149.874 117.52 150.295 117.941 150.295 118.46V121.331C150.295 121.851 149.874 122.272 149.355 122.272Z" fill="#455A64"/>
<path d="M163.942 122.272H155.229C154.71 122.272 154.289 121.851 154.289 121.331V118.46C154.289 117.941 154.71 117.52 155.229 117.52H163.942C164.462 117.52 164.883 117.941 164.883 118.46V121.331C164.883 121.851 164.462 122.272 163.942 122.272Z" fill="#455A64"/>
<path d="M179.323 122.272H170.611C170.091 122.272 169.67 121.851 169.67 121.331V118.46C169.67 117.941 170.091 117.52 170.611 117.52H179.323C179.843 117.52 180.264 117.941 180.264 118.46V121.331C180.264 121.851 179.843 122.272 179.323 122.272Z" fill="#455A64"/>
<path d="M181.771 69.6621H120.513V112.098H181.771V69.6621Z" fill="#455A64"/>
<path opacity="0.3" d="M190.177 138.281L168.888 67.254C167.723 63.3699 170.114 59.3168 174.076 58.4559L193.319 54.2754L190.177 138.281Z" fill="black"/>
<path d="M147.013 89.8557C148.339 91.385 148.485 93.6005 147.441 95.3191C147.045 95.97 148.066 96.5637 148.46 95.9147C149.791 93.7237 149.517 90.9469 147.848 89.0212C147.35 88.4463 146.518 89.2841 147.013 89.8557Z" fill="white"/>
<path d="M149.778 87.5547C152.003 90.12 152.273 93.8328 150.517 96.7233C150.122 97.3742 151.142 97.968 151.536 97.319C153.579 93.956 153.18 89.682 150.613 86.7202C150.114 86.1458 149.282 86.9831 149.778 87.5547Z" fill="white"/>
<path d="M153.333 85.6753C156.299 89.0912 156.675 94.0547 154.329 97.9082C153.933 98.5586 154.953 99.1523 155.348 98.5038C157.982 94.1775 157.478 88.6536 154.167 84.8413C153.668 84.2669 152.836 85.1042 153.333 85.6753Z" fill="white"/>
<path d="M156.47 84.2143C160.113 88.3967 160.586 94.5101 157.7 99.231C157.303 99.8805 158.323 100.474 158.719 99.8267C161.893 94.6347 161.291 87.9573 157.304 83.3798C156.804 82.8064 155.973 83.6437 156.47 84.2143Z" fill="white"/>
<path d="M169.244 91.0688C169.202 96.6483 164.484 100.697 159.459 102.16C153.85 103.793 147.114 102.732 142.791 98.6236C140.953 96.8767 139.629 94.5625 139.379 92.0118C139.131 89.4814 139.939 86.9883 141.47 84.9781C145.049 80.2798 151.62 78.573 157.262 79.4831C162.458 80.3213 167.896 83.6622 169.046 89.1402C169.18 89.776 169.239 90.4198 169.244 91.0688C169.247 91.4483 169.837 91.4492 169.834 91.0688C169.79 85.2537 164.946 80.9878 159.697 79.4321C153.844 77.6975 146.808 78.8336 142.319 83.1486C140.408 84.9852 139.074 87.398 138.796 90.0535C138.518 92.7161 139.373 95.3706 140.983 97.487C144.705 102.381 151.451 104.157 157.331 103.236C162.792 102.382 168.519 98.7841 169.643 93.0134C169.768 92.372 169.828 91.7215 169.833 91.0683C169.837 90.6888 169.247 90.6883 169.244 91.0688Z" fill="white"/>
<path d="M238.53 141.858L205.729 150.528C201.784 151.571 197.741 149.219 196.697 145.274L174.928 63.0519C173.883 59.1051 176.236 55.0591 180.183 54.0155L212.983 45.3448C216.928 44.3022 220.972 46.6537 222.016 50.5982L243.785 132.821C244.83 136.768 242.477 140.814 238.53 141.858Z" fill="#E0E0E0"/>
<path d="M238.53 141.858C238.501 141.809 239.562 141.708 241.095 140.579C241.848 140.013 242.663 139.132 243.268 137.89C243.556 137.266 243.797 136.557 243.914 135.771C244.019 134.986 244.008 134.131 243.828 133.255C241.982 126.298 239.312 116.236 236.013 103.804C232.713 91.3678 228.783 76.5607 224.42 60.12C223.875 58.0649 223.324 55.9838 222.765 53.8787C222.129 51.8151 221.937 49.4905 220.44 47.8211C219.733 46.987 218.841 46.2932 217.827 45.849C216.814 45.404 215.696 45.1859 214.579 45.2279C213.46 45.2482 212.378 45.6574 211.262 45.9241C210.154 46.2172 209.04 46.5117 207.922 46.8077C198.974 49.1738 189.71 51.6235 180.22 54.1326C179.054 54.4484 177.975 55.0497 177.094 55.8635C176.232 56.6951 175.559 57.7255 175.181 58.8564C174.814 59.9883 174.704 61.2056 174.909 62.3728C175.018 62.951 175.181 63.5325 175.334 64.1126C175.488 64.6927 175.641 65.2714 175.794 65.8491C177.017 70.4709 178.222 75.0253 179.406 79.4998C181.773 88.4499 184.056 97.0828 186.231 105.307C188.404 113.531 190.47 121.346 192.403 128.66C193.368 132.317 194.301 135.849 195.197 139.244C195.645 140.941 196.084 142.605 196.514 144.233C196.735 145.047 196.915 145.857 197.28 146.587C197.642 147.315 198.117 147.975 198.676 148.539C199.789 149.681 201.267 150.37 202.756 150.61C203.505 150.716 204.257 150.707 204.987 150.603C205.709 150.468 206.419 150.261 207.12 150.08C209.922 149.343 212.564 148.648 215.036 147.998C219.977 146.7 224.234 145.582 227.715 144.668C231.193 143.759 233.894 143.053 235.73 142.573C236.645 142.337 237.343 142.157 237.817 142.034C238.287 141.914 238.53 141.858 238.53 141.858C238.53 141.858 238.292 141.93 237.823 142.058C237.351 142.186 236.655 142.374 235.744 142.62C233.91 143.11 231.213 143.831 227.74 144.759C224.262 145.685 220.009 146.816 215.071 148.13C212.601 148.786 209.96 149.487 207.16 150.231C206.458 150.413 205.757 150.621 205.013 150.761C204.267 150.87 203.499 150.88 202.732 150.773C201.209 150.53 199.696 149.828 198.554 148.662C197.98 148.085 197.493 147.41 197.121 146.664C196.745 145.915 196.559 145.086 196.339 144.279C195.907 142.652 195.466 140.989 195.015 139.292C194.114 135.898 193.177 132.368 192.206 128.712C190.267 121.4 188.194 113.586 186.013 105.364C183.834 97.1418 181.546 88.5098 179.174 79.5612C177.989 75.0866 176.782 70.5328 175.558 65.9114C175.405 65.3337 175.252 64.755 175.098 64.1754C174.945 63.5953 174.783 63.0199 174.667 62.4144C174.456 61.2079 174.569 59.9486 174.949 58.7785C175.34 57.6094 176.034 56.5446 176.926 55.6846C177.836 54.8425 178.954 54.2209 180.158 53.8948C189.647 51.387 198.912 48.9392 207.861 46.5745C208.979 46.279 210.093 45.985 211.202 45.6919C211.756 45.5456 212.309 45.3997 212.861 45.2539C213.139 45.1854 213.426 45.1316 213.708 45.0707C213.996 45.0448 214.282 44.9976 214.57 44.9895C215.724 44.9466 216.878 45.1727 217.923 45.6329C218.971 46.0921 219.891 46.8082 220.62 47.67C221.348 48.5338 221.877 49.5604 222.149 50.6436C222.43 51.708 222.71 52.7667 222.989 53.8197C223.545 55.9248 224.096 58.0064 224.639 60.0619C228.983 76.5078 232.896 91.3192 236.182 103.76C239.455 116.203 242.136 126.261 243.923 133.236C244.102 134.123 244.109 134.989 243.998 135.783C243.877 136.577 243.629 137.292 243.335 137.922C242.717 139.172 241.888 140.055 241.126 140.618C240.369 141.201 239.68 141.459 239.235 141.647C238.769 141.791 238.53 141.858 238.53 141.858Z" fill="#263238"/>
<path d="M213.699 48.1926L207.34 49.8739L188.767 54.7836L186.531 55.3746L180.965 56.8458C178.201 57.5764 176.553 60.4103 177.284 63.1744L198.533 143.429C199.265 146.193 202.096 147.839 204.859 147.109L237.594 138.456C240.358 137.725 242.006 134.891 241.275 132.127L220.026 51.8718C219.294 49.1097 216.462 47.4624 213.699 48.1926Z" fill="#FAFAFA"/>
<path d="M215.904 55.4126C215.964 55.6387 215.829 55.8709 215.603 55.9308C215.377 55.9908 215.145 55.8563 215.085 55.6302C215.025 55.4041 215.16 55.1719 215.386 55.1119C215.612 55.052 215.844 55.1865 215.904 55.4126Z" fill="#263238"/>
<path d="M216.295 56.8855C216.355 57.1116 216.22 57.3438 215.993 57.4038C215.767 57.4637 215.536 57.3292 215.475 57.1026C215.415 56.8765 215.55 56.6443 215.776 56.5844C216.002 56.5249 216.234 56.6594 216.295 56.8855Z" fill="#263238"/>
<path d="M216.685 58.3579C216.745 58.584 216.611 58.8162 216.385 58.8761C216.158 58.9361 215.926 58.8016 215.866 58.5755C215.806 58.3494 215.941 58.1172 216.167 58.0572C216.394 57.9973 216.625 58.1318 216.685 58.3579Z" fill="#263238"/>
<path d="M233.65 117.599L201.403 126.735C200.325 127.041 199.203 126.414 198.897 125.336L193.506 106.306C193.2 105.227 193.827 104.106 194.905 103.8L227.152 94.6633C228.231 94.3579 229.353 94.9842 229.658 96.0627L235.05 115.093C235.355 116.171 234.728 117.293 233.65 117.599Z" fill="#C567FE"/>
<path d="M200.39 107.904C200.473 108.197 200.289 108.433 199.843 108.559L198.965 108.808L198.484 107.111L199.313 106.876C199.738 106.755 200.006 106.871 200.081 107.135C200.129 107.304 200.079 107.46 199.961 107.572C200.168 107.579 200.33 107.69 200.39 107.904ZM198.958 107.296L199.072 107.696L199.462 107.586C199.653 107.531 199.738 107.434 199.701 107.301C199.663 107.167 199.54 107.131 199.349 107.185L198.958 107.296ZM199.983 107.975C199.943 107.832 199.815 107.795 199.611 107.852L199.153 107.982L199.272 108.402L199.73 108.272C199.933 108.214 200.024 108.12 199.983 107.975Z" fill="white"/>
<path d="M201.833 107.603L201.045 107.827L200.998 108.233L200.596 108.347L200.871 106.436L201.259 106.326L202.499 107.808L202.087 107.925L201.833 107.603ZM201.625 107.341L201.172 106.767L201.087 107.493L201.625 107.341Z" fill="white"/>
<path d="M203.75 105.619L204.231 107.316L203.908 107.408L202.77 106.617L203.062 107.648L202.674 107.758L202.193 106.06L202.518 105.968L203.654 106.759L203.362 105.729L203.75 105.619Z" fill="white"/>
<path d="M205.061 106.361L204.9 106.663L205.022 107.092L204.632 107.203L204.151 105.506L204.541 105.395L204.766 106.188L205.293 105.182L205.729 105.059L205.24 106.014L206.251 106.744L205.792 106.873L205.061 106.361Z" fill="white"/>
<path d="M202.072 115.052L201.76 115.14L201.877 115.55L201.717 115.595L201.6 115.185L200.722 115.434L200.689 115.319L201.222 114.052L201.4 114.002L200.889 115.233L201.565 115.042L201.463 114.681L201.619 114.637L201.721 114.998L202.032 114.91L202.072 115.052Z" fill="white"/>
<path d="M203.205 114.69C203.279 114.95 203.146 115.204 202.77 115.31C202.546 115.374 202.307 115.357 202.152 115.269L202.194 115.12C202.324 115.196 202.526 115.221 202.729 115.163C202.987 115.09 203.095 114.93 203.04 114.736C202.987 114.549 202.821 114.464 202.532 114.546L202.42 114.577L202.387 114.459L202.665 113.796L201.869 114.022L201.828 113.879L202.83 113.596L202.862 113.709L202.578 114.388C202.918 114.312 203.135 114.441 203.205 114.69Z" fill="white"/>
<path d="M204.461 114.322C204.536 114.587 204.41 114.846 204.03 114.954C203.805 115.018 203.569 115.001 203.415 114.912L203.457 114.763C203.586 114.84 203.786 114.865 203.986 114.808C204.25 114.733 204.354 114.564 204.3 114.375C204.244 114.175 204.084 114.085 203.688 114.198L203.356 114.292L203.215 113.488L204.068 113.246L204.108 113.389L203.396 113.591L203.483 114.102L203.684 114.045C204.153 113.912 204.384 114.046 204.461 114.322Z" fill="white"/>
<path d="M205.833 113.927C205.915 114.218 205.739 114.47 205.436 114.556C205.022 114.673 204.716 114.45 204.577 113.958C204.426 113.428 204.637 113.07 205.06 112.951C205.201 112.911 205.339 112.898 205.454 112.93L205.426 113.078C205.331 113.047 205.218 113.057 205.102 113.09C204.766 113.185 204.611 113.462 204.731 113.885C204.741 113.92 204.756 113.964 204.774 114.01C204.803 113.816 204.958 113.669 205.175 113.608C205.484 113.52 205.752 113.642 205.833 113.927ZM205.675 113.976C205.617 113.771 205.429 113.683 205.189 113.751C204.951 113.818 204.83 114.011 204.885 114.205C204.933 114.376 205.122 114.498 205.391 114.422C205.615 114.358 205.734 114.182 205.675 113.976Z" fill="white"/>
<path d="M209.331 113.438L208.82 113.054L208.585 113.65L208.407 113.7L208.7 112.968L208.098 112.523L208.276 112.473L208.757 112.832L208.979 112.274L209.153 112.225L208.873 112.919L209.511 113.387L209.331 113.438Z" fill="white"/>
<path d="M210.519 113.1L210.009 112.716L209.774 113.312L209.596 113.362L209.888 112.63L209.286 112.185L209.464 112.135L209.946 112.494L210.167 111.936L210.341 111.887L210.062 112.582L210.699 113.05L210.519 113.1Z" fill="white"/>
<path d="M211.707 112.764L211.197 112.38L210.962 112.976L210.783 113.026L211.076 112.294L210.474 111.85L210.652 111.799L211.133 112.158L211.355 111.6L211.529 111.551L211.25 112.245L211.887 112.713L211.707 112.764Z" fill="white"/>
<path d="M212.895 112.428L212.385 112.044L212.15 112.64L211.972 112.69L212.265 111.958L211.663 111.514L211.841 111.463L212.322 111.822L212.544 111.264L212.718 111.215L212.439 111.91L213.076 112.378L212.895 112.428Z" fill="white"/>
<path d="M216.998 111.266L216.488 110.882L216.253 111.478L216.075 111.528L216.368 110.796L215.766 110.352L215.944 110.301L216.425 110.66L216.647 110.102L216.821 110.053L216.542 110.748L217.179 111.216L216.998 111.266Z" fill="white"/>
<path d="M218.186 110.928L217.676 110.544L217.441 111.14L217.263 111.19L217.555 110.458L216.953 110.014L217.131 109.963L217.613 110.322L217.834 109.764L218.008 109.715L217.729 110.41L218.366 110.878L218.186 110.928Z" fill="white"/>
<path d="M219.374 110.592L218.864 110.208L218.629 110.804L218.451 110.854L218.744 110.122L218.142 109.678L218.32 109.627L218.801 109.986L219.023 109.428L219.197 109.379L218.917 110.073L219.555 110.541L219.374 110.592Z" fill="white"/>
<path d="M220.563 110.255L220.053 109.87L219.818 110.466L219.639 110.516L219.932 109.784L219.33 109.34L219.508 109.289L219.989 109.648L220.211 109.09L220.385 109.041L220.105 109.735L220.743 110.204L220.563 110.255Z" fill="white"/>
<path d="M223.806 107.654L224.248 109.212L224.088 109.257L223.687 107.842L223.319 107.946L223.279 107.803L223.806 107.654Z" fill="white"/>
<path d="M225.523 108.368C225.596 108.628 225.464 108.882 225.088 108.988C224.863 109.052 224.625 109.035 224.47 108.947L224.512 108.798C224.642 108.874 224.844 108.899 225.047 108.841C225.305 108.768 225.413 108.607 225.358 108.414C225.305 108.227 225.139 108.142 224.85 108.224L224.738 108.255L224.705 108.137L224.983 107.474L224.187 107.7L224.146 107.557L225.148 107.273L225.18 107.387L224.896 108.066C225.236 107.99 225.452 108.118 225.523 108.368Z" fill="white"/>
<path d="M227.082 107.966L226.771 108.054L226.887 108.464L226.727 108.509L226.611 108.099L225.732 108.349L225.699 108.233L226.232 106.967L226.411 106.916L225.899 108.147L226.575 107.956L226.473 107.595L226.629 107.551L226.731 107.911L227.043 107.823L227.082 107.966Z" fill="white"/>
<path d="M228.36 107.892L228.4 108.035L227.307 108.345L227.275 108.231L227.743 107.414C227.87 107.191 227.873 107.076 227.843 106.97C227.792 106.789 227.634 106.714 227.396 106.782C227.213 106.834 227.088 106.929 227.02 107.076L226.878 107.01C226.958 106.834 227.129 106.699 227.367 106.631C227.684 106.542 227.929 106.645 228.003 106.905C228.045 107.055 228.036 107.201 227.885 107.465L227.502 108.136L228.36 107.892Z" fill="white"/>
<path d="M200.952 119.305C200.888 119.081 201.015 118.872 201.246 118.806C201.375 118.77 201.495 118.786 201.59 118.851L201.508 118.984C201.442 118.941 201.371 118.929 201.297 118.95C201.157 118.99 201.086 119.115 201.126 119.255C201.166 119.396 201.292 119.465 201.431 119.426C201.506 119.405 201.56 119.357 201.593 119.285L201.733 119.355C201.687 119.462 201.593 119.539 201.464 119.575C201.233 119.641 201.016 119.529 200.952 119.305Z" fill="white"/>
<path d="M202.313 119.15L201.968 119.247L201.948 119.425L201.771 119.475L201.892 118.638L202.062 118.59L202.605 119.239L202.425 119.29L202.313 119.15ZM202.222 119.034L202.024 118.783L201.987 119.101L202.222 119.034Z" fill="white"/>
<path d="M203.157 119.083L202.955 118.916L202.947 118.919L202.797 118.961L202.855 119.169L202.684 119.217L202.473 118.474L202.795 118.383C202.993 118.326 203.147 118.394 203.194 118.561C203.226 118.672 203.192 118.77 203.108 118.839L203.342 119.031L203.157 119.083ZM202.825 118.525L202.685 118.565L202.758 118.824L202.898 118.784C203.004 118.755 203.043 118.69 203.02 118.61C202.997 118.528 202.93 118.495 202.825 118.525Z" fill="white"/>
<path d="M203.386 118.937L203.408 118.791C203.483 118.819 203.586 118.824 203.675 118.799C203.777 118.77 203.809 118.725 203.795 118.679C203.756 118.539 203.351 118.758 203.273 118.481C203.237 118.355 203.309 118.221 203.52 118.161C203.614 118.135 203.716 118.13 203.797 118.154L203.781 118.3C203.701 118.28 203.624 118.281 203.558 118.3C203.456 118.329 203.428 118.379 203.441 118.425C203.48 118.562 203.885 118.345 203.963 118.618C203.998 118.742 203.925 118.878 203.712 118.938C203.595 118.971 203.466 118.969 203.386 118.937Z" fill="white"/>
<path d="M204.916 117.781L205.126 118.525L204.955 118.573L204.868 118.268L204.53 118.364L204.617 118.669L204.445 118.718L204.234 117.974L204.406 117.926L204.489 118.219L204.827 118.123L204.744 117.83L204.916 117.781Z" fill="white"/>
<path d="M205.152 118.116C205.089 117.895 205.215 117.683 205.45 117.616C205.683 117.55 205.902 117.664 205.965 117.885C206.028 118.107 205.901 118.319 205.667 118.385C205.433 118.452 205.215 118.337 205.152 118.116ZM205.791 117.935C205.751 117.794 205.624 117.725 205.492 117.763C205.359 117.8 205.286 117.925 205.326 118.067C205.367 118.208 205.494 118.276 205.627 118.238C205.759 118.201 205.831 118.076 205.791 117.935Z" fill="white"/>
<path d="M205.992 117.476L206.164 117.428L206.334 118.031L206.707 117.925L206.747 118.065L206.202 118.22L205.992 117.476Z" fill="white"/>
<path d="M206.634 117.293L206.971 117.197C207.215 117.128 207.423 117.228 207.487 117.453C207.55 117.678 207.425 117.871 207.182 117.941L206.844 118.037L206.634 117.293ZM207.133 117.802C207.281 117.76 207.353 117.645 207.312 117.502C207.271 117.36 207.15 117.299 207.002 117.341L206.845 117.386L206.976 117.846L207.133 117.802Z" fill="white"/>
<path d="M208.259 117.487L208.298 117.624L207.723 117.787L207.512 117.044L208.074 116.885L208.113 117.023L207.722 117.134L207.768 117.295L208.113 117.197L208.151 117.331L207.806 117.429L207.854 117.601L208.259 117.487Z" fill="white"/>
<path d="M208.91 117.452L208.708 117.286L208.699 117.288L208.55 117.331L208.608 117.538L208.437 117.586L208.226 116.843L208.548 116.752C208.746 116.696 208.9 116.764 208.947 116.93C208.978 117.042 208.945 117.139 208.86 117.208L209.095 117.4L208.91 117.452ZM208.578 116.895L208.438 116.934L208.511 117.194L208.651 117.154C208.757 117.124 208.796 117.06 208.773 116.979C208.75 116.898 208.683 116.865 208.578 116.895Z" fill="white"/>
<path d="M212.244 119.532L202.144 122.394C201.888 122.467 201.622 122.318 201.549 122.062L201.541 122.035C201.469 121.78 201.617 121.513 201.873 121.441L211.974 118.579C212.23 118.506 212.496 118.655 212.569 118.911L212.576 118.938C212.648 119.194 212.5 119.46 212.244 119.532Z" fill="white"/>
<path d="M230.469 114.368L225.27 115.841C225.014 115.914 224.748 115.765 224.675 115.51L224.667 115.483C224.595 115.227 224.743 114.961 225 114.888L230.199 113.415C230.455 113.342 230.721 113.491 230.793 113.747L230.801 113.774C230.873 114.029 230.725 114.296 230.469 114.368Z" fill="white"/>
<g opacity="0.2">
<path d="M227.907 94.4498L194.15 104.014C193.489 104.201 193.104 104.889 193.292 105.551L195.007 111.607C197.562 112.49 200.565 111.922 203.01 110.642C205.892 109.134 208.222 106.782 210.713 104.689C213.203 102.596 216.047 100.677 219.281 100.332C222.334 100.006 225.329 101.116 228.34 101.713C229.313 101.906 230.336 102.028 231.349 102.036L229.443 95.3084C229.256 94.6466 228.568 94.2624 227.907 94.4498Z" fill="white"/>
</g>
<path d="M188.559 64.6076C189.074 65.7776 188.317 67.0922 187.047 67.2338C186.256 67.322 185.466 66.868 185.145 66.1392C184.63 64.9691 185.387 63.6546 186.657 63.513C187.449 63.4242 188.238 63.8783 188.559 64.6076Z" fill="#C567FE"/>
<path d="M205.639 61.1634L193.65 64.3918C193.226 64.5065 192.788 64.2545 192.674 63.8297L192.662 63.7853C192.547 63.3605 192.799 62.923 193.224 62.8087L205.213 59.5803C205.638 59.466 206.075 59.7176 206.189 60.1424L206.201 60.1868C206.316 60.6116 206.064 61.0491 205.639 61.1634Z" fill="#E0E0E0"/>
<path d="M213.186 78.2732C213.143 78.2737 213.261 77.5341 213.046 76.2327C212.95 75.5823 212.709 74.804 212.301 73.9676C211.888 73.1341 211.269 72.2486 210.393 71.4689C209.52 70.6962 208.395 70.008 207.062 69.6592C205.737 69.3194 204.217 69.2377 202.729 69.6686C201.982 69.8617 201.25 70.1855 200.567 70.6141C200.215 70.8151 199.901 71.0776 199.574 71.3273C199.274 71.6095 198.96 71.8837 198.694 72.2104C197.577 73.4664 196.868 75.1415 196.705 76.9143C196.575 78.69 197 80.459 197.897 81.8816C198.105 82.247 198.37 82.5694 198.62 82.8969C198.902 83.1971 199.169 83.5072 199.483 83.7635C200.086 84.2983 200.756 84.7382 201.461 85.0506C202.859 85.7195 204.372 85.8875 205.735 85.769C207.107 85.643 208.329 85.1484 209.317 84.5286C210.309 83.9028 211.065 83.1306 211.608 82.3758C212.147 81.6173 212.512 80.889 212.714 80.2632C213.139 79.0147 213.144 78.2652 213.186 78.2732C213.19 78.2737 213.189 78.3195 213.181 78.4082C213.171 78.5111 213.157 78.6414 213.14 78.8033C213.125 78.9779 213.098 79.1927 213.034 79.4409C212.979 79.6906 212.922 79.9814 212.805 80.2938C212.614 80.9315 212.258 81.6763 211.72 82.4551C211.178 83.2301 210.417 84.0259 209.411 84.6745C208.409 85.3164 207.162 85.8323 205.756 85.9711C204.36 86.1018 202.807 85.9371 201.367 85.256C200.641 84.9374 199.951 84.488 199.328 83.9396C199.005 83.6767 198.729 83.359 198.439 83.0503C198.18 82.7143 197.908 82.3829 197.692 82.0072C196.767 80.5449 196.325 78.7216 196.46 76.8931C196.627 75.0679 197.361 73.3422 198.513 72.0513C198.787 71.7162 199.11 71.4339 199.42 71.1446C199.757 70.8878 200.081 70.6197 200.443 70.4135C201.147 69.9745 201.901 69.6441 202.67 69.4487C204.201 69.0126 205.76 69.1041 207.116 69.4614C208.48 69.8282 209.625 70.5414 210.509 71.3386C211.396 72.1429 212.017 73.0529 212.424 73.9058C212.827 74.762 213.057 75.5554 213.141 76.2158C213.206 76.5429 213.214 76.8393 213.228 77.0946C213.25 77.35 213.242 77.5661 213.228 77.7413C213.218 77.9041 213.21 78.0344 213.203 78.1377C213.196 78.2279 213.19 78.2732 213.186 78.2732Z" fill="#C567FE"/>
<path d="M200.519 79.4861L201.459 77.7265L204.523 79.1396L207.685 73.5332L209.348 74.5032L205.361 81.9131L200.519 79.4861Z" fill="#C567FE"/>
<path d="M217.38 87.4493L198.526 92.7909C197.915 92.9641 197.279 92.6092 197.106 91.9979L197.088 91.9342C196.915 91.323 197.27 90.6872 197.881 90.5144L216.735 85.1728C217.346 84.9996 217.982 85.3545 218.155 85.9658L218.173 86.0295C218.346 86.6407 217.991 87.2765 217.38 87.4493Z" fill="#E0E0E0"/>
<defs>
<linearGradient id="paint0_linear_608_18700" x1="156" y1="39" x2="156" y2="236" gradientUnits="userSpaceOnUse">
<stop stop-color="#CF69FF"/>
<stop offset="1" stop-color="#6356EF"/>
</linearGradient>
</defs>
</svg>
