<svg width="36" height="32" viewBox="0 0 36 32" fill="none" xmlns="http://www.w3.org/2000/svg">
<path d="M17.1063 16.005H4.80273M4.45398 17.5569L2.42126 23.4C1.30795 26.6002 0.751297 28.2003 1.15078 29.1855C1.49768 30.0413 2.24276 30.69 3.16216 30.9371C4.22086 31.2213 5.81992 30.5288 9.01802 29.1441L29.5209 20.2657C32.6425 18.9139 34.2033 18.2381 34.6856 17.2992C35.1048 16.4835 35.1048 15.5262 34.6856 14.7105C34.2033 13.7718 32.6425 13.0959 29.5209 11.7441L8.98266 2.85052C5.79418 1.46984 4.19997 0.779486 3.14231 1.06269C2.22379 1.30862 1.47878 1.95564 1.13067 2.80976C0.729812 3.79326 1.28052 5.38988 2.38195 8.58313L4.45793 14.6019C4.64709 15.1503 4.74169 15.4246 4.77902 15.705C4.81215 15.9539 4.81181 16.2059 4.77802 16.4547C4.73993 16.735 4.64462 17.0089 4.45398 17.5569Z" stroke="white" stroke-width="2" stroke-linecap="round" stroke-linejoin="round"/>
</svg>
