<svg width="374" height="378" viewBox="0 0 374 378" fill="none" xmlns="http://www.w3.org/2000/svg">
<path d="M0 374.725H109.127C117.411 374.725 124.127 368.009 124.127 359.725V264.817C124.127 256.533 117.411 249.817 109.127 249.817H0" stroke="url(#paint0_linear_790_3656)" stroke-width="5"/>
<rect width="124.127" height="124.908" rx="15" transform="matrix(1 0 0 -1 124.127 375.035)" stroke="#CACACA" stroke-width="5"/>
<path d="M245.754 360.035C245.754 369.7 253.589 377.535 263.254 377.535H372.381V372.535H263.254C256.351 372.535 250.754 366.939 250.754 360.035H245.754ZM372.381 247.627H263.254C253.589 247.627 245.754 255.462 245.754 265.127H250.754C250.754 258.224 256.351 252.627 263.254 252.627H372.381V247.627ZM263.254 247.627C253.589 247.627 245.754 255.462 245.754 265.127V360.035C245.754 369.7 253.589 377.535 263.254 377.535V372.535C256.351 372.535 250.754 366.939 250.754 360.035V265.127C250.754 258.224 256.351 252.627 263.254 252.627V247.627ZM372.381 375.035V250.127V375.035Z" fill="url(#paint1_linear_790_3656)"/>
<path d="M0 249.816H109.127C117.411 249.816 124.127 243.101 124.127 234.816V139.909C124.127 131.624 117.411 124.909 109.127 124.909H0" stroke="url(#paint2_linear_790_3656)" stroke-width="5"/>
<rect width="124.127" height="124.908" rx="15" transform="matrix(1 0 0 -1 124.127 250.127)" stroke="#CACACA" stroke-width="5"/>
<path d="M245.754 235.127C245.754 244.792 253.589 252.627 263.254 252.627H372.381V247.627H263.254C256.351 247.627 250.754 242.031 250.754 235.127H245.754ZM372.381 122.719H263.254C253.589 122.719 245.754 130.554 245.754 140.219H250.754C250.754 133.316 256.351 127.719 263.254 127.719H372.381V122.719ZM263.254 122.719C253.589 122.719 245.754 130.554 245.754 140.219V235.127C245.754 244.792 253.589 252.627 263.254 252.627V247.627C256.351 247.627 250.754 242.031 250.754 235.127V140.219C250.754 133.316 256.351 127.719 263.254 127.719V122.719ZM372.381 250.127V125.219V250.127Z" fill="url(#paint3_linear_790_3656)"/>
<path d="M121.627 110.219C121.627 119.884 129.462 127.719 139.127 127.719H233.254C242.919 127.719 250.754 119.884 250.754 110.219H245.754C245.754 117.122 240.158 122.719 233.254 122.719H139.127C132.223 122.719 126.627 117.122 126.627 110.219H121.627ZM248.254 0.310966H124.127H248.254ZM121.627 0.310966V110.219C121.627 119.884 129.462 127.719 139.127 127.719V122.719C132.223 122.719 126.627 117.122 126.627 110.219V0.310966H121.627ZM233.254 127.719C242.919 127.719 250.754 119.884 250.754 110.219V0.310966H245.754V110.219C245.754 117.122 240.158 122.719 233.254 122.719V127.719Z" fill="#CACACA"/>
<path d="M372.381 125.219H263.254C254.97 125.219 248.254 118.503 248.254 110.219V0.310966" stroke="url(#paint4_linear_790_3656)" stroke-width="5"/>
<path d="M0 124.908H109.127C117.411 124.908 124.127 118.192 124.127 109.908V0.000419617" stroke="url(#paint5_linear_790_3656)" stroke-width="5"/>
<defs>
<linearGradient id="paint0_linear_790_3656" x1="114" y1="312.127" x2="7.5" y2="312.127" gradientUnits="userSpaceOnUse">
<stop stop-color="#B6B6B6"/>
<stop offset="0.947214" stop-color="#0D0D0D"/>
</linearGradient>
<linearGradient id="paint1_linear_790_3656" x1="235.5" y1="312.437" x2="310" y2="312.437" gradientUnits="userSpaceOnUse">
<stop stop-color="#B6B6B6"/>
<stop offset="1" stop-color="#0D0D0D"/>
</linearGradient>
<linearGradient id="paint2_linear_790_3656" x1="121" y1="199.219" x2="22.5" y2="199.219" gradientUnits="userSpaceOnUse">
<stop stop-color="#B6B6B6"/>
<stop offset="1" stop-color="#0D0D0D"/>
</linearGradient>
<linearGradient id="paint3_linear_790_3656" x1="239.5" y1="198.371" x2="304.5" y2="197.371" gradientUnits="userSpaceOnUse">
<stop stop-color="#B6B6B6"/>
<stop offset="1" stop-color="#0D0D0D"/>
</linearGradient>
<linearGradient id="paint4_linear_790_3656" x1="241" y1="125.311" x2="282.5" y2="87" gradientUnits="userSpaceOnUse">
<stop stop-color="#B6B6B6"/>
<stop offset="1" stop-color="#0D0D0D"/>
</linearGradient>
<linearGradient id="paint5_linear_790_3656" x1="80.5" y1="76.5" x2="131.5" y2="125.311" gradientUnits="userSpaceOnUse">
<stop stop-color="#0D0D0D"/>
<stop offset="1" stop-color="#F2F2F2"/>
</linearGradient>
</defs>
</svg>
